<?xml version="1.0" encoding="UTF-8"?>
<!DOCTYPE svg PUBLIC "-//W3C//DTD SVG 1.1//EN" "http://www.w3.org/Graphics/SVG/1.1/DTD/svg11.dtd">
<!-- Creator: CorelDRAW X7 -->
<svg xmlns="http://www.w3.org/2000/svg" xml:space="preserve" width="2362px" height="2362px" version="1.1" style="shape-rendering:geometricPrecision; text-rendering:geometricPrecision; image-rendering:optimizeQuality; fill-rule:evenodd; clip-rule:evenodd"
viewBox="0 0 2362 2362"
 xmlns:xlink="http://www.w3.org/1999/xlink">
 <defs>
  <style type="text/css">
   <![CDATA[
    .fil4 {fill:black}
    .fil0 {fill:#080E27}
    .fil1 {fill:#4CCC9C}
    .fil3 {fill:#989898}
    .fil5 {fill:#FC0002}
    .fil2 {fill:white}
   ]]>
  </style>
 </defs>
 <g id="Layer_x0020_1">
  <metadata id="CorelCorpID_0Corel-Layer"/>
  <g id="_2132928737136">
   <path class="fil0" d="M1189 1546c7,2 23,-1 35,17 2,2 6,7 2,9 -7,4 -23,3 -32,-3 -18,-11 -17,-39 -5,-54 2,-3 11,-10 16,-9 4,6 3,19 -1,25 -1,4 -4,6 -7,8 -6,5 -8,4 -8,7zm-33 -2c0,0 0,0 -1,0 0,-1 -1,-1 -2,-1 -1,-1 -2,-2 -3,-2 -8,-5 -13,-13 -14,-22 0,-4 0,-8 1,-11 1,-5 3,-4 7,-2 32,17 27,77 -23,66 -3,-1 -6,-2 -4,-5 1,-4 6,-9 9,-12 7,-7 17,-9 31,-9l-1 -2zm75 -47c3,-1 3,1 4,3 2,7 2,14 0,20 -3,8 -6,10 -11,13 -3,2 -2,4 2,4 15,-2 24,3 32,14 4,4 3,6 -3,7 -39,10 -49,-27 -40,-46 2,-5 11,-14 16,-15zm-109 38c0,0 0,0 -1,-2l-6 -4c-8,-7 -9,-21 -6,-31 2,-5 6,-2 8,0 3,2 5,4 7,6 4,6 8,11 8,21 0,27 -22,41 -46,31 -7,-3 4,-12 7,-14 13,-10 24,-5 29,-7zm131 -12c14,0 22,-3 34,10 3,3 5,5 -1,8 -7,3 -16,5 -24,2 -3,-2 -8,-4 -10,-6 -2,-2 -4,-5 -6,-9 -9,-17 -2,-33 10,-42 5,-3 5,-1 7,4 3,11 1,21 -6,29 -2,2 -3,2 -4,4zm-174 -25c0,-5 2,-14 6,-14 3,-1 8,5 10,8 6,6 9,18 6,28 -11,33 -44,22 -46,17 -1,-4 6,-9 9,-11 14,-8 19,-4 29,-3 -1,-3 -3,-4 -5,-5 -1,-1 -3,-4 -4,-5 -3,-5 -5,-9 -5,-15zm205 8c3,1 8,-1 12,0 11,0 23,12 21,15 -1,1 -6,4 -8,5 -3,1 -7,2 -11,2 -23,0 -35,-28 -27,-44 2,-5 8,-11 12,-13 4,-1 5,3 7,6 7,18 -6,25 -6,29zm-230 -21c0,-5 1,-9 3,-13 4,-6 13,8 15,11 8,16 -4,42 -26,42 -6,0 -17,-3 -18,-6 0,-4 3,-6 5,-7 12,-11 25,-5 31,-5 -1,-3 -2,-3 -4,-5 -4,-4 -6,-11 -6,-17zm254 7c9,-3 13,-5 23,0 6,2 16,8 7,13 -16,9 -30,4 -37,-8 -11,-16 -7,-28 4,-38 4,-4 6,-2 8,2 3,7 3,15 0,22 -2,4 -4,6 -5,9zm-269 0c-2,-4 -5,-6 -7,-10 -2,-5 -3,-10 -2,-16 3,-16 11,-9 15,0 5,9 5,20 -1,28 -17,24 -39,9 -41,7 0,-6 9,-11 15,-12 11,-2 17,3 21,3zm279 -29c0,-9 5,-16 9,-20 7,-6 11,9 11,15 0,9 -3,11 -5,15 9,-2 16,-4 26,3 4,2 8,4 3,8 -2,2 -6,5 -10,6 -18,6 -34,-12 -34,-27zm-319 7c4,0 7,1 9,1 7,0 -7,-6 0,-24 4,-9 5,-9 11,-3 5,6 6,9 6,17 0,15 -13,30 -28,29 -5,-1 -18,-7 -17,-11 1,-2 6,-6 8,-7 3,-1 7,-2 11,-2zm353 -12c4,-1 14,-10 28,-1 3,2 5,3 2,7 -3,3 -10,7 -17,6 -7,0 -13,-5 -16,-8 -10,-11 -11,-23 -1,-34 4,-4 5,0 7,3 8,17 -1,20 -3,27zm-360 -2c-1,-3 -3,-4 -4,-8 -3,-6 -2,-13 1,-19 2,-3 4,-5 7,-2 20,17 -9,58 -34,35 -4,-4 -2,-5 2,-6 18,-10 21,0 28,0zm385 -21c7,-2 10,-4 18,-1 8,3 11,5 5,11 -10,9 -23,8 -32,-1 -2,-3 -6,-9 -8,-14 -1,-7 2,-13 5,-17 4,-6 7,-4 11,4 3,7 3,10 1,18zm-405 2c0,-2 -3,-4 -4,-8 -3,-10 5,-23 9,-19 5,4 9,17 4,25 -2,4 -2,4 -7,4 -2,7 -9,11 -17,10 -5,-1 -16,-8 -15,-12 3,-3 10,-5 15,-5 8,0 11,4 15,5zm406 -30c0,-4 2,-8 4,-11 3,-4 5,-2 7,1 2,3 4,6 5,10 0,6 -3,8 -3,12 1,0 0,0 1,-1l3 -2c8,-5 28,-4 21,5 -2,3 -3,5 -7,6 -3,2 -7,3 -11,2 -8,-1 -20,-11 -20,-22zm13 12c-1,0 0,0 0,0l0 0zm-438 -3c0,-3 -4,-8 0,-17 7,-16 16,0 12,13 -2,6 -5,7 -9,11 -4,4 -8,6 -16,4 -7,-1 -19,-11 -11,-14 3,-1 6,-2 9,-2 6,0 11,4 13,5 2,0 1,0 2,0zm-35 -27c12,-2 30,13 18,16 -7,1 -14,-1 -17,-4 -3,-2 -10,-11 -1,-12zm505 1c7,0 11,1 8,7 -2,4 -5,7 -8,9 -10,5 -19,-2 -25,-6 -9,-8 -6,-21 -2,-24 3,-3 8,4 9,6 5,5 3,6 3,13 3,-1 6,-5 15,-5zm-15 4c0,1 0,1 0,1l0 -1zm-463 -19c6,-2 7,8 6,13 0,3 -5,11 -7,12 -8,2 -11,-20 1,-25zm-30 -12c0,-5 3,-12 5,-14 3,-1 15,14 12,28 -2,8 -8,3 -12,0 -4,-3 -5,-7 -5,-14zm508 -13c2,1 4,4 5,7 1,4 1,8 1,12 -3,9 -15,21 -17,6 -1,-5 -1,-6 0,-10 2,-4 8,-13 11,-15zm-520 -75c36,-11 88,-22 125,-27 131,-20 255,-14 383,15 10,3 20,6 30,8l14 4c-3,5 -29,33 -34,38 -2,3 -4,5 -7,8 -4,4 -9,9 -14,14 -3,2 -5,4 -8,7l-15 13c-19,15 -39,29 -60,41 -29,18 -65,35 -98,46 -10,3 -36,11 -45,12 -8,0 -38,-9 -47,-11 -41,-13 -82,-33 -117,-55 -6,-4 -12,-7 -17,-11l-25 -19c-11,-8 -35,-30 -45,-41l-7 -7c-4,-4 -25,-27 -27,-31 1,-1 2,-1 4,-1 1,0 2,-1 3,-1 2,-1 4,-1 7,-2zm-167 -107c3,-2 20,-9 24,-11 58,-23 117,-41 179,-55 196,-45 396,-33 587,29 16,5 33,11 49,17 8,3 16,6 24,10 4,1 21,8 23,10l-34 144c-3,-1 -8,-3 -11,-4 -56,-23 -116,-42 -176,-56 -143,-32 -301,-32 -444,1 -32,7 -66,16 -97,26 -15,5 -30,10 -45,16l-44 17 -35 -144zm788 -46c-6,-2 -13,-5 -20,-7 -33,-10 -70,-19 -104,-26l-44 -8c-1,0 -3,0 -4,-1 -2,0 -4,0 -4,-1 -1,0 -1,1 -3,0 0,0 -2,0 -3,0 -1,0 -3,-1 -5,-1 -8,-1 -18,-2 -26,-3 -9,-1 -18,-2 -27,-3l-41 -3c-4,-1 -10,-1 -14,-1l-10 -1c-10,1 -21,0 -31,0 -10,0 -20,0 -30,0l-11 0 -43 2 -15 1 0 0c-7,1 -14,2 -21,2 -6,1 -13,2 -20,3 -13,1 -26,3 -38,5l-11 1c0,-2 0,0 -1,-1l0 2 -9 1c-29,5 -60,12 -88,19 -28,7 -55,16 -81,25l-1 0 -12 3c-2,-8 -7,-21 -10,-32 -4,-11 -7,-22 -9,-34 -2,-5 -15,-68 -14,-72 13,-16 26,-33 39,-49l49 -60c10,-11 23,-30 32,-39 3,-3 5,-8 8,-9 6,0 14,0 20,-1 72,-5 187,-23 248,-58 3,-1 4,0 7,2 8,4 14,7 22,10 55,22 116,34 177,41 13,2 26,3 40,4 6,1 13,1 20,2 16,1 9,-3 26,18l93 114c1,2 3,4 4,6 2,2 4,4 5,6 7,9 7,3 3,25 -5,30 -11,60 -20,89 -3,11 -7,22 -11,32l-12 -3zm-644 -310c-3,1 -19,22 -22,26 -4,4 -7,8 -11,13l-21 25c-11,13 -21,26 -32,39 -3,4 -7,9 -10,13l-43 51c-2,3 -1,6 0,10l7 51c2,14 5,27 7,40 1,4 9,37 9,38 -1,2 -14,16 -17,20l-16 19c-1,1 -5,4 -5,6l21 86c6,25 11,50 18,75 4,-1 11,-4 15,-6 10,-4 39,-17 48,-19 2,2 5,11 7,14 5,10 9,19 15,28 8,13 15,26 23,39 12,17 23,33 35,49 9,11 17,22 27,32l12 13c2,2 4,4 5,6l16 15c2,2 3,4 5,6l11 10c2,1 4,3 6,5 1,1 1,1 3,2 45,40 109,80 166,101 4,1 12,4 16,3 30,-9 61,-23 87,-39 19,-11 46,-28 63,-42l12 -9c9,-7 17,-15 26,-22 1,-1 1,-1 2,-2 5,-6 11,-10 16,-15 7,-7 15,-16 21,-22 4,-3 6,-7 10,-11 9,-10 24,-29 33,-41l13 -18c3,-4 6,-8 9,-12l24 -39c4,-7 26,-46 29,-55 6,1 30,11 38,14 5,2 32,14 36,15l38 -162c-4,-2 -24,-23 -31,-29 -2,-2 -4,-4 -6,-6 -4,-3 -8,-9 -12,-11 1,-7 4,-17 5,-24 2,-8 4,-16 5,-25 5,-27 9,-54 13,-82 1,-5 -1,-6 -8,-14 -2,-2 -4,-5 -6,-8l-27 -31c-2,-3 -4,-6 -6,-8 -8,-10 -20,-24 -26,-32 -5,-7 -15,-18 -20,-24l-46 -56c-90,-2 -200,-16 -280,-60 -2,-2 -13,-8 -14,-8 -1,0 -12,6 -14,8 -37,19 -76,32 -117,41 -50,12 -109,19 -162,19z"/>
   <path class="fil1" d="M820 1127l-1 0 1 0c26,-9 53,-18 81,-25 28,-7 59,-14 88,-19 -17,-65 7,-128 38,-166 3,-2 5,-4 7,-7 8,-10 25,-24 36,-30 6,-4 11,-7 17,-10 54,-28 118,-28 172,0 20,10 39,24 54,40 8,10 10,12 17,22 29,41 39,95 29,145 -1,5 0,4 -3,4l44 8c34,7 71,16 104,26 7,2 14,5 20,7 0,-2 9,-27 10,-31 3,-11 6,-22 9,-33 4,-17 8,-34 11,-51 0,-5 2,-13 2,-18l-108 -133c-8,-9 -5,-8 -12,-8 -22,-2 -46,-4 -67,-7 -63,-7 -127,-20 -184,-45 -2,-1 -12,-6 -14,-6 -1,0 -5,3 -7,4 -2,1 -5,2 -7,3 -71,30 -163,46 -242,50 -2,1 -7,0 -9,2l-60 75c-7,7 -13,15 -19,23 -6,7 -12,15 -19,23 -3,4 -6,8 -9,11 -3,4 -6,8 -9,12 -3,4 -3,2 -2,8l5 27c5,26 13,57 21,83 2,5 4,10 6,16z"/>
   <path class="fil2" d="M862 1193c11,2 17,7 21,16 5,16 -7,28 -19,34 -4,2 -9,3 -15,4 -13,1 -19,-3 -30,-6l8 -20c-5,-3 -14,-3 -17,-16 -5,-20 14,-33 32,-35 5,0 10,0 15,1l11 3c2,1 1,0 2,1l-8 18zm74 -36c1,-3 4,-12 7,-13 2,-1 13,-3 16,-3l15 75 -26 6 -5 -23c-1,1 -9,23 -10,25 -4,-2 -14,-13 -20,-18l5 23 -26 7 -21 -74c3,-1 14,-4 17,-5 2,0 2,1 3,2l32 25 13 -27zm236 25l0 0c1,2 0,0 1,1l0 13 -17 0 -11 1 -2 -78 28 0 1 63zm87 -38l17 1c3,13 2,10 1,22l17 -32c2,-3 4,-7 6,-10l24 2c2,5 14,53 17,61l8 -57c6,0 35,5 43,7 14,3 22,10 23,26l5 -21c5,1 25,5 28,7 -2,9 -4,18 -6,27 -2,8 -8,22 3,24 10,2 11,-12 13,-20 2,-9 5,-18 7,-27 8,0 93,26 97,29l-8 24 -21 -7c-3,3 -14,46 -16,49l-26 -9 14 -48c-2,-1 -16,-6 -19,-6 -3,5 -3,19 -11,28 -21,25 -63,12 -65,-20 0,-9 3,-14 3,-21 -8,14 -9,10 -13,14l13 33 -31 -6c-2,-3 -7,-16 -9,-21 0,-3 -1,-6 -3,-7 -1,1 -1,0 -1,1 -1,2 -3,22 -4,23 -1,1 1,1 -1,1l-47 -7c-1,0 -9,-26 -11,-28l-12 18c-1,2 -2,5 -4,7l-29 -2 7 -15c-5,5 -4,5 -12,9 -24,12 -59,-2 -59,-36 0,-34 38,-46 62,-31 4,2 6,5 10,6 -2,3 -4,4 -5,6 -1,1 -4,5 -5,6zm9 40c1,0 0,1 0,0zm-160 -63l5 77c-4,0 -12,2 -15,1 -2,0 -2,0 -3,-1 -4,-3 -23,-19 -26,-21l3 25c-14,2 -27,3 -41,5 -13,2 -10,3 -17,-3 -5,-3 -9,-7 -14,-9 0,3 1,5 2,8 0,2 2,7 0,8l-20 4c-1,0 -2,0 -3,1 -1,0 -2,0 -2,0 -1,0 0,0 -1,0 0,-1 -14,-73 -14,-76l28 -5 2 11c10,-14 2,-11 18,-14 9,-2 19,-3 28,-4 8,-1 10,-2 14,1l27 20 -2 -25 31 -3zm-372 47l35 144 44 -17c15,-6 30,-11 45,-16 31,-10 65,-19 97,-26 143,-33 301,-33 444,-1 60,14 120,33 176,56 3,1 8,3 11,4l34 -144c-2,-2 -19,-9 -23,-10 -8,-4 -16,-7 -24,-10 -16,-6 -33,-12 -49,-17 -191,-62 -391,-74 -587,-29 -62,14 -121,32 -179,55 -4,2 -21,9 -24,11z"/>
   <path class="fil1" d="M1135 1352c6,0 11,-1 16,-1 12,0 13,1 14,-3 3,-8 5,-17 8,-25l9 28 30 1 -23 19 8 30 -23 -17c-3,1 -10,7 -13,9 -2,1 -9,7 -12,8l8 -30 -22 -19zm98 -1c2,-4 4,-13 5,-16 3,4 4,12 6,16l16 0c0,1 -4,5 -6,6 -9,7 -6,4 -2,23 -2,-2 -10,-8 -14,-10 -3,2 -10,8 -13,10 1,-4 5,-15 4,-18l-6 -5c-2,-1 -6,-4 -6,-6l16 0zm-124 -16c1,3 3,14 5,16 2,1 13,0 16,0l-12 12 4 17c-3,-2 -11,-9 -13,-10 -2,1 -8,6 -11,8 -2,1 -1,1 -3,2l4 -17c-5,-5 -8,-8 -12,-12l17 0 5 -16zm-206 -60c1,4 23,27 25,29 4,5 9,10 14,14 2,2 4,4 7,6 4,5 9,9 14,13 3,2 5,5 8,7 33,28 78,54 119,71 12,6 27,11 40,15 7,2 38,11 44,11 8,-1 34,-9 43,-12 33,-12 63,-25 93,-43 15,-9 35,-23 49,-33 1,-2 2,-2 3,-3 2,-1 3,-2 4,-3 4,-4 11,-9 15,-13l7 -6c2,-1 2,-2 4,-4 1,-1 2,-2 3,-3 3,-2 5,-4 8,-7 7,-7 13,-14 19,-21l19 -22c-10,-2 -20,-5 -30,-8 -128,-29 -252,-35 -383,-15 -37,5 -89,16 -125,27z"/>
   <path class="fil3" d="M880 812c53,0 112,-7 162,-19 41,-9 80,-22 117,-41 2,-2 13,-8 14,-8 1,0 12,6 14,8 80,44 190,58 280,60l46 56c5,6 15,17 20,24 6,8 18,22 26,32 2,2 4,5 6,8l27 31c2,3 4,6 6,8 7,8 9,9 8,14 -4,28 -8,55 -13,82 -1,9 -3,17 -5,25 -1,7 -4,17 -5,24 4,2 8,8 12,11 2,2 4,4 6,6 7,6 27,27 31,29l-38 162c-4,-1 -31,-13 -36,-15 -8,-3 -32,-13 -38,-14 -3,9 -25,48 -29,55l-24 39c-3,4 -6,8 -9,12l-13 18c-9,12 -24,31 -33,41 -4,4 -6,8 -10,11 -6,6 -14,15 -21,22 -5,5 -11,9 -16,15 -1,1 -1,1 -2,2 -9,7 -17,15 -26,22l-12 9c-17,14 -44,31 -63,42 -26,16 -57,30 -87,39 -4,1 -12,-2 -16,-3 -57,-21 -121,-61 -166,-101 -2,-1 -2,-1 -3,-2 -2,-2 -4,-4 -6,-5l-11 -10c-2,-2 -3,-4 -5,-6l-16 -15c-1,-2 -3,-4 -5,-6l-12 -13c-10,-10 -18,-21 -27,-32 -12,-16 -23,-32 -35,-49 -8,-13 -15,-26 -23,-39 -6,-9 -10,-18 -15,-28 -2,-3 -5,-12 -7,-14 -9,2 -38,15 -48,19 -4,2 -11,5 -15,6 -7,-25 -12,-50 -18,-75l-21 -86c0,-2 4,-5 5,-6l16 -19c3,-4 16,-18 17,-20 0,-1 -8,-34 -9,-38 -2,-13 -5,-26 -7,-40l-7 -51c-1,-4 -2,-7 0,-10l43 -51c3,-4 7,-9 10,-13 11,-13 21,-26 32,-39l21 -25c4,-5 7,-9 11,-13 3,-4 19,-25 22,-26zm295 -86l0 0c8,6 17,10 26,15l9 4c28,14 71,27 102,34 7,2 14,3 22,4 4,1 8,2 12,3 3,0 7,1 11,1l24 4c4,0 7,1 12,1 7,1 44,5 49,5 5,0 8,0 13,0 3,0 4,1 7,1 22,0 15,-4 25,8l43 52c2,2 4,4 6,7l31 37c9,11 20,26 30,37 7,8 17,21 24,30 4,4 5,4 5,8 -3,28 -9,66 -15,93 -1,8 -2,15 -4,22l-5 22c0,1 17,16 19,19 2,2 4,4 7,6 2,2 5,5 7,8 4,2 16,15 18,16 0,5 -3,17 -4,23 -2,7 -4,15 -5,23l-10 45c-3,13 -6,27 -9,40 -4,17 -7,34 -11,51 -2,0 -8,-3 -11,-4l-30 -13c-9,-3 -34,-13 -42,-15 -1,2 -2,3 -2,4l-9 17c-4,7 -8,14 -12,21 -7,13 -15,26 -24,39l-26 37c-5,6 -21,26 -27,32 -1,1 -1,1 -2,3l-10 11c-1,1 -2,2 -3,3 -4,5 -13,14 -18,18 -2,2 -3,4 -5,6l-39 35c-4,3 -8,6 -12,9 -8,6 -16,12 -24,18l-39 25c-2,1 -4,2 -7,3 -2,2 -4,3 -6,4 -9,5 -19,10 -28,14 -2,1 -3,1 -4,2l-11 5c-13,5 -25,11 -38,14 -8,2 -9,4 -17,2 -10,-4 -21,-7 -31,-11l-22 -10c-5,-2 -10,-4 -15,-7l-24 -13c-8,-4 -16,-9 -23,-13 -2,-2 -4,-3 -6,-5 -21,-14 -42,-28 -61,-45 -1,-1 -1,-1 -3,-2 -3,-4 -7,-7 -11,-10l-8 -8c-4,-3 -8,-7 -12,-11l-4 -4c0,0 -1,-1 -1,-1l-4 -5c-6,-5 -11,-11 -16,-16 -2,-2 -3,-4 -5,-5l-5 -6c-6,-8 -13,-15 -19,-23 -1,-2 -1,-2 -2,-3 -1,-2 -2,-2 -3,-3 -12,-15 -24,-34 -34,-50 -9,-12 -24,-37 -30,-50l-5 -10c-1,-2 -3,-4 -4,-7 -1,1 -3,1 -4,2l-58 23c-3,1 -7,3 -9,3 0,-2 -1,-4 -1,-6 -1,-2 -1,-3 -1,-5 -1,-4 -2,-8 -3,-12 -1,-4 -2,-7 -3,-11l-12 -57c-4,-15 -7,-30 -10,-45l-8 -34c-1,-4 -2,-8 -2,-12 0,-1 25,-29 29,-34 1,-2 3,-4 5,-6l5 -6c-11,-45 -20,-91 -25,-138 -1,-4 0,-5 2,-8l130 -158c2,-2 4,-5 6,-7 8,-10 6,-8 19,-8l13 -1c13,0 26,-2 39,-2 3,0 8,-1 12,-1 4,-1 8,-1 12,-2 4,0 8,-1 12,-1 25,-4 65,-10 91,-18 7,-2 14,-3 21,-6 17,-5 34,-11 50,-18 12,-5 24,-11 36,-18 3,-2 6,-3 9,-5z"/>
   <path class="fil4" d="M1325 965c2,6 5,12 8,19 5,14 8,31 8,46 1,5 1,22 -1,26 -11,1 -96,-10 -109,-12 -1,-11 11,-35 20,-45 16,-20 42,-34 74,-34zm-317 37c1,-6 6,-19 8,-25 6,-16 13,-27 23,-41 5,-7 10,-11 14,-17 7,2 20,11 24,14 7,5 17,16 22,24 9,16 14,30 14,50 0,3 0,15 -2,17 -1,1 -99,-20 -103,-22zm157 32c0,-5 4,-17 5,-22 10,-34 22,-68 39,-98 3,-5 17,-30 21,-34 6,1 22,10 28,13 20,11 35,25 49,43 4,5 9,13 12,18 -6,1 -10,1 -21,3 -10,3 -23,8 -32,14 -1,1 -2,2 -4,3 -22,15 -38,40 -42,68 -4,0 -53,-7 -55,-8zm-102 -123c2,-2 4,-4 7,-6 2,-2 4,-3 7,-5 17,-11 31,-19 52,-24 14,-4 30,-6 46,-6 9,0 38,3 44,6l-6 9c-13,23 -21,38 -32,64 -9,22 -22,59 -27,83 -5,0 -27,-5 -32,-6 4,-28 0,-51 -13,-72 -5,-9 -12,-18 -20,-25l-9 -7c-1,-1 -2,-2 -3,-3 -4,-3 -13,-7 -14,-8zm-65 169c1,1 1,-1 1,1l11 -1c-3,-10 -5,-21 -5,-32 -1,-13 0,-23 1,-35l77 17c8,1 18,3 26,5 -3,13 -13,28 -20,35l0 0 0 0 15 -1c1,-1 1,-2 2,-3l7 -12c2,-5 5,-12 7,-17l31 5 -4 25 11 0 4 -23 56 9 1 14 10 1 0 -13c8,0 19,2 27,3 9,2 18,3 27,4 19,2 37,4 56,5 0,2 -1,8 -2,11 2,0 4,1 5,1 1,0 3,0 3,0 2,1 2,0 3,0 7,-29 6,-63 -2,-90 -6,-19 -18,-44 -30,-59 -2,-2 -3,-5 -6,-7 -1,-1 -1,-2 -3,-3 -1,-2 -2,-2 -3,-4 -5,-5 -10,-10 -16,-15l-11 -8c-2,-2 -4,-3 -7,-5 -5,-4 -10,-7 -16,-10 -23,-11 -52,-19 -82,-19 -32,0 -56,8 -81,20 -6,3 -11,6 -16,9 -6,4 -10,7 -15,11l-13 12c-12,11 -26,30 -33,43 -13,26 -19,50 -20,80 -1,12 1,36 4,46z"/>
   <path class="fil2" d="M819 1127l1 0c-2,-6 -4,-11 -6,-16 -8,-26 -16,-57 -21,-83l-5 -27c-1,-6 -1,-4 2,-8 3,-4 6,-8 9,-12 3,-3 6,-7 9,-11 7,-8 13,-16 19,-23 6,-8 12,-16 19,-23l60 -75c2,-2 7,-1 9,-2 79,-4 171,-20 242,-50 2,-1 5,-2 7,-3 2,-1 6,-4 7,-4 2,0 12,5 14,6 57,25 121,38 184,45 21,3 45,5 67,7 7,0 4,-1 12,8l108 133c0,5 -2,13 -2,18 -3,17 -7,34 -11,51 -3,11 -6,22 -9,33 -1,4 -10,29 -10,31l12 3c4,-10 8,-21 11,-32 9,-29 15,-59 20,-89 4,-22 4,-16 -3,-25 -1,-2 -3,-4 -5,-6 -1,-2 -3,-4 -4,-6l-93 -114c-17,-21 -10,-17 -26,-18 -7,-1 -14,-1 -20,-2 -14,-1 -27,-2 -40,-4 -61,-7 -122,-19 -177,-41 -8,-3 -14,-6 -22,-10 -3,-2 -4,-3 -7,-2 -61,35 -176,53 -248,58 -6,1 -14,1 -20,1 -3,1 -5,6 -8,9 -9,9 -22,28 -32,39l-49 60c-13,16 -26,33 -39,49 -1,4 12,67 14,72 2,12 5,23 9,34 3,11 8,24 10,32l12 -3z"/>
   <path class="fil5" d="M1063 911c1,1 10,5 14,8 1,1 2,2 3,3l9 7c8,7 15,16 20,25 13,21 17,44 13,72 5,1 27,6 32,6 5,-24 18,-61 27,-83 11,-26 19,-41 32,-64l6 -9c-6,-3 -35,-6 -44,-6 -16,0 -32,2 -46,6 -21,5 -35,13 -52,24 -3,2 -5,3 -7,5 -3,2 -5,4 -7,6z"/>
   <path class="fil5" d="M1165 1034c2,1 51,8 55,8 4,-28 20,-53 42,-68 2,-1 3,-2 4,-3 9,-6 22,-11 32,-14 11,-2 15,-2 21,-3 -3,-5 -8,-13 -12,-18 -14,-18 -29,-32 -49,-43 -6,-3 -22,-12 -28,-13 -4,4 -18,29 -21,34 -17,30 -29,64 -39,98 -1,5 -5,17 -5,22z"/>
   <path class="fil2" d="M903 1275c-3,1 -5,1 -7,2 -1,0 -2,1 -3,1 -2,0 -3,0 -4,1 2,4 23,27 27,31l7 7c10,11 34,33 45,41l25 19c5,4 11,7 17,11 35,22 76,42 117,55 9,2 39,11 47,11 9,-1 35,-9 45,-12 33,-11 69,-28 98,-46 21,-12 41,-26 60,-41l15 -13c3,-3 5,-5 8,-7 5,-5 10,-10 14,-14 3,-3 5,-5 7,-8 5,-5 31,-33 34,-38l-14 -4 -19 22c-6,7 -12,14 -19,21 -3,3 -5,5 -8,7 -1,1 -2,2 -3,3 -2,2 -2,3 -4,4l-7 6c-4,4 -11,9 -15,13 -1,1 -2,2 -4,3 -1,1 -2,1 -3,3 -14,10 -34,24 -49,33 -30,18 -60,31 -93,43 -9,3 -35,11 -43,12 -6,0 -37,-9 -44,-11 -13,-4 -28,-9 -40,-15 -41,-17 -86,-43 -119,-71 -3,-2 -5,-5 -8,-7 -5,-4 -10,-8 -14,-13 -3,-2 -5,-4 -7,-6 -5,-4 -10,-9 -14,-14 -2,-2 -24,-25 -25,-29z"/>
   <path class="fil5" d="M1325 965c-32,0 -58,14 -74,34 -9,10 -21,34 -20,45 13,2 98,13 109,12 2,-4 2,-21 1,-26 0,-15 -3,-32 -8,-46 -3,-7 -6,-13 -8,-19z"/>
   <path class="fil5" d="M1008 1002c4,2 102,23 103,22 2,-2 2,-14 2,-17 0,-20 -5,-34 -14,-50 -5,-8 -15,-19 -22,-24 -4,-3 -17,-12 -24,-14 -4,6 -9,10 -14,17 -10,14 -17,25 -23,41 -2,6 -7,19 -8,25z"/>
   <path class="fil2" d="M989 1083l9 -1 0 -2c-3,-10 -5,-34 -4,-46 1,-30 7,-54 20,-80 7,-13 21,-32 33,-43l13 -12c5,-4 9,-7 15,-11 5,-3 10,-6 16,-9 25,-12 49,-20 81,-20 30,0 59,8 82,19 6,3 11,6 16,10 3,2 5,3 7,5l11 8c6,5 11,10 16,15 1,2 2,2 3,4 2,1 2,2 3,3 3,2 4,5 6,7 12,15 24,40 30,59 8,27 9,61 2,90 0,1 2,1 4,1 1,1 3,1 4,1 3,0 2,1 3,-4 10,-50 0,-104 -29,-145 -7,-10 -9,-12 -17,-22 -15,-16 -34,-30 -54,-40 -54,-28 -118,-28 -172,0 -6,3 -11,6 -17,10 -11,6 -28,20 -36,30 -2,3 -4,5 -7,7 -31,38 -55,101 -38,166z"/>
   <path class="fil4" d="M1268 1184c0,1 1,0 0,0zm226 -18c7,1 55,17 63,19l-6 17 -21 -7c-2,2 -7,20 -8,24 -1,4 -3,8 -4,12 -1,4 -3,9 -4,12l-18 -5 14 -49 -21 -7 5 -16zm-250 3c-6,5 -14,2 -17,-3 -4,-6 -2,-16 3,-18l-1 20 15 1zm24 26c2,-7 25,-49 30,-58 1,-2 3,-5 4,-8l19 2c1,3 18,65 19,72l-20 -3c-1,0 -12,-32 -13,-34 -4,7 -17,26 -19,31l-20 -2zm75 6c0,-1 0,-2 1,-3l8 -60c1,-3 1,-3 4,-2l16 2c16,3 30,4 36,15 3,6 3,13 1,20 -4,7 -9,9 -14,11 2,8 9,23 11,31 -4,-1 -7,-2 -11,-3 -13,-2 -9,2 -16,-16l-5 -13 -8 -2c-2,5 -2,21 -5,25l-18 -3 0 -2zm144 -37c-1,6 -9,37 -12,42 -14,29 -59,19 -60,-12 -1,-8 6,-37 8,-46 4,1 17,3 20,5 -1,4 -3,10 -4,15 -1,4 -2,9 -3,14 -3,11 -3,21 8,23 6,1 10,-2 12,-5 3,-5 10,-35 12,-41l19 5zm-253 -17c12,0 24,1 36,2 4,0 3,1 3,5 1,8 0,17 -5,23 -5,8 -12,13 -21,15 -20,4 -41,-6 -45,-27 -2,-13 1,-21 7,-29 11,-16 43,-14 53,-3 0,2 -2,3 -3,4 -1,1 -2,2 -3,3 -2,3 -4,5 -6,7 -5,-4 -12,-8 -21,-4 -14,7 -11,31 6,32 9,1 17,-4 18,-10l-20 -1 1 -17zm25 -3c1,-1 4,-5 5,-6 1,-2 3,-3 5,-6 -4,-1 -6,-4 -10,-6 -24,-15 -62,-3 -62,31 0,34 35,48 59,36 8,-4 7,-4 12,-9l-7 15 29 2c2,-2 3,-5 4,-7l12 -18c2,2 10,28 11,28l47 7c2,0 0,0 1,-1 1,-1 3,-21 4,-23 0,-1 0,0 1,-1 2,1 3,4 3,7 2,5 7,18 9,21l31 6 -13 -33c4,-4 5,0 13,-14 0,7 -3,12 -3,21 2,32 44,45 65,20 8,-9 8,-23 11,-28 3,0 17,5 19,6l-14 48 26 9c2,-3 13,-46 16,-49l21 7 8 -24c-4,-3 -89,-29 -97,-29 -2,9 -5,18 -7,27 -2,8 -3,22 -13,20 -11,-2 -5,-16 -3,-24 2,-9 4,-18 6,-27 -3,-2 -23,-6 -28,-7l-5 21c-1,-16 -9,-23 -23,-26 -8,-2 -37,-7 -43,-7l-8 57c-3,-8 -15,-56 -17,-61l-24 -2c-2,3 -4,7 -6,10l-17 32c1,-12 2,-9 -1,-22l-17 -1z"/>
   <path class="fil5" d="M1010 1080c12,-2 25,-4 38,-5 7,-1 14,-2 20,-3 7,0 14,-1 21,-2l0 0c7,-7 17,-22 20,-35 -8,-2 -18,-4 -26,-5l-77 -17c-1,12 -2,22 -1,35 0,11 2,22 5,32z"/>
   <path class="fil4" d="M1032 1134l8 58c-6,-3 -21,-17 -28,-21 1,-5 13,-25 17,-32 1,-1 1,-1 2,-2l1 -3zm-25 37c1,2 7,6 9,7 1,1 1,1 2,2l16 13c2,2 7,6 9,7 -2,2 -22,4 -23,4 0,0 -4,-3 -5,-4 -3,-2 -6,-4 -10,-7l-11 -7 4 22 -19 3 -13 -67 20 -4 3 18 6 -10c8,-13 4,-10 18,-12 5,-1 10,-2 14,-2l-15 27c-2,3 -4,8 -5,10zm75 -43l22 -2 5 68c-14,1 -9,2 -19,-6l-26 -20c-1,6 3,22 3,30 -2,0 -20,3 -22,2l-9 -68c3,0 6,0 9,-1 4,0 4,1 6,3 5,3 32,24 33,25 1,-6 -4,-25 -2,-31zm-5 -4l2 25 -27 -20c-4,-3 -6,-2 -14,-1 -9,1 -19,2 -28,4 -16,3 -8,0 -18,14l-2 -11 -28 5c0,3 14,75 14,76 1,0 0,0 1,0 0,0 1,0 2,0 1,-1 2,-1 3,-1l20 -4c2,-1 0,-6 0,-8 -1,-3 -2,-5 -2,-8 5,2 9,6 14,9 7,6 4,5 17,3 14,-2 27,-3 41,-5l-3 -25c3,2 22,18 26,21 1,1 1,1 3,1 3,1 11,-1 15,-1l-5 -77 -31 3z"/>
   <path class="fil4" d="M1084 1129l3 35c-3,-1 -22,-18 -28,-22 -2,-1 -4,-3 -6,-4 -7,-5 -4,-5 -14,-4l8 64c3,0 4,0 9,-1 2,0 7,0 9,-1 1,-2 -3,-28 -4,-33 2,1 9,6 11,8 2,1 4,3 5,4 2,2 4,3 6,4 3,3 6,6 10,9 7,5 2,5 14,4l-5 -64 -18 1z"/>
   <path class="fil4" d="M896 1228l15 -3 -10 -37c6,4 26,23 29,25 5,-12 10,-24 14,-36 2,3 4,15 5,19 0,3 3,16 4,18l14 -3 -13 -62c-1,0 -7,1 -8,1 -1,1 -2,5 -3,6 -3,7 -15,34 -17,39 -2,-1 -14,-11 -17,-14 -5,-4 -15,-11 -19,-15 -3,-3 -3,-2 -11,0l17 62z"/>
   <path class="fil4" d="M1368 1153c2,0 12,2 15,3 5,1 11,2 10,8 0,5 -6,6 -11,5 -5,-1 -11,-2 -16,-3l2 -13zm-22 48l14 3 4 -25c2,-1 11,2 12,2 1,2 4,11 5,14 1,3 4,11 5,13l17 4 -11 -30c20,-2 24,-32 0,-38 -6,-1 -21,-4 -30,-5 -1,0 -3,0 -4,-1 -3,0 -3,-1 -4,2l-7 51c-1,2 -2,9 -1,10z"/>
   <path class="fil4" d="M1236 1149c0,3 -1,11 0,13l20 1c-4,18 -30,20 -37,3 -1,-5 -1,-10 0,-14 3,-9 10,-13 19,-13 6,1 8,3 12,5l9 -10c-2,-2 -8,-5 -11,-6 -24,-7 -49,9 -44,37 2,9 8,16 14,20 7,5 17,7 27,5 10,-2 17,-7 21,-13 4,-7 6,-16 5,-24 0,-2 0,-2 -2,-2 -5,-1 -11,-1 -16,-1 -5,0 -12,-1 -17,-1z"/>
   <path class="fil4" d="M989 1164l-1 -2c0,-1 0,-2 -1,-2l-2 -17 -16 2 12 64 15 -3 -5 -25c4,1 22,15 26,18 2,1 3,3 6,3 2,-1 13,-2 15,-3 -2,-1 -3,-2 -4,-3 -5,-4 -27,-22 -30,-24 0,-3 12,-22 14,-26 1,-3 4,-7 5,-9 -4,0 -9,1 -13,2 -9,1 -6,0 -10,6 -2,4 -10,16 -11,19z"/>
   <path class="fil2" d="M1135 1352l22 19 -8 30c3,-1 10,-7 12,-8 3,-2 10,-8 13,-9l23 17 -8 -30 23 -19 -30 -1 -9 -28c-3,8 -5,17 -8,25 -1,4 -2,3 -14,3 -5,0 -10,1 -16,1z"/>
   <path class="fil4" d="M1469 1161c-1,10 -5,21 -7,30 -2,9 -7,19 -19,16 -20,-4 -6,-34 -3,-53l-15 -3c-2,9 -9,34 -8,43 1,29 39,34 52,18 1,-2 3,-5 5,-8 2,-4 10,-34 11,-39l-16 -4z"/>
   <path class="fil4" d="M861 1179c-4,-3 -15,-3 -20,-2 -27,4 -32,27 -19,35 11,7 34,-2 40,3 5,5 -5,10 -10,11 -8,2 -13,0 -20,-1l-5 12c13,5 26,5 38,-2 9,-5 18,-17 9,-29 -8,-11 -28,-5 -37,-5 -14,1 -6,-16 19,-10l5 -12z"/>
   <path class="fil4" d="M1303 1169c1,-2 3,-7 5,-9 2,8 3,11 6,19 3,6 6,13 7,19l16 2c-1,-5 -3,-12 -5,-17 -1,-6 -2,-11 -4,-17 -2,-8 -7,-26 -9,-33l-16 -2c-2,6 -5,10 -8,16 -2,5 -5,10 -8,15 -2,4 -15,29 -16,31l16 1 16 -25z"/>
   <path class="fil4" d="M925 1191c1,-3 4,-9 6,-13 2,-5 4,-9 6,-13 2,-5 4,-9 6,-13 1,-4 1,-4 5,-5 2,0 5,-1 8,-1l13 67 -18 4c-2,-4 -5,-28 -7,-32 -2,2 -12,28 -13,32 -2,-2 -4,-4 -7,-6 -2,-2 -4,-4 -6,-6 -1,-1 -2,-2 -3,-3 -1,-1 -2,-1 -3,-2 -2,-2 -5,-5 -7,-6l8 32 -18 5 -18 -66c11,-2 9,-5 15,0 2,1 4,2 6,4l27 22zm-2 -7l-32 -25c-1,-1 -1,-2 -3,-2 -3,1 -14,4 -17,5l21 74 26 -7 -5 -23c6,5 16,16 20,18 1,-2 9,-24 10,-25l5 23 26 -6 -15 -75c-3,0 -14,2 -16,3 -3,1 -6,10 -7,13l-13 27z"/>
   <path class="fil2" d="M1189 1546c0,-3 2,-2 8,-7 3,-2 6,-4 7,-8 4,-6 5,-19 1,-25 -5,-1 -14,6 -16,9 -12,15 -13,43 5,54 9,6 25,7 32,3 4,-2 0,-7 -2,-9 -12,-18 -28,-15 -35,-17z"/>
   <path class="fil2" d="M1157 1546c-14,0 -24,2 -31,9 -3,3 -8,8 -9,12 -2,3 1,4 4,5 50,11 55,-49 23,-66 -4,-2 -6,-3 -7,2 -1,3 -1,7 -1,11 1,9 6,17 14,22 1,0 2,1 3,2 1,0 2,0 2,1 1,0 1,0 1,0l1 2z"/>
   <path class="fil4" d="M1492 1181l21 6c0,5 -13,42 -14,49l14 5 15 -49c7,1 16,6 22,7l4 -12c-7,-3 -51,-17 -59,-19l-3 13z"/>
   <path class="fil2" d="M1122 1535c-5,2 -16,-3 -29,7 -3,2 -14,11 -7,14 24,10 46,-4 46,-31 0,-10 -4,-15 -8,-21 -2,-2 -4,-4 -7,-6 -2,-2 -6,-5 -8,0 -3,10 -2,24 6,31l6 4c1,2 1,2 1,2z"/>
   <path class="fil2" d="M1231 1497c-5,1 -14,10 -16,15 -9,19 1,56 40,46 6,-1 7,-3 3,-7 -8,-11 -17,-16 -32,-14 -4,0 -5,-2 -2,-4 5,-3 8,-5 11,-13 2,-6 2,-13 0,-20 -1,-2 -1,-4 -4,-3z"/>
   <path class="fil4" d="M860 1217c-5,-3 -23,1 -33,-1 -9,-1 -16,-11 -13,-22 2,-9 10,-15 19,-18 8,-2 24,-3 31,1 0,2 -6,15 -7,16 -5,-1 -9,-2 -15,-1 -4,1 -10,2 -10,6 6,3 24,-3 35,1 18,6 18,34 -10,42 -12,3 -22,1 -33,-3l7 -16c6,1 9,4 17,3 5,-1 13,-3 12,-8zm10 -42c-1,-1 0,0 -2,-1l-11 -3c-5,-1 -10,-1 -15,-1 -18,2 -37,15 -32,35 3,13 12,13 17,16l-8 20c11,3 17,7 30,6 6,-1 11,-2 15,-4 12,-6 24,-18 19,-34 -4,-9 -10,-14 -21,-16l8 -18z"/>
   <path class="fil2" d="M1284 1506c0,-4 13,-11 6,-29 -2,-3 -3,-7 -7,-6 -4,2 -10,8 -12,13 -8,16 4,44 27,44 4,0 8,-1 11,-2 2,-1 7,-4 8,-5 2,-3 -10,-15 -21,-15 -4,-1 -9,1 -12,0z"/>
   <path class="fil2" d="M1253 1523c1,-2 2,-2 4,-4 7,-8 9,-18 6,-29 -2,-5 -2,-7 -7,-4 -12,9 -19,25 -10,42 2,4 4,7 6,9 2,2 7,4 10,6 8,3 17,1 24,-2 6,-3 4,-5 1,-8 -12,-13 -20,-10 -34,-10z"/>
   <path class="fil2" d="M1079 1498c0,6 2,10 5,15 1,1 3,4 4,5 2,1 4,2 5,5 -10,-1 -15,-5 -29,3 -3,2 -10,7 -9,11 2,5 35,16 46,-17 3,-10 0,-22 -6,-28 -2,-3 -7,-9 -10,-8 -4,0 -6,9 -6,14z"/>
   <path class="fil5" d="M1229 1068c4,0 10,0 14,1l41 3c9,1 18,2 27,3 8,1 18,2 26,3 1,-3 2,-9 2,-11 -19,-1 -37,-3 -56,-5 -9,-1 -18,-2 -27,-4 -8,-1 -19,-3 -27,-3l0 13z"/>
   <path class="fil2" d="M1308 1492c1,-3 3,-5 5,-9 3,-7 3,-15 0,-22 -2,-4 -4,-6 -8,-2 -11,10 -15,22 -4,38 7,12 21,17 37,8 9,-5 -1,-11 -7,-13 -10,-5 -14,-3 -23,0z"/>
   <path class="fil2" d="M1054 1485c0,6 2,13 6,17 2,2 3,2 4,5 -6,0 -19,-6 -31,5 -2,1 -5,3 -5,7 1,3 12,6 18,6 22,0 34,-26 26,-42 -2,-3 -11,-17 -15,-11 -2,4 -3,8 -3,13z"/>
   <path class="fil2" d="M999 1470c-4,0 -8,1 -11,2 -2,1 -7,5 -8,7 -1,4 12,10 17,11 15,1 28,-14 28,-29 0,-8 -1,-11 -6,-17 -6,-6 -7,-6 -11,3 -7,18 7,24 0,24 -2,0 -5,-1 -9,-1z"/>
   <path class="fil2" d="M1318 1463c0,15 16,33 34,27 4,-1 8,-4 10,-6 5,-4 1,-6 -3,-8 -10,-7 -17,-5 -26,-3 2,-4 5,-6 5,-15 0,-6 -4,-21 -11,-15 -4,4 -9,11 -9,20z"/>
   <path class="fil5" d="M1158 1067c10,0 20,0 30,0 10,0 21,1 31,0l-1 -14 -56 -9 -4 23z"/>
   <path class="fil2" d="M1039 1492c-4,0 -10,-5 -21,-3 -6,1 -15,6 -15,12 2,2 24,17 41,-7 6,-8 6,-19 1,-28 -4,-9 -12,-16 -15,0 -1,6 0,11 2,16 2,4 5,6 7,10z"/>
   <path class="fil5" d="M1104 1069l43 -2 4 -25 -31 -5c-2,5 -5,12 -7,17l-7 12c-1,1 -1,2 -2,3z"/>
   <path class="fil4" d="M1149 1126l2 64 15 0 -1 -64c-2,-1 -13,-1 -16,0z"/>
   <path class="fil2" d="M879 1166c8,-2 8,-3 11,0 4,4 14,11 19,15 3,3 15,13 17,14 2,-5 14,-32 17,-39 1,-1 2,-5 3,-6 1,0 7,-1 8,-1l13 62 -14 3c-1,-2 -4,-15 -4,-18 -1,-4 -3,-16 -5,-19 -4,12 -9,24 -14,36 -3,-2 -23,-21 -29,-25l10 37 -15 3 -17 -62zm46 25l-27 -22c-2,-2 -4,-3 -6,-4 -6,-5 -4,-2 -15,0l18 66 18 -5 -8 -32c2,1 5,4 7,6 1,1 2,1 3,2 1,1 2,2 3,3 2,2 4,4 6,6 3,2 5,4 7,6 1,-4 11,-30 13,-32 2,4 5,28 7,32l18 -4 -13 -67c-3,0 -6,1 -8,1 -4,1 -4,1 -5,5 -2,4 -4,8 -6,13 -2,4 -4,8 -6,13 -2,4 -5,10 -6,13z"/>
   <path class="fil2" d="M1377 1435c2,-8 2,-11 -1,-18 -4,-8 -7,-10 -11,-4 -3,4 -6,10 -5,17 2,5 6,11 8,14 9,9 22,10 32,1 6,-6 3,-8 -5,-11 -8,-3 -11,-1 -18,1z"/>
   <path class="fil2" d="M1352 1458c2,-7 11,-10 3,-27 -2,-3 -3,-7 -7,-3 -10,11 -9,23 1,34 3,3 9,8 16,8 7,1 14,-3 17,-6 3,-4 1,-5 -2,-7 -14,-9 -24,0 -28,1z"/>
   <path class="fil2" d="M1236 1149c5,0 12,1 17,1 5,0 11,0 16,1 2,0 2,0 2,2 1,8 -1,17 -5,24 -4,6 -11,11 -21,13 -10,2 -20,0 -27,-5 -6,-4 -12,-11 -14,-20 -5,-28 20,-44 44,-37 3,1 9,4 11,6l-9 10c-4,-2 -6,-4 -12,-5 -9,0 -16,4 -19,13 -1,4 -1,9 0,14 7,17 33,15 37,-3l-20 -1c-1,-2 0,-10 0,-13zm-2 -2l-1 17 20 1c-1,6 -9,11 -18,10 -17,-1 -20,-25 -6,-32 9,-4 16,0 21,4 2,-2 4,-4 6,-7 1,-1 2,-2 3,-3 1,-1 3,-2 3,-4 -10,-11 -42,-13 -53,3 -6,8 -9,16 -7,29 4,21 25,31 45,27 9,-2 16,-7 21,-15 5,-6 6,-15 5,-23 0,-4 1,-5 -3,-5 -12,-1 -24,-2 -36,-2z"/>
   <path class="fil2" d="M992 1456c-7,0 -10,-10 -28,0 -4,1 -6,2 -2,6 25,23 54,-18 34,-35 -3,-3 -5,-1 -7,2 -3,6 -4,13 -1,19 1,4 3,5 4,8z"/>
   <path class="fil4" d="M1167 1123l1 69 -19 0 -2 -69 20 0zm-11 73c1,0 2,0 4,0 1,0 2,0 4,0 3,0 5,0 8,0l0 -14 -1 -63 -28 0 2 78 11 -1z"/>
   <path class="fil2" d="M1102 1128l5 64c-12,1 -7,1 -14,-4 -4,-3 -7,-6 -10,-9 -2,-1 -4,-2 -6,-4 -1,-1 -3,-3 -5,-4 -2,-2 -9,-7 -11,-8 1,5 5,31 4,33 -2,1 -7,1 -9,1 -5,1 -6,1 -9,1l-8 -64c10,-1 7,-1 14,4 2,1 4,3 6,4 6,4 25,21 28,22l-3 -35 18 -1zm-20 0c-2,6 3,25 2,31 -1,-1 -28,-22 -33,-25 -2,-2 -2,-3 -6,-3 -3,1 -6,1 -9,1l9 68c2,1 20,-2 22,-2 0,-8 -4,-24 -3,-30l26 20c10,8 5,7 19,6l-5 -68 -22 2z"/>
   <path class="fil2" d="M989 1164c1,-3 9,-15 11,-19 4,-6 1,-5 10,-6 4,-1 9,-2 13,-2 -1,2 -4,6 -5,9 -2,4 -14,23 -14,26 3,2 25,20 30,24 1,1 2,2 4,3 -2,1 -13,2 -15,3 -3,0 -4,-2 -6,-3 -4,-3 -22,-17 -26,-18l5 25 -15 3 -12 -64 16 -2 2 17c1,0 1,1 1,2l1 2zm18 7c1,-2 3,-7 5,-10l15 -27c-4,0 -9,1 -14,2 -14,2 -10,-1 -18,12l-6 10 -3 -18 -20 4 13 67 19 -3 -4 -22 11 7c4,3 7,5 10,7 1,1 5,4 5,4 1,0 21,-2 23,-4 -2,-1 -7,-5 -9,-7l-16 -13c-1,-1 -1,-1 -2,-2 -2,-1 -8,-5 -9,-7z"/>
   <path class="fil2" d="M856 1191c-25,-6 -33,11 -19,10 9,0 29,-6 37,5 9,12 0,24 -9,29 -12,7 -25,7 -38,2l5 -12c7,1 12,3 20,1 5,-1 15,-6 10,-11 -6,-5 -29,4 -40,-3 -13,-8 -8,-31 19,-35 5,-1 16,-1 20,2l-5 12zm4 26c1,5 -7,7 -12,8 -8,1 -11,-2 -17,-3l-7 16c11,4 21,6 33,3 28,-8 28,-36 10,-42 -11,-4 -29,2 -35,-1 0,-4 6,-5 10,-6 6,-1 10,0 15,1 1,-1 7,-14 7,-16 -7,-4 -23,-3 -31,-1 -9,3 -17,9 -19,18 -3,11 4,21 13,22 10,2 28,-2 33,1z"/>
   <path class="fil2" d="M1031 1137c-1,1 -1,1 -2,2 -4,7 -16,27 -17,32 7,4 22,18 28,21l-8 -58 -1 3z"/>
   <path class="fil2" d="M972 1437c-4,-1 -7,-5 -15,-5 -5,0 -12,2 -15,5 -1,4 10,11 15,12 8,1 15,-3 17,-10 5,0 5,0 7,-4 5,-8 1,-21 -4,-25 -4,-4 -12,9 -9,19 1,4 4,6 4,8z"/>
   <path class="fil2" d="M1469 1161l16 4c-1,5 -9,35 -11,39 -2,3 -4,6 -5,8 -13,16 -51,11 -52,-18 -1,-9 6,-34 8,-43l15 3c-3,19 -17,49 3,53 12,3 17,-7 19,-16 2,-9 6,-20 7,-30zm18 3l-19 -5c-2,6 -9,36 -12,41 -2,3 -6,6 -12,5 -11,-2 -11,-12 -8,-23 1,-5 2,-10 3,-14 1,-5 3,-11 4,-15 -3,-2 -16,-4 -20,-5 -2,9 -9,38 -8,46 1,31 46,41 60,12 3,-5 11,-36 12,-42z"/>
   <path class="fil2" d="M1233 1351l-16 0c0,2 4,5 6,6l6 5c1,3 -3,14 -4,18 3,-2 10,-8 13,-10 4,2 12,8 14,10 -4,-19 -7,-16 2,-23 2,-1 6,-5 6,-6l-16 0c-2,-4 -3,-12 -6,-16 -1,3 -3,12 -5,16z"/>
   <path class="fil2" d="M1104 1351l-17 0c4,4 7,7 12,12l-4 17c2,-1 1,-1 3,-2 3,-2 9,-7 11,-8 2,1 10,8 13,10l-4 -17 12 -12c-3,0 -14,1 -16,0 -2,-2 -4,-13 -5,-16l-5 16z"/>
   <path class="fil2" d="M1408 1394l0 1c0,0 0,0 0,-1zm15 -4c-9,0 -12,4 -15,5 0,-7 2,-8 -3,-13 -1,-2 -6,-9 -9,-6 -4,3 -7,16 2,24 6,4 15,11 25,6 3,-2 6,-5 8,-9 3,-6 -1,-7 -8,-7z"/>
   <path class="fil2" d="M953 1416c-1,0 0,0 -2,0 -2,-1 -7,-5 -13,-5 -3,0 -6,1 -9,2 -8,3 4,13 11,14 8,2 12,0 16,-4 4,-4 7,-5 9,-11 4,-13 -5,-29 -12,-13 -4,9 0,14 0,17z"/>
   <path class="fil2" d="M1391 1419l0 0c0,0 -1,0 0,0zm-13 -12c0,11 12,21 20,22 4,1 8,0 11,-2 4,-1 5,-3 7,-6 7,-9 -13,-10 -21,-5l-3 2c-1,1 0,1 -1,1 0,-4 3,-6 3,-12 -1,-4 -3,-7 -5,-10 -2,-3 -4,-5 -7,-1 -2,3 -4,7 -4,11z"/>
   <path class="fil2" d="M1346 1201c-1,-1 0,-8 1,-10l7 -51c1,-3 1,-2 4,-2 1,1 3,1 4,1 9,1 24,4 30,5 24,6 20,36 0,38l11 30 -17 -4c-1,-2 -4,-10 -5,-13 -1,-3 -4,-12 -5,-14 -1,0 -10,-3 -12,-2l-4 25 -14 -3zm-3 2l18 3c3,-4 3,-20 5,-25l8 2 5 13c7,18 3,14 16,16 4,1 7,2 11,3 -2,-8 -9,-23 -11,-31 5,-2 10,-4 14,-11 2,-7 2,-14 -1,-20 -6,-11 -20,-12 -36,-15l-16 -2c-3,-1 -3,-1 -4,2l-8 60c-1,1 -1,2 -1,3l0 2z"/>
   <path class="fil2" d="M1287 1194l-16 -1c1,-2 14,-27 16,-31 3,-5 6,-10 8,-15 3,-6 6,-10 8,-16l16 2c2,7 7,25 9,33 2,6 3,11 4,17 2,5 4,12 5,17l-16 -2c-1,-6 -4,-13 -7,-19 -3,-8 -4,-11 -6,-19 -2,2 -4,7 -5,9l-16 25zm-19 1l20 2c2,-5 15,-24 19,-31 1,2 12,34 13,34l20 3c-1,-7 -18,-69 -19,-72l-19 -2c-1,3 -3,6 -4,8 -5,9 -28,51 -30,58z"/>
   <path class="fil2" d="M1495 1168c8,2 52,16 59,19l-4 12c-6,-1 -15,-6 -22,-7l-15 49 -14 -5c1,-7 14,-44 14,-49l-21 -6 3 -13zm-6 14l21 7 -14 49 18 5c1,-3 3,-8 4,-12 1,-4 3,-8 4,-12 1,-4 6,-22 8,-24l21 7 6 -17c-8,-2 -56,-18 -63,-19l-5 16z"/>
   <path class="fil2" d="M915 1363c0,7 1,11 5,14 4,3 10,8 12,0 3,-14 -9,-29 -12,-28 -2,2 -5,9 -5,14z"/>
   <path class="fil2" d="M1423 1350c-3,2 -9,11 -11,15 -1,4 -1,5 0,10 2,15 14,3 17,-6 0,-4 0,-8 -1,-12 -1,-3 -3,-6 -5,-7z"/>
   <path class="fil2" d="M1149 1126c3,-1 14,-1 16,0l1 64 -15 0 -2 -64zm-2 -3l2 69 19 0 -1 -69 -20 0z"/>
   <path class="fil2" d="M918 1389c-9,1 -2,10 1,12 3,3 10,5 17,4 12,-3 -6,-18 -18,-16z"/>
   <path class="fil2" d="M945 1375c-12,5 -9,27 -1,25 2,-1 7,-9 7,-12 1,-5 0,-15 -6,-13z"/>
   <path class="fil4" d="M1369 1164c4,1 8,1 12,2 4,1 10,2 10,-3 0,-4 -5,-4 -9,-5 -3,-1 -10,-2 -12,-2l-1 8z"/>
   <path class="fil2" d="M1370 1156c2,0 9,1 12,2 4,1 9,1 9,5 0,5 -6,4 -10,3 -4,-1 -8,-1 -12,-2l1 -8zm-4 10c5,1 11,2 16,3 5,1 11,0 11,-5 1,-6 -5,-7 -10,-8 -3,-1 -13,-3 -15,-3l-2 13z"/>
   <path class="fil2" d="M1244 1169l-15 -1 1 -20c-5,2 -7,12 -3,18 3,5 11,8 17,3z"/>
   <path class="fil3" d="M1156 1196l17 0 0 -13c-1,-1 0,1 -1,-1l0 0 0 14c-3,0 -5,0 -8,0 -2,0 -3,0 -4,0 -2,0 -3,0 -4,0z"/>
  </g>
 </g>
</svg>
