<?xml version="1.0" encoding="UTF-8"?>
<!DOCTYPE svg PUBLIC "-//W3C//DTD SVG 1.1//EN" "http://www.w3.org/Graphics/SVG/1.1/DTD/svg11.dtd">
<!-- Creator: CorelDRAW X7 -->
<svg xmlns="http://www.w3.org/2000/svg" xml:space="preserve" width="2362px" height="2362px" version="1.1" style="shape-rendering:geometricPrecision; text-rendering:geometricPrecision; image-rendering:optimizeQuality; fill-rule:evenodd; clip-rule:evenodd"
viewBox="0 0 2362 2362"
 xmlns:xlink="http://www.w3.org/1999/xlink">
 <defs>
  <style type="text/css">
   <![CDATA[
    .fil3 {fill:#010101}
    .fil2 {fill:#204691}
    .fil4 {fill:#2B62D4}
    .fil5 {fill:#83807D}
    .fil6 {fill:#C7C6C8}
    .fil1 {fill:#DDDEF2}
    .fil0 {fill:#FEFEFE}
   ]]>
  </style>
 </defs>
 <g id="Layer_x0020_1">
  <metadata id="CorelCorpID_0Corel-Layer"/>
  <g id="_2134434993616">
   <path class="fil0" d="M999 1395c3,12 25,11 10,30 -4,2 -26,1 -26,-12l2 -6c11,3 2,2 9,10 3,3 7,3 11,1 1,-12 -23,-17 -11,-28 6,-6 24,-1 25,8 1,11 1,2 -2,6 -11,-3 -2,-2 -8,-8 -3,-2 -8,-3 -10,-1zm-61 -200c-7,-2 -5,-2 -11,-7 -4,-4 -6,-5 -9,-11 -15,-18 -17,-47 -11,-70 7,-29 26,-52 47,-67 2,-3 -2,-1 4,-3l0 -1 10 -6 0 -1 6 -3c8,-5 21,-11 32,-15 7,-3 9,-5 15,-8 6,-3 13,-5 19,-7 23,-9 48,-18 71,-27l-5 -15 31 -9 3 9c12,-4 20,-15 33,-20 -5,13 -9,19 -4,34 5,15 13,16 19,23 -47,1 -32,-2 -33,12l-29 9 -6 -17c-35,0 -82,5 -115,19 -11,5 -22,12 -31,15 -3,5 -4,5 -10,7l0 1c0,0 -1,0 -1,1l-11 7c-39,28 -61,87 -32,129 0,0 1,0 1,1l8 9c7,5 4,1 12,10 23,9 16,10 60,25 52,17 119,33 156,80 3,5 4,8 9,12 3,3 2,-3 3,5l1 3c3,2 2,0 4,4 0,0 2,5 2,6 3,7 17,35 13,41 -4,-5 -11,-31 -17,-41l-5 -8c-4,-6 -2,-1 -5,-9 -14,-25 -44,-44 -69,-58 -1,0 -4,-1 -4,-1l-11 -5c-5,-2 -9,-4 -15,-6 -42,-16 -92,-25 -125,-47zm82 -97c0,-13 -2,-13 13,-12 8,0 17,0 25,0 1,-49 -5,-42 89,-42 12,0 87,-2 96,2 8,5 9,20 9,20 2,8 -2,-1 2,4 9,7 18,-11 19,15 17,5 10,-3 13,17l14 0c2,-6 2,-8 15,-9 7,-1 15,-2 22,0l0 93c-10,1 -31,2 -37,-8l-15 -2c0,20 -2,15 -22,15 -21,0 -1,4 -34,4 -32,0 -10,-4 -34,-4 -35,0 -36,-3 -69,9 -12,5 -55,3 -71,3 -20,0 -20,2 -34,-5l-2 -28c7,-1 9,1 13,-2 -3,0 -7,0 -10,0 -7,0 -4,1 -8,-2 -5,-7 -3,-52 -1,-62 4,-1 4,-1 9,-1l7 -1c0,0 1,0 1,0 0,0 1,0 1,0 0,0 1,-1 1,-1 -4,-1 -2,0 -5,-1l-7 -2zm153 -137c-7,-45 64,-51 68,-10 5,45 -61,50 -68,10zm114 -111c2,-9 30,-50 34,-59 10,0 13,-1 16,8l12 60 -13 -2 -3 -15 -26 -3 -6 12 -14 -1zm-174 -67l13 -1 28 63 -13 0 -6 -14 -26 1 -5 15 -13 0 22 -64zm-70 6c44,-12 56,55 17,64 -22,4 -35,-8 -38,-24 -6,-22 4,-36 21,-40zm-160 35c8,-1 68,-25 50,18 7,4 13,4 15,13 2,8 -1,15 -6,19 -5,3 -33,11 -41,12l-18 -62zm552 0c-3,-1 -3,-1 -5,-2 -3,-1 -2,-1 -4,-2l4 -8c4,-1 40,9 48,13l-3 8c0,0 -1,0 -1,0l-4 0c-6,0 -7,-3 -13,-2l-12 38c-1,2 -1,4 -2,6l-3 5 -11 -2c2,-17 13,-34 14,-51 -3,-2 -5,-2 -8,-3zm-272 -43c32,-2 53,-2 53,32 0,33 -22,34 -54,31l1 -63zm-212 25c13,-1 38,-10 48,-3 4,3 9,10 7,18 -1,10 -6,10 -11,14 12,8 15,12 24,22l-6 3c-3,1 -5,1 -8,1 -8,-8 -18,-24 -34,-20l5 26 -11 2c-4,-9 -13,-52 -14,-63zm446 43c-6,-11 -44,-18 -27,-40 7,-10 43,-14 44,17l-12 -1c-3,-6 -2,-9 -8,-12 -7,-2 -11,-1 -15,2 0,11 12,12 22,18 8,6 13,18 4,28 -10,11 -47,12 -47,-21l11 1 4 10c2,2 4,4 7,5 9,3 14,0 17,-7zm-115 -19c-7,31 -65,23 -53,-24 3,-14 15,-25 34,-23 8,1 14,6 18,11 6,10 1,10 -10,11 -4,-18 -30,-16 -30,11 -1,12 2,20 12,21 14,2 13,-6 18,-11l11 4zm-415 -39l-2 1 -1 2c-4,15 -15,20 -24,70 -20,108 0,251 -3,267l2 8c1,39 5,54 15,88 8,27 16,51 27,75 6,13 10,24 15,36 6,14 46,94 55,99 1,0 1,0 1,1 1,3 1,1 2,1 9,5 52,-5 65,-2l-3 -3c-5,2 -4,3 -3,-2 4,-5 5,-11 7,-18l8 -17 9 3c1,7 0,17 -1,25 6,-5 10,-14 15,-20l11 3c-2,9 -9,21 -9,30 0,5 0,2 0,6l8 -14c0,0 1,-1 1,-1l6 -19c11,1 4,6 4,17l14 -9c0,-4 -1,-3 2,-2 3,-3 -6,-3 6,-2 9,0 -6,-2 3,0l3 2c6,-2 8,0 13,-1 35,-8 114,-47 146,-72l28 -20c32,-24 82,-85 103,-119 8,-13 16,-26 23,-39l23 -48c1,-2 1,-3 2,-6 32,-75 52,-154 65,-234 2,-10 2,-18 4,-28 2,-10 2,-17 2,-28 -1,-10 -8,-18 -11,-27l-1 -2 -2 -1c-25,-7 -48,-17 -73,-24 -64,-19 -179,-51 -241,-51 -46,0 -122,19 -165,30 -25,6 -51,13 -75,21 -26,7 -49,17 -74,24zm192 651l-1 -1 -1 -4c0,5 2,0 -1,6l3 -1z"/>
   <path class="fil1" d="M1095 1604l1 0 2 2 0 0 3 2 7 3 2 1c21,10 43,24 67,33 8,3 25,-7 33,-12 9,-4 23,-12 32,-15 0,-3 -1,-2 2,-1 6,-9 19,-14 27,-22 9,-8 18,-13 25,-20 26,-25 49,-48 71,-74l37 -49c29,-45 58,-100 79,-151 18,-47 36,-90 39,-145 1,-6 0,-6 2,-10 -1,-9 1,-19 2,-28 4,-51 6,-105 5,-157 -1,-26 -7,-126 -22,-140 0,11 0,18 -2,28 -2,10 -2,18 -4,28 -13,80 -33,159 -65,234 -1,3 -1,4 -2,6l-23 48c-7,13 -15,26 -23,39 -21,34 -71,95 -103,119l-28 20c-32,25 -111,64 -146,72 -5,1 -7,-1 -13,1l-3 -2c-9,-2 6,0 -3,0 -12,-1 -3,-1 -6,2 -3,-1 -2,-2 -2,2 3,-1 2,0 2,-2l12 0c-4,6 -9,8 -16,11 0,9 5,18 8,27 -17,-4 -7,-2 -15,-21 -15,6 -6,10 -14,14 -7,-2 -3,0 -4,-5l-3 1c3,-6 1,-1 1,-6l1 4c1,-2 1,0 3,-5 1,-3 1,-4 1,-7 0,0 -1,1 -1,1l-8 14c0,-4 0,-1 0,-6 0,0 0,1 0,1l-2 2c-2,2 -1,1 -5,1 -2,-3 -2,3 -1,-6l7 -19c-9,8 -13,26 -21,21 -2,-3 -1,0 -2,-4 0,-3 0,0 0,-4 0,-5 2,-11 1,-21l-8 21c-3,6 4,4 -6,4 -1,-3 0,-2 -3,-2 -1,5 -2,4 3,2l3 3c-13,-3 -56,7 -65,2 -1,0 -1,2 -2,-1 0,-1 0,-1 -1,-1 7,14 25,40 34,51 7,8 12,16 19,24 8,9 51,55 62,63l47 37 -18 -8zm151 -185c8,-1 7,-2 11,4l17 30c-12,0 -7,1 -13,-7l-15 2c-3,10 1,9 -10,10l10 -39zm-93 19c0,-9 1,-5 7,-9 7,-5 -1,-5 10,-5 0,7 0,13 0,20 -1,22 -1,15 -4,17 -6,-2 -3,4 -4,-5l0 -21 -9 3zm-24 3c0,6 0,12 -3,17 -8,-1 -7,-2 -11,-10 -3,-6 -4,-8 -5,-14l-2 3c-4,6 -2,9 -3,13 -2,7 -3,6 -8,3l7 -35c10,1 9,12 17,25 2,-3 3,4 2,-6l1 -8 1 -9 8 1c1,7 0,15 -4,20zm103 14c-7,3 -16,8 -27,4 -6,-2 -12,-10 -11,-20 1,-19 28,-23 35,-9 -7,6 -6,2 -10,0 -17,-9 -21,14 -13,22 6,4 15,4 17,-5 -3,-2 1,1 -3,-1 -7,-2 -5,2 -6,-6l16 -1 2 16zm66 -26c4,5 9,7 14,14 -18,2 -13,-12 -27,-10 -4,7 6,17 -3,17 -5,-3 -3,0 -5,-8l-7 -28c12,-3 20,-6 31,-3 4,9 4,12 -3,18zm17 4c-2,-4 -9,-24 -10,-28l7 -1c7,15 8,36 21,25 5,-3 1,-12 -1,-18 -6,-17 -5,-12 1,-14 5,3 3,4 7,14 2,8 5,11 2,18 -4,9 -21,13 -27,4zm24 -36c0,-3 -4,-1 5,-5 3,-1 6,-2 9,-3 17,-7 12,-5 14,-2 -1,4 -3,4 -9,5 4,17 13,22 10,31 -8,2 -4,3 -7,-3 -3,-6 -6,-17 -11,-23 -14,4 -8,5 -11,0z"/>
   <path class="fil2" d="M951 1437c-9,-5 -49,-85 -55,-99 -5,-12 -9,-23 -15,-36 -11,-24 -19,-48 -27,-75 -10,-34 -14,-49 -15,-88 -4,-2 -3,-3 -2,-8 0,0 -1,1 -1,1l2 38c-6,-10 -22,-99 -24,-123 -1,-8 -3,-11 -4,-20l-6 -67c0,-16 -2,-32 -2,-46l1 -96c4,1 4,2 2,-2 3,1 2,1 2,-1 5,1 4,2 4,-2 -4,0 -4,-1 -4,2 -3,-2 -3,-3 -2,1 -3,-1 -3,-2 -2,2 -6,0 -35,14 -45,19 -23,11 -35,21 -41,23 -1,19 2,49 5,68 17,141 41,257 104,385 29,57 46,80 82,128 24,34 71,80 104,106 13,10 25,19 40,30 7,5 14,8 21,14 7,5 15,10 22,13l18 8 -47 -37c-11,-8 -54,-54 -62,-63 -7,-8 -12,-16 -19,-24 -9,-11 -27,-37 -34,-51zm159 175l-2 -1c0,2 -1,2 2,1zm-9 -4l-3 -2c0,3 -1,2 3,2zm-3 -2l-2 -2c0,3 -1,2 2,2z"/>
   <path class="fil2" d="M1526 1118c-1,9 -3,19 -2,28 1,4 1,1 0,6 -1,4 0,2 -2,4 -3,55 -21,98 -39,145 -21,51 -50,106 -79,151l-37 49c-22,26 -45,49 -71,74 -7,7 -16,12 -25,20 -8,8 -21,13 -27,22 -3,-1 -2,-2 -2,1l2 -1c32,-9 125,-84 158,-116 3,-4 5,-5 8,-9 117,-120 180,-277 212,-441 4,-21 7,-39 10,-62 4,-28 15,-103 14,-128 -10,-8 -70,-40 -86,-44 -1,9 0,13 0,22l1 75c-1,64 -10,117 -18,180 0,5 -3,16 -4,21 -5,13 -2,9 -5,19 -1,7 -3,13 -5,20 -1,4 -1,5 -2,10 0,1 -1,4 -2,5 -1,4 0,1 -2,4 1,-11 2,-18 3,-28 2,-9 3,-20 0,-27z"/>
   <path class="fil3" d="M1053 1111c0,-19 -1,-13 4,-15l2 38c0,12 0,25 0,37l-6 -2 0 -58zm248 55c-3,4 -7,3 -11,1 1,-3 8,-2 11,-1zm25 -18c-2,-3 -4,-8 0,-14 3,3 1,-1 1,4 0,14 7,5 -1,10zm-30 12c-5,4 -25,5 -35,5l-3 -19c36,-3 41,-8 55,-9 -8,7 -32,11 -43,10l-7 4 0 11c8,0 26,-2 32,-5 10,-1 13,-4 21,-6l0 -12c0,-1 0,-1 -1,-1 0,0 0,-1 -1,-1 0,0 -1,-1 -2,-1l9 -3 0 18c-6,4 -17,7 -25,9zm5 -26c-2,5 -10,2 -12,-1l12 1zm0 -12c-5,2 -8,1 -12,-1 1,-2 10,-5 12,1zm-6 -9c5,-1 4,0 6,2l-11 0c-1,-2 3,-2 5,-2zm-5 -5c5,-3 8,-2 11,0 -4,2 -7,2 -11,0zm-40 -10c4,-1 3,-1 2,3 5,12 0,33 2,48 0,1 2,-3 2,7 0,9 -1,4 -3,5 0,6 2,13 -3,15 1,3 2,3 -1,2l-2 1 -75 1c17,-7 56,0 73,-6l0 -68 -44 -3c-10,0 -36,1 -43,-5l92 0zm-185 -13c0,-36 11,-27 24,-26l54 0c18,0 41,-1 56,-1 9,1 19,1 28,1 13,-1 14,-1 18,10 -4,2 -7,1 -10,5 -2,3 -1,7 -2,11 -20,8 -31,7 -54,7 -29,0 -57,3 -83,-5 -8,-2 -20,-1 -31,-2zm-43 83c3,0 7,0 10,0 -4,3 -6,1 -13,2l2 28c14,7 14,5 34,5 16,0 59,2 71,-3 33,-12 34,-9 69,-9 24,0 2,4 34,4 33,0 13,-4 34,-4 20,0 22,5 22,-15l15 2c6,10 27,9 37,8l0 -93c-7,-2 -15,-1 -22,0 -13,1 -13,3 -15,9l-14 0c-3,-20 4,-12 -13,-17 -1,-26 -10,-8 -19,-15 -4,-5 0,4 -2,-4 0,0 -1,-15 -9,-20 -9,-4 -84,-2 -96,-2 -94,0 -88,-7 -89,42 -8,0 -17,0 -25,0 -15,-1 -13,-1 -13,12l7 2c3,1 1,0 5,1 0,0 -1,1 -1,1 0,0 -1,0 -1,0 0,0 -1,0 -1,0l-7 1c-5,0 -5,0 -9,1 -2,10 -4,55 1,62 4,3 1,2 8,2z"/>
   <path class="fil3" d="M1244 1617l-2 1c-9,3 -23,11 -32,15 -8,5 -25,15 -33,12 -24,-9 -46,-23 -67,-33 -3,1 -2,1 -2,-1l-7 -3c-4,0 -3,1 -3,-2l0 0c-3,0 -2,1 -2,-2l-1 0c-7,-3 -15,-8 -22,-13 -7,-6 -14,-9 -21,-14 -15,-11 -27,-20 -40,-30 -33,-26 -80,-72 -104,-106 -36,-48 -53,-71 -82,-128 -63,-128 -87,-244 -104,-385 -3,-19 -6,-49 -5,-68 6,-2 18,-12 41,-23 10,-5 39,-19 45,-19 -1,-4 -1,-3 2,-2 -1,-4 -1,-3 2,-1 0,-3 0,-2 4,-2 5,-3 45,-19 53,-19 -1,-3 -2,-2 1,-2l2 -1c25,-7 48,-17 74,-24 24,-8 50,-15 75,-21 43,-11 119,-30 165,-30 62,0 177,32 241,51 25,7 48,17 73,24l2 1c2,0 2,0 1,2 14,1 49,18 62,23 16,4 76,36 86,44 1,25 -10,100 -14,128 -3,23 -6,41 -10,62 -32,164 -95,321 -212,441 -3,4 -5,5 -8,9 -33,32 -126,107 -158,116zm-535 -759l0 7 16 141c8,44 16,87 28,129 30,108 62,182 122,273l70 86c14,15 26,25 41,39 21,20 65,52 90,67 13,8 93,53 107,52 14,-1 91,-45 104,-53 41,-24 97,-69 130,-105 31,-35 44,-49 70,-87l24 -36c135,-220 137,-495 142,-509l0 -4c-11,-6 -29,-19 -50,-29 -103,-49 -319,-119 -422,-119 -39,0 -98,13 -135,21 -103,25 -220,62 -314,112 -8,5 -15,11 -23,15z"/>
   <path class="fil4" d="M1497 792l1 2c3,9 10,17 11,27 15,14 21,114 22,140 1,52 -1,106 -5,157 3,7 2,18 0,27 -1,10 -2,17 -3,28 2,-3 1,0 2,-4 1,-1 2,-4 2,-5 1,-5 1,-6 2,-10 2,-7 4,-13 5,-20 3,-10 0,-6 5,-19 1,-5 4,-16 4,-21 8,-63 17,-116 18,-180l-1 -75c0,-9 -1,-13 0,-22 -13,-5 -48,-22 -62,-23 1,-2 1,-2 -1,-2l-2 -1 2 1zm27 354c-2,4 -1,4 -2,10 2,-2 1,0 2,-4 1,-5 1,-2 0,-6z"/>
   <path class="fil4" d="M864 794c-8,0 -48,16 -53,19 0,4 1,3 -4,2 0,2 1,2 -2,1 2,4 2,3 -2,2l-1 96c0,14 2,30 2,46l6 67c1,9 3,12 4,20 2,24 18,113 24,123l-2 -38c0,0 1,-1 1,-1 -1,5 -2,6 2,8l-2 -8c3,-16 -17,-159 3,-267 9,-50 20,-55 24,-70l1 -2 2 -1 -2 1c-3,0 -2,-1 -1,2z"/>
   <path class="fil3" d="M974 1026l-6 3 0 1 -1 2c-6,5 -6,3 -9,4l0 1c-2,2 -1,1 -4,3 -21,15 -40,38 -47,67 -6,23 -4,52 11,70l19 17c0,0 0,1 1,1 33,22 83,31 125,47 6,2 10,4 15,6l11 5c0,0 3,1 4,1 25,14 55,33 69,58l7 8c1,3 2,5 3,9 6,10 13,36 17,41 4,-6 -10,-34 -13,-41l-6 -10 -1 -3c-2,-2 -1,2 -3,-5 -5,-4 -6,-7 -9,-12 -37,-47 -104,-63 -156,-80 -44,-15 -37,-16 -60,-25l-6 -4c-9,-6 -12,-7 -15,-16 -29,-42 -7,-101 32,-129 2,-2 1,-1 3,-3 0,0 3,-2 3,-2 4,-3 2,-2 6,-3l0 -1c2,-2 -1,1 3,-2l7 -5c9,-3 20,-10 31,-15 33,-14 80,-19 115,-19l6 17 29 -9c1,-14 -14,-11 33,-12 -6,-7 -14,-8 -19,-23 -5,-15 -1,-21 4,-34 -13,5 -21,16 -33,20l-3 -9 -31 9 5 15c-23,9 -48,18 -71,27 -6,2 -13,4 -19,7 -6,3 -8,5 -15,8 -11,4 -24,10 -32,15z"/>
   <path class="fil0" d="M1065 1085c11,1 23,0 31,2 26,8 54,5 83,5 23,0 34,1 54,-7 1,-4 0,-8 2,-11 3,-4 6,-3 10,-5 -4,-11 -5,-11 -18,-10 -9,0 -19,0 -28,-1 -15,0 -38,1 -56,1l-54 0c-13,-1 -24,-10 -24,26z"/>
   <path class="fil3" d="M1173 961c7,40 73,35 68,-10 -4,-41 -75,-35 -68,10z"/>
   <path class="fil3" d="M923 852c3,-3 4,-2 7,0l3 1c3,-1 2,-1 1,2 1,1 2,-2 2,4 0,6 0,3 -2,5 1,3 1,3 -2,2l-3 2 -6 1 -6 2 -8 2 -1 -8 -2 -9 17 -4zm-24 -21c8,-1 25,-9 26,3 0,8 -16,11 -23,11l-3 -14zm-16 -7l18 62c8,-1 36,-9 41,-12 5,-4 8,-11 6,-19 -2,-9 -8,-9 -15,-13 18,-43 -42,-19 -50,-18z"/>
   <path class="fil3" d="M966 815c8,-3 26,-8 27,3 1,11 -16,12 -24,11l-3 -14zm-15 -9c1,11 10,54 14,63l11 -2 -5 -26c16,-4 26,12 34,20 3,0 5,0 8,-1l6 -3c-9,-10 -12,-14 -24,-22 5,-4 10,-4 11,-14 2,-8 -3,-15 -7,-18 -10,-7 -35,2 -48,3z"/>
   <path class="fil3" d="M1047 799c23,-7 31,35 12,42 -25,9 -37,-34 -12,-42zm-4 -10c-17,4 -27,18 -21,40 3,16 16,28 38,24 39,-9 27,-76 -17,-64z"/>
   <path class="fil3" d="M1177 834c-6,-5 -3,-37 -2,-43 5,-2 12,-2 18,0 5,2 6,4 8,9 2,7 3,20 0,27 -4,8 -14,7 -24,7zm-15 10c32,3 54,2 54,-31 0,-34 -21,-34 -53,-32l-1 63z"/>
   <path class="fil3" d="M1397 849c-3,7 -8,10 -17,7 -3,-1 -5,-3 -7,-5l-4 -10 -11 -1c0,33 37,32 47,21 9,-10 4,-22 -4,-28 -10,-6 -22,-7 -22,-18 4,-3 8,-4 15,-2 6,3 5,6 8,12l12 1c-1,-31 -37,-27 -44,-17 -17,22 21,29 27,40z"/>
   <path class="fil3" d="M1314 829c2,-9 7,-13 10,-22 2,3 2,-2 4,11 1,4 1,8 2,13l-16 -2zm-27 21l14 1 6 -12 26 3 3 15 13 2 -12 -60c-3,-9 -6,-8 -16,-8 -4,9 -32,50 -34,59z"/>
   <path class="fil3" d="M1119 799c5,4 4,6 7,11 1,5 3,7 3,11l-16 0 6 -22zm-28 48l13 0 5 -15 26 -1 6 14 13 0 -28 -63 -13 1 -22 64z"/>
   <path class="fil3" d="M1282 830l-11 -4c-5,5 -4,13 -18,11 -10,-1 -13,-9 -12,-21 0,-27 26,-29 30,-11 11,-1 16,-1 10,-11 -4,-5 -10,-10 -18,-11 -19,-2 -31,9 -34,23 -12,47 46,55 53,24z"/>
   <path class="fil0" d="M1047 799c-25,8 -13,51 12,42 19,-7 11,-49 -12,-42z"/>
   <path class="fil3" d="M1430 812l-4 8c2,1 1,1 4,2 2,1 2,1 5,2 3,1 5,1 8,3 -1,17 -12,34 -14,51l11 2 3 -5c1,-2 1,-4 2,-6l12 -38c6,-1 7,2 13,2l4 0c0,0 1,0 1,0l3 -8c-8,-4 -44,-14 -48,-13z"/>
   <path class="fil0" d="M1177 834c10,0 20,1 24,-7 3,-7 2,-20 0,-27l-1 -2c0,0 -1,-2 -2,-2 -1,-2 -2,-3 -5,-3 -5,-2 -12,-1 -17,-1l1 42z"/>
   <path class="fil3" d="M1053 1438c0,-9 7,-21 9,-30l-11 -3c-5,6 -9,15 -15,20 1,-8 2,-18 1,-25l-9 -3 -8 17c-2,7 -3,13 -7,18 3,0 2,-1 3,2 10,0 3,2 6,-4l8 -21c1,10 -1,16 -1,21 0,4 0,1 0,4 1,4 0,1 2,4 8,5 12,-13 21,-21l-7 19c-1,9 -1,3 1,6 4,0 3,1 5,-1l2 -2c0,0 0,-1 0,-1z"/>
   <path class="fil0" d="M1201 1103l44 3 0 68c-17,6 -56,-1 -73,6l75 -1c0,-2 -1,-2 2,-1l1 -2c1,-4 1,-5 1,-8 1,-6 -1,-5 2,-7l1 -12c-3,-1 -1,3 -3,-3l0 -19c0,-9 0,-18 1,-26l-2 -3 -65 2 16 3z"/>
   <path class="fil3" d="M1279 1417c6,-1 11,-2 16,0 1,7 3,6 -5,9 -7,2 -9,0 -9,-1l-2 -8zm-9 -3l7 28c2,8 0,5 5,8 9,0 -1,-10 3,-17 14,-2 9,12 27,10 -5,-7 -10,-9 -14,-14 7,-6 7,-9 3,-18 -11,-3 -19,0 -31,3z"/>
   <path class="fil3" d="M1232 1455l-2 -16 -16 1c1,8 -1,4 6,6 4,2 0,-1 3,1 -2,9 -11,9 -17,5 -8,-8 -4,-31 13,-22 4,2 3,6 10,0 -7,-14 -34,-10 -35,9 -1,10 5,18 11,20 11,4 20,-1 27,-4z"/>
   <path class="fil3" d="M1062 1429c0,3 0,4 -1,7 -2,5 -2,3 -3,5l1 1c1,5 -3,3 4,5 8,-4 -1,-8 14,-14 8,19 -2,17 15,21 -3,-9 -8,-18 -8,-27 7,-3 12,-5 16,-11l-12 0c0,2 1,1 -2,2l-14 9c0,-11 7,-16 -4,-17l-6 19z"/>
   <path class="fil3" d="M1129 1441c1,-4 2,-8 2,-11 1,-8 0,-6 -1,-8 -7,2 -1,-3 -6,7 1,4 2,5 -1,8 1,10 0,3 -2,6 -8,-13 -7,-24 -17,-25l-7 35c5,3 6,4 8,-3 1,-4 -1,-7 3,-13l2 -3c1,6 2,8 5,14 4,8 3,9 11,10 3,-5 3,-11 3,-17z"/>
   <path class="fil3" d="M999 1395c2,-2 7,-1 10,1 6,6 -3,5 8,8 3,-4 3,5 2,-6 -1,-9 -19,-14 -25,-8 -12,11 12,16 11,28 -4,2 -8,2 -11,-1 -7,-8 2,-7 -9,-10l-2 6c0,13 22,14 26,12 15,-19 -7,-18 -10,-30z"/>
   <path class="fil3" d="M1251 1429c3,3 5,6 6,11l-10 1 4 -12zm-15 29c11,-1 7,0 10,-10l15 -2c6,8 1,7 13,7l-17 -30c-4,-6 -3,-5 -11,-4l-10 39z"/>
   <path class="fil3" d="M1312 1404l-7 1c1,4 8,24 10,28 6,9 23,5 27,-4 3,-7 0,-10 -2,-18 -4,-10 -2,-11 -7,-14 -6,2 -7,-3 -1,14 2,6 6,15 1,18 -13,11 -14,-10 -21,-25z"/>
   <path class="fil3" d="M1339 1397c3,5 -3,4 11,0 5,6 8,17 11,23 3,6 -1,5 7,3 3,-9 -6,-14 -10,-31 6,-1 8,-1 9,-5 -2,-3 3,-5 -14,2 -3,1 -6,2 -9,3 -9,4 -5,2 -5,5z"/>
   <path class="fil0" d="M908 865l3 7 6 -1 6 -2 6 -1 3 -2c0,-3 -1,-2 2,-2l0 -9c-2,0 -2,1 -1,-2l-3 -1 -7 0 -17 4 2 9z"/>
   <path class="fil0" d="M966 815l3 14c8,1 25,0 24,-11 -1,-11 -19,-6 -27,-3z"/>
   <path class="fil0" d="M1053 1169l6 2c0,-12 0,-25 0,-37l-2 -38c-5,2 -4,-4 -4,15l0 58z"/>
   <path class="fil5" d="M1201 1103l-16 -3 65 -2 2 3c-1,8 -1,17 -1,26l0 19c2,6 0,2 3,3l-1 12c-3,2 -1,1 -2,7 0,3 0,4 -1,8l-1 2c-3,-1 -2,-1 -2,1l2 -1c3,1 2,1 1,-2 5,-2 3,-9 3,-15 2,-1 3,4 3,-5 0,-10 -2,-6 -2,-7 -2,-15 3,-36 -2,-48 1,-4 2,-4 -2,-3l-92 0c7,6 33,5 43,5z"/>
   <path class="fil6" d="M1295 1157l1 3c8,-2 19,-5 25,-9l0 -18 -9 3c1,0 2,1 2,1 1,0 1,1 1,1 1,0 1,0 1,1l0 12c-8,2 -11,5 -21,6zm-34 8l2 -17 7 -1c11,1 35,-3 43,-10 -14,1 -19,6 -55,9l3 19z"/>
   <path class="fil0" d="M899 831l3 14c7,0 23,-3 23,-11 -1,-12 -18,-4 -26,-3z"/>
   <path class="fil3" d="M1153 1438l9 -3 0 21c1,9 -2,3 4,5 3,-2 3,5 4,-17 0,-7 0,-13 0,-20 -11,0 -3,0 -10,5 -6,4 -7,0 -7,9z"/>
   <path class="fil0" d="M1314 829l16 2c-1,-5 -1,-9 -2,-13 -2,-13 -2,-8 -4,-11 -3,9 -8,13 -10,22z"/>
   <path class="fil0" d="M1113 821l16 0c0,-4 -2,-6 -3,-11 -3,-5 -2,-7 -7,-11l-6 22z"/>
   <path class="fil1" d="M1279 1417l2 8c0,1 2,3 9,1 8,-3 6,-2 5,-9 -5,-2 -10,-1 -16,0z"/>
   <path class="fil5" d="M1177 834l-1 -42c5,0 12,-1 17,1 3,0 4,1 5,3 1,0 2,2 2,2l1 2c-2,-5 -3,-7 -8,-9 -6,-2 -13,-2 -18,0 -1,6 -4,38 2,43z"/>
   <path class="fil5" d="M1261 1165c10,0 30,-1 35,-5l-1 -3c-6,3 -24,5 -32,5l0 -11 7 -4 -7 1 -2 17z"/>
   <path class="fil5" d="M918 1177c3,6 5,7 9,11 6,5 4,5 11,7 -1,0 -1,-1 -1,-1l-19 -17zm23 17c-8,-9 -5,-5 -12,-10l-8 -9c0,-1 -1,-1 -1,-1 3,9 6,10 15,16l6 4z"/>
   <path class="fil1" d="M1247 1441l10 -1c-1,-5 -3,-8 -6,-11l-4 12z"/>
   <path class="fil5" d="M1124 1429l-1 8c3,-3 2,-4 1,-8 5,-10 -1,-5 6,-7 1,2 2,0 1,8 0,3 -1,7 -2,11 4,-5 5,-13 4,-20l-8 -1 -1 9z"/>
   <path class="fil5" d="M930 852l3 1c-1,3 -1,2 1,2l0 9c-3,0 -2,-1 -2,2l-3 2 -6 1 -6 2 -6 1 -3 -7 1 8 8 -2 6 -2 6 -1 3 -2c3,1 3,1 2,-2 2,-2 2,1 2,-5 0,-6 -1,-3 -2,-4 1,-3 2,-3 -1,-2l-3 -1c-3,-2 -4,-3 -7,0l7 0z"/>
   <path class="fil5" d="M1326 1148c8,-5 1,4 1,-10 0,-5 2,-1 -1,-4 -4,6 -2,11 0,14z"/>
   <path class="fil5" d="M968 1030l-10 6c3,-1 3,1 9,-4l1 -2zm-4 6c6,-2 7,-2 10,-7l-7 5c-4,3 -1,0 -3,2zm10 -10l-6 3 6 -3zm-22 19l11 -7c0,-1 1,-1 1,-1 -4,1 -2,0 -6,3 0,0 -3,2 -3,2 -2,2 -1,1 -3,3zm6 -8c-6,2 -2,0 -4,3 3,-2 2,-1 4,-3z"/>
   <path class="fil5" d="M1162 1312c3,8 1,3 5,9l5 8c-1,-4 -2,-6 -3,-9l-7 -8zm4 -1c2,7 1,3 3,5 -1,-8 0,-2 -3,-5zm10 18c0,-1 -2,-6 -2,-6 -2,-4 -1,-2 -4,-4l6 10z"/>
   <path class="fil6" d="M1289 1121c4,2 7,3 12,1 -2,-6 -11,-3 -12,-1z"/>
   <path class="fil6" d="M1290 1167c4,2 8,3 11,-1 -3,-1 -10,-2 -11,1z"/>
   <path class="fil6" d="M1290 1108c4,2 7,2 11,0 -3,-2 -6,-3 -11,0z"/>
   <path class="fil6" d="M1290 1115l11 0c-2,-2 -1,-3 -6,-2 -2,0 -6,0 -5,2z"/>
   <path class="fil6" d="M1289 1133c2,3 10,6 12,1l-12 -1z"/>
  </g>
 </g>
</svg>
