<?xml version="1.0" encoding="UTF-8"?>
<!DOCTYPE svg PUBLIC "-//W3C//DTD SVG 1.1//EN" "http://www.w3.org/Graphics/SVG/1.1/DTD/svg11.dtd">
<!-- Creator: CorelDRAW X7 -->
<svg xmlns="http://www.w3.org/2000/svg" xml:space="preserve" width="2362px" height="2362px" version="1.1" style="shape-rendering:geometricPrecision; text-rendering:geometricPrecision; image-rendering:optimizeQuality; fill-rule:evenodd; clip-rule:evenodd"
viewBox="0 0 2362 2362"
 xmlns:xlink="http://www.w3.org/1999/xlink">
 <defs>
  <style type="text/css">
   <![CDATA[
    .fil2 {fill:black}
    .fil6 {fill:#6C6B6B}
    .fil5 {fill:#919191}
    .fil0 {fill:#DD2026}
    .fil1 {fill:#FCCD09}
    .fil3 {fill:#FEF8B8}
    .fil4 {fill:white}
   ]]>
  </style>
 </defs>
 <g id="Layer_x0020_1">
  <metadata id="CorelCorpID_0Corel-Layer"/>
  <g id="_3161191640848">
   <path class="fil0" d="M976 1274l311 1 0 -12c-10,-6 -23,-16 -22,-30 34,4 5,-4 34,-10 17,-3 16,-7 30,-16 53,-33 40,-7 45,-38 27,0 13,6 27,15 7,-6 5,-3 8,-13 10,-33 -7,-32 -12,-43l-3 -9c-1,0 -1,-1 -1,-2 -5,-10 -4,0 -4,-10 0,-6 2,-2 4,-15 0,-5 -1,-11 -1,-17l-6 -5c-1,-1 -1,-1 -2,-2l-367 0c-7,8 8,-9 -3,5 -4,5 -1,1 -4,4 -28,29 2,5 -11,20 -15,16 -18,6 -40,9 1,18 12,27 9,35 -8,28 -5,17 -13,28 4,10 3,2 4,12 1,8 -7,9 14,25 1,24 3,24 -14,33l1 22c10,7 14,2 16,13z"/>
   <path class="fil1" d="M974 1277l-5 10c-2,6 8,20 16,28 4,5 -3,-1 6,3l11 5c10,4 8,1 21,0 14,14 11,4 42,17 -5,27 -22,18 -28,48 -9,46 -24,59 -1,64 24,4 15,-11 32,2 0,-5 -1,-7 1,-11 3,-6 0,-2 6,-6 17,1 10,0 21,7 8,4 54,11 62,17 13,8 2,13 15,18 10,-12 5,-6 7,-24 23,0 33,14 33,14 23,-3 35,-23 60,-16 7,-10 -1,-4 9,-11 17,5 2,6 25,4 7,9 2,8 12,13 9,-13 -11,-38 -13,-51 6,-7 19,-15 31,-17l4 -18 20 -4c0,-24 -9,-19 -20,-26 -2,-2 -6,-7 -12,-11 -9,-7 -2,0 -10,-10 -10,-12 1,-2 -13,-10 -5,-2 -8,-5 -11,-8 -8,-14 -12,-22 -8,-29l-311 -1 -2 3z"/>
   <path class="fil2" d="M1106 936c4,13 9,-3 19,11 -8,4 -10,5 -20,3l-4 -3 -10 0 -4 42c-6,-12 4,-10 -8,-19 -7,13 6,-13 -1,6 -2,8 -1,6 -7,8 -5,-13 -1,-12 -10,-25l-27 3c-7,1 -4,-1 -8,3 -8,7 -9,13 -8,20 11,0 6,-3 15,2l-8 12c1,25 -7,23 -9,44 -21,2 -11,-4 -18,11l17 4 2 10 367 0c-5,-12 1,-7 2,-21 -9,-8 -19,-12 -28,-23 5,-11 14,-20 14,-31l-10 -36c-5,-6 -15,-2 -20,-17 -10,-28 -5,-14 -18,-16 -7,-1 -1,3 -9,-4 -2,-2 -3,-5 -5,-7 -8,-9 -6,-8 -17,-8 -29,0 -13,17 -54,20 -1,13 -5,12 -10,21 -11,-4 -9,-1 -13,-13l-8 3c-4,7 0,3 -7,7 -1,-1 -4,-2 -4,-5 -4,-16 0,-6 2,-9 10,-9 12,-2 11,-21 -14,0 -8,4 -22,-1 -13,-4 -8,-6 -20,1l-2 -4c-1,0 -1,-1 -2,-2l-14 -3c3,-15 -2,-2 9,-6 0,-21 -6,-18 -25,-21 -17,-2 -16,-14 -33,-5 -4,14 8,9 13,26 -9,15 -12,2 -17,17 6,3 3,1 14,0 -7,12 -4,0 -8,12 14,4 7,-1 11,9l-8 5z"/>
   <path class="fil2" d="M855 884c-2,-4 -3,-4 2,-3 -1,-4 -2,-3 3,-3 0,-5 -1,-3 4,-1 4,-8 8,-5 14,-1 6,1 3,-1 3,4 5,0 4,-1 3,3l7 9 1 7c-4,8 -5,7 -10,13l-6 -1c-4,2 -3,2 -3,-3 -4,1 -3,2 -2,-3 -5,1 -4,2 -3,-2 -5,0 -4,1 -3,-3 -4,0 -3,1 -3,-3 -4,0 -3,1 -3,-3l-2 -3c-5,0 -4,1 -2,-3l0 -4zm-19 -1c4,11 32,39 41,46 16,-8 39,-33 17,-56 -27,-28 -42,-1 -58,10z"/>
   <path class="fil2" d="M1207 741c0,15 -7,45 -2,54l8 1 4 -24 30 2 -2 19c1,7 -1,2 2,7 11,-1 10,7 14,-44 1,-5 1,-12 -2,-16 -14,0 -6,-8 -12,21l-27 -2 -1 -10 0 -12c-13,0 -6,-2 -12,4z"/>
   <path class="fil2" d="M1475 898c-2,-5 -4,-5 1,-4l3 -3c1,0 2,-1 2,-1 1,0 2,0 2,0 6,-1 5,-3 5,2 4,0 3,-1 2,3 5,-1 4,-2 3,3l3 3 -1 6c0,5 1,4 -3,3 0,0 -9,10 -8,0 -5,1 -4,2 -3,-3 -4,1 -3,2 -3,-3 -5,1 -4,2 -2,-3l-1 -3zm18 -24c13,-8 30,27 10,18 -7,-3 -11,-10 -10,-18zm2 -15l-2 3c1,4 1,3 -3,3 0,4 1,3 -3,3 0,4 1,3 -3,3 1,4 1,3 -3,2 0,4 1,4 -3,3 1,4 1,3 -3,3 1,4 2,4 -3,3 1,4 2,3 -2,3 0,4 1,3 -3,3 1,4 2,3 -3,2l-3 4c1,4 2,2 -3,2l0 5c5,0 4,-1 3,3 4,0 3,-1 3,4 5,-2 4,-3 3,2l3 3c4,-1 3,-2 3,3 4,-1 3,-2 2,2l5 5 17 -2 4 -2 3 -3c-2,-6 -3,-5 2,-5 4,-17 3,-3 13,-14 5,-6 5,-11 1,-19 -5,0 -4,1 -3,-4l-3 -3c-4,1 -3,2 -3,-3 -5,1 -4,2 -3,-2 -4,0 -3,1 -3,-3 -5,1 -4,2 -2,-3 -5,1 -4,2 -4,-3l1 0 -5 2z"/>
   <path class="fil2" d="M1481 839l-9 -5c-6,5 -11,13 -16,20 -17,25 -38,13 -18,-15 7,-9 14,-14 13,-24 -14,-3 -10,0 -27,21 -26,34 16,59 35,35 4,-5 19,-26 22,-32z"/>
   <path class="fil2" d="M1086 780c8,-1 15,1 19,1 0,10 0,10 -8,13 -1,0 -12,-3 -13,-3 -8,0 -4,-1 -9,5 0,0 0,13 24,9 10,-2 16,-6 18,-15 7,-29 -22,-16 -36,-26 4,-20 14,-1 27,-13 -17,-31 -68,24 -22,29z"/>
   <path class="fil2" d="M984 805c7,9 6,9 8,20 -6,9 -3,5 -9,10 -13,4 -27,-25 -29,-34 -3,-6 6,-5 -6,-4 -11,1 -8,5 4,27 7,12 12,25 30,23 44,-5 4,-63 2,-68l-12 4 12 22z"/>
   <path class="fil2" d="M943 872l7 -6c0,0 1,-1 1,-1 0,-1 1,-1 1,-2 1,0 1,-1 1,-1 -7,-8 -5,-4 -23,7l-9 -13c5,-5 6,-4 11,-9 6,-6 4,-5 0,-12l-11 6c-7,9 -6,5 -13,2 5,-23 15,-6 17,-24 -8,-5 -10,-2 -18,4 -7,4 -11,8 -16,11 4,15 24,39 33,51l19 -13z"/>
   <path class="fil2" d="M861 1444c-3,-6 2,-5 -7,-4l-17 4c3,-10 6,-12 12,-21 4,-6 7,-11 9,-17l-9 -14c-8,13 5,3 -15,19 0,0 -1,1 -1,1 -6,4 -30,19 -31,16 0,-1 -1,0 -1,0l11 12c5,-12 5,-12 26,-26 4,-2 6,-3 10,-5l-18 29 1 13 30 -7zm1 -7l-3 -1c5,3 -6,5 10,2l-7 -1zm-4 18c-4,2 -9,8 -13,10l-12 3 12 11c14,-22 23,-18 35,-35 6,2 3,1 7,4 -1,-9 -2,-7 -5,-16l-13 2c0,0 1,0 1,1l3 6 -15 14z"/>
   <path class="fil2" d="M1187 782c-14,-13 -6,6 -34,0 -9,-6 -14,-36 11,-35 12,0 -1,2 9,1 8,-1 4,1 9,-3 -3,-7 -3,-8 -12,-10 -21,-5 -38,9 -37,33 2,31 43,39 54,14z"/>
   <path class="fil3" d="M1075 1437c-6,4 -3,0 -6,6 -2,4 -1,6 -1,11 -17,-13 -8,2 -32,-2 -23,-5 -8,-18 1,-64 6,-30 23,-21 28,-48 -31,-13 -28,-3 -42,-17 -13,1 -11,4 -21,0l-11 -5c-9,-4 -2,2 -6,-3 -8,-8 -18,-22 -16,-28l5 -10c-1,1 -2,2 -3,2 0,0 -1,1 -2,1l-6 3c1,13 12,34 26,39 7,2 4,0 9,3 20,10 7,2 19,3 14,2 -1,2 13,7 7,2 20,4 30,7 -6,15 -7,12 -17,22 -7,7 -17,46 -18,56 -1,9 -15,32 6,37 4,1 3,0 6,0 19,1 14,-3 27,-1 1,1 6,2 9,3 1,-11 -1,-13 2,-22z"/>
   <path class="fil2" d="M1353 812c0,0 -45,3 -30,-28 3,-6 10,-11 20,-9 14,3 6,12 21,6 -1,-26 -45,-26 -54,3 -5,15 2,28 9,34 4,3 31,17 34,-6z"/>
   <path class="fil2" d="M986 1522c10,16 -20,57 -22,53 0,-1 -1,1 -2,1 10,4 9,6 19,5 -10,-9 1,-16 13,-45l4 16c1,13 2,34 6,44 17,-5 10,-18 25,-41 7,-10 1,-2 6,-6l6 -4c-9,-3 -9,-4 -18,-6 7,17 -1,13 -12,43 -6,-11 -6,-36 -7,-53l-18 -7z"/>
   <path class="fil2" d="M939 1505c9,-6 8,-4 15,-3l-7 -10c-5,0 -3,-1 -4,5 -8,6 -18,5 -30,6 2,-6 3,-9 8,-14 4,-4 2,-1 7,-4 7,-3 -1,2 6,-3 -11,-4 -7,-5 -17,-11 -5,13 6,1 -1,12 -4,6 -28,37 -34,37l18 11c-5,-13 -1,-21 14,-23 -1,23 -9,39 13,42 -6,-11 -7,-13 -6,-31 1,-16 2,-13 18,-14z"/>
   <path class="fil2" d="M1259 1616c-21,11 -37,1 -36,-26 0,-6 1,-9 5,-14 12,-16 27,2 35,6l-6 -18c-13,3 -17,-1 -27,3 -25,11 -19,60 12,60l27 -7c-4,-14 -6,-17 3,-26l-23 2 8 8c3,5 2,7 2,12z"/>
   <path class="fil2" d="M1411 1547c-12,-10 -1,-15 11,-8l6 6c3,2 7,5 13,4 9,-1 7,-2 8,-9 -9,3 -10,3 -17,-4l-17 -5c2,-3 4,-5 7,-8 -1,-10 -3,-23 -20,-18 -13,4 -4,2 -7,6l13 -1 3 2c5,-1 3,-1 2,4 3,6 5,7 0,12 1,5 2,5 -3,3 1,5 2,3 -3,3 -1,1 -8,9 -6,0l-6 -8 -2 -5c-2,-4 -2,-1 -1,-5 0,-1 2,-2 2,-3 0,-1 1,-2 1,-2 -9,2 -14,6 -19,11 9,3 4,-3 13,7 11,15 22,30 16,41 9,-2 13,-7 22,-10 -4,-3 -13,1 -16,-13z"/>
   <path class="fil2" d="M1021 762l-7 3 -9 3 1 12 14 -4c8,14 9,36 20,45l8 -3 -16 -48c15,-4 11,0 14,-12 -11,-4 -13,1 -25,4z"/>
   <path class="fil2" d="M1389 787c0,8 1,4 -3,5 1,5 3,5 -2,5 -5,14 -14,25 -20,40l19 10c10,5 2,4 12,4l-6 -14c0,-1 -1,-1 -2,-2l-6 -1 11 -25 3 -5 3 -5 4 -5 0 -7 -5 -1 -6 -2c1,4 2,3 -2,3z"/>
   <path class="fil2" d="M818 1339c5,14 0,16 -2,27l14 -9c-8,-9 -6,-30 -26,-26 -17,4 -10,28 -14,42l-16 -1c-6,-17 -3,-15 3,-30l-16 7c4,8 2,1 4,9 2,5 0,6 3,12 3,6 9,11 18,10 20,-2 13,-26 16,-42l16 1z"/>
   <path class="fil2" d="M1485 1493c-13,-5 -19,-15 -28,-24l-4 -4c0,-2 -2,-1 -3,-2 -1,3 -1,5 -2,7l-1 5 3 0c9,-4 22,13 27,19 2,2 3,3 5,5l3 3c20,3 45,-18 13,-49 -22,-21 -7,-10 -15,-21 -6,6 -7,5 -11,13 13,5 1,-6 13,5 20,20 31,24 16,45l-16 -2z"/>
   <path class="fil2" d="M1325 1602c-5,-6 -2,6 -3,-8 -2,-14 0,-4 2,-7 2,-3 -6,-4 6,-2 -1,0 -1,-1 -2,-1 0,0 -1,-1 -1,-1l-6 -4c0,-2 -1,-13 -1,-14 2,-22 1,-7 6,-13 4,2 1,2 3,6l2 3c4,0 3,-1 2,4l2 4c4,-1 3,-2 3,3l1 1c5,4 4,1 -1,3 -2,4 5,4 -6,2 -1,5 -2,3 4,4l3 0c3,-6 -2,-1 5,-2 0,0 1,1 1,1 0,-1 1,1 2,1l1 4c5,-1 4,-1 4,4 0,1 -3,7 -3,8l19 -7 -23 -24c-23,-25 -13,-22 -26,-21 -5,29 5,43 -6,66l12 -10z"/>
   <path class="fil2" d="M1360 886c-27,-4 -1,-3 -19,-10 -12,13 -8,7 -6,19 2,18 -4,9 7,20 31,-9 18,1 25,-11l-11 -9 4 -9z"/>
   <path class="fil2" d="M1527 1369c-2,5 -1,3 -3,6 0,0 -2,2 -2,1 0,0 -1,1 -1,1l-4 6c-11,32 -13,12 -2,32l4 0c-3,-8 -4,-10 -7,-18l5 -7c0,-1 0,-1 0,-2 25,12 21,17 23,14 0,-1 1,1 1,1 4,2 8,4 12,7 11,7 5,0 8,9 0,6 -2,5 3,4 -3,-12 -1,1 2,-4l9 -17c-7,3 -5,4 -13,4l-5 -2 -4 -5 -5 -1 -5 -4 -4 -4 -5 -1 -4 -4 -6 -2c2,-7 0,-3 2,-6l4 -3c-1,-4 -2,-2 3,-2l13 0c-3,-5 5,-3 -7,-5l-11 -3 -1 5z"/>
   <path class="fil4" d="M860 878c0,4 1,3 -3,3l-2 3 0 4 2 3c4,0 3,-1 2,3l3 3c5,-1 4,-2 3,3 4,-1 3,-2 3,3 4,-1 3,-2 3,2 4,0 3,-1 2,3 4,0 3,-1 3,3l8 -2 8 -10 -1 -7 -7 -9c-4,1 -3,2 -3,-3l-3 -4 -14 1 -4 1z"/>
   <path class="fil2" d="M749 1193c-23,0 -34,-4 -40,5 3,2 -3,2 9,3l34 0c12,0 31,4 41,-3 -5,-7 4,-4 -9,-5l-35 0z"/>
   <path class="fil2" d="M1623 1196c-20,0 -49,-4 -53,5 7,5 76,5 83,0 -3,-7 1,-5 -12,-6 -6,0 -12,1 -18,1z"/>
   <path class="fil2" d="M1110 1619l-2 6 11 0c14,0 3,0 7,-3 -5,-4 -6,8 -5,-9 0,-6 3,-7 4,-8l4 -39 -17 0c2,6 0,1 4,5 3,4 1,0 4,5 -1,10 -1,40 -10,43z"/>
   <path class="fil5" d="M1495 859c-4,-1 -3,-2 -2,3 -5,0 -4,-2 -3,3l-3 3c-5,-1 -4,-2 -3,3 -4,-1 -3,-2 -3,2 -4,0 -3,-1 -3,3 -4,0 -3,-1 -3,3 -4,0 -3,-1 -3,3 -4,-1 -3,-2 -2,3 -5,-1 -4,-2 -3,3l-3 2c-5,0 -4,-1 -3,4 -4,-1 -4,-2 -3,2 -4,-1 -3,-1 -1,3 0,0 0,1 0,1 0,0 1,1 1,1 0,5 -1,4 3,3 -1,6 -2,5 3,4l3 2c-1,5 -2,4 3,3l3 3 2 2c2,5 -4,4 5,5 9,5 10,5 17,-2l4 -2c6,2 4,2 3,-3l2 -5c-5,0 -4,-1 -2,5l-3 3 -4 2 -17 2 -5 -5c1,-4 2,-3 -2,-2 0,-5 1,-4 -3,-3l-3 -3c1,-5 2,-4 -3,-2 0,-5 1,-4 -3,-4 1,-4 2,-3 -3,-3l0 -5c5,0 4,2 3,-2l3 -4c5,1 4,2 3,-2 4,0 3,1 3,-3 4,0 3,1 2,-3 5,1 4,1 3,-3 4,0 4,1 3,-3 4,1 3,1 3,-3 4,1 4,2 3,-2 4,0 3,1 3,-3 4,0 3,1 3,-3 4,0 4,1 3,-3l2 -3 5 -2 -1 0c0,5 -1,4 4,3 -2,5 -3,4 2,3 0,4 -1,3 3,3 -1,4 -2,3 3,2 0,5 -1,4 3,3l3 3c-1,5 -2,4 3,4l-3 -4c1,-5 2,-4 -3,-3 0,-4 1,-3 -3,-3 0,-4 1,-3 -3,-2 2,-5 3,-4 -3,-3 1,-5 2,-4 -2,-3 1,-5 2,-4 -4,-3l1 0 -5 2z"/>
   <path class="fil6" d="M1447 1475l1 -5c1,-2 1,-4 2,-7 1,1 3,0 3,2l4 4c9,9 15,19 28,24l-9 -9c-26,-23 -10,-10 -18,-27 -17,6 -14,17 -15,14 0,0 -1,2 -1,3 4,2 1,3 5,1zm38 27l-3 -3c-2,-2 -3,-3 -5,-5 -5,-6 -18,-23 -27,-19 9,3 3,-1 10,6 8,7 12,15 25,21z"/>
   <path class="fil5" d="M1330 1585c-12,-2 -4,-1 -6,2 -2,3 -4,-7 -2,7 1,14 -2,2 3,8l-1 -15 6 -2 6 -3c-6,-1 -5,1 -4,-4 11,2 4,2 6,-2 5,-2 6,1 1,-3l-1 3 -6 2c-15,1 -3,0 -8,-2 -1,-3 -1,-8 -1,-11 3,-10 -5,-1 6,-7 -1,4 -3,3 2,3l2 4 2 4c-2,5 -2,3 3,3 0,-5 1,-4 -3,-3l-2 -4c1,-5 2,-4 -2,-4l-2 -3c-2,-4 1,-4 -3,-6 -5,6 -4,-9 -6,13 0,1 1,12 1,14l6 4c0,0 1,1 1,1 1,0 1,1 2,1zm17 -3l1 4c-1,6 -2,4 4,4 0,-5 1,-5 -4,-4l-1 -4c-1,0 -2,-2 -2,-1 0,0 -1,-1 -1,-1 -7,1 -2,-4 -5,2l8 0z"/>
   <path class="fil4" d="M1476 894l-1 4 1 3 2 3c5,-1 3,-1 3,3l3 3 8 0 3 -3 1 -6c-4,0 -3,1 -3,-3 -4,0 -3,1 -3,-3 -4,0 -3,1 -2,-3l-9 -1c2,6 3,5 -3,3z"/>
   <path class="fil5" d="M921 841l11 -6c4,7 6,6 0,12 -5,5 -6,4 -11,9l9 13c18,-11 16,-15 23,-7 0,0 0,1 -1,1 0,1 -1,1 -1,2 0,0 -1,1 -1,1l-7 6c6,-2 9,-4 14,-7 -4,-7 -3,-4 -6,-12l-22 14c-3,-5 -3,-6 -6,-11 9,-5 11,-8 16,-14 -2,-4 -1,-7 -8,-8 0,0 -5,2 -5,2 -5,3 -2,2 -5,5z"/>
   <path class="fil5" d="M1411 1512l2 4 0 12c-4,0 -3,-1 -3,3 -4,-1 -3,-2 -3,3l-6 0 -6 -8c1,-6 3,-5 -2,-5l2 5 6 8c-2,9 5,1 6,0 5,0 4,2 3,-3 5,2 4,2 3,-3 5,-5 3,-6 0,-12 1,-5 3,-5 -2,-4l-3 -2c0,4 -1,3 3,2zm21 24c-3,-2 -2,-2 -6,-4 -4,-2 -4,-2 -6,-2l2 -7c-3,3 -5,5 -7,8l17 5zm-21 11c-2,-4 1,-2 -4,-8 12,-1 12,2 21,6l-6 -6c-12,-7 -23,-2 -11,8z"/>
   <path class="fil6" d="M984 805c12,34 -6,36 -20,13l-7 -13c-1,-1 -1,-1 -2,-2 0,0 0,-1 -1,-2 2,9 16,38 29,34 6,-5 3,-1 9,-10 -2,-11 -1,-11 -8,-20z"/>
   <path class="fil5" d="M1517 1383c-1,0 -1,1 -2,2 0,0 -1,1 -1,1l-5 8c-2,4 -3,5 -5,11 6,7 2,4 11,10 -11,-20 -9,0 2,-32zm2 32c1,-6 -1,-5 -2,-11 -2,-10 -2,-3 2,-12 14,3 9,7 22,11 0,0 -1,-2 -1,-1 -2,3 2,-2 -23,-14 0,1 0,1 0,2l-5 7c3,8 4,10 7,18z"/>
   <path class="fil4" d="M1332 1578l6 -2 1 -3 -1 -1c-5,0 -5,2 -3,-3l-2 -4 -2 -4c-5,0 -3,1 -2,-3 -11,6 -3,-3 -6,7 0,3 0,8 1,11 5,2 -7,3 8,2z"/>
   <path class="fil5" d="M862 1437l7 1c-16,3 -5,1 -10,-2l-5 4c9,-1 4,-2 7,4 7,1 3,-1 6,2 -12,6 -4,-1 -9,9l15 -14 -3 -6c0,-1 -1,-1 -1,-1l13 -2c3,9 4,7 5,16 4,-3 6,4 0,-9 -3,-6 -2,-4 -4,-11l-21 9z"/>
   <path class="fil5" d="M860 878c-5,0 -4,-1 -3,3 -5,-1 -4,-1 -2,3l0 4c-2,4 -3,3 2,3l2 3c0,4 -1,3 3,3 0,4 -1,3 3,3 -1,4 -2,3 3,3 -1,4 -2,3 3,2 -1,5 -2,4 2,3 0,5 -1,5 3,3l6 1c5,-6 6,-5 10,-13l-8 10 -8 2c0,-4 1,-3 -3,-3 1,-4 2,-3 -2,-3 0,-4 1,-3 -3,-2 0,-5 1,-4 -3,-3 1,-5 2,-4 -3,-3l-3 -3c1,-4 2,-3 -2,-3l-2 -3 0 -4 2 -3c4,0 3,1 3,-3l4 -1 14 -1 3 4c0,5 -1,4 3,3l7 9 -7 -9c1,-4 2,-3 -3,-3 0,-5 3,-3 -3,-4 -6,-4 -10,-7 -14,1 -5,-2 -4,-4 -4,1z"/>
   <path class="fil6" d="M1025 999l8 -12c-9,-5 -4,-2 -15,-2 -1,-7 0,-13 8,-20 4,-4 1,-2 8,-3 0,0 -1,-7 -9,-1 0,0 -12,13 -10,25 5,3 4,2 7,2l7 3c-4,3 -3,-9 -4,8z"/>
   <path class="fil5" d="M1496 879c0,-1 0,-1 1,-2 0,0 0,-1 5,1 5,2 6,7 8,13 -6,-2 -13,-4 -14,-12zm-3 -5c-1,8 3,15 10,18 20,9 3,-26 -10,-18z"/>
   <path class="fil5" d="M1383 847c4,5 0,4 12,8 5,-5 4,-2 8,-10 -11,-11 -9,-7 -16,-10 1,1 2,1 2,2l6 14c-10,0 -2,1 -12,-4z"/>
   <path class="fil5" d="M1101 947l4 3c10,2 12,1 20,-3 -10,-14 -15,2 -19,-11l-3 4c4,2 14,4 19,7l-21 0z"/>
   <path class="fil6" d="M1119 1625c8,5 3,4 14,2 -5,-10 -1,0 -9,-11l1 -11c-1,1 -4,2 -4,8 -1,17 0,5 5,9 -4,3 7,3 -7,3z"/>
   <path class="fil5" d="M1476 894c-5,-1 -3,-1 -1,4l1 3c-2,5 -3,4 2,3 0,5 -1,4 3,3 -1,5 -2,4 3,3 -1,10 8,0 8,0 4,1 3,2 3,-3l-3 3 -8 0 -3 -3c0,-4 2,-4 -3,-3l-2 -3 -1 -3 1 -4c6,2 5,3 3,-3l9 1c-1,4 -2,3 2,3 0,4 -1,3 3,3 0,4 -1,3 3,3l-3 -3c1,-5 2,-4 -3,-3 1,-4 2,-3 -2,-3 0,-5 1,-3 -5,-2 0,0 -1,0 -2,0 0,0 -1,1 -2,1l-3 3z"/>
   <path class="fil4" d="M1497 877c-1,1 -1,1 -1,2 1,8 8,10 14,12 -2,-6 -3,-11 -8,-13 -5,-2 -5,-1 -5,-1z"/>
   <path class="fil5" d="M1527 1369l1 -5 11 3c-2,-4 4,-2 -5,-5 -15,-4 -3,-1 -6,2l-1 5 -6 8c0,0 1,-1 1,-1 0,1 2,-1 2,-1 2,-3 1,-1 3,-6zm3 16l4 4 5 1 4 4 5 4 5 1 4 5 5 2c0,-5 0,-4 -5,-2l-4 -5 -5 -1 -5 -4 -4 -4 -5 -1 -4 -4c-3,-5 -1,0 -2,-5 0,0 1,-3 2,-6 4,0 3,2 3,-2 -5,0 -4,-2 -3,2l-4 3c-2,3 0,-1 -2,6l6 2z"/>
   <path class="fil6" d="M943 1497c1,-6 -1,-5 4,-5l7 10c-7,-1 -6,-3 -15,3l20 1 -9 -11c-4,-3 -5,-3 -11,-5l4 7z"/>
   <path class="fil5" d="M1097 794c8,-3 8,-3 8,-13 -4,0 -11,-2 -19,-1l17 4c-4,10 1,2 -6,10z"/>
   <path class="fil5" d="M1208 936c-4,2 -3,1 -9,4l0 -11c-2,3 -6,-7 -2,9 0,3 3,4 4,5 7,-4 3,0 7,-7z"/>
   <path class="fil6" d="M1207 741c6,-6 -1,-4 12,-4l0 12c4,-8 3,-4 2,-14l-11 -2 -3 8z"/>
   <path class="fil5" d="M1005 768c-5,2 -5,-7 -3,5 1,13 -1,3 4,7l-1 -12 9 -3 7 -3 -7 3 -9 3z"/>
   <path class="fil5" d="M1389 787l-3 5 -2 5c5,0 3,0 2,-5 4,-1 3,3 3,-5 4,0 3,1 2,-3l6 2 5 1 0 7 -4 5 -3 5 -3 5c6,0 4,1 3,-5l3 -5 4 -5 0 -7 -5 -1 -6 -2c-5,-3 -4,-3 -2,3z"/>
   <path class="fil5" d="M1566 1419c-3,5 -5,-8 -2,4 -5,1 -3,2 -3,-4 -2,3 -2,1 -2,5 0,1 1,2 3,4l4 -9z"/>
   <polygon class="fil6" points="1108,1625 1110,1619 1102,1623 "/>
  </g>
 </g>
</svg>
