<?xml version="1.0" encoding="UTF-8"?>
<!DOCTYPE svg PUBLIC "-//W3C//DTD SVG 1.1//EN" "http://www.w3.org/Graphics/SVG/1.1/DTD/svg11.dtd">
<!-- Creator: CorelDRAW X7 -->
<svg xmlns="http://www.w3.org/2000/svg" xml:space="preserve" width="2362px" height="2362px" version="1.1" style="shape-rendering:geometricPrecision; text-rendering:geometricPrecision; image-rendering:optimizeQuality; fill-rule:evenodd; clip-rule:evenodd"
viewBox="0 0 2362 2362"
 xmlns:xlink="http://www.w3.org/1999/xlink">
 <defs>
  <style type="text/css">
   <![CDATA[
    .fil0 {fill:#006D2E}
    .fil1 {fill:#D4E57C}
    .fil2 {fill:#FEEE00}
    .fil3 {fill:white}
   ]]>
  </style>
 </defs>
 <g id="Layer_x0020_1">
  <metadata id="CorelCorpID_0Corel-Layer"/>
  <g id="_2133602129504">
   <path class="fil0" d="M1119 1396l8 0 3 0 0 53 -3 0 -8 0 0 -53zm134 53l-11 0 20 -53 7 0 20 53c-11,0 -11,1 -12,-4 -1,-2 -1,-3 -3,-4l-17 0c-2,1 -1,0 -3,3 0,2 -1,4 -1,5zm-84 -22c3,8 9,15 12,22l-13 0c-2,-5 -9,-16 -12,-21l-5 0 0 21 -10 0 0 -53c11,0 29,-2 34,5 5,6 7,21 -6,26zm47 16c-11,0 -7,3 -15,-24l-2 -4 0 34c-4,1 -5,0 -10,0l0 -53 14 0 10 35 10 -35 13 0 0 53 -9 0 0 -35c-3,5 -6,19 -9,26 -1,3 0,2 -2,3zm60 -87c-4,-1 -58,-30 -67,-34 -6,-3 -16,-9 -22,-11 2,-3 13,-8 16,-10 25,-13 22,-15 38,-9 6,3 8,9 11,15 -5,-2 -20,-15 -28,-8 -7,5 11,18 15,20 8,5 17,9 27,13 7,3 6,3 9,10 4,7 6,8 1,14zm-166 -49c1,-3 3,-6 4,-9 3,-4 3,-3 8,-5 9,-5 9,-7 19,-2 11,6 23,14 34,19 -2,3 -8,5 -11,6l-68 35c-5,3 -8,6 -12,1 -1,-4 3,-9 5,-13 4,-8 17,-8 35,-20 4,-3 21,-15 14,-20 -9,-6 -23,6 -28,8zm71 -32c-1,-2 -14,-12 -18,-14 -7,-5 -14,-8 -23,-11 -9,-4 -44,-16 -49,-20 2,-3 15,-25 18,-26 6,-3 46,15 58,23 8,5 9,8 14,15 1,-1 0,-1 2,-2 6,-6 2,-4 12,-12 11,-10 53,-25 60,-25 4,6 8,14 12,19 2,3 3,4 3,8 -8,8 -33,16 -46,21 -37,13 -27,14 -43,24zm82 -70c9,-1 15,7 18,13 4,6 11,14 13,20 -4,3 -84,44 -95,50 -6,3 -6,3 -13,-4 1,-7 16,-18 23,-22 39,-26 81,-12 63,-43 -2,-3 -7,-12 -9,-14zm-194 34c1,-3 16,-27 19,-30 3,-3 8,-4 12,-4 -2,5 -16,23 -15,27 2,8 47,18 61,26l26 18c5,5 4,11 -2,13 -5,1 -12,-4 -15,-6 -20,-11 -36,-19 -57,-30 -7,-3 -25,-11 -29,-14zm220 -38c9,0 12,10 16,17 2,4 11,17 11,21l-97 51c-6,3 -11,6 -17,9 -16,9 -18,11 -19,6 0,-3 0,-3 2,-5l91 -46c5,-3 29,-15 32,-18l-19 -35zm-235 35c21,11 43,22 65,33 10,6 21,12 32,17l24 13c5,2 5,3 4,9l-134 -68c1,-4 16,-28 19,-33 2,-3 5,-6 10,-7l-20 36zm69 -58c9,-8 76,-7 94,-4 5,1 9,2 14,3 3,0 5,1 7,1l5 3c-1,3 -3,3 -5,4 -11,4 -12,3 -21,0 -11,-4 -20,-4 -32,-4 -9,0 -28,-1 -35,1 -6,2 -8,4 -15,2 -5,-1 -11,-3 -12,-6zm55 -72c7,-1 11,1 14,5l15 14c5,4 9,8 12,15 3,5 4,10 5,15 1,21 -3,14 -21,13 -18,-2 -37,-2 -55,0 -8,1 -10,3 -10,-7 0,-19 6,-28 19,-38l11 -9c3,-2 5,-7 10,-8zm-6 -61c-1,19 9,25 25,18 -3,5 -7,7 -13,8 -2,13 0,15 0,23 1,11 0,3 3,10l-10 0c1,-4 3,-3 2,-6 0,-10 -1,-16 1,-27 -4,-4 -8,-5 -10,-10 -2,-6 -1,-13 2,-16zm-215 339c-2,0 -1,16 -1,21l-176 0c5,4 71,43 77,48l0 1c-4,3 -73,47 -77,52l233 0c-2,-4 -3,-3 -6,-6l-11 -10c-4,-4 -25,-21 -27,-24l423 0c-1,2 -19,17 -21,19 -5,4 -7,7 -11,10 -3,2 -10,8 -11,11l232 0c-2,-3 -33,-23 -38,-27 -7,-4 -13,-8 -19,-13 -4,-2 -7,-4 -10,-6 -2,-2 -8,-5 -10,-7 5,-4 31,-19 39,-24 8,-5 34,-20 38,-24l-175 0c0,-4 0,-7 0,-11 0,-5 1,-9 -1,-10l-59 0 88 -269c-5,-4 -11,-8 -16,-12l-47 -34c-11,-8 -22,-15 -32,-23l-47 -35c-6,-3 -11,-8 -16,-11 -11,-8 -21,-16 -32,-23 -4,-3 -61,-45 -64,-46l-63 46c-5,3 -10,7 -15,11 -6,4 -10,8 -16,11 -9,6 -22,17 -32,24l-31 22c-10,8 -21,15 -32,23 -11,9 -54,39 -63,47l87 269 -58 0z"/>
   <path class="fil1" d="M1378 1300c5,-2 -3,1 2,-1 3,-1 12,0 14,-3 2,-2 4,-10 7,-13 1,2 6,12 7,14 3,2 12,2 17,3 -14,16 -13,4 -9,28 -4,-1 -12,-7 -15,-7 -2,0 -11,6 -15,7 1,-4 4,-15 2,-17 -1,-2 -9,-9 -11,-10l1 -1zm-441 0c4,-2 13,0 16,-4 3,-2 5,-10 7,-13 2,2 1,1 2,3l6 11c3,3 12,1 16,3l-12 12 3 16c-3,-1 -12,-7 -15,-7 -2,0 -11,6 -14,7 2,-19 7,-13 -9,-28zm473 -101c4,-1 7,-1 10,-1 3,-1 5,-1 7,-3 2,-3 4,-10 7,-13 2,4 5,12 8,15l15 2c-1,2 -1,2 -2,3 -13,13 -9,5 -7,25 -3,-1 -12,-7 -15,-7 -2,0 -10,6 -14,7l2 -17c-1,-1 -10,-9 -11,-11zm-506 0c4,-1 14,-1 17,-4 3,-3 4,-9 7,-13 3,4 3,9 7,13 2,3 12,3 16,4 -2,5 -9,8 -11,11 -1,4 2,13 2,17 -1,0 -13,-7 -14,-7 -3,0 -11,6 -15,7 0,-3 1,-7 1,-10 1,-3 2,-5 0,-7l-8 -8c0,0 0,-1 -1,-1 -1,-2 0,0 -1,-2zm524 -135c3,-3 6,-10 8,-14 1,1 0,-1 1,2 1,0 1,1 1,1l5 10c1,1 1,1 1,1l16 3c-1,2 -4,4 -6,5 -2,2 -3,4 -6,6l3 17c-4,-1 -12,-7 -15,-7 -2,0 -11,5 -14,7 0,-4 1,-7 1,-10 2,-10 0,-6 -8,-15l-2 -3 15 -3zm-526 3c4,-2 14,0 16,-4 3,-3 5,-11 8,-13 7,23 12,13 22,17 -1,2 -2,3 -5,5 -1,2 -4,5 -5,5 -2,4 1,13 2,18 -4,-2 -12,-7 -15,-7 -3,0 -11,6 -15,7l3 -17c-2,-1 -10,-9 -11,-11zm396 -85c4,-2 -3,1 1,-1 0,0 2,0 2,0 4,-1 11,-1 13,-3 2,-2 4,-10 7,-13 11,21 4,12 23,17 -2,2 -9,8 -10,10 -2,3 1,13 1,17 -3,0 -12,-6 -14,-6 -3,0 -11,6 -15,7 2,-16 8,-13 -9,-27l1 -1zm-281 0c4,-3 14,0 17,-4 2,-2 4,-10 7,-13l7 14c3,3 13,1 16,3l-11 11 2 17c-3,-2 -12,-7 -14,-7 -3,0 -11,6 -15,7 1,-5 4,-15 2,-18 -2,-2 -9,-8 -11,-10zm127 -95c4,-1 9,-2 14,-2 2,-1 5,-1 7,-1 4,-1 4,0 5,-3 3,-6 7,-17 11,-21 3,7 8,16 12,23l25 4c-1,3 0,1 -2,3 -1,1 -1,1 -2,2 -19,18 -14,7 -10,39 -4,-1 -21,-12 -23,-12 -3,1 -19,11 -23,12l3 -22c1,-3 1,-3 -1,-5 -4,-4 -14,-12 -16,-17zm-187 497l58 0 -87 -269c9,-8 52,-38 63,-47 11,-8 22,-15 32,-23l31 -22c10,-7 23,-18 32,-24 6,-3 10,-7 16,-11 5,-4 10,-8 15,-11l63 -46c3,1 60,43 64,46 11,7 21,15 32,23 5,3 10,8 16,11l47 35c10,8 21,15 32,23l47 34c5,4 11,8 16,12l-88 269 59 0c0,-3 9,-31 11,-37l80 -247c2,-5 6,-14 6,-19l-80 -58c-13,-10 -26,-20 -40,-29 -13,-10 -27,-20 -40,-30 -13,-10 -27,-19 -40,-29 -13,-10 -27,-20 -41,-29l-50 -37c-4,-3 -29,-22 -31,-22l-160 117c-14,10 -27,20 -40,29l-101 73c-3,3 -6,5 -10,7 -3,3 -7,5 -10,8 1,5 4,14 6,19l43 133c3,7 49,148 49,151z"/>
   <path class="fil0" d="M1061 817c1,0 1,0 1,0 0,0 0,0 0,0l10 -6c10,-6 18,-12 28,-19 -10,11 -23,24 -39,25zm149 -5l2 4c2,4 6,12 7,16 -5,-2 -10,-12 -10,-21 0,0 0,0 1,1zm65 -1l0 0zm-133 21c2,-4 9,-18 11,-22 0,9 -5,19 -11,22zm-2 -23c-1,7 -8,21 -16,24l16 -24zm89 12c3,3 7,9 8,12 -6,-3 -14,-15 -16,-25 0,0 1,0 1,0l7 13zm24 4c2,2 4,3 5,5 -7,-2 -14,-10 -17,-16l-3 -7c0,0 0,0 0,0 0,1 1,1 1,1 0,0 0,1 1,2l13 15zm-150 5c2,-2 4,-4 6,-6l14 -16c1,-2 2,-2 3,-3 -4,10 -13,22 -23,25zm169 -10c2,1 2,2 4,3 2,1 3,1 4,4 -8,-3 -14,-8 -19,-12 -1,-2 -12,-14 -13,-17 1,1 0,1 1,1l7 7c2,1 3,2 4,3 6,6 1,3 12,11zm-190 6c2,-2 5,-4 8,-6 7,-5 19,-19 23,-21 -4,9 -21,26 -31,27zm-6 -27c1,-2 4,-4 7,-5 -1,1 -2,2 -3,2l-4 3zm116 2c-2,-1 -2,-2 -3,-5l3 2c5,-2 2,-4 4,-1 0,0 0,0 0,0l-1 1c0,1 0,0 -1,1 0,1 0,1 -2,2zm69 -9c7,3 25,20 41,25 -1,0 -1,1 -4,1 -5,-1 -15,-7 -19,-10 -4,-3 -6,-5 -10,-8 -4,-3 -6,-5 -8,-8zm56 12c-8,4 -39,-13 -43,-19 6,1 15,7 21,10 3,1 21,8 22,9zm-271 0c2,-2 17,-7 21,-9 5,-3 15,-8 20,-10 -1,2 -6,5 -8,7 -9,6 -22,13 -33,12zm29 -24l0 0zm-46 8c2,-1 4,-1 7,-2 19,-3 28,-8 43,-13l-3 2c-12,9 -32,17 -47,13zm304 0c-20,7 -45,-12 -50,-14 3,0 18,6 24,8 8,2 18,3 26,6zm-278 -17l0 0zm290 -3c-10,9 -43,-1 -52,-6 7,1 17,3 25,4 9,1 17,2 27,2zm-328 0c14,0 27,-2 41,-4 3,-1 9,-2 12,-2 0,0 0,0 0,0 0,0 0,0 1,0 -12,3 -43,16 -54,6zm34 -12l-5 1c0,0 0,0 0,0 0,0 3,-2 5,-1zm249 -6c9,-1 19,0 28,0 8,-1 19,-3 26,-3 -8,9 -43,8 -54,3zm-293 -3c1,0 21,2 25,2 10,1 19,0 29,1 -12,5 -45,5 -54,-3zm299 -11c3,-1 22,-4 27,-5 9,-2 19,-6 26,-8 -1,2 -2,3 -5,5 -5,3 -11,6 -17,7 -8,1 -24,4 -31,1zm-257 1c-16,0 -40,-3 -46,-13 8,1 17,5 26,7l28 6c0,-1 1,0 1,0l-9 0zm2 3l-2 1c-9,2 -44,-2 -53,-3 5,26 39,17 50,19 -1,0 1,0 -2,1l-7 1c-4,0 -8,1 -11,1 -8,1 -15,1 -23,1 6,24 41,12 53,11 -6,4 -36,9 -41,10 5,9 16,13 30,10 6,-1 11,-3 16,-5 4,-2 11,-6 15,-6l-3 1c-6,4 -13,7 -19,10l-18 7c-1,0 -2,1 -3,1 -1,0 -1,0 -1,1 -2,0 -1,0 -2,1 5,5 14,8 24,6 8,-2 19,-9 22,-9 -1,2 -4,3 -6,4 -6,4 -16,9 -21,13 5,5 14,7 22,4 4,-1 7,-3 9,-5 3,-1 6,-4 9,-5 -3,5 -15,12 -20,18 9,8 22,1 30,-6 2,-1 5,-6 7,-6l-8 9c-2,3 -6,6 -8,10 14,2 19,-1 27,-10 2,-3 4,-5 6,-7 0,4 -9,15 -11,20 7,0 12,0 17,-4 2,-2 3,-3 5,-6 2,-3 2,-5 5,-7l-6 16c9,0 13,-4 17,-8 3,-4 4,-9 5,-13l2 -5c2,5 7,12 10,15 6,6 9,5 19,6 -1,1 2,0 -1,1 -5,2 -10,-2 -15,-2 1,7 2,8 10,8 2,0 8,0 9,-1 2,-1 2,-3 2,-6l-5 0c1,0 1,0 2,-1 3,-2 6,-4 9,-8 3,-3 5,-7 7,-12 2,2 5,14 8,18 3,5 8,8 17,8l-5 -12c1,1 1,0 2,2 5,7 14,13 24,11 -3,-5 -9,-14 -11,-19 9,9 14,21 33,16 -4,-5 -11,-11 -14,-17 3,1 8,8 15,11 6,3 15,3 20,-1 -4,-5 -16,-11 -17,-16 3,1 9,6 16,8 8,2 17,1 21,-4 -8,-6 -19,-9 -26,-16 -1,-1 0,0 -1,-2 13,4 27,20 45,4 -1,-2 1,0 -1,-2 -1,0 -2,0 -3,0l-13 -6c-5,-2 -14,-5 -17,-8 9,1 16,7 27,7 11,1 19,-4 23,-11 -7,-1 -31,-5 -35,-9 10,0 27,8 41,-2 2,-2 5,-6 5,-10 -5,0 -36,0 -41,-4 17,0 45,4 49,-19 -12,1 -30,4 -42,2 2,-1 20,-1 30,-7 8,-4 15,-12 14,-24 -19,6 -29,11 -50,15 -9,2 -18,3 -28,5 -9,1 -22,1 -30,2 -3,3 -6,14 -9,19 -8,14 -28,33 -46,34 -3,-4 -9,-14 -11,-20 -7,-13 -7,-7 -3,-22 -4,1 -17,7 -23,9 -8,4 -1,4 -10,7 -8,3 -8,10 -3,10 2,0 0,0 2,-1 3,0 6,1 9,3 -1,3 -7,12 -9,14 -5,0 -15,-5 -19,-7 -13,-7 -20,-15 -27,-27 -4,-5 -6,-15 -9,-19 -8,-1 -21,-2 -30,-3 -19,-2 -37,-5 -54,-11 -9,-2 -17,-6 -25,-8 -2,31 39,30 58,31z"/>
   <path class="fil2" d="M1181 1275c16,-10 6,-11 43,-24 13,-5 38,-13 46,-21 0,-4 -1,-5 -3,-8 -4,-5 -8,-13 -12,-19 -7,0 -49,15 -60,25 -10,8 -6,6 -12,12 -2,1 -1,1 -2,2 -5,-7 -6,-10 -14,-15 -12,-8 -52,-26 -58,-23 -3,1 -16,23 -18,26 5,4 40,16 49,20 9,3 16,6 23,11 4,2 17,12 18,14z"/>
   <path class="fil0" d="M951 1596c1,12 -1,51 1,56l13 0 0 -81 -20 0c-3,8 -5,18 -8,27 -1,5 -6,24 -8,27 -2,-9 -13,-50 -15,-54l-20 0 0 81 13 0c2,-8 0,-43 1,-54 2,4 13,38 14,45l14 0 15 -47z"/>
   <path class="fil1" d="M1178 1106c-5,1 -7,6 -10,8l-11 9c-13,10 -19,19 -19,38 0,10 2,8 10,7 18,-2 37,-2 55,0 18,1 22,8 21,-13 -1,-5 -2,-10 -5,-15 -3,-7 -7,-11 -12,-15l-15 -14c-3,-4 -7,-6 -14,-5z"/>
   <path class="fil0" d="M1073 1595l22 43c9,18 3,14 26,14l0 -81 -15 0 0 58c-5,-7 -11,-21 -15,-29 -4,-9 -10,-21 -13,-29l-20 0 0 81 15 0 0 -57z"/>
   <path class="fil0" d="M1401 1585c11,0 26,-3 26,10 0,13 -11,9 -27,9l1 -19zm26 34c21,-8 18,-31 11,-41 -4,-6 -12,-8 -23,-8 -10,0 -20,0 -30,0 -1,10 -1,77 0,82l15 0 0 -33 9 1c4,5 17,29 19,32l18 0c0,-2 -7,-13 -9,-16 -3,-6 -7,-12 -10,-17z"/>
   <path class="fil0" d="M1281 1622c0,10 -6,17 -16,15 -12,-2 -11,-10 -11,-21 0,-11 -2,-22 5,-28 7,-5 19,-1 21,6l17 0c-4,-17 -21,-30 -42,-22 -20,8 -18,27 -18,51 0,21 16,34 38,30 21,-4 23,-23 22,-46l-28 0 0 15 12 0z"/>
   <path class="fil0" d="M1048 1652c-1,-3 -21,-36 -24,-42 -4,-6 -4,-5 0,-10l14 -20c1,-2 6,-7 6,-9 -27,0 -15,-4 -31,19l-14 20c0,-1 0,0 0,0l0 -39 -15 0c-1,4 -1,78 0,81l15 0c0,-3 0,-7 0,-10 0,-10 0,-7 6,-16 2,-2 3,-5 5,-7 1,1 0,0 1,1l9 16c3,4 8,14 10,16l18 0z"/>
   <path class="fil0" d="M1516 1571l-15 0c-5,29 10,66 -14,67 -25,0 -10,-38 -15,-67l-15 0 -1 55c2,17 12,27 30,27 36,0 30,-32 30,-54 0,-9 1,-20 0,-28z"/>
   <path class="fil0" d="M879 1578c-9,-8 -31,-11 -44,-5 -6,4 -11,8 -12,17 -4,21 10,26 26,29 8,1 18,2 16,11 -1,7 -11,9 -19,8 -11,-1 -13,-4 -20,-7 -2,3 -5,9 -7,12 8,9 29,13 44,9 8,-3 13,-6 15,-13 3,-6 4,-16 0,-23 -9,-15 -32,-9 -39,-18 -6,-8 5,-13 13,-13 10,-1 14,4 21,6l6 -13z"/>
   <path class="fil0" d="M1338 1597c2,4 9,24 10,27l-19 0 9 -27zm-35 55c3,0 14,1 16,0 3,-3 2,-10 6,-13l28 0c1,4 4,11 5,13l16 0c0,-3 -13,-35 -15,-41l-16 -40 -9 0c-5,9 -31,79 -31,81z"/>
   <path class="fil0" d="M1144 887c2,5 12,13 16,17 2,2 2,2 1,5l-3 22c4,-1 20,-11 23,-12 2,0 19,11 23,12 -4,-32 -9,-21 10,-39 1,-1 1,-1 2,-2 2,-2 1,0 2,-3l-25 -4c-4,-7 -9,-16 -12,-23 -4,4 -8,15 -11,21 -1,3 -1,2 -5,3 -2,0 -5,0 -7,1 -5,0 -10,1 -14,2z"/>
   <path class="fil2" d="M1263 1205c2,2 7,11 9,14 18,31 -24,17 -63,43 -7,4 -22,15 -23,22 7,7 7,7 13,4 11,-6 91,-47 95,-50 -2,-6 -9,-14 -13,-20 -3,-6 -9,-14 -18,-13z"/>
   <polygon class="fil0" points="1522,1586 1544,1586 1544,1652 1560,1652 1560,1586 1582,1585 1582,1571 1522,1571 "/>
   <path class="fil2" d="M1276 1356c5,-6 3,-7 -1,-14 -3,-7 -2,-7 -9,-10 -10,-4 -19,-8 -27,-13 -4,-2 -22,-15 -15,-20 8,-7 23,6 28,8 -3,-6 -5,-12 -11,-15 -16,-6 -13,-4 -38,9 -3,2 -14,7 -16,10 6,2 16,8 22,11 9,4 63,33 67,34z"/>
   <path class="fil2" d="M1110 1307c5,-2 19,-14 28,-8 7,5 -10,17 -14,20 -18,12 -31,12 -35,20 -2,4 -6,9 -5,13 4,5 7,2 12,-1l68 -35c3,-1 9,-3 11,-6 -11,-5 -23,-13 -34,-19 -10,-5 -10,-3 -19,2 -5,2 -5,1 -8,5 -1,3 -3,6 -4,9z"/>
   <path class="fil2" d="M1069 1239c4,3 22,11 29,14 21,11 37,19 57,30 3,2 10,7 15,6 6,-2 7,-8 2,-13l-26 -18c-14,-8 -59,-18 -61,-26 -1,-4 13,-22 15,-27 -4,0 -9,1 -12,4 -3,3 -18,27 -19,30z"/>
   <path class="fil2" d="M1216 1443c2,-1 1,0 2,-3 3,-7 6,-21 9,-26l0 35 9 0 0 -53 -13 0 -10 35 -10 -35 -14 0 0 53c5,0 6,1 10,0l0 -34 2 4c8,27 4,24 15,24z"/>
   <path class="fil1" d="M1013 1506c0,-1 0,-1 -1,-5 0,-2 -1,-3 -1,-5l-8 -30 356 0 -10 37c-1,3 -1,2 0,3 1,-3 8,-9 11,-11 4,-3 6,-6 11,-10 2,-2 20,-17 21,-19l-423 0c2,3 23,20 27,24l11 10c3,3 4,2 6,6z"/>
   <path class="fil0" d="M1165 1576l0 16 10 -3 0 63 15 0 0 -81c-15,0 -14,0 -25,5z"/>
   <path class="fil2" d="M1151 1406c9,-1 18,-2 17,7 0,7 -10,6 -17,5l0 -12zm18 21c13,-5 11,-20 6,-26 -5,-7 -23,-5 -34,-5l0 53 10 0 0 -21 5 0c3,5 10,16 12,21l13 0c-3,-7 -9,-14 -12,-22z"/>
   <path class="fil2" d="M1074 1200c-5,1 -8,4 -10,7 -3,5 -18,29 -19,33l134 68c1,-6 1,-7 -4,-9l-24 -13c-11,-5 -22,-11 -32,-17 -22,-11 -44,-22 -65,-33l20 -36z"/>
   <path class="fil2" d="M1308 1236c-3,3 -27,15 -32,18l-91 46c-2,2 -2,2 -2,5 1,5 3,3 19,-6 6,-3 11,-6 17,-9l97 -51c0,-4 -9,-17 -11,-21 -4,-7 -7,-17 -16,-17l19 35z"/>
   <path class="fil2" d="M1265 1414l6 17 -12 0 6 -17zm-12 35c0,-1 1,-3 1,-5 2,-3 1,-2 3,-3l17 0c2,1 2,2 3,4 1,5 1,4 12,4l-20 -53 -7 0 -20 53 11 0z"/>
   <path class="fil1" d="M1123 1178c1,3 7,5 12,6 7,2 9,0 15,-2 7,-2 26,-1 35,-1 12,0 21,0 32,4 9,3 10,4 21,0 2,-1 4,-1 5,-4l-5 -3c-2,0 -4,-1 -7,-1 -5,-1 -9,-2 -14,-3 -18,-3 -85,-4 -94,4z"/>
   <path class="fil0" d="M1428 1064l-15 3 2 3c8,9 10,5 8,15 0,3 -1,6 -1,10 3,-2 12,-7 14,-7 3,0 11,6 15,7l-3 -17c3,-2 4,-4 6,-6 2,-1 5,-3 6,-5l-16 -3c0,0 0,0 -1,-1l-5 -10c0,0 0,-1 -1,-1 -1,-3 0,-1 -1,-2 -2,4 -5,11 -8,14z"/>
   <path class="fil0" d="M1410 1199c1,2 10,10 11,11l-2 17c4,-1 12,-7 14,-7 3,0 12,6 15,7 -2,-20 -6,-12 7,-25 1,-1 1,-1 2,-3l-15 -2c-3,-3 -6,-11 -8,-15 -3,3 -5,10 -7,13 -2,2 -4,2 -7,3 -3,0 -6,0 -10,1z"/>
   <path class="fil0" d="M937 1300c16,15 11,9 9,28 3,-1 12,-7 14,-7 3,0 12,6 15,7l-3 -16 12 -12c-4,-2 -13,0 -16,-3l-6 -11c-1,-2 0,-1 -2,-3 -2,3 -4,11 -7,13 -3,4 -12,2 -16,4z"/>
   <path class="fil0" d="M904 1199c1,2 0,0 1,2 1,0 1,1 1,1l8 8c2,2 1,4 0,7 0,3 -1,7 -1,10 4,-1 12,-7 15,-7 1,0 13,7 14,7 0,-4 -3,-13 -2,-17 2,-3 9,-6 11,-11 -4,-1 -14,-1 -16,-4 -4,-4 -4,-9 -7,-13 -3,4 -4,10 -7,13 -3,3 -13,3 -17,4z"/>
   <path class="fil0" d="M902 1067c1,2 9,10 11,11l-3 17c4,-1 12,-7 15,-7 3,0 11,5 15,7 -1,-5 -4,-14 -2,-18 1,0 4,-3 5,-5 3,-2 4,-3 5,-5 -10,-4 -15,6 -22,-17 -3,2 -5,10 -8,13 -2,4 -12,2 -16,4z"/>
   <path class="fil0" d="M1017 982c2,2 9,8 11,10 2,3 -1,13 -2,18 4,-1 12,-7 15,-7 2,0 11,5 14,7l-2 -17 11 -11c-3,-2 -13,0 -16,-3l-7 -14c-3,3 -5,11 -7,13 -3,4 -13,1 -17,4z"/>
   <path class="fil0" d="M1297 983c17,14 11,11 9,27 4,-1 12,-7 15,-7 2,0 11,6 14,6 0,-4 -3,-14 -1,-17 1,-2 8,-8 10,-10 -19,-5 -12,4 -23,-17 -3,3 -5,11 -7,13 -2,2 -9,2 -13,3 0,0 -2,0 -2,0 -4,2 3,-1 -1,1l-1 1z"/>
   <path class="fil0" d="M1377 1301c2,1 10,8 11,10 2,2 -1,13 -2,17 4,-1 13,-7 15,-7 3,0 11,6 15,7 -4,-24 -5,-12 9,-28 -5,-1 -14,-1 -17,-3 -1,-2 -6,-12 -7,-14 -3,3 -5,11 -7,13 -2,3 -11,2 -14,3 -5,2 3,-1 -2,1l-1 1z"/>
   <polygon class="fil2" points="1119,1449 1127,1449 1130,1449 1130,1396 1127,1396 1119,1396 "/>
   <path class="fil3" d="M1400 1604c16,0 27,4 27,-9 0,-13 -15,-10 -26,-10l-1 19z"/>
   <path class="fil1" d="M1180 1071c-2,11 -1,17 -1,27 1,3 -1,2 -2,6l10 0c-3,-7 -2,1 -3,-10 0,-8 -2,-10 0,-23 6,-1 10,-3 13,-8 -16,7 -26,1 -25,-18 -3,3 -4,10 -2,16 2,5 6,6 10,10z"/>
   <path class="fil3" d="M1329 1624l19 0c-1,-3 -8,-23 -10,-27l-9 27z"/>
   <path class="fil0" d="M1151 1418c7,1 17,2 17,-5 1,-9 -8,-8 -17,-7l0 12z"/>
   <path class="fil3" d="M1306 736c7,3 23,0 31,-1 6,-1 12,-4 17,-7 3,-2 4,-3 5,-5 -7,2 -17,6 -26,8 -5,1 -24,4 -27,5z"/>
   <path class="fil3" d="M1049 737l9 0c0,0 -1,-1 -1,0l-28 -6c-9,-2 -18,-6 -26,-7 6,10 30,13 46,13z"/>
   <path class="fil3" d="M1300 750c11,5 46,6 54,-3 -7,0 -18,2 -26,3 -9,0 -19,-1 -28,0z"/>
   <path class="fil3" d="M1007 747c9,8 42,8 54,3 -10,-1 -19,0 -29,-1 -4,0 -24,-2 -25,-2z"/>
   <path class="fil3" d="M1345 768c-10,0 -18,-1 -27,-2 -8,-1 -18,-3 -25,-4 9,5 42,15 52,6z"/>
   <path class="fil3" d="M1017 768c11,10 42,-3 54,-6 -1,0 -1,0 -1,0 0,0 0,0 0,0 -3,0 -9,1 -12,2 -14,2 -27,4 -41,4z"/>
   <path class="fil3" d="M1333 788c-8,-3 -18,-4 -26,-6 -6,-2 -21,-8 -24,-8 5,2 30,21 50,14z"/>
   <path class="fil3" d="M1029 788c15,4 35,-4 47,-13l3 -2c-15,5 -24,10 -43,13 -3,1 -5,1 -7,2z"/>
   <path class="fil3" d="M1317 804c-1,-1 -19,-8 -22,-9 -6,-3 -15,-9 -21,-10 4,6 35,23 43,19z"/>
   <path class="fil3" d="M1046 804c11,1 24,-6 33,-12 2,-2 7,-5 8,-7 -5,2 -15,7 -20,10 -4,2 -19,7 -21,9z"/>
   <path class="fil3" d="M1302 817c-16,-5 -34,-22 -41,-25 2,3 4,5 8,8 4,3 6,5 10,8 4,3 14,9 19,10 3,0 3,-1 4,-1z"/>
   <path class="fil3" d="M1061 817c16,-1 29,-14 39,-25 -10,7 -18,13 -28,19l-10 6c0,0 0,0 0,0 0,0 0,0 -1,0z"/>
   <path class="fil3" d="M1082 826c10,-1 27,-18 31,-27 -4,2 -16,16 -23,21 -3,2 -6,4 -8,6z"/>
   <polygon class="fil0" points="1259,1431 1271,1431 1265,1414 "/>
   <path class="fil3" d="M1280 827c-1,-3 -2,-3 -4,-4 -2,-1 -2,-2 -4,-3 -11,-8 -6,-5 -12,-11 -1,-1 -2,-2 -4,-3l-7 -7c-1,0 0,0 -1,-1 1,3 12,15 13,17 5,4 11,9 19,12z"/>
   <path class="fil3" d="M1103 830c10,-3 19,-15 23,-25 -1,1 -2,1 -3,3l-14 16c-2,2 -4,4 -6,6z"/>
   <path class="fil3" d="M1258 830c-1,-2 -3,-3 -5,-5l-13 -15c-1,-1 -1,-2 -1,-2 0,0 -1,0 -1,-1 0,0 0,0 0,0l3 7c3,6 10,14 17,16z"/>
   <path class="fil3" d="M1237 833c-1,-3 -5,-9 -8,-12l-7 -13c0,0 -1,0 -1,0 2,10 10,22 16,25z"/>
   <path class="fil3" d="M1124 833c8,-3 15,-17 16,-24l-16 24z"/>
   <path class="fil3" d="M1142 832c6,-3 11,-13 11,-22 -2,4 -9,18 -11,22z"/>
   <path class="fil3" d="M1219 832c-1,-4 -5,-12 -7,-16l-2 -4c-1,-1 -1,-1 -1,-1 0,9 5,19 10,21z"/>
   <path class="fil3" d="M1192 801c2,-1 2,-1 2,-2 1,-1 1,0 1,-1l1 -1c0,0 0,0 0,0 -2,-3 1,-1 -4,1l-3 -2c1,3 1,4 3,5z"/>
  </g>
 </g>
</svg>
