<?xml version="1.0" encoding="UTF-8"?>
<!DOCTYPE svg PUBLIC "-//W3C//DTD SVG 1.1//EN" "http://www.w3.org/Graphics/SVG/1.1/DTD/svg11.dtd">
<!-- Creator: CorelDRAW X7 -->
<svg xmlns="http://www.w3.org/2000/svg" xml:space="preserve" width="2362px" height="2362px" version="1.1" style="shape-rendering:geometricPrecision; text-rendering:geometricPrecision; image-rendering:optimizeQuality; fill-rule:evenodd; clip-rule:evenodd"
viewBox="0 0 2362 2362"
 xmlns:xlink="http://www.w3.org/1999/xlink">
 <defs>
  <style type="text/css">
   <![CDATA[
    .fil1 {fill:#3EB07C}
    .fil0 {fill:#4E5A92}
    .fil5 {fill:#5DD2F1}
    .fil4 {fill:#8791BE}
    .fil6 {fill:#E73627}
    .fil3 {fill:#F53801}
    .fil2 {fill:#F8D401}
   ]]>
  </style>
 </defs>
 <g id="Layer_x0020_1">
  <metadata id="CorelCorpID_0Corel-Layer"/>
  <g id="_2133602078784">
   <path class="fil0" d="M1556 756c28,-3 53,18 56,46 4,30 -19,54 -45,57 -30,3 -54,-19 -57,-45 -3,-22 8,-41 26,-52 6,-3 12,-5 20,-6zm-138 519c-1,-2 8,-21 10,-26l32 -78c8,-17 15,-34 22,-51 8,-18 15,-35 22,-53 15,-34 29,-69 44,-104 7,-17 14,-34 22,-52 1,-3 5,-9 7,-11 3,-4 4,-6 10,-8 12,-3 11,-4 19,-9l10 -8c4,-4 4,-3 9,-10 3,-4 3,-3 8,-10 17,-23 19,-56 8,-80 -3,-5 -5,-9 -7,-12 -2,-4 -5,-7 -8,-11 -2,-3 -11,-11 -14,-13 -2,-2 -3,-3 -5,-4 -30,-21 -68,-21 -98,1 -4,2 -7,4 -11,8 -1,1 -3,3 -4,4 -4,4 -9,11 -12,16 -13,21 -18,49 -6,73 2,4 5,7 6,13 1,10 -4,20 -7,29 -33,77 -68,156 -100,233 -14,35 -29,69 -45,103 -3,8 -7,17 -11,25 -10,21 -32,65 -18,84 5,8 10,12 20,17 8,4 16,8 25,11 18,8 36,14 53,21 17,7 34,15 52,22 11,5 43,21 56,16 7,-3 15,-12 19,-18 5,-7 9,-16 12,-25 3,-8 7,-23 3,-31 -4,-7 -12,-14 -19,-18 -21,-13 -51,-26 -76,-35 -8,-2 -21,-8 -28,-9z"/>
   <path class="fil1" d="M855 1557c-4,30 -29,50 -57,47 -27,-3 -49,-27 -46,-57 3,-27 26,-49 56,-46 27,3 50,27 47,56zm79 -470c0,8 -17,44 -21,53 -7,17 -14,35 -21,52 -16,33 -29,69 -43,104 -8,17 -15,34 -22,51 -14,33 -28,75 -43,105 -4,9 -10,15 -16,20 -3,3 -7,5 -11,8 -4,2 -8,5 -11,7 -8,4 -15,11 -20,18 -16,23 -15,65 -2,88 26,43 76,63 124,36 13,-8 29,-24 36,-38 4,-9 7,-17 8,-28 3,-37 -20,-60 -16,-74 2,-5 4,-9 5,-13 18,-43 38,-87 55,-130 28,-69 59,-138 87,-207 7,-17 16,-34 22,-51 7,-18 17,-40 4,-57 -9,-12 -29,-20 -47,-27 -35,-15 -69,-26 -105,-42 -8,-4 -17,-8 -26,-11 -10,-4 -19,-6 -30,-1 -5,2 -8,4 -11,7 -3,4 -5,7 -7,12 -4,8 -7,17 -10,26 -6,16 -6,28 7,40 16,15 42,22 63,29 8,3 44,18 51,23z"/>
   <path class="fil2" d="M800 742c15,-2 31,4 39,12 10,9 17,17 19,33 4,30 -19,54 -45,57 -30,4 -54,-18 -58,-44 -3,-31 19,-54 45,-58zm470 202c-5,0 -21,-8 -26,-10 -9,-4 -17,-8 -26,-11 -51,-22 -103,-45 -154,-67 -34,-14 -68,-29 -102,-43 -18,-7 -35,-15 -51,-23 -17,-8 -16,-8 -18,-19 -2,-18 -24,-43 -40,-51 -23,-13 -51,-15 -76,-5 -9,3 -17,7 -23,12 -2,2 -4,3 -5,4 -6,4 -10,9 -14,14 -18,26 -20,57 -7,87 10,24 32,45 59,50 39,7 56,-15 96,4 9,4 17,8 25,12 33,16 68,30 102,45 34,14 68,29 103,44 17,7 33,15 51,22 8,4 17,7 25,11 8,4 17,8 25,12 17,7 35,15 51,22 22,9 51,20 66,-5 8,-12 12,-23 18,-37 13,-32 28,-72 44,-103 7,-13 19,-40 13,-57 -6,-16 -28,-24 -44,-29 -9,-3 -22,-6 -31,-2 -7,4 -13,12 -17,20 -7,12 -15,35 -23,51 -6,11 -12,26 -17,38 -1,3 -3,13 -4,14z"/>
   <path class="fil3" d="M1553 1516c30,-3 53,20 56,47 2,30 -21,54 -48,56 -29,2 -53,-20 -55,-48 -3,-29 20,-53 47,-55zm-461 -93c3,0 45,18 52,21 17,7 35,14 52,22 35,14 69,28 104,43 35,14 69,29 104,43 13,5 39,16 51,22 14,6 15,8 16,20 2,12 11,22 17,29 10,11 26,21 39,26 20,6 44,6 63,-2 4,-2 8,-4 12,-6 42,-25 53,-87 24,-127 -3,-5 -5,-6 -8,-10 -1,-2 -3,-3 -4,-5 -14,-11 -27,-19 -45,-19 -12,0 -24,0 -36,1 -21,3 -17,10 -28,5 -17,-7 -34,-14 -51,-21 -35,-15 -69,-29 -104,-44 -17,-7 -35,-14 -52,-21 -68,-30 -137,-61 -207,-87 -9,-3 -18,-6 -27,-9 -14,-4 -19,-4 -27,5 -10,10 -21,32 -27,46 -11,27 -21,53 -32,79 -3,9 -7,16 -11,25 -7,15 -19,39 -12,57 6,16 27,21 45,28 11,4 19,6 30,0 27,-14 36,-66 50,-97 2,-5 9,-21 12,-24z"/>
   <path class="fil2" d="M1068 719c-8,2 -12,6 -15,14l-24 59c-9,21 8,26 20,31 40,16 80,33 119,49 14,6 27,11 40,17 7,3 13,5 20,8 13,6 27,13 36,-8l25 -59c3,-9 2,-15 -3,-21 -3,-5 -11,-7 -18,-10 -59,-25 -119,-49 -179,-74 -6,-3 -13,-7 -21,-6z"/>
   <path class="fil4" d="M1558 1028c-8,2 -12,7 -15,14l-25 59c-16,39 -33,79 -49,119 -3,6 -6,13 -9,19 -3,9 -1,16 4,21 5,5 31,14 38,18 7,3 14,5 20,8 14,6 28,13 37,-8 3,-6 5,-13 8,-19l67 -158c2,-7 5,-14 8,-20 3,-8 1,-17 -4,-21 -3,-4 -13,-7 -19,-9l-39 -17c-6,-2 -15,-7 -22,-6z"/>
   <path class="fil5" d="M812 1069c-8,2 -11,7 -14,14l-74 179c-3,6 -6,13 -8,19 -4,9 -1,17 4,21 4,4 32,15 39,18 7,2 13,5 20,8 13,5 27,12 36,-8 24,-60 48,-120 73,-179 3,-7 6,-13 9,-20 3,-8 0,-16 -5,-20 -5,-5 -49,-22 -58,-26 -6,-2 -15,-7 -22,-6z"/>
   <path class="fil6" d="M1070 1546c2,9 7,12 14,15l59 25c26,11 52,23 79,34 13,5 26,11 39,16 7,3 13,6 20,9 8,3 16,2 21,-4 4,-5 14,-30 18,-38 2,-7 5,-13 8,-20 2,-6 7,-14 6,-22 -1,-8 -7,-11 -14,-15 -65,-27 -131,-55 -196,-83 -9,-4 -17,-1 -22,3 -4,4 -6,13 -9,19l-17 40c-2,6 -7,14 -6,21z"/>
  </g>
 </g>
</svg>
