<?xml version="1.0" encoding="UTF-8"?>
<!DOCTYPE svg PUBLIC "-//W3C//DTD SVG 1.1//EN" "http://www.w3.org/Graphics/SVG/1.1/DTD/svg11.dtd">
<!-- Creator: CorelDRAW X7 -->
<svg xmlns="http://www.w3.org/2000/svg" xml:space="preserve" width="2362px" height="2362px" version="1.1" style="shape-rendering:geometricPrecision; text-rendering:geometricPrecision; image-rendering:optimizeQuality; fill-rule:evenodd; clip-rule:evenodd"
viewBox="0 0 2362 2362"
 xmlns:xlink="http://www.w3.org/1999/xlink">
 <defs>
  <style type="text/css">
   <![CDATA[
    .fil0 {fill:none}
   ]]>
  </style>
   <clipPath id="id0">
    <path d="M1181 709c261,0 472,211 472,472 0,261 -211,472 -472,472 -261,0 -472,-211 -472,-472 0,-261 211,-472 472,-472z"/>
   </clipPath>
    <clipPath id="id1">
     <path d="M1181 709c261,0 472,211 472,472 0,261 -211,472 -472,472 -261,0 -472,-211 -472,-472 0,-261 211,-472 472,-472z"/>
    </clipPath>
    <clipPath id="id2">
     <path d="M1181 709c261,0 472,211 472,472 0,261 -211,472 -472,472 -261,0 -472,-211 -472,-472 0,-261 211,-472 472,-472z"/>
    </clipPath>
 </defs>
 <g id="Layer_x0020_1">
  <metadata id="CorelCorpID_0Corel-Layer"/>
  <g>
  </g>
  <g style="clip-path:url(#id0)">
   <g>
   </g>
   <g style="clip-path:url(#id1)">
    <image id="_1656749575156.png" x="693" y="693" width="977" height="977" xlink:href="PADUAN SUARA_Images\PADUAN SUARA_ImgID1.png"/>
   </g>
   <g style="clip-path:url(#id2)">
   </g>
  </g>
  <path class="fil0" d="M1181 709c261,0 472,211 472,472 0,261 -211,472 -472,472 -261,0 -472,-211 -472,-472 0,-261 211,-472 472,-472z"/>
 </g>
</svg>
