<?xml version="1.0" encoding="UTF-8"?>
<!DOCTYPE svg PUBLIC "-//W3C//DTD SVG 1.1//EN" "http://www.w3.org/Graphics/SVG/1.1/DTD/svg11.dtd">
<!-- Creator: CorelDRAW X7 -->
<svg xmlns="http://www.w3.org/2000/svg" xml:space="preserve" width="2362px" height="2362px" version="1.1" style="shape-rendering:geometricPrecision; text-rendering:geometricPrecision; image-rendering:optimizeQuality; fill-rule:evenodd; clip-rule:evenodd"
viewBox="0 0 2362 2362"
 xmlns:xlink="http://www.w3.org/1999/xlink">
 <defs>
  <style type="text/css">
   <![CDATA[
    .fil0 {fill:#030403}
    .fil4 {fill:#6B6B06}
    .fil3 {fill:#78C980}
    .fil1 {fill:#A3DC76}
    .fil2 {fill:#FEFE00}
    .fil5 {fill:black;fill-rule:nonzero}
   ]]>
  </style>
 </defs>
 <g id="Layer_x0020_1">
  <metadata id="CorelCorpID_0Corel-Layer"/>
  <g id="_3161194315136">
   <path class="fil0" d="M1485 1154l-5 -4c7,-4 3,0 13,-6 -16,-3 -57,-21 -69,-29 16,1 47,14 66,18 18,4 53,8 67,13 -25,15 -56,-11 -68,5 38,1 38,9 82,-2 4,94 -14,168 -61,243 -15,24 -31,40 -43,59l-52 -14 1 -35c-20,8 -14,21 -15,49 -7,-3 -14,-14 -18,-20l-12 7 38 46c1,1 2,3 3,4 3,5 0,-1 3,6l-21 15c6,-9 6,-5 -1,-17 -4,-6 -8,-11 -11,-16 -8,-12 -14,-21 -21,-32l-10 8c4,10 13,22 18,31 4,6 6,10 11,16 8,12 1,8 14,11 -15,6 -21,14 -36,18 6,-9 13,-28 -4,-36 -18,-9 -29,8 -41,-4 9,-24 18,1 36,-13 -18,-20 -46,-11 -50,16 13,31 31,4 51,17 0,12 -4,17 -17,15 -16,-2 -2,-9 -22,-1 8,14 10,12 24,18 1,0 2,1 2,1 -20,5 -35,14 -55,17 12,-8 18,-11 14,-34 -2,-13 -4,-31 -11,-41 -29,3 7,30 -4,59 -35,17 -19,-29 -37,-50l-11 2c1,10 6,34 10,45 6,20 15,20 37,19 -44,24 -156,14 -206,0 -28,-8 -61,-22 -83,-35 -13,-7 -26,-16 -36,-23 -11,-7 -23,-20 -36,-26l5 -5c1,0 2,1 2,2 0,1 1,2 1,2 13,14 31,10 37,-2 10,-20 -12,-28 -13,-47 24,-4 14,8 21,19 1,3 5,5 6,7 28,-27 -40,-61 -41,-24 -1,14 19,32 13,39 -7,7 -15,3 -19,-5 -9,-18 8,-10 -10,-23 -13,14 -3,22 -1,34 -25,-14 -79,-88 -95,-128 -23,-55 -43,-125 -33,-193l142 -34c-16,6 -36,17 -55,24 -28,11 -44,7 -73,10l6 3c21,6 55,-3 60,-3l7 2c0,0 1,0 2,1 -3,3 0,1 -5,4 -8,5 -19,6 -28,8 -12,2 -25,5 -37,7 4,5 -1,3 8,9 12,7 33,4 44,3l-17 -5c7,-4 46,-15 58,-19 20,-9 37,-17 55,-25 -18,17 -63,41 -96,44l15 6c10,10 -13,16 -18,20l21 8c11,85 50,148 94,188 89,80 212,106 323,58 81,-35 140,-100 169,-184 6,-17 8,-44 15,-58 13,-5 13,-1 21,-12 -2,-2 -1,-1 -5,-3 -15,-9 -15,-3 -16,-17 25,5 56,8 69,-12 -15,-2 -56,-13 -66,-19zm-61 330c-8,-14 -11,-8 -10,-32l35 11c-5,8 -14,16 -25,21zm-421 -226l46 -1c18,86 153,101 215,60 27,-18 32,-27 48,-61l45 1c6,40 -33,78 -55,92 -104,64 -300,26 -299,-91zm310 -66c9,13 49,66 87,49 -6,-14 -37,-26 -47,-52 37,17 37,55 100,40 -14,122 -136,227 -271,228 -140,1 -253,-104 -273,-228 25,4 39,5 60,-8l40 -36c6,7 0,3 -21,32 -9,14 -17,15 -25,25 55,3 52,-23 72,-30 -1,8 -7,21 -11,26 -10,14 -12,7 -29,12 -16,88 97,139 185,139 48,0 94,-13 129,-34 26,-16 66,-54 58,-105 -20,-8 -10,10 -45,-40 -3,-6 -8,-11 -9,-18zm-65 -6l32 52c-14,-3 -18,-8 -24,-18 -5,-11 -9,-21 -8,-34zm-165 52c4,-9 11,-16 16,-25 5,-9 9,-19 14,-26 -1,24 -12,45 -30,51zm234 5l-13 5c-35,109 -174,89 -214,55 -47,-40 -17,-45 -42,-56l-7 -3c14,-6 25,-18 33,-31 -8,-7 1,16 -35,27l44 -56c-1,11 -3,10 -7,21 7,-1 -1,4 9,-5 -4,22 -17,28 -19,46 15,-1 25,-6 34,-14 14,-13 10,-22 21,-33 30,29 3,27 77,35 11,39 19,93 -37,78 5,-11 5,-6 15,-12 1,-13 1,-24 -8,-30 -13,-7 -21,1 -25,8 -11,28 26,59 54,39 28,-20 14,-51 11,-85 22,-17 14,-20 30,-39 7,11 12,27 20,37 6,6 24,19 38,14 -5,-14 -16,-27 -19,-44 4,3 4,3 8,8l-3 -20c1,0 1,1 2,1 0,1 1,2 1,2 10,13 30,43 40,48l-8 4zm-241 -31l0 -8 0 8zm212 3c8,15 11,18 27,26 10,-8 5,6 -20,-22 -8,-9 -4,-6 -7,-4zm-2 -3l1 -5 -1 5zm-300 22c4,-4 7,-5 12,-10 6,-5 8,-8 14,-13 8,-8 18,-20 27,-23 -4,19 -31,43 -53,46zm-49 -9c7,-9 47,-35 57,-37 -3,16 -11,13 -22,21 -12,10 -17,13 -35,16zm377 -50c1,4 24,24 29,29l33 31c-29,-4 -61,-45 -62,-60zm-406 49l-1 -13c17,-5 36,-17 51,-27l20 -11c0,0 -1,1 -1,2 -1,5 -57,45 -69,49zm-26 -19c37,-13 61,-34 72,-29 -4,7 2,1 -6,7 -2,1 -6,4 -9,5 -13,8 -35,21 -50,20 -13,-2 -1,0 -7,-3zm500 -33c25,13 41,26 73,38l-2 15c-18,-10 -64,-33 -71,-53zm-35 -3c20,6 35,26 67,46 11,6 7,4 11,11 -25,-4 -55,-26 -70,-43 -9,-9 -3,0 -8,-14zm-442 16c1,-10 -5,-9 8,-12 13,-3 12,4 12,3l-20 9zm288 -34c38,2 39,56 13,68 -7,-14 -14,-50 -13,-68zm182 0c18,10 32,19 51,28 19,9 37,18 55,28 -21,2 -46,-9 -61,-19 -10,-7 -43,-28 -45,-37zm29 -12c0,-1 -2,-1 -2,-2l4 -1c25,18 101,37 111,43 -22,9 -71,-15 -91,-26l-22 -14zm-228 71c-7,-12 -23,-25 -8,-45 5,-8 6,-8 16,-11l13 71c-104,14 -70,-114 -23,-129l4 30c-40,32 -35,66 -2,84zm-383 -76c2,-18 -1,-14 19,-14 24,0 48,-5 70,-8 -18,8 -62,19 -89,22zm776 -2c-15,9 -76,-8 -91,-19 15,1 30,5 45,8 45,7 41,-6 46,11zm18 -25c-28,17 -87,3 -120,-7l-14 -7c18,1 46,6 65,9 23,3 46,3 69,5zm-812 0c24,-2 45,-2 69,-5 20,-3 42,-6 63,-8 -28,15 -100,31 -132,13zm699 -38c24,-1 47,0 70,-1 22,0 43,-4 65,-4 -4,3 0,1 -7,5 0,0 -6,3 -6,3 -27,10 -102,8 -122,-3zm-581 0c-32,8 -75,12 -110,7 -12,-1 -22,-4 -31,-11l141 4zm590 -26c22,-5 48,-7 70,-11 23,-5 44,-12 65,-16 -5,8 2,1 -6,8 -22,19 -101,23 -129,19zm-604 0c-32,6 -129,-2 -136,-27 19,6 45,13 67,16 15,2 57,7 69,11zm298 4c-13,-21 -9,-71 23,-71 10,28 -9,62 -23,71zm-228 -14c11,-28 64,-74 92,-90 89,-50 194,-51 282,1 19,12 37,26 50,39 8,8 33,35 39,49l-38 3c-18,52 -74,89 -124,103 -17,5 -6,5 -15,17 -23,-51 -45,-2 -55,-56 -2,-12 1,-12 6,-19 35,-47 41,-116 2,-137 -43,27 -23,96 -23,110 0,17 -14,17 -30,41 -10,16 -15,31 -24,45 -40,3 -66,-30 -83,-50 -53,-63 -23,-52 -79,-56zm-121 -19c14,-35 36,-63 57,-88 149,-178 434,-184 593,2 21,24 42,53 56,86 -12,8 -75,14 -94,15 -14,-36 -65,-82 -100,-104 -42,-27 -100,-45 -160,-45 -60,0 -119,19 -160,46 -33,22 -87,68 -99,105l-93 -17zm-28 -5c-12,-1 -28,-7 -40,-10 -13,-3 -29,-8 -42,-11 0,17 11,32 21,40 6,5 12,8 19,11 12,5 16,3 22,11 -31,2 -9,7 -53,-3 5,20 22,35 44,35 -1,17 -8,12 -26,12 6,10 10,17 23,20 -7,16 -6,65 -6,86 0,56 23,126 41,164l28 49c25,36 26,35 53,64l63 52c66,45 155,74 237,71 115,-4 183,-32 265,-96l38 -38c50,-51 84,-115 101,-184 11,-46 17,-116 6,-165 12,-6 20,-11 23,-26l-26 0 0 -9c20,-2 42,-14 44,-35 -17,8 -36,3 -56,3 5,-4 4,-3 9,-6 22,-10 52,-13 56,-56 -23,5 -60,20 -82,21 -7,-28 -41,-74 -58,-95 -138,-169 -396,-202 -565,-75 -45,34 -44,33 -79,73 -17,20 -53,70 -60,97z"/>
   <path class="fil1" d="M949 1033c56,4 26,-7 79,56 17,20 43,53 83,50 9,-14 14,-29 24,-45 16,-24 30,-24 30,-41 0,-14 -20,-83 23,-110 39,21 33,90 -2,137 -5,7 -8,7 -6,19 10,54 32,5 55,56 9,-12 -2,-12 15,-17 50,-14 106,-51 124,-103l38 -3c-6,-14 -31,-41 -39,-49 -13,-13 -31,-27 -50,-39 -88,-52 -193,-51 -282,-1 -28,16 -81,62 -92,90z"/>
   <path class="fil2" d="M917 942c-9,-25 14,-41 28,-25 -11,14 -20,-4 -21,18 20,1 15,-12 36,-4 30,19 -13,55 -24,27 13,-7 26,7 22,-16 -16,-3 -7,1 -20,4 -16,4 -18,-4 -21,-4zm86 316c-1,117 195,155 299,91 22,-14 61,-52 55,-92l-45 -1c-16,34 -21,43 -48,61 -62,41 -197,26 -215,-60l-46 1zm-124 -215c-12,-4 -54,-9 -69,-11 -22,-3 -48,-10 -67,-16 7,25 104,33 136,27zm14 26l-141 -4c9,7 19,10 31,11 35,5 78,1 110,-7zm-118 38c32,18 104,2 132,-13 -21,2 -43,5 -63,8 -24,3 -45,3 -69,5zm390 461c-8,-5 -4,4 -6,-12 -1,-5 0,-16 0,-21 0,-13 -2,-26 1,-37l19 -1c5,13 8,34 15,45l11 -45 21 0c0,13 0,25 1,38 1,24 5,32 -6,32 -7,0 -7,-8 -7,-20 0,-10 0,-19 -1,-29l-12 49c-19,0 -15,0 -20,-19 -2,-11 -7,-21 -9,-30l1 40c-3,11 2,6 -8,10zm-63 -9c-3,-12 2,-26 4,-39 8,-38 0,-31 19,-29 0,16 -6,57 -13,70l-10 -2zm-25 -5c-15,-6 -12,-8 -16,-24 -2,-9 -4,-22 -8,-30 -6,13 -8,32 -18,40l-8 -3c2,-14 16,-57 23,-66 16,3 13,4 16,21 3,13 5,21 9,33 4,-9 6,-17 9,-27 4,-14 4,-12 8,-13 17,-3 2,27 -7,55 0,0 -3,6 -3,6 -4,9 -1,4 -5,8zm-113 -51c5,-18 25,-43 34,-62l35 19c11,8 6,0 9,10 -7,8 -7,6 -19,-2 -8,-5 -10,-7 -19,-9l-5 11c2,3 1,2 5,5 8,6 27,9 20,18 -2,4 4,10 -17,-3 -6,-3 -10,-5 -16,-8l-7 14c4,5 9,9 16,13 5,3 5,1 9,5 5,4 4,1 5,8 -5,5 0,10 -25,-6 -9,-6 -16,-9 -25,-13zm521 -349c10,6 51,17 66,19 -13,20 -44,17 -69,12 1,14 1,8 16,17 4,2 3,1 5,3 -8,11 -8,7 -21,12 -7,14 -9,41 -15,58 -29,84 -88,149 -169,184 -111,48 -234,22 -323,-58 -44,-40 -83,-103 -94,-188l-21 -8c5,-4 28,-10 18,-20l-15 -6c33,-3 78,-27 96,-44 -18,8 -35,16 -55,25 -12,4 -51,15 -58,19l17 5c-11,1 -32,4 -44,-3 -9,-6 -4,-4 -8,-9 12,-2 25,-5 37,-7 9,-2 20,-3 28,-8 5,-3 2,-1 5,-4 -1,-1 -2,-1 -2,-1l-7 -2c-5,0 -39,9 -60,3l-6 -3c29,-3 45,1 73,-10 19,-7 39,-18 55,-24l-142 34c-10,68 10,138 33,193 16,40 70,114 95,128 -2,-12 -12,-20 1,-34 18,13 1,5 10,23 4,8 12,12 19,5 6,-7 -14,-25 -13,-39 1,-37 69,-3 41,24 -1,-2 -5,-4 -6,-7 -7,-11 3,-23 -21,-19 1,19 23,27 13,47 -6,12 -24,16 -37,2 0,0 -1,-1 -1,-2 0,-1 -1,-2 -2,-2l-5 5c13,6 25,19 36,26 10,7 23,16 36,23 22,13 55,27 83,35 50,14 162,24 206,0 -22,1 -31,1 -37,-19 -4,-11 -9,-35 -10,-45l11 -2c18,21 2,67 37,50 11,-29 -25,-56 4,-59 7,10 9,28 11,41 4,23 -2,26 -14,34 20,-3 35,-12 55,-17 0,0 -1,-1 -2,-1 -14,-6 -16,-4 -24,-18 20,-8 6,-1 22,1 13,2 17,-3 17,-15 -20,-13 -38,14 -51,-17 4,-27 32,-36 50,-16 -18,14 -27,-11 -36,13 12,12 23,-5 41,4 17,8 10,27 4,36 15,-4 21,-12 36,-18 -13,-3 -6,1 -14,-11 -5,-6 -7,-10 -11,-16 -5,-9 -14,-21 -18,-31l10 -8c7,11 13,20 21,32 3,5 7,10 11,16 7,12 7,8 1,17l21 -15c-3,-7 0,-1 -3,-6 -1,-1 -2,-3 -3,-4l-38 -46 12 -7c4,6 11,17 18,20 1,-28 -5,-41 15,-49l-1 35 52 14c12,-19 28,-35 43,-59 47,-75 65,-149 61,-243 -44,11 -44,3 -82,2 12,-16 43,10 68,-5 -14,-5 -49,-9 -67,-13 -19,-4 -50,-17 -66,-18 12,8 53,26 69,29 -10,6 -6,2 -13,6l5 4zm-692 -20c27,-3 71,-14 89,-22 -22,3 -46,8 -70,8 -20,0 -17,-4 -19,14zm89 71c6,3 -6,1 7,3 15,1 37,-12 50,-20 3,-1 7,-4 9,-5 8,-6 2,0 6,-7 -11,-5 -35,16 -72,29zm55 20c18,-3 23,-6 35,-16 11,-8 19,-5 22,-21 -10,2 -50,28 -57,37zm49 9c22,-3 49,-27 53,-46 -9,3 -19,15 -27,23 -6,5 -8,8 -14,13 -5,5 -8,6 -12,10zm88 -21l2 -1 0 -8 0 1c4,-11 6,-10 7,-21l-44 56c36,-11 27,-34 35,-27zm9 25c18,-6 29,-27 30,-51 -5,7 -9,17 -14,26 -5,9 -12,16 -16,25zm173 -18c6,10 10,15 24,18l-32 -52c-1,13 3,23 8,34zm29 -12l2 -1 -1 5 2 3c3,-2 -1,-5 7,4 25,28 30,14 20,22l2 2 8 -4c-10,-5 -30,-35 -40,-48 0,0 -1,-1 -1,-2 -1,0 -1,-1 -2,-1l3 20zm29 -33c1,15 33,56 62,60l-33 -31c-5,-5 -28,-25 -29,-29zm33 -6c5,14 -1,5 8,14 15,17 45,39 70,43 -4,-7 0,-5 -11,-11 -32,-20 -47,-40 -67,-46zm79 10c-19,-9 -33,-18 -51,-28 2,9 35,30 45,37 15,10 40,21 61,19 -18,-10 -36,-19 -55,-28zm-24 -42c0,1 2,1 2,2l22 14c20,11 69,35 91,26 -10,-6 -86,-25 -111,-43l-4 1zm167 -5c-5,-17 -1,-4 -46,-11 -15,-3 -30,-7 -45,-8 15,11 76,28 91,19zm18 -25c-23,-2 -46,-2 -69,-5 -19,-3 -47,-8 -65,-9l14 7c33,10 92,24 120,7zm-113 -38c20,11 95,13 122,3 0,0 6,-3 6,-3 7,-4 3,-2 7,-5 -22,0 -43,4 -65,4 -23,1 -46,0 -70,1zm9 -26c28,4 107,0 129,-19 8,-7 1,0 6,-8 -21,4 -42,11 -65,16 -22,4 -48,6 -70,11zm-84 -88c2,-4 3,-2 5,-4l25 -27c-4,-8 -9,-9 -7,-14 4,-10 17,5 26,13 13,13 3,12 3,13l-12 -7 -19 20c-26,28 -21,7 -21,6zm-450 -65l11 -6c6,8 21,18 29,24 -3,-13 -12,-24 -12,-37l8 -6c8,6 34,41 35,51 -14,2 -8,-3 -21,-18l-3 -3c-1,-1 -2,-1 -2,-2 3,14 9,20 10,26 4,24 -21,-4 -33,-13 6,14 13,19 20,31 -9,4 -8,4 -14,-2l-28 -45zm20 14c1,1 2,-4 0,-1 -3,4 0,1 0,1zm407 33c-19,-2 -27,-17 -16,-33l27 -29c0,0 1,1 2,2 0,2 -10,16 -14,21 -20,29 -5,39 16,11 8,-11 23,-30 20,-10 0,1 -21,33 -35,38zm-71 -37c-2,-11 20,-43 24,-56 9,2 10,2 18,6 26,14 15,28 -5,38 4,36 0,23 -4,27 -15,-11 2,-20 -11,-35 -17,8 -2,18 -22,20zm-53 -20c4,-10 14,-23 20,-32 7,-9 20,-33 26,-13l0 44c0,3 0,6 0,9 -2,8 0,1 -4,5 -17,-8 10,-15 -23,-22 -10,11 -1,10 -19,9zm-225 -9c7,-32 3,-28 14,-33 6,8 0,15 -2,27 9,9 22,16 31,27l-8 3c-8,-3 -17,-12 -25,-18 -4,12 -4,7 -1,17 1,5 1,2 2,9 1,10 2,-1 -1,6 -10,-3 -6,0 -12,-13l-14 -31c-6,-15 -3,-9 1,-14 8,3 2,-2 8,8l7 12zm138 -7l0 9c-10,-1 -9,4 -10,-10l-1 -32 -12 7c-1,-19 -2,-5 7,-16 6,-8 0,-6 10,-11 6,9 7,43 6,53zm-76 -15c3,3 3,2 5,4l4 3c-3,-17 -11,-26 -4,-36 10,5 5,4 13,29 2,9 5,20 7,29 -13,3 -6,3 -14,-2 -4,-3 -12,-18 -23,-24 2,11 10,26 6,35 -10,-1 -4,10 -14,-26 -3,-11 -7,-21 -8,-32 20,-1 13,4 28,20zm9 8c2,3 2,-4 0,-1l0 1zm151 -12c6,44 -44,40 -45,5 -1,-44 46,-49 47,-15 -24,-1 -1,-6 -19,-10 -20,-5 -33,48 7,38 -3,-16 -1,-2 -5,-9 -15,-23 2,13 -5,-7 0,-1 1,-1 2,-1 8,-2 -5,-3 18,-1zm-421 169l93 17c12,-37 66,-83 99,-105 41,-27 100,-46 160,-46 60,0 118,18 160,45 35,22 86,68 100,104 19,-1 82,-7 94,-15 -14,-33 -35,-62 -56,-86 -159,-186 -444,-180 -593,-2 -21,25 -43,53 -57,88z"/>
   <path class="fil3" d="M1076 1205l0 -1 0 8 -2 1c-8,13 -19,25 -33,31l7 3c25,11 -5,16 42,56 40,34 179,54 214,-55l13 -5 -2 -2c-16,-8 -19,-11 -27,-26l-2 -3 1 -5 -2 1c-4,-5 -4,-5 -8,-8 3,17 14,30 19,44 -14,5 -32,-8 -38,-14 -8,-10 -13,-26 -20,-37 -16,19 -8,22 -30,39 3,34 17,65 -11,85 -28,20 -65,-11 -54,-39 4,-7 12,-15 25,-8 9,6 9,17 8,30 -10,6 -10,1 -15,12 56,15 48,-39 37,-78 -74,-8 -47,-6 -77,-35 -11,11 -7,20 -21,33 -9,8 -19,13 -34,14 2,-18 15,-24 19,-46 -10,9 -2,4 -9,5z"/>
   <path class="fil1" d="M1176 1210c-33,-18 -38,-52 2,-84l-4 -30c-47,15 -81,143 23,129l-13 -71c-10,3 -11,3 -16,11 -15,20 1,33 8,45z"/>
   <path class="fil0" d="M1165 1568c10,-4 5,1 8,-10l-1 -40c2,9 7,19 9,30 5,19 1,19 20,19l12 -49c1,10 1,19 1,29 0,12 0,20 7,20 11,0 7,-8 6,-32 -1,-13 -1,-25 -1,-38l-21 0 -11 45c-7,-11 -10,-32 -15,-45l-19 1c-3,11 -1,24 -1,37 0,5 -1,16 0,21 2,16 -2,7 6,12z"/>
   <path class="fil0" d="M1077 1554c4,-4 1,1 5,-8 0,0 3,-6 3,-6 9,-28 24,-58 7,-55 -4,1 -4,-1 -8,13 -3,10 -5,18 -9,27 -4,-12 -6,-20 -9,-33 -3,-17 0,-18 -16,-21 -7,9 -21,52 -23,66l8 3c10,-8 12,-27 18,-40 4,8 6,21 8,30 4,16 1,18 16,24z"/>
   <path class="fil0" d="M964 1503c9,4 16,7 25,13 25,16 20,11 25,6 -1,-7 0,-4 -5,-8 -4,-4 -4,-2 -9,-5 -7,-4 -12,-8 -16,-13l7 -14c6,3 10,5 16,8 21,13 15,7 17,3 7,-9 -12,-12 -20,-18 -4,-3 -3,-2 -5,-5l5 -11c9,2 11,4 19,9 12,8 12,10 19,2 -3,-10 2,-2 -9,-10l-35 -19c-9,19 -29,44 -34,62z"/>
   <path class="fil0" d="M969 903c2,-3 1,2 0,1 0,0 -3,3 0,-1zm8 -32c0,13 9,24 12,37 -8,-6 -23,-16 -29,-24l-11 6 28 45c6,6 5,6 14,2 -7,-12 -14,-17 -20,-31 12,9 37,37 33,13 -1,-6 -7,-12 -10,-26 0,1 1,1 2,2l3 3c13,15 7,20 21,18 -1,-10 -27,-45 -35,-51l-8 6z"/>
   <path class="fil0" d="M1098 856c2,-3 2,4 0,1 0,0 -3,4 0,-1zm0 0l-4 -3c-2,-2 -2,-1 -5,-4 -15,-16 -8,-21 -28,-20 1,11 5,21 8,32 10,36 4,25 14,26 4,-9 -4,-24 -6,-35 11,6 19,21 23,24 8,5 1,5 14,2 -2,-9 -5,-20 -7,-29 -8,-25 -3,-24 -13,-29 -7,10 1,19 4,36z"/>
   <path class="fil0" d="M1336 857c11,5 18,4 12,17 -5,5 -14,-1 -20,-3l8 -14zm-31 43c20,-2 5,-12 22,-20 13,15 -4,24 11,35 4,-4 8,9 4,-27 20,-10 31,-24 5,-38 -8,-4 -9,-4 -18,-6 -4,13 -26,45 -24,56z"/>
   <path class="fil1" d="M1177 1047c14,-9 33,-43 23,-71 -32,0 -36,50 -23,71z"/>
   <path class="fil0" d="M1249 845c-23,-2 -10,-1 -18,1 -1,0 -2,0 -2,1 7,20 -10,-16 5,7 4,7 2,-7 5,9 -40,10 -27,-43 -7,-38 18,4 -5,9 19,10 -1,-34 -48,-29 -47,15 1,35 51,39 45,-5z"/>
   <path class="fil1" d="M1206 1219c26,-12 25,-66 -13,-68 -1,18 6,54 13,68z"/>
   <path class="fil0" d="M1027 871l-7 -12c-6,-10 0,-5 -8,-8 -4,5 -7,-1 -1,14l14 31c6,13 2,10 12,13 3,-7 2,4 1,-6 -1,-7 -1,-4 -2,-9 -3,-10 -3,-5 1,-17 8,6 17,15 25,18l8 -3c-9,-11 -22,-18 -31,-27 2,-12 8,-19 2,-27 -11,5 -7,1 -14,33z"/>
   <path class="fil0" d="M1283 851l5 14 -11 -3 6 -11zm-31 29c18,1 9,2 19,-9 33,7 6,14 23,22 4,-4 2,3 4,-5 0,-3 0,-6 0,-9l0 -44c-6,-20 -19,4 -26,13 -6,9 -16,22 -20,32z"/>
   <path class="fil0" d="M917 942c3,0 5,8 21,4 13,-3 4,-7 20,-4 4,23 -9,9 -22,16 11,28 54,-8 24,-27 -21,-8 -16,5 -36,4 1,-22 10,-4 21,-18 -14,-16 -37,0 -28,25z"/>
   <path class="fil0" d="M1376 937c14,-5 35,-37 35,-38 3,-20 -12,-1 -20,10 -21,28 -36,18 -16,-11 4,-5 14,-19 14,-21 -1,-1 -2,-2 -2,-2l-27 29c-11,16 -3,31 16,33z"/>
   <path class="fil0" d="M1102 1559l10 2c7,-13 13,-54 13,-70 -19,-2 -11,-9 -19,29 -2,13 -7,27 -4,39z"/>
   <path class="fil0" d="M1429 924l-25 27c-2,2 -3,0 -5,4 0,1 -5,22 21,-6l19 -20 12 7c0,-1 10,0 -3,-13 -9,-8 -22,-23 -26,-13 -2,5 3,6 7,14z"/>
   <path class="fil3" d="M1382 1172c7,20 53,43 71,53l2 -15c-32,-12 -48,-25 -73,-38zm-69 20c1,7 6,12 9,18 35,50 25,32 45,40 8,51 -32,89 -58,105 -35,21 -81,34 -129,34 -88,0 -201,-51 -185,-139 17,-5 19,2 29,-12 4,-5 10,-18 11,-26 -20,7 -17,33 -72,30 8,-10 16,-11 25,-25 21,-29 27,-25 21,-32l-40 36c-21,13 -35,12 -60,8 20,124 133,229 273,228 135,-1 257,-106 271,-228 -63,15 -63,-23 -100,-40 10,26 41,38 47,52 -38,17 -78,-36 -87,-49z"/>
   <path class="fil0" d="M1155 863c4,7 3,4 7,8l3 -7c1,-10 0,-44 -6,-53 -10,5 -4,3 -10,11 -9,11 -8,-3 -7,16l12 -7 1 32z"/>
   <path class="fil2" d="M1424 1484c11,-5 20,-13 25,-21l-35 -11c-1,24 2,18 10,32z"/>
   <path class="fil3" d="M908 1224c12,-4 68,-44 69,-49 0,-1 1,-2 1,-2l-20 11c-15,10 -34,22 -51,27l1 13z"/>
   <path class="fil2" d="M1328 871c6,2 15,8 20,3 6,-13 -1,-12 -12,-17l-8 14z"/>
   <path class="fil3" d="M905 1185l20 -9c0,1 1,-6 -12,-3 -13,3 -7,2 -8,12z"/>
   <polygon class="fil2" points="1277,862 1288,865 1283,851 "/>
   <path class="fil4" d="M1165 864l-3 7c-4,-4 -3,-1 -7,-8 1,14 0,9 10,10l0 -9z"/>
   <path class="fil5" d="M1051 1330l12 -26 4 3 -9 19 17 -11 4 3 -25 15 -3 -3zm18 -2c1,-3 3,-5 5,-7 2,-1 4,-2 6,-2 2,0 4,1 5,2 3,2 5,4 5,7 1,3 0,7 -3,11 -2,4 -5,6 -8,7 -3,1 -5,1 -8,-1 -3,-1 -5,-4 -5,-7 -1,-3 0,-7 3,-10zm4 2c-2,3 -3,5 -2,7 0,2 1,3 2,4 2,1 3,1 5,0 2,0 4,-2 5,-5 2,-2 3,-5 3,-7 -1,-2 -1,-3 -3,-4 -2,-1 -3,-1 -5,0 -2,0 -4,2 -5,5zm28 19l3 3c-2,3 -4,4 -6,5 -2,1 -4,0 -6,-1 -3,-1 -4,-3 -5,-6 -1,-3 0,-6 1,-11 2,-4 5,-7 8,-8 3,-1 5,-1 8,0 2,1 4,3 5,5 0,1 0,3 0,6l-5 -1c1,-1 1,-3 0,-4 0,-1 -1,-1 -2,-2 -2,-1 -3,-1 -5,0 -1,1 -3,3 -4,6 -2,3 -2,6 -2,7 1,2 1,3 3,4 1,1 2,1 3,0 1,0 3,-1 4,-3zm6 -1c1,-3 2,-5 4,-7 1,-2 3,-3 5,-4 2,0 4,0 6,1 3,0 5,2 6,5 1,3 1,7 0,11 -1,5 -3,8 -6,10 -3,1 -5,2 -9,1 -3,-1 -5,-3 -6,-6 -1,-3 -1,-7 0,-11zm5 1c-1,3 -1,6 -1,8 1,1 2,3 4,3 2,1 3,0 5,-1 1,-1 3,-3 4,-6 0,-3 1,-6 0,-7 -1,-2 -2,-3 -4,-4 -1,0 -3,0 -5,1 -1,1 -2,3 -3,6zm24 21l4 -27 7 1 1 19 7 -18 6 1 -3 27 -5 -1 3 -21 -7 21 -4 -1 -2 -22 -3 21 -4 0zm27 -24l4 0 0 15c0,2 0,4 0,4 0,2 1,2 1,3 1,1 2,1 3,1 2,0 2,0 3,-1 1,0 1,-1 1,-1 1,-1 1,-3 1,-6l0 -15 5 0 -1 15c0,3 0,6 0,8 -1,1 -2,2 -3,3 -1,1 -3,2 -5,2 -3,0 -5,-1 -6,-1 -1,-1 -2,-2 -3,-4 0,-2 -1,-4 -1,-8l1 -15zm20 19l5 -1c0,3 2,5 5,5 1,0 2,0 3,-1 1,-1 1,-2 1,-3 0,-1 0,-1 0,-1 -1,-1 -1,-1 -2,-1 0,-1 -2,-1 -4,-2 -2,0 -3,-1 -4,-1 -1,-1 -2,-2 -2,-3 -1,-1 -1,-2 -1,-4 0,-1 0,-2 1,-4 0,-1 1,-2 2,-3 1,0 3,-1 5,-1 2,0 4,1 6,2 2,2 2,4 3,6l-5 1c0,-2 -1,-3 -1,-3 -1,-1 -2,-1 -3,-1 -1,0 -2,0 -3,1 -1,0 -1,1 -1,2 0,1 0,1 1,2 1,0 2,1 4,1 3,1 4,1 5,2 1,1 2,2 3,3 0,1 1,2 1,4 0,2 -1,4 -2,6 -2,2 -4,3 -7,3 -5,0 -9,-3 -10,-9zm20 -1l4 -2c1,4 3,5 6,5 1,0 2,-1 3,-2 1,-1 1,-1 1,-2 0,-1 -1,-2 -1,-2 0,0 -1,-1 -1,-1 -1,0 -2,0 -5,-1 -2,0 -3,0 -4,-1 -1,-1 -2,-1 -2,-2 -1,-1 -2,-2 -2,-4 0,-1 0,-3 1,-4 0,-1 1,-2 2,-3 1,-1 3,-1 4,-2 3,0 5,0 7,2 1,1 2,3 3,5l-5 1c0,-1 -1,-2 -1,-3 -1,0 -2,0 -3,0 -1,0 -2,1 -3,1 0,1 -1,1 -1,2 1,1 1,2 2,2 0,0 2,1 4,1 2,0 4,1 5,1 1,1 2,2 3,3 1,1 1,2 1,4 1,2 0,4 -1,6 -1,2 -3,3 -6,3 -6,1 -9,-1 -11,-7zm43 0l-5 1 -3 -6 -9 3 0 6 -5 1 1 -28 5 -2 16 25zm-11 -9l-6 -9 0 11 6 -2zm20 -5l-2 -4 9 -4 4 10c-1,2 -2,3 -3,5 -1,1 -3,2 -5,3 -2,0 -4,1 -6,0 -2,0 -4,-1 -5,-3 -2,-2 -3,-4 -4,-7 -1,-3 -2,-5 -2,-7 1,-3 1,-5 2,-6 2,-2 3,-3 5,-4 3,-1 5,-1 7,0 2,1 4,2 5,4l-4 3c-1,-1 -2,-2 -3,-2 -1,-1 -2,-1 -3,0 -2,0 -3,2 -4,3 0,2 0,5 1,7 1,4 3,6 4,7 2,1 4,1 5,0 1,0 2,0 3,-1 1,-1 1,-2 2,-3l-2 -3 -4 2zm34 -6l-5 2 -4 -4 -8 4 1 7 -4 2 -6 -28 4 -3 22 20zm-13 -6l-8 -7 3 11 5 -4zm14 4l-16 -22 8 -6c2,-1 4,-2 5,-2 1,0 2,0 3,0 2,1 3,2 4,3 1,2 2,4 2,5 0,2 -1,4 -3,5 2,0 3,0 4,0 1,1 2,1 4,3l6 2 -5 4 -6 -3c-2,-1 -3,-2 -4,-2 -1,-1 -1,-1 -2,0 0,0 -1,0 -2,1l-1 0 7 9 -4 3zm-5 -15l3 -2c1,-2 2,-2 3,-3 0,0 0,-1 0,-2 0,0 0,-1 -1,-2 0,0 -1,-1 -1,-1 -1,0 -2,0 -2,0 -1,0 -2,1 -3,2l-3 2 4 6z"/>
  </g>
 </g>
</svg>
