<?xml version="1.0" encoding="UTF-8"?>
<!DOCTYPE svg PUBLIC "-//W3C//DTD SVG 1.1//EN" "http://www.w3.org/Graphics/SVG/1.1/DTD/svg11.dtd">
<!-- Creator: CorelDRAW X7 -->
<svg xmlns="http://www.w3.org/2000/svg" xml:space="preserve" width="2362px" height="2362px" version="1.1" style="shape-rendering:geometricPrecision; text-rendering:geometricPrecision; image-rendering:optimizeQuality; fill-rule:evenodd; clip-rule:evenodd"
viewBox="0 0 2362 2362"
 xmlns:xlink="http://www.w3.org/1999/xlink">
 <defs>
  <style type="text/css">
   <![CDATA[
    .str0 {stroke:#332C2B;stroke-width:2.362}
    .fil0 {fill:#00094E}
    .fil16 {fill:#080954}
    .fil11 {fill:#193270}
    .fil6 {fill:#292647}
    .fil1 {fill:#463681}
    .fil8 {fill:#5071AC}
    .fil18 {fill:#5394C8}
    .fil2 {fill:#560E62}
    .fil13 {fill:#63B5E5}
    .fil9 {fill:#675A6A}
    .fil3 {fill:#6B2C91}
    .fil15 {fill:#8B4A97}
    .fil17 {fill:#8B776E}
    .fil19 {fill:#8D92CF}
    .fil4 {fill:#921C82}
    .fil12 {fill:#A624BB}
    .fil14 {fill:#AF9854}
    .fil10 {fill:#C81788}
    .fil5 {fill:#E9C132}
    .fil7 {fill:#FD0288}
   ]]>
  </style>
 </defs>
 <g id="Layer_x0020_1">
  <metadata id="CorelCorpID_0Corel-Layer"/>
  <g id="_3161228523536">
   <circle class="fil0 str0" cx="1181" cy="1181" r="357"/>
   <g>
    <path class="fil1" d="M829 1196c0,-109 26,-167 85,-243 7,-9 15,-16 23,-23 83,-84 204,-117 322,-92 22,4 46,13 64,21 65,29 124,78 161,140 16,26 31,59 39,90 21,85 17,169 -23,247 -13,26 -12,27 -30,52 -11,16 -33,43 -48,55 -22,19 -33,29 -59,45 -32,19 -84,39 -122,44 -52,8 -95,8 -148,-6 -60,-17 -119,-49 -162,-93 -58,-60 -102,-151 -102,-237zm348 347c97,0 192,-38 258,-104l41 -48 32 -56c59,-126 40,-269 -47,-379l-55 -54c-52,-43 -134,-78 -206,-78 -82,0 -120,8 -190,44l-41 26c-54,40 -89,85 -117,148 -9,21 -16,42 -21,67 -15,74 -8,159 25,224l23 42c24,41 60,75 98,103 50,38 134,65 200,65z"/>
    <path class="fil1" d="M1179 850c119,0 222,60 276,143 79,120 82,258 2,378 -52,79 -137,128 -232,143 -33,5 -83,2 -113,-5 -124,-30 -221,-117 -253,-248 -26,-105 1,-205 66,-289 56,-72 159,-122 254,-122zm-335 326c0,107 41,202 120,267 106,84 231,102 356,50 68,-28 137,-95 167,-162 9,-21 16,-35 22,-59 27,-95 5,-211 -53,-289 -26,-34 -48,-56 -85,-81 -97,-65 -217,-76 -327,-28 -52,22 -83,50 -119,89 -7,7 -13,16 -18,23 -38,58 -63,112 -63,190z"/>
    <path class="fil2" d="M1300 1347c3,-4 7,6 2,2 -1,-1 -5,1 -2,-2zm2 -15c3,-6 -2,-3 5,-5l2 7c-3,2 5,3 -7,2l-7 0 0 -4 7 0zm11 -2c2,-3 8,3 2,1 0,0 -6,2 -2,-1zm27 -32c12,3 7,-3 8,9 -12,-2 -7,2 -8,-9zm-10 6c0,0 8,-6 4,-1 0,0 -7,6 -4,1zm9 10c5,-6 14,-7 27,-35 3,-9 1,-9 7,-14 0,23 -7,49 -34,49zm8 -19l-4 0c0,-12 0,-6 6,-14 7,-9 3,-9 9,-12l-11 26zm-2 -24c-6,-4 -4,-1 -4,-13 -10,1 -9,5 -9,-6 10,-3 5,-6 20,-7 0,13 -5,16 -7,26zm9 -43l0 9 -5 0c1,-10 -2,-4 5,-9zm-22 -82l1 9c-7,-1 -6,-3 -8,3 0,2 0,10 0,12 -6,-2 -12,-2 -11,-11 1,-9 0,-1 6,-6l-1 -10c-4,-3 -2,-1 -8,-3 0,-9 -1,-11 2,-18l4 0c10,2 1,2 10,19 2,5 1,3 5,5zm-23 -21c1,8 2,7 1,15 4,2 -1,-3 7,3l1 10 -2 -3c-2,2 -2,2 -5,3 -1,9 -2,4 3,11 2,2 3,4 4,5 4,4 1,1 5,3 2,-1 2,6 2,-2 0,-1 1,-2 1,-3l2 -10c10,4 8,34 8,50l12 -11c2,9 2,11 -1,19l1 3c-8,4 -9,3 -9,21 -4,2 -8,4 -13,5l-3 -1 0 1c1,-4 1,-3 -2,-3l2 3c0,0 0,1 1,1 0,1 0,1 0,2l2 8 -9 1 -2 -13c0,7 1,7 -2,9l4 4 0 2c10,1 15,7 15,18 2,2 5,6 -2,15 -3,6 -7,8 -13,11l-3 -8c8,0 3,0 12,-1l0 -11c-8,-6 -3,-1 -6,-11l0 9 6 2 0 11 -10 -2 -2 3 -3 1 0 5 5 4c-3,2 7,3 -9,2l8 3c0,0 4,0 5,0 -1,6 1,3 -5,6l-5 2c-2,-1 0,-2 -6,-6l-4 8c0,1 0,2 -1,2 0,-1 0,0 0,1 -9,1 -2,1 -6,-2 -1,3 -1,1 -1,6l1 8c0,0 0,1 0,2 5,14 2,21 12,21 1,-1 1,-1 1,-1 8,-19 -8,-16 13,-17 -5,7 -5,6 -9,13l5 4 0 7 -5 3c7,-1 4,3 5,-3 2,-4 3,0 0,-7 0,-8 3,-10 9,-13 19,-9 15,-4 17,0l6 0c0,-11 -3,-6 14,-19 8,-7 11,-9 16,-19 7,-15 9,-39 4,-50 -3,-6 0,-2 -6,-5l1 6c-8,7 10,-3 -3,1 -6,2 -4,3 -8,11l-2 5c0,-1 -1,1 -1,1l3 -31c-11,-6 -2,3 -8,-2 -1,-11 1,-12 -4,-19l-5 -4c7,-4 4,-8 6,-15 2,-6 0,-3 2,-6l8 20 7 17c2,10 -1,1 4,5 0,-10 2,-5 -4,-5 1,-7 2,-3 0,-10 -3,-12 -2,-5 -7,-7 2,-10 0,-9 -5,-18 -3,-7 -5,-11 -8,-18 -5,-12 -16,-25 -17,-36l-2 1 0 -7 4 0c-5,-2 -4,2 -8,-4l-2 -4c0,0 1,-1 1,0l9 -2c0,-6 -1,-7 -4,-11 -3,2 -2,1 -5,4 0,0 0,1 -1,1l-2 2c0,1 0,1 -1,2 -2,-9 -2,-3 -3,-11 0,-6 3,-2 -1,-11 -9,5 -5,1 -10,20zm2 -23c-4,7 -2,5 -4,11 -4,14 -25,11 -37,8 12,-3 16,-3 30,-4l4 -10c0,1 -1,1 -1,2 -2,12 -24,3 -33,10 -1,1 -1,2 -3,3 1,1 2,0 2,1 0,1 1,0 2,0 13,5 31,5 36,-4l4 -17zm23 24c-1,6 0,1 -4,2 -5,-7 -2,-4 2,-6 2,3 3,-1 2,4z"/>
    <path class="fil3" d="M1093 1349c-8,-3 -7,-3 -10,-11l11 3 -1 8zm8 -19c7,1 5,0 7,6l-7 0 0 -6zm28 -9c2,-2 8,3 3,1 0,0 -6,3 -3,-1zm50 2c-2,-6 -3,-6 0,-11l0 -4 -9 11c0,0 -1,0 -1,1l-5 1c-4,0 -4,-1 -2,3l-5 -7c-5,-3 -1,0 -4,-4 -1,-1 -3,-5 -5,-7 5,0 3,1 1,-4 5,4 4,2 7,4l2 -7 -2 -3 8 0c0,9 1,4 -3,6 1,-3 2,-3 -2,-3l2 3c2,6 0,3 6,5 0,0 0,-5 -1,-5 -1,-5 -1,-3 -2,-6 -1,0 -1,-1 -1,0 -1,0 -2,-1 -2,-1 -3,0 -4,1 -5,1l-4 2c-4,3 -1,0 -3,4l-1 4c-4,5 -8,12 -15,12 -2,0 -1,0 -3,-1 -10,-2 -3,-18 -2,-18 3,3 -2,1 4,2 2,1 5,1 6,1l0 -4 0 4c-2,-1 -5,-2 -5,-2 -5,-2 2,0 -5,-1l3 -6c-6,-2 -2,3 -4,-4l2 1c0,-9 1,-4 -2,-6l0 5c-13,3 0,7 -11,5 -4,7 7,5 -7,5 1,-14 0,-10 -1,-23l-11 -8c-2,7 1,8 -6,14 -9,-5 -3,0 -7,-6l6 -8 0 -1c2,-5 2,-3 1,-9 -3,-3 -3,6 -3,-6l8 0c3,-2 -3,-1 5,-2 8,-1 10,1 14,2 9,2 7,-2 10,-1 4,13 1,3 4,7 9,14 -2,6 9,11 0,4 -1,2 4,2 0,-6 1,-5 -4,-2 0,-6 3,-3 0,-6 13,3 25,2 41,2 -1,9 -2,7 -7,13 -3,3 -1,1 -4,4 -3,3 -2,3 -7,4 2,2 0,2 5,3 1,0 5,0 6,0 -5,-14 37,-30 3,-31 -26,0 -28,5 -50,-7 1,-5 2,-1 0,-6 -60,2 -53,15 -63,22l2 9c-8,-8 -4,-2 -8,-11l-6 -5 2 11 -1 2c5,2 2,-4 4,4l2 -1c-1,4 -2,3 2,3 1,-4 3,-4 -2,-3 -1,-3 -1,1 -1,2 12,0 7,-2 8,-2 4,-4 2,0 5,-7l4 2c2,-11 4,-6 7,-17l4 0c1,9 0,4 4,11 -7,4 -4,4 -11,6 1,16 9,9 5,28 -6,-3 -9,-4 -9,-13 -7,0 -3,-1 -8,2 2,-5 3,-4 -2,-3 2,-4 3,-3 -1,-2 1,-4 1,-3 -3,-3 0,4 -1,4 3,3 -1,4 -3,4 1,2 -1,4 -2,4 2,3 5,16 20,19 36,21l2 -1 1 -4c4,-3 -5,-3 6,-3l0 21c-25,-6 -22,-8 -35,-12 -6,-4 -4,-3 -11,-4l3 9c1,1 1,1 1,2 0,1 0,1 0,2l1 4c0,-16 1,-9 6,-13 5,7 -1,-1 9,6l2 9 6 2 -2 10c-16,-1 -29,-8 -38,-16 -4,-5 1,2 -1,-4 0,0 0,-1 0,-1l-1 -3c-1,-3 -3,-4 -6,-6l-2 -2 -3 -2 -2 -2 -2 -2 -2 -5 -2 -2c-6,-9 -5,-25 -1,-34 5,3 2,-2 5,9l1 4 4 10 2 3 1 11 6 2c12,6 4,8 15,9l-8 -13c-4,-4 -8,-10 -10,-14l-2 -5 -4 -24 -1 0 -2 -3 2 3 0 14 -12 -12c2,-8 0,-9 7,-11 -3,-4 2,-3 -6,-3 -8,9 -15,59 9,82 3,3 4,4 7,6 20,15 25,10 33,15 9,6 3,9 13,10l0 10 3 0c2,-1 2,-2 2,-3 1,0 1,-1 2,-1 0,1 1,-1 2,-1 0,0 5,-2 5,-2 0,-19 3,-12 7,-20 2,-5 1,-19 2,-26 2,10 -1,8 7,12 16,10 16,0 28,4 8,3 -1,3 7,3 12,0 7,-3 7,-3 8,3 5,3 13,5 2,-9 2,-2 0,-10 -1,1 -6,-2 4,4zm-48 -34c5,-3 3,4 5,-5 -1,0 -1,-3 -2,-2 0,0 -2,-1 -3,-2 0,7 -1,1 0,9zm11 28c4,1 4,2 7,4 -9,0 -3,1 -7,-4zm-24 -3c0,-3 7,-3 3,0 -2,2 -3,4 -3,0zm-92 -25c2,3 8,11 12,15 8,7 11,5 7,16 -9,-4 -17,-16 -19,-31zm81 10c-10,1 -3,2 -10,-2 -2,-2 -4,-4 -6,-6 2,-18 19,-27 16,8z"/>
    <path class="fil2" d="M1086 1440c-4,-2 -2,1 -6,-7 -3,-7 -4,-21 0,-28 3,12 15,15 6,35zm16 -56c0,1 -3,6 -4,7 -10,4 -6,-3 -6,-3 -2,-5 1,-13 1,-19 -9,-1 -3,2 -7,-2l0 -5 2 -2 -2 2c-2,2 -4,-1 0,5 -1,11 0,1 -4,8l-2 3c-4,7 -5,15 -5,25 0,23 -2,31 8,42 12,12 37,6 61,8 9,0 18,0 26,0 1,-11 7,-19 2,-28l-3 0c1,6 2,3 -5,4l-30 -1c-19,0 -34,5 -34,-6 4,-7 -1,-1 5,-3 5,-2 4,1 10,-3l9 -1 25 2 0 -10 5 10 13 1 2 6 3 0 -2 -8c-6,-2 -17,1 -21,-17 8,-3 7,-4 14,-16 0,-1 0,-1 1,-2 6,2 6,3 15,3 2,-8 2,-7 2,-17l-6 -2 -12 -8c0,-1 0,-1 0,-1l1 -3c0,0 2,1 6,3 6,-13 -5,-11 11,-11 1,11 -2,4 4,6 4,-8 12,-19 2,-31l-2 0 -3 1c2,7 1,0 8,3 1,5 3,12 -2,17 0,1 -1,1 -1,1 -1,0 -1,0 -2,1 -8,2 3,-1 -13,-1 0,1 -1,5 -1,6 -1,5 -1,3 -3,5l-2 -4c0,0 0,-1 -1,-1 0,-1 0,-1 0,-2 -4,-6 4,-1 -3,-2 -3,6 -2,5 -1,14 23,13 20,7 19,21 -8,2 -12,0 -19,3l-4 3c0,-9 1,-19 -6,-24l7 -8 -9 0c-1,-6 0,-4 -3,-8 -8,0 0,-1 -4,2 6,3 2,0 5,4 -1,5 -1,3 -2,5 0,1 -3,3 -3,4 24,2 15,42 -16,33l-8 -4c-9,-7 -4,-2 -6,-9 0,0 -1,1 -1,2 -1,14 -3,-9 0,4 2,5 8,9 11,10 8,3 18,0 26,-1 -1,7 0,9 1,12 -5,-2 -17,-7 -26,-9 -15,-4 -12,-5 -21,-14zm8 30c-4,1 -9,-1 -12,-4 -5,-4 -2,-11 -2,-11l-1 -3c5,4 4,5 7,10 3,5 4,6 8,8zm-7 -22c13,9 12,10 26,11 11,1 -6,-4 7,1l3 2c1,0 1,0 2,1 2,2 2,3 3,5 -13,0 -18,-1 -26,-4 -8,-3 -4,0 -9,-6 -3,-4 -2,-5 -6,-10z"/>
    <path class="fil4" d="M1305 1413l-2 2 -3 1 -4 0 -7 2c2,-8 6,-10 11,-15l-14 7c-6,3 6,-4 -3,2l-3 2 9 4c0,0 1,0 1,1 1,2 9,1 11,1 -1,7 0,4 -2,9l15 -3c-1,9 0,6 -6,10 9,3 4,0 5,4 4,9 1,-2 0,3 -1,8 -5,-4 0,3 6,-4 2,-1 9,-10l4 -5 -2 -2 0 -38c-1,6 -2,23 -7,29 -5,5 -4,3 -13,5 6,-22 9,-6 9,-35l2 0c-3,-2 -3,-2 -5,-4l-1 5c-12,-6 7,7 -3,-2 -1,0 -2,-2 -2,-2 -5,-4 2,-4 -10,-2l2 -7c5,-13 1,-13 8,-20 7,11 2,8 5,20l-1 -7 2 -5 5 -3 0 -7 -5 -4c4,-7 4,-6 9,-13 -21,1 -5,-2 -13,17 0,0 0,0 -1,1 -10,0 -7,-7 -12,-21 0,-1 0,-2 0,-2l-1 -8c0,-5 0,-3 1,-6l-1 -16 6 0c6,1 3,-2 9,2 16,1 6,0 9,-2l-5 -4c-1,-1 -5,3 0,-5l7 -9 -9 -10c-6,-2 5,-3 -7,-1 -6,1 -4,-1 -6,4 -4,-2 -2,-2 -2,3 4,0 3,1 2,-3 22,-5 11,16 10,20 -8,-3 -4,-3 -13,0l0 -8 -4 8 -19 -17c-8,11 -8,7 -11,16l-7 0c0,4 -1,2 0,5 1,1 3,6 3,6 4,9 -4,6 9,7 2,1 -5,1 6,2 0,0 3,0 3,0 7,-1 2,1 6,-2l-15 0 -2 -13 8 1c2,3 1,1 4,4 0,0 1,1 1,1 0,0 1,1 1,1l3 3 1 -11 -10 2c-3,-7 -5,-9 7,-9l11 15 -2 13c-4,1 -6,3 -12,4l-7 0c-8,-1 -4,0 -11,-3 -11,-4 -5,-2 -6,-4 -2,10 -4,9 -5,15 6,0 8,-1 16,0 12,1 11,3 14,6l7 -1 1 3 -2 4 -5 2 -2 -2c0,3 -1,2 2,2 3,2 -4,4 2,1 7,-2 -1,6 3,-3 5,1 5,5 2,-4 12,12 9,13 14,28l-1 7c-8,12 -13,23 -35,19 -8,-1 -7,-3 -13,-7l7 8 -1 11c3,-6 2,-4 11,-6l2 2c9,-6 8,-4 17,-7 9,-3 8,-6 16,-10 3,6 1,7 0,15 4,-7 0,-6 8,-8 3,9 3,12 -3,18zm-59 -29c3,-8 2,-6 2,-16 1,0 4,-1 4,-1 4,-3 2,-1 3,-3l4 -7c11,0 10,0 14,7 -3,5 -6,8 -17,9 4,5 -1,3 6,5 4,2 5,1 8,1 1,-2 2,-3 3,-5l5 -5 0 -7c-7,-5 -12,-10 -19,-8 -12,4 -11,9 -18,-5 0,17 -6,12 -6,28 8,4 9,4 10,13 2,-3 2,0 1,-6zm36 -44c-10,-7 -15,-4 -27,-8 1,-13 11,3 28,-6 7,-3 4,0 5,-6 0,1 0,6 0,6l-4 8c7,9 7,3 9,11 -8,-4 -3,-3 -11,-5z"/>
    <path class="fil3" d="M1101 1153c7,-5 0,2 3,-5l1 -15 -2 -6c-4,-1 -6,-1 -8,-2 -1,0 -7,2 -3,-10 3,-6 3,-5 7,-7 0,1 1,1 1,2 2,7 0,12 8,12 -3,22 2,10 1,28l-1 2c-1,0 -1,1 -2,1 0,1 0,1 0,2 -1,2 -1,2 1,2l2 3 2 2 1 6 4 7c0,0 1,2 2,3l2 3 3 2 12 9c-9,-14 -4,-10 -7,-27 0,0 1,-4 2,-6 0,-1 -1,-1 -1,-2 0,-6 -6,-5 -8,-6 0,1 0,2 1,2l6 12c-3,4 0,0 -2,5l-3 8c-5,-2 -3,0 -8,-8 -3,-8 2,-1 -4,-8l-2 -2 -2 -3 1 -5c2,1 2,1 1,-2 9,0 3,0 12,2l-3 -4 -1 -4 -1 -7 0 1c-1,-1 -4,-2 -2,-13l11 -29c7,9 0,6 10,5l-5 -9c-2,-2 -1,-1 1,-2l3 -2 0 -2 0 2 -3 2c-2,-1 -5,0 -8,-2 0,-1 1,-8 1,-8 0,-1 1,-2 1,-3 0,0 0,-2 0,-2l0 -22c-10,1 -8,3 -13,11 -4,7 -6,9 -5,17 -2,4 -2,4 -4,9 4,-6 2,-5 11,-7 -1,6 -1,12 -2,18 -3,10 -9,8 -10,8 5,-12 -2,0 3,-6 3,-3 2,-1 5,-2 -5,-5 -4,-3 -7,-11 -6,14 -7,13 -15,13 -1,3 -1,5 -2,9l-9 2c3,8 3,3 5,11 -6,3 -8,8 -10,17 -2,17 -20,31 -18,47 9,0 11,-2 15,-12l2 -5c3,-5 -7,-3 9,-5 -3,23 -6,-6 -6,12l-1 0c3,-3 3,-3 8,-6 3,14 -1,7 0,16l7 0 0 -9 6 0c-10,-1 -3,-1 -6,-4 2,-3 -1,-1 4,-5l2 -1 -2 1c-5,0 -3,1 -8,-4 10,-7 8,4 6,-12 0,0 -1,0 -1,0 -8,-1 -3,1 -7,-2 1,-12 0,-13 6,-18 4,6 5,12 3,17 7,-1 4,-3 10,1zm20 -61l0 -6c9,7 1,3 0,6z"/>
    <path class="fil5" d="M1125 1651l17 0c0,-11 4,-20 4,-30 13,14 2,30 22,30 2,-7 3,-9 6,-16 2,-3 2,-3 3,-7l4 -7c0,11 2,17 2,30 8,1 7,2 17,2 0,-22 -6,-41 -6,-62 -14,0 -20,-6 -28,28l-4 0c-1,-12 -7,-19 -9,-28l-17 0c-1,9 -4,20 -6,29 -2,10 -4,22 -5,31z"/>
    <path class="fil2" d="M1239 1040c0,-5 4,0 2,0 0,0 -2,6 -2,0zm-27 -26l23 -32c5,-5 6,-5 8,-13 -5,-12 -10,-17 -15,-29l-11 -22c-5,-7 1,-3 -7,-7 0,14 0,1 -3,9 -3,10 -1,51 1,56 2,7 1,-4 2,6 0,7 -5,14 -4,24l7 3c1,0 1,0 2,1 -6,0 -1,-3 -3,4zm31 -23c1,7 -1,15 -4,21 -8,11 -8,2 -6,18l-6 0 2 2c1,1 2,3 2,3 7,11 10,13 10,23 2,-3 1,0 2,-5 1,-3 1,-5 1,-8 10,3 -2,0 8,4 -1,-14 -8,-17 -11,-26 4,-5 8,-12 13,-15 8,14 16,37 16,58l2 -32c-3,-6 -3,-10 -6,-16l-20 -45c-11,11 -6,3 -3,18zm31 56c0,4 11,-1 2,0 -1,0 -3,-5 -2,0zm-65 -71c-3,-15 3,-15 9,-25 2,-3 0,-2 3,-5 2,8 2,8 -1,15 -5,15 -6,5 2,15l6 -11c0,10 -2,18 -7,24 -5,6 -9,11 -13,16 -1,-16 7,-19 11,-29 -5,-3 -6,-5 -10,0z"/>
    <path class="fil5" d="M1323 1565l12 34c-35,-20 -32,-29 -53,-19 2,18 16,40 18,58 7,-1 11,-3 17,-6l-11 -32c35,20 31,29 52,19l-19 -58c-5,2 -9,3 -16,4z"/>
    <path class="fil5" d="M751 1364c1,9 3,7 5,15 6,0 25,-11 32,-15l-11 27c-8,16 -7,12 0,27 13,-3 45,-23 54,-26 -1,-6 -3,-10 -6,-15 -11,3 -21,10 -30,15 0,-6 8,-22 10,-28 10,-20 5,-6 0,-26 -10,1 -18,8 -26,12 -10,6 -18,9 -28,14z"/>
    <path class="fil1" d="M1195 1160c0,-1 -5,-12 8,-8 2,7 1,9 -8,8zm-47 -54c6,2 12,3 3,8 -3,-3 -2,6 -3,-8zm3 12l0 4 0 3 -4 0 -7 -2 1 3c1,-10 2,-3 -5,-10 -1,3 -1,3 -1,7 -5,-1 -3,-1 -3,4 5,0 4,1 3,-4 4,3 3,2 6,3l-1 7c4,1 -4,6 5,-5l-1 8 -6 1c-1,2 -2,7 -2,9 -4,11 1,4 -7,8 -3,-6 -1,-3 0,-10 0,-7 -2,-8 -2,-13 -3,-4 -2,5 -3,-6l-6 1c1,9 2,2 5,11l-7 0 1 7c9,5 3,-4 2,2 -1,8 5,-3 -1,2l3 4 0 -1c2,1 8,0 8,6 0,1 1,1 1,2 -1,2 -2,6 -2,6 3,17 -2,13 7,27l-12 -9 8 10c0,0 0,0 1,1 3,1 0,1 3,0 9,-3 -15,-12 -2,-36 4,-8 7,-5 13,-11l-1 -4 8 0c-7,-2 -8,-2 -13,1l4 -8c15,-1 -11,3 5,-1 12,-3 23,8 23,28l5 -8c0,4 0,7 0,11 -1,10 -3,4 1,7 2,4 1,2 7,6l-34 4c12,0 32,2 41,-2 -7,-9 -4,-1 -14,-8 -1,-8 2,-19 -2,-28 -7,-13 -13,-9 -14,-20 16,4 28,32 33,38 3,3 0,0 3,3 8,-6 9,-5 9,-18 -12,-6 -9,3 -20,-10l-15 -16c-12,0 -11,-6 -17,7l4 -23c3,-4 0,-1 3,-3 4,8 -2,3 8,5l-1 4c-2,3 -1,1 -3,4l6 4c8,-2 5,0 9,-6 -9,0 -6,1 -12,-2 9,-6 2,4 2,-2 -1,-9 4,2 -1,-2l-5 -6c0,-1 -1,-1 -1,-1 -2,-2 -1,-1 -5,-2 -3,6 -1,2 0,7 -4,-3 -6,3 -3,-7l1 -2 -1 2c-7,-2 -4,3 -6,-5 3,-3 -5,-3 7,-2l-2 -4c-9,3 -2,3 -7,3 -5,0 -2,1 -5,-6 -5,-11 0,-10 -9,-17l0 11c-4,-2 -3,-1 -9,-2 0,1 -1,2 -1,3 0,0 -1,7 -1,8 3,2 6,1 8,2l3 -2 0 -2c2,-5 -1,-8 3,1 1,5 1,4 1,9l0 7c1,9 1,4 0,11 4,15 0,4 6,8 1,0 1,-2 1,-2l2 -8c0,0 -2,-2 -1,-5 0,0 -6,-2 2,8 1,1 2,1 2,2 0,0 1,1 1,1zm59 54c-1,5 -2,4 2,4 0,-4 1,-4 -2,-4 -3,-2 -4,2 -3,-3l4 -8c2,-3 2,-4 2,-11 9,6 2,-1 6,7 4,-3 0,-1 4,-1 0,0 1,1 2,1 0,0 0,0 1,0 0,0 0,0 0,0 -4,-16 -17,-18 -25,-26l-7 -11c0,15 5,18 19,26 0,7 -2,8 -2,15l-8 3c0,11 -2,9 7,8zm16 -11c0,6 4,1 2,0 0,0 -2,-6 -2,0z"/>
    <path class="fil5" d="M1451 1500c0,15 13,33 37,33 24,0 42,-38 17,-57 -8,6 -15,14 -24,20l9 10 10 -8c1,35 -32,16 -32,0 0,-6 1,-6 2,-11 12,-6 22,2 24,-19 -17,0 -20,-3 -30,7 -6,6 -13,13 -13,25z"/>
    <path class="fil5" d="M969 1563c1,-9 2,-9 7,-13 3,2 7,3 6,8 -2,7 -6,5 -13,5zm-32 21c8,2 6,4 15,5 4,-7 3,-9 9,-13 1,19 1,26 19,30 0,-11 -2,-15 -2,-28 21,-1 31,-24 9,-37 -9,-6 -13,-10 -22,-11 -5,10 -9,17 -14,27 -4,7 -13,19 -14,27z"/>
    <path class="fil5" d="M1593 1006l13 -3c0,11 0,9 -6,14 -6,-4 -6,-2 -7,-11zm-39 -2l5 15c8,-1 13,-4 19,-7 -2,10 -8,12 -11,18 -3,7 3,12 5,21 5,-3 13,-17 15,-24 12,4 -1,5 17,5 29,0 13,-36 7,-50l-57 22z"/>
    <path class="fil5" d="M950 786c9,0 9,-3 12,3 3,6 -2,7 -5,10 -6,-5 -6,-4 -7,-13zm-22 -3c2,9 23,44 29,54 9,-2 6,-4 15,-6 -4,-6 -7,-12 -9,-19 13,8 26,16 37,0 -5,-3 -21,-10 -26,-11 13,-25 -11,-33 -11,-33 -11,0 -26,11 -35,15z"/>
    <path class="fil5" d="M1563 1373c4,5 10,15 -1,13 -6,-1 0,-2 -10,-5 4,-5 4,-6 11,-8zm-28 19c8,2 19,8 27,12 8,4 20,13 27,14 1,-6 4,-10 6,-15 -6,-4 -12,-5 -17,-11 23,0 28,1 33,-19 -12,0 -18,4 -31,4 0,-10 -1,-14 -8,-18 -25,-14 -37,28 -37,33z"/>
    <path class="fil5" d="M1358 809c5,4 9,7 15,9 3,-11 6,-8 9,-19 7,5 3,1 5,12 0,6 1,10 1,18 11,2 9,6 20,8 -1,-12 -7,-28 -7,-41 10,-2 22,-10 33,-10l0 -5c-8,-2 -9,-6 -16,-6 -7,0 -17,7 -25,8 2,-8 6,-10 8,-19 -6,-3 -7,-6 -15,-6l-28 51z"/>
    <path class="fil6" d="M1183 1107c4,6 6,9 13,11 0,-12 -3,-11 -10,-18 -6,-5 -8,-10 -14,-15l-1 -2c-2,-5 -4,-6 -7,-11 0,0 -3,-5 -3,-5 -3,-4 -1,-2 -5,-5l1 -6c5,3 8,3 13,7 6,5 4,6 12,9 -1,4 -2,3 2,2 -1,4 -2,3 2,2 -1,4 -2,3 2,4l1 2 1 2c3,4 1,3 5,4 -3,-6 0,-2 -5,-4l-1 -2 -1 -2 -2 -4c0,-3 1,-2 -2,-2l-2 -2c-5,-4 -3,-2 -7,-6l-1 -6c4,2 0,0 4,1l4 -18 2 -5c1,-1 1,-1 2,-1l11 -7 -2 8 -6 7c6,-3 3,-1 6,-7 3,-1 6,-3 6,-3 9,-1 -2,0 7,3 6,5 4,4 9,9 0,0 1,-1 1,-1 10,0 2,4 16,4 -1,-5 -3,-9 -6,-12 0,0 -2,-2 -2,-2 -7,-6 -11,0 -18,2 2,-8 1,-4 4,-7l-7 -3 11 1 10 1c-6,-6 8,-1 -3,-2 -5,0 0,0 -7,1 -1,-6 6,-5 -7,-6 6,-11 21,-33 30,-45l4 13c-3,-15 -8,-7 3,-18l20 45c3,6 3,10 6,16 -4,-18 -6,-21 -13,-35 -4,-7 -15,-26 -16,-30 -2,8 -3,8 -8,13l-23 32c-4,6 -9,6 -18,7 -3,-12 -5,-16 -12,-25 -6,-6 -9,-15 -14,-20 -11,4 -12,22 -7,32 3,8 12,11 18,15 5,4 2,1 5,4l-16 3 -4 -9c-10,-17 -15,-23 -15,-23l9 -18c-8,5 -16,25 -16,37 11,-3 2,-2 11,-9 2,3 6,9 8,12 4,7 1,3 1,14 10,-1 3,-1 11,-3 6,-2 8,-1 14,-1l0 -7 -19 -10c-5,-4 -6,-10 -7,-18 0,-7 1,-11 5,-15 9,3 27,40 32,47 -8,2 -9,3 -14,11 -5,2 -3,-1 -2,5 -6,3 -5,1 -7,10 -11,-3 -9,-7 -14,-15 -6,-11 -31,-23 -45,-41 1,10 3,10 10,14 22,12 6,7 27,19 8,4 8,5 9,17 -12,-4 -24,-17 -31,-26 -5,-8 -7,-9 -15,-13 -1,10 4,17 11,22 0,-1 -1,-2 -1,-2l-3 -9c10,5 13,10 23,17l0 22c-2,5 2,2 -4,4 1,11 -2,4 4,6 4,5 6,6 12,9 -2,7 -2,3 3,3 -2,4 -3,4 1,3 1,8 -2,4 5,6 -1,4 -2,3 2,3 -1,8 -2,3 2,3 -1,4 -2,4 2,3 -1,4 -1,3 2,2 -1,4 -1,3 2,2 -1,4 -1,3 3,2 -1,4 -2,3 2,3 0,-4 1,-3 -2,-3l-3 -2 -2 -2 -2 -2 -2 -3 -2 -3 -2 -3 -5 -6 -1 -3 -3 -3c-4,-6 -5,-6 -12,-9 2,-2 -2,-1 4,-4l-3 -21c3,3 3,1 5,6l4 13c4,10 8,17 15,21l1 2c6,10 10,12 14,17l5 9c-1,-1 -2,-2 -2,-1 0,0 -2,-1 -2,-1 -1,-1 -3,-2 -4,-2zm-28 -56c0,-5 4,0 1,0 0,0 -1,6 -1,0z"/>
    <path class="fil5" d="M1110 738c-1,-9 -2,-5 -2,-21 -11,0 -9,1 -18,2 0,11 4,26 5,38 4,28 -4,21 19,20 0,-12 -2,-13 -2,-24 17,12 14,20 25,20 3,1 11,0 16,0 -3,-11 -19,-22 -28,-28 2,-7 15,-27 19,-33 -18,0 -18,-1 -23,7l-11 19z"/>
    <path class="fil5" d="M795 954c-7,-4 -13,-7 -20,-11 -3,5 -5,8 -6,13 5,8 44,31 52,33 2,-9 4,-6 6,-16 -7,-1 -14,-5 -17,-10 2,-1 25,-3 26,-4 6,-3 10,-12 13,-18 -15,0 -25,4 -41,4l-11 -32c-18,13 -6,23 -2,41z"/>
    <path class="fil5" d="M1572 1299c33,17 47,6 41,31 -17,3 -32,-8 -48,-11 -1,7 -3,9 -4,17 14,1 33,13 45,13 20,0 40,-40 6,-53l-34 -12c-3,6 -4,10 -6,15z"/>
    <path class="fil5" d="M1235 1610c0,-11 -1,-13 -2,-21 -32,0 -10,8 -9,62 9,-2 15,-1 16,-6 1,-5 -1,-17 -3,-20 16,6 10,25 43,18 -7,-12 -17,-13 -28,-28 3,-12 14,-18 18,-33 -13,3 -16,0 -22,9 -5,6 -7,15 -13,19z"/>
    <path class="fil5" d="M913 1537l-9 -8 14 -7 -5 15zm-43 -2c7,2 7,3 11,8 18,-9 11,-2 28,7 -2,4 -3,8 -4,13 11,3 4,5 15,8 1,-9 6,-22 9,-31 4,-11 6,-22 10,-31 -5,-4 -10,-8 -15,-11l-6 4c-10,7 -45,23 -48,33z"/>
    <path class="fil5" d="M1462 876c14,0 18,-5 25,-14 7,-9 11,-13 18,-22l-11 -12c-15,12 -18,29 -35,33 -3,-3 -5,-5 -8,-8 3,-13 20,-28 28,-39 -6,-4 -6,-5 -13,-9 -5,3 -26,29 -29,36 -9,16 9,35 25,35z"/>
    <path class="fil3" d="M1257 1228l0 1c0,0 -1,-1 0,-1zm-30 91c1,-5 1,-3 4,3 2,4 2,7 3,10l0 11c4,-4 2,2 2,-5 1,-7 2,-3 -2,-6 2,-12 4,-15 6,-27 3,-15 4,-43 14,-60 0,0 1,-1 1,-1 0,-1 1,-1 1,-1 5,-7 3,0 3,-8l0 -3c4,3 4,2 8,6l4 1 -4 -1 -8 -8c4,-6 -6,-6 7,-5l1 2 -1 -2c-5,-4 -1,-2 -7,-3 0,-12 5,-28 2,-35 -7,5 -4,9 -7,19 -2,7 -4,14 -6,22 -7,-2 -10,-7 -18,-14 0,0 -1,-1 -1,-1 -20,-19 -24,-18 -24,-30 -6,4 -5,1 -7,8 -12,0 -27,1 -37,4l-36 7c7,10 12,3 34,2 11,0 33,-5 39,-4 5,1 45,31 50,35 -5,10 -5,27 -8,39 -4,14 -7,24 -7,40l-8 -7c0,0 0,-1 -1,-1 -1,5 -1,4 -1,6 3,12 0,3 4,7z"/>
    <path class="fil5" d="M1526 1440c4,-5 2,-2 5,-1 1,0 3,1 3,1 5,2 1,1 7,2 -1,8 -1,7 -6,11 -2,-8 -9,-13 -9,-13zm-21 -7c10,19 24,35 34,54 4,-2 9,-9 11,-13 -4,-15 -9,1 4,-26 9,0 7,0 13,2 4,-6 7,-8 9,-15l-63 -17c-3,6 -5,9 -8,15z"/>
    <path class="fil5" d="M1034 773l0 -15c5,5 16,13 0,15zm-15 -35c0,9 -2,61 -4,65 21,-1 16,-8 18,-12 4,-7 13,-8 21,-10 3,5 2,3 4,9 7,-2 9,-4 17,-4 -2,-10 -29,-38 -39,-52 -7,1 -9,3 -17,4z"/>
    <path class="fil1" d="M1300 1191c6,-5 5,2 9,-8 -9,0 -5,-5 -9,8zm-6 -8c8,-11 9,-9 16,-10 4,15 4,-2 6,15l-9 1c-1,5 -2,7 -5,11 -6,-4 -7,-7 -8,-17zm5 -37c1,11 -5,23 -17,28l-1 -27c2,3 1,2 4,3 5,-6 4,-5 14,-4zm11 -6l1 4c2,5 2,3 5,6l2 3 -1 -10c-8,-6 -3,-1 -7,-3 1,-8 0,-7 -1,-15l-22 4c-2,4 -2,3 -2,8 -6,-7 -1,-4 -7,-8 -11,17 2,24 2,47 2,1 10,5 10,5 7,7 0,-5 3,7 0,1 0,2 0,2l2 21 7 0c4,5 6,10 9,16 9,-1 5,0 10,-4 2,-1 1,-1 2,-4l0 -7c-9,-2 -9,3 -14,-5l1 -3c0,-7 0,-6 4,-11 0,0 1,-1 1,-1l6 -10c-3,5 0,6 5,8l3 -1 3 -10c-5,-2 2,-2 -6,-1 -12,1 0,-2 -4,3l1 -9c-4,-2 -1,1 -5,-3 -1,-1 -2,-3 -4,-5 -5,-7 -4,-2 -3,-11 0,-1 -1,-1 -1,-1l-3 -3c-1,0 -1,0 -2,0 -4,-5 3,4 -2,-4l-3 -4c-1,-2 -2,-2 -3,-3 -6,1 -3,-2 -6,4 -2,-3 -2,-2 -2,-7 7,1 3,1 12,3 5,-7 0,-4 5,-5l-4 9 8 -2z"/>
    <path class="fil2" d="M1246 1440l-11 0c8,7 -18,2 -24,2 -7,14 -8,6 -8,17 10,3 16,-1 28,-4 43,-11 83,14 94,-21 0,-1 0,-2 1,-3l-4 5c-7,9 -3,6 -9,10 -5,-7 -1,5 0,-3 1,-5 4,6 0,-3 -1,-4 4,-1 -5,-4 6,-4 5,-1 6,-10l-15 3c-14,0 -41,4 -33,-13 -5,1 -6,-4 -5,8 1,4 4,5 6,9 -9,0 -10,0 -10,9l-13 0c7,-9 -9,4 2,-2z"/>
    <path class="fil5" d="M1232 732l2 -18 -13 -1 -3 16c0,8 -4,42 -19,26 -6,-5 -1,-33 -1,-45 -9,0 -13,-4 -16,1 -3,5 -1,17 -1,23 -2,14 -5,25 7,34 11,9 53,11 44,-36z"/>
    <path class="fil4" d="M1198 905l-4 8c5,16 -7,-12 2,4 8,15 1,30 1,41 2,26 7,3 -3,24l4 9 -2 0c3,3 2,0 4,6 1,1 0,5 0,7 -7,4 -10,0 -16,-8 -8,-10 -17,-20 -8,-35 3,-6 3,7 4,-20 7,2 9,4 9,4l1 -22c0,0 0,1 -1,2l-27 52c0,4 1,3 -5,3l1 0 -9 18c0,0 5,6 15,23l4 9 16 -3c-3,-3 0,0 -5,-4 -6,-4 -15,-7 -18,-15 -5,-10 -4,-28 7,-32 5,5 8,14 14,20 7,9 9,13 12,25 9,-1 14,-1 18,-7 2,-7 -3,-4 3,-4 -1,-1 -1,-1 -2,-1l-7 -3c-1,-10 4,-17 4,-24 -1,-10 0,1 -2,-6 -2,-5 -4,-46 -1,-56 3,-8 3,5 3,-9 1,-5 3,-2 -1,-5 -3,-2 -2,1 -4,-4l-3 -3 -4 6z"/>
    <path class="fil7" d="M717 1135c7,10 19,23 30,28 8,-5 28,-24 30,-34 -12,-3 -14,-16 -32,-26 -3,12 -21,22 -28,32z"/>
    <path class="fil7" d="M1561 1137c10,7 24,24 32,26 4,-2 10,-11 15,-15 5,-6 11,-9 13,-17 -5,-9 -18,-14 -28,-28 -7,5 -27,27 -32,34z"/>
    <path class="fil5" d="M1071 1599c0,16 13,14 21,26 -12,8 -11,3 -21,-4 -6,4 -8,4 -9,13 14,4 2,9 33,9 8,0 15,-13 15,-22 0,-16 -18,-9 -20,-26 12,0 9,2 18,4l6 -8c-12,-19 -43,-12 -43,8z"/>
    <path class="fil5" d="M743 1267c-14,-1 -8,-6 -7,-22 -5,-1 -8,-2 -13,-4 -10,23 2,43 18,43 19,0 18,-15 21,-30 13,4 8,7 7,17 15,4 15,10 15,-13 0,-11 -10,-21 -20,-21 -19,0 -18,15 -21,30z"/>
    <path class="fil6" d="M1082 1330c2,-3 8,3 2,1 0,0 -6,2 -2,-1zm-7 -3c3,-2 8,4 3,2 0,0 -6,2 -3,-2zm-29 -48c2,-8 2,-4 -2,-5l1 -7c3,2 4,2 7,4l-2 -11 6 5c-3,-9 -1,-5 -10,-10l-6 -5c-1,-8 -2,-6 -4,-13 4,2 9,9 11,13 9,0 25,-4 30,-6l-18 1c1,-1 1,-2 2,-2 0,0 1,-1 1,-1l8 -5 -14 -9c1,14 5,3 2,15 -5,-3 -10,-12 -13,-21 2,9 6,12 8,23 -15,-3 -8,-3 -16,-13 -2,-3 -1,-1 -3,-3l-13 -2c5,4 7,5 13,5l-6 6c8,0 3,-1 6,3l3 6 2 3 1 0 4 24 2 5c2,4 6,10 10,14l8 13c-11,-1 -3,-3 -15,-9l-6 -2 2 4 4 -2c5,7 9,7 11,15 -6,-3 -8,-5 -16,-5 1,-5 2,-4 -2,-2 1,-5 2,-4 -3,-2 2,-5 3,-4 -2,-2 2,-5 3,-4 -2,-2 2,-9 2,-5 -2,-5 2,-4 3,-4 -2,-2 0,-7 -1,-16 -1,-25 3,-2 -3,-2 5,0l1 4c1,5 2,5 4,10l2 3 -2 -3 -4 -10 -1 -4c-3,-11 0,-6 -5,-9 -4,9 -5,25 1,34l2 2 2 5 2 2 2 2 3 2 2 2c3,2 5,3 6,6l1 3c0,0 0,1 0,1 2,6 -3,-1 1,4 9,8 22,15 38,16l2 -10 -6 -2 -17 -2 -1 -4c0,-1 0,-1 0,-2 0,-1 0,-1 -1,-2l-3 -9c7,1 5,0 11,4 13,4 10,6 35,12l0 -21c-11,0 -2,0 -6,3 5,4 1,-2 3,4 1,4 1,5 1,9 -12,0 -9,2 -13,-5 12,0 2,1 6,-3 3,1 2,2 2,-1l-2 1c-16,-2 -31,-5 -36,-21 -4,1 -3,1 -2,-3 -4,2 -2,2 -1,-2 -4,1 -3,1 -3,-3l0 -1c-4,0 -3,1 -2,-3l-2 1c-2,-8 1,-2 -4,-4 0,8 -1,3 4,4 0,7 -1,2 1,7 1,0 1,1 1,1l12 19c-5,0 -15,-20 -15,-20 -5,-7 -2,-4 -8,-5z"/>
    <path class="fil5" d="M825 881c0,15 9,27 30,15 7,-4 5,-4 13,-2 -1,12 -7,11 -15,15 1,5 2,8 4,13 34,-3 32,-48 9,-48 -13,0 -11,8 -26,9 1,-13 4,-7 11,-15 -2,-6 -2,-7 -5,-11 -9,2 -21,12 -21,24z"/>
    <path class="fil5" d="M738 1025c9,1 21,7 29,10 10,4 19,9 30,10 1,-10 8,-23 11,-33 -7,-1 -7,-2 -13,-4 -2,4 -6,13 -7,17 -4,-2 -3,-1 -9,-2 1,-11 5,-7 5,-19l-13 -3 -5 16c-16,-4 -4,-6 -4,-22 -5,-1 -6,-2 -11,-4 -3,6 -12,26 -13,34z"/>
    <path class="fil5" d="M1522 952c7,10 14,20 19,30 5,-3 8,-4 11,-9 -6,-11 -12,-12 -2,-19 4,3 7,7 9,13 11,-1 3,-2 13,-4 -1,-9 -5,-12 -9,-18l9 -4c3,6 5,9 8,15 8,-4 6,-1 11,-8 -2,-8 -13,-22 -17,-29 -18,10 -34,23 -52,33z"/>
    <path class="fil5" d="M732 1308c1,7 8,29 11,35 5,-2 8,-3 13,-5 -9,-18 -4,-18 4,-19l5 15 12 -3c0,-8 -3,-9 -4,-19 7,0 4,0 9,-2 1,7 3,10 4,17l13 -2c0,-15 -8,-20 -9,-34 -18,1 -40,16 -58,17z"/>
    <path class="fil8" d="M1193 1358c-1,-13 3,-20 13,-24 4,15 1,21 -13,24zm-4 34c3,6 -1,6 5,-1 3,-9 2,-20 2,-31 7,-6 7,-7 15,-9 0,-18 -7,-11 -6,-23 1,-12 5,-2 2,-19l0 -46c2,-9 2,-3 4,-11l-8 -7c-10,0 -22,-2 -26,-8 -6,-1 -11,-5 -18,-7l7 4c-16,1 -18,-6 -20,7l54 15c0,11 -5,15 -3,27l6 29c-10,3 -7,6 -6,16 2,11 -2,13 -5,19 -4,10 -6,30 -3,45z"/>
    <path class="fil6" d="M1304 1102c3,-4 2,-3 3,-8 0,-2 0,-5 1,-6 1,-5 1,-3 3,-5 0,-30 -8,-35 -11,-51 -2,-10 -1,-4 -4,-12l-8 -22c-5,-7 -3,-5 -12,-5 -2,9 -8,24 0,41l4 7c3,2 0,0 3,3 4,3 2,-1 6,5 -3,5 -1,4 -7,6l2 8c-5,2 -4,-6 -4,6l4 -6c2,-6 2,-3 4,-8 0,5 -1,5 0,9 0,14 0,-1 2,11 1,8 -1,17 0,27l-18 -4 16 6c9,0 4,-4 4,-12 -2,-10 1,-14 0,-19 0,-1 0,-1 0,-2l-1 -13c0,0 4,2 4,2 7,3 6,-2 8,9 2,10 1,23 1,33zm-6 -38c-6,0 -1,4 0,1 0,0 6,-1 0,-1zm-16 -50l5 0 0 9 -5 0 0 -9z"/>
    <path class="fil4" d="M1160 1376c-1,-1 -1,-1 -2,-1 2,-7 -3,-9 10,-9 10,1 10,7 11,9 -4,3 5,5 -11,4l-8 -3zm-58 8c9,9 6,10 21,14 9,2 21,7 26,9 -1,-3 -2,-5 -1,-12 -8,1 -18,4 -26,1 -3,-1 -9,-5 -11,-10 -3,-13 -1,10 0,-4 0,-1 1,-2 1,-2 0,-1 -12,-29 11,-37 36,-12 33,-10 35,10l-7 8c7,5 6,15 6,24l4 -3c7,-3 11,-1 19,-3 1,-14 4,-8 -19,-21 -1,-9 -2,-8 1,-14 7,1 -1,-4 3,2 0,1 0,1 0,2 1,0 1,1 1,1l2 4c2,-2 2,0 3,-5 0,-1 1,-5 1,-6 16,0 5,3 13,1 1,-1 1,-1 2,-1 0,0 1,0 1,-1 5,-5 3,-12 2,-17 -7,-3 -6,4 -8,-3l-3 2c-10,-6 -5,-3 -4,-4 2,8 2,1 0,10 -8,-2 -5,-2 -13,-5 0,0 5,3 -7,3 -8,0 1,0 -7,-3 -12,-4 -12,6 -28,-4 -8,-4 -5,-2 -7,-12 -1,7 0,21 -2,26 -4,8 -7,1 -7,20 0,0 -5,2 -5,2 -1,0 -2,2 -2,1 -1,0 -1,1 -2,1 11,0 6,3 9,-4l11 -21c7,-17 4,-3 23,-7 3,0 4,-5 12,6 -11,1 -30,5 -36,10 -11,8 -13,23 -7,37 -7,4 -1,1 -5,5zm47 33l-25 -2c7,3 17,6 25,2l5 0 13 2 2 5 0 1 3 0 0 -1 -3 0 -2 -6 -13 -1 -5 -10 0 10zm40 -77c-18,2 -23,4 -32,-2l1 -10c9,-5 8,2 15,3 7,0 3,-4 16,-1l0 10z"/>
    <path class="fil2" d="M1187 965l1 0c0,0 -1,0 -1,0zm-4 -13c6,2 5,0 7,8 -9,-3 -3,-1 -7,-8zm0 -4c0,-6 4,-1 1,0 0,0 -1,6 -1,0zm13 43c0,9 1,5 -2,8 -8,-11 -16,-11 -17,-30l14 16c8,9 -7,-7 2,2 5,5 -4,0 5,4l-4 -9c10,-21 5,2 3,-24 0,-11 7,-26 -1,-41 -9,-16 3,12 -2,-4l4 -8 4 -6 3 3c2,5 1,2 4,4 0,-10 1,-5 -4,-4 1,-7 2,-4 0,-8 -9,2 -8,3 -7,11 -10,2 -4,0 -16,24l-14 27c-5,9 -10,11 -6,21 -6,-2 -5,-3 -5,3 6,0 5,1 5,-3l27 -52c1,-1 1,-2 1,-2l-1 22c0,0 -2,-2 -9,-4 -1,27 -1,14 -4,20 -9,15 0,25 8,35 6,8 9,12 16,8 0,-2 1,-6 0,-7 -2,-6 -1,-3 -4,-6z"/>
    <path class="fil1" d="M1285 1291c4,-4 6,6 1,2 0,-1 -6,2 -1,-2zm28 -15l0 0c0,0 -1,0 0,0zm-37 -3c10,1 8,-2 11,7 -5,-1 -5,-2 -11,-2l0 -5zm-26 26l2 -1 7 0c3,-9 3,-5 11,-16l19 17 4 -8 1 -9c0,-5 -2,-5 2,-3 2,-5 0,-3 6,-4 12,-2 1,-1 7,1l9 10 -7 9c-5,8 -1,4 0,5l0 -5 3 -1 2 -3 10 2 0 -11 -6 -2 0 -9c-3,-7 -3,-4 -3,-13l0 -2 -4 -4c-1,1 -1,2 -1,3 -6,16 5,-1 -5,6 -2,-10 2,-5 -6,-11l1 -7c-5,7 5,-4 -4,2l1 5c0,1 1,1 1,2 3,10 -9,11 -21,12 -16,1 -13,17 -29,18l0 17z"/>
    <path class="fil5" d="M1580 1273c5,2 7,2 13,3 1,-5 2,-7 2,-13 4,2 41,8 48,8 0,-10 1,-9 2,-17 -16,0 -29,-6 -45,-6l0 -16 -13 0c-2,10 -7,31 -7,41z"/>
    <path class="fil5" d="M864 1457l9 10c-14,10 -20,23 -35,31 3,4 5,9 8,13 16,-4 25,-22 37,-30l11 9 8 -10c-2,-4 -3,-3 -6,-7 -8,-9 -12,-17 -24,-25l-8 9z"/>
    <path class="fil5" d="M868 829c3,4 4,6 6,11 7,-2 9,-4 13,-7l28 37c4,-3 11,-7 13,-11 -3,-5 -9,-12 -14,-18 -5,-6 -9,-12 -14,-19l9 -8c-3,-5 -4,-6 -6,-11l-35 26z"/>
    <path class="fil9" d="M1096 961l0 6 2 1c9,7 -2,14 7,21l3 2c4,3 3,1 4,10 0,2 -1,8 -1,9 -1,5 -2,5 -3,7l-7 -13c-4,-6 -2,-6 -9,-11 -1,2 -5,-3 -3,9 1,4 3,3 3,3 9,6 3,-6 9,5l1 2c4,5 4,8 7,14l8 11c7,10 9,22 23,23 -1,-10 -3,-7 -8,-16 -1,-3 -2,-5 -3,-7 -3,-8 2,1 -2,-7 -7,-5 -12,-12 -11,-22 8,4 10,5 15,13 7,9 19,22 31,26 -1,-12 -1,-13 -9,-17 -21,-12 -5,-7 -27,-19 -7,-4 -9,-4 -10,-14 -1,-6 2,-2 -4,-7 -4,0 -3,1 -3,-3l-2 -2c0,-1 0,-1 0,-2l-1 -15c-1,-5 -1,5 -1,-3l-2 -3 -1 -2 -5 -2c-3,2 -4,-2 -1,3z"/>
    <path class="fil5" d="M1259 779c14,0 21,6 34,7 2,-7 2,-7 2,-15 -10,0 -9,-2 -17,-3 1,-6 9,-41 11,-45 -4,-2 -12,-4 -17,-4 -2,14 -12,46 -13,60z"/>
    <path class="fil5" d="M1488 907c5,8 15,20 23,25l8 -9c-4,-6 -8,-6 -10,-14 4,-6 10,-9 16,-15 7,-7 9,-8 16,-13 -2,-11 -3,-8 -8,-15l-45 41z"/>
    <path class="fil8" d="M1072 1212l3 1 11 8c6,2 8,3 14,5l4 2 10 3 -22 2c-11,-1 -12,2 -22,4l-8 5c0,0 -1,1 -1,1 -1,0 -1,1 -2,2l18 -1c12,-1 58,-4 65,-7 -3,-12 -3,-4 -25,-14 -10,-4 -17,-8 -29,-11l-8 -4 -2 -2 -3 0 -3 2 0 4z"/>
    <path class="fil1" d="M1101 1265c4,-4 2,4 1,1 0,0 -9,7 -1,-1zm-11 3l-6 8c4,6 -2,1 7,6 7,-6 4,-7 6,-14l11 8c1,13 2,9 1,23 14,0 3,2 7,-5 0,-5 1,-4 3,-7 3,-3 3,-4 8,-5l4 -2 0 0c-8,-2 -5,5 -6,-7 0,0 4,-2 6,0 3,4 0,7 0,8 6,2 0,-2 4,2l2 2c0,1 1,1 1,2 3,-3 1,-3 6,-3l-3 5 1 4 6 -5 3 9 -7 -2c0,5 -2,3 3,4l4 -2c3,-1 3,-1 5,-2 -2,-11 -1,-5 -6,-15l9 0 0 6 0 -6c-10,-3 -9,-2 -16,-6l-2 -3c2,11 1,3 -1,6 -8,-13 2,5 -16,-16 -1,7 -2,11 -5,15 1,-5 -3,-11 -7,-16l-14 1c-7,-1 -3,0 -7,-3 1,6 1,4 -1,9 1,-2 4,-1 5,-2 -1,0 -1,1 -1,1l-4 2z"/>
    <path class="fil5" d="M1395 1563c6,-4 3,-5 10,-7 3,11 13,20 16,30l13 -6 -31 -56c-10,5 -9,2 -11,16 -3,16 0,10 3,23z"/>
    <path class="fil6" d="M1326 1222c5,-4 4,-3 8,-9l1 11c-1,0 -5,2 -5,2l-5 4c-4,4 -6,4 -4,11 3,0 3,-1 2,3l0 -1c-5,-11 0,-1 2,-13 5,-1 5,-1 11,-2l-2 7c0,0 0,1 0,1 -4,8 -3,6 -8,8 5,-1 9,-3 13,-5 0,-18 1,-17 9,-21l-1 -3 -10 12c0,-12 -1,-14 10,-14l0 -9c-7,-3 -3,2 -2,-10l3 2 -12 11c0,-16 2,-46 -8,-50l-2 10c0,1 -1,2 -1,3 0,8 0,1 -2,2l-1 9c4,-5 -8,-2 4,-3 8,-1 1,-1 6,1l-3 10c5,-4 3,-7 3,-15 6,5 5,0 4,10 -2,37 -8,23 -10,38 -5,-1 -4,2 -3,-3 -1,3 0,3 -2,4 -5,4 -1,3 -10,4 -3,-6 -5,-11 -9,-16 2,5 1,3 1,6 1,5 0,1 1,7 2,8 2,7 2,17l-2 2 2 -2 4 -3c-3,-5 -2,-3 -1,-12l4 11c6,-4 1,-1 6,-7 2,-3 5,-5 7,-8zm-46 -33l2 7 0 4c3,1 2,-3 3,4 3,0 2,0 2,4 3,5 5,7 8,11 3,-2 2,-2 2,3 0,3 -1,2 3,2 1,-4 0,-4 2,-7 -7,-4 -2,-3 -11,-4l0 -15c-12,-6 -2,4 -11,-9zm46 1c-5,-2 -8,-3 -5,-8l-6 10c0,0 -1,1 -1,1 -4,5 -4,4 -4,11 4,4 -2,-1 12,2 7,2 -4,4 6,2 6,-1 5,-2 3,-8 -4,-8 -5,7 -5,-10zm-3 22c-7,-4 -5,0 -14,-5 5,8 5,3 14,5zm-10 20c2,-5 0,-1 6,-6 -2,4 -6,6 -6,6zm9 -30c-7,-5 -7,3 -6,-11 10,2 4,-1 9,6l4 10 -7 -5zm6 -45l4 6c-6,-2 -3,0 -4,-6z"/>
    <path class="fil6" d="M1203 1084c0,-1 0,1 0,1 0,-1 -3,4 0,-1zm0 8l0 4 4 0c0,-13 -2,-6 4,-8 2,3 -3,2 3,2l2 4 3 0 -3 0 -2 -4 -3 -2c-1,-1 -5,-2 -7,-3 -10,-7 -2,1 -6,-10l9 4 3 1 3 3 5 1c2,3 3,4 5,6l1 4 1 4 -1 0c2,4 1,4 1,0 12,4 6,4 14,11 5,-1 6,-2 9,-4l-3 -4c0,0 0,-1 -1,-1l-1 -4c10,1 1,-5 9,5l2 2 3 2 -3 -2c1,-3 1,-2 -2,-2 0,-7 2,-4 11,-6 0,5 -1,4 4,4 0,-5 1,-4 -4,-4l-13 -4 30 1 1 -19c-3,4 -4,4 -5,17 -9,-2 -23,-6 -30,-2 -1,-8 -1,-7 -6,-10l1 -15c0,-1 0,-1 0,-2 -2,2 -1,-1 -4,4l-1 -3c-3,3 -1,0 -4,3 -3,4 -2,0 -3,5 -3,2 -3,-2 -3,5l3 -5 3 -1 3 8 5 1 2 14c-6,-1 -6,-1 -9,-4l-6 -4 -1 -2 1 2c4,6 -1,3 6,4l0 4 -9 2c3,-5 4,-4 -1,-4 2,-6 0,-5 -5,-6 0,-5 0,-3 -5,-1 1,-5 6,-5 -3,-3 2,-5 2,-3 -3,-1 0,-5 3,-3 0,-6 -18,0 -22,0 -22,-19l-1 12c4,4 2,4 5,7 3,3 4,3 7,6 7,7 10,10 7,13zm33 -34c-2,-2 4,-7 -8,-1 -4,2 -6,10 -18,13 4,-9 6,-8 10,-15 -6,5 -12,10 -15,16 9,4 9,2 16,-4l2 -2c5,-5 5,-6 13,-7zm-1 51l3 4 2 2 1 3 -1 -3 -2 -2 -3 -4 -2 -2c0,3 -1,3 2,2zm-6 3l3 2 1 -4 -4 2z"/>
    <path class="fil5" d="M1000 1617c6,0 10,2 15,4 3,-13 17,-40 21,-58l-15 -5c-4,8 -21,51 -21,59z"/>
    <path class="fil5" d="M1317 794l15 5c4,-16 19,-44 20,-59 -10,0 -8,-2 -16,-4 -4,19 -19,46 -19,58z"/>
    <path class="fil5" d="M792 1440c2,6 6,10 9,15 9,-6 45,-30 50,-37 -4,-6 -5,-3 -7,-11 -8,1 -15,8 -26,15 -8,7 -15,12 -26,18z"/>
    <path class="fil1" d="M1189 1392c-10,4 -5,0 -12,2 3,11 3,1 4,15l6 -1c0,-10 0,-3 4,-6 5,7 31,20 41,24 3,1 5,1 8,1 1,1 6,2 6,2 5,2 1,0 5,3 -15,8 -21,2 -38,-5 5,6 -1,1 4,4 4,3 1,1 6,3 5,2 6,3 12,6l11 0c7,-9 8,-4 11,-13 -9,-4 -7,0 -14,-6l-17 -18 -2 5c-1,-7 0,-1 -1,-6 -1,-3 -2,-3 -3,-4 1,3 1,3 1,6 0,0 0,2 1,2 0,-1 0,1 0,1l-2 3c-11,-4 -18,-7 -27,-13l1 -6c-6,7 -2,7 -5,1z"/>
    <path class="fil2" d="M1274 1327c6,-1 8,-3 12,-4l2 -13 -11 -15c-12,0 -10,2 -7,9l10 -2 -1 11 0 3c-4,3 1,1 -6,2 0,0 -3,0 -3,0 -11,-1 -4,-1 -6,-2 -13,-1 -5,2 -9,-7 0,0 -2,-5 -3,-6 -1,-3 0,-1 0,-5l-2 1c-3,2 1,-4 -2,6 -1,6 -1,2 -2,12 -1,9 -1,5 -3,12 -1,3 -1,-2 -1,5l2 6c8,-2 8,-2 19,-2 -3,6 -2,3 -2,11 -1,0 -3,1 -3,1l-17 -1c7,14 6,9 18,5 7,-2 12,3 19,8 -5,-7 1,0 -4,-4l-4 -4c-6,-6 -2,3 -2,-6 0,0 1,-5 2,-8l4 5 1 -4c-3,-3 -2,-5 -14,-6 -8,-1 -10,0 -16,0 1,-6 3,-5 5,-15 1,2 -5,0 6,4 7,3 3,2 11,3 0,0 -1,-1 -1,-1l-2 -6 12 1c-1,1 -1,4 -2,6zm-22 -10c3,-3 8,3 3,1 0,0 -6,2 -3,-1zm30 -5c0,-3 2,-8 2,-1 0,2 0,8 -2,1zm-12 -15c13,-1 1,-1 6,2 -6,3 -4,5 -6,-2z"/>
    <path class="fil6" d="M1010 1213c11,-1 11,-7 13,4l-13 0 0 -4zm3 -9l16 -2c-11,9 -23,7 -39,7 -10,19 3,12 -12,26l4 -22c-2,3 -7,14 -5,19 3,9 12,3 22,3 -3,-4 3,-2 -6,-5l13 -6c-6,-3 -7,-1 -7,-7 12,5 15,7 31,7 -4,-13 -7,-10 5,-18l0 -2 -3 -6c-9,0 -14,2 -19,6z"/>
    <path class="fil8" d="M1168 1291c5,2 5,-2 2,7 -9,-7 -2,-6 -2,-7zm-17 6l-4 2 5 -1 4 -2c1,0 2,-1 5,-1 0,0 1,1 2,1 0,-1 0,0 1,0 1,3 1,1 2,6 1,0 1,5 1,5 -6,-2 -4,1 -6,-5l-2 -3 -1 0 -2 7c3,7 3,3 1,11l5 7c-2,-4 -2,-3 2,-3 1,-10 4,-6 6,-17 13,0 6,-2 9,4l0 4c5,5 3,3 6,8l2 0c5,-5 6,-9 7,-18 -7,-10 -8,-3 -11,-16 -7,5 -6,5 -11,3 -1,0 -5,0 -6,0 -5,-1 -3,-1 -5,-3l-2 0 0 -6 -9 0c5,10 4,4 6,15 -2,1 -2,1 -5,2z"/>
    <path class="fil2" d="M1317 1403c0,-6 3,0 1,0 0,0 -1,6 -1,0zm-8 -25l1 8c2,2 2,2 5,4l-2 0c0,29 -3,13 -9,35 9,-2 8,0 13,-5 5,-6 6,-23 7,-29l0 38c4,-2 4,4 4,-17 0,-7 0,-13 -1,-19 -3,-25 -8,-22 -14,-18 0,-9 1,-1 -5,-4l1 7z"/>
    <path class="fil10" d="M1169 1425l0 -1 -2 -5 -13 -2 -5 0c-8,4 -18,1 -25,-2l-9 1c-6,4 -5,1 -10,3 -6,2 -1,-4 -5,3 0,11 15,6 34,6l30 1c7,-1 6,2 5,-4z"/>
    <path class="fil11" d="M1077 1181c1,-1 1,0 1,0l-1 0zm-4 -2c-1,8 2,4 -4,8 1,-10 -2,-4 5,-8 0,-18 3,11 6,-12 -16,2 -6,0 -9,5l-2 5c-4,10 -6,12 -15,12 -2,-16 16,-30 18,-47 -4,6 -3,9 -9,19 -10,15 -5,-3 -12,4 -6,6 0,8 5,9 -4,7 -5,7 -5,17 12,0 4,0 7,3 -7,0 -10,0 -15,4 -7,1 -5,2 -8,6l0 2c4,0 4,0 6,1 3,0 2,0 6,0l8 0c9,0 9,0 16,1l1 4 3 1c5,6 4,4 11,8 5,4 6,5 14,5l4 2c0,0 -1,0 -1,0l-9 4c0,1 -1,1 -2,1l22 -2 -10 -3 -4 -2c-6,-2 -8,-3 -14,-5l-11 -8 -3 -1 0 -4 -1 0c-7,-4 -6,-2 -15,-2 -11,-1 -13,1 -13,-8 14,-2 18,-5 34,-3l18 2c-5,-2 -14,-2 -18,-2 -2,-4 1,-3 -2,-6l6 0c-1,-9 3,-2 0,-16 -5,3 -5,3 -8,6zm15 33c-4,-4 0,-2 -8,-4l-2 -2 -1 -1 -2 1 3 0 2 2 8 4z"/>
    <path class="fil10" d="M1348 1218l5 4c5,7 3,8 4,19 6,5 -3,-4 8,2l-3 31c0,0 1,-2 1,-1l2 -5c4,-8 2,-9 8,-11 13,-4 -5,6 3,-1l-1 -6c4,-7 2,-6 0,-11 -5,-4 -2,5 -4,-5l-7 -17 -8 -20c-2,3 0,0 -2,6 -2,7 1,11 -6,15z"/>
    <path class="fil3" d="M1159 1230c7,2 12,6 18,7 10,0 7,-1 15,2l11 6c2,0 6,1 8,0l7 -2c-9,-2 -9,-3 -10,-13l3 -2 -3 2c-6,4 -1,2 -8,7l-43 -21c-7,-3 -11,-4 -17,-7 3,12 9,16 19,21z"/>
    <path class="fil12" d="M1043 1198c0,9 2,7 13,8 9,0 8,-2 15,2l1 0 3 -2 2 -1c10,-1 15,-1 22,1 8,3 10,5 19,5 -1,-16 -8,-12 -23,-14l-18 -2c-16,-2 -20,1 -34,3z"/>
    <path class="fil10" d="M1104 1354c-3,7 2,4 -9,4 0,1 0,2 -2,3l0 8c0,6 -3,14 -1,19 0,0 -4,7 6,3 1,-1 4,-6 4,-7 4,-4 -2,-1 5,-5 -6,-14 -4,-29 7,-37 6,-5 25,-9 36,-10 -8,-11 -9,-6 -12,-6 -19,4 -16,-10 -23,7l-11 21z"/>
    <path class="fil13" d="M1219 1360l1 38c1,1 2,1 3,4 1,5 0,-1 1,6l2 -5c1,-13 -1,-23 2,-32 3,-8 7,-19 6,-28l0 -11c-1,-3 -1,-6 -3,-10 -3,-6 -3,-8 -4,-3 -1,9 0,15 -2,22 -3,8 -5,8 -6,19z"/>
    <path class="fil2" d="M1095 1125c0,-6 -2,-4 1,-7 5,-5 -3,-1 2,-1 0,1 8,5 7,16l-1 15c-3,7 4,0 -3,5 -6,-4 -3,-2 -10,-1 2,-5 1,-11 -3,-17 -6,5 -5,6 -6,18 4,3 -1,1 7,2 0,0 1,0 1,0 2,16 4,5 -6,12 5,5 3,4 8,4l2 -1c2,-3 2,-2 3,-7 -2,-1 -3,1 -2,-2 -1,-10 1,-8 6,-8 7,11 -10,19 11,15 0,13 -1,6 4,17l-2 4c3,-2 1,-4 6,-8l-2 -3c-1,-1 -2,-3 -2,-3l-4 -7 -1 -6 -2 -2 -2 -3c-2,0 -2,0 -1,-2 0,-1 0,-1 0,-2 1,0 1,-1 2,-1l1 -2c1,-18 -4,-6 -1,-28 -8,0 -6,-5 -8,-12 0,-1 -1,-1 -1,-2 -4,2 -4,1 -7,7 -4,12 2,10 3,10z"/>
    <path class="fil3" d="M1263 1148l4 12c1,5 2,9 3,14l-8 -10c-3,-7 0,-8 1,-16zm-11 3c4,-2 -1,0 7,-2 2,5 3,-7 2,9 -1,4 -2,4 -2,5l7 24c1,5 2,5 4,10 2,3 1,4 3,6 2,5 1,3 4,6 -2,6 -2,2 2,5l1 2c1,6 -1,2 3,3 1,7 -1,4 5,7l0 3c1,6 3,5 8,5 2,4 -4,3 4,3l0 -13c-4,0 -3,1 -3,-2l-3 0 5 9 -3 3 -8 -5 0 -3c-6,-6 -2,1 -5,-7l-3 -3 -1 -2 -2 -5c-5,-10 -5,-8 -5,-20 1,1 1,1 2,2l8 5 0 4 3 4c-1,4 -2,4 2,4 0,-4 1,-4 -2,-4 -1,-7 0,-3 -3,-4l0 -4 -2 -7c-5,-15 -15,-50 -15,-64l-2 21c-6,-1 -3,-1 -5,-1 -4,-1 -2,-6 -6,6z"/>
    <path class="fil14" d="M1194 1453l3 -8c-5,4 -5,3 -7,13 0,-1 -3,-4 -4,-10 0,-5 0,-3 1,-7 3,-6 3,-8 0,-14 -5,-8 -2,-10 0,-19l-6 1 -4 3c0,4 -1,8 0,12 2,6 2,2 4,9 -2,8 -8,11 -3,22 5,12 8,13 14,15l6 -5c0,-6 -1,-6 -4,-12z"/>
    <path class="fil2" d="M1144 1160c15,-7 16,3 16,3 -2,6 -1,2 -4,6 -5,7 -6,10 -11,7 -5,-3 -3,-10 -1,-16zm2 -13c1,0 8,-4 11,10 -20,-5 -19,4 -15,22 3,1 5,2 9,4l34 -4c-6,-4 -5,-2 -7,-6 -4,-3 -2,3 -1,-7 0,-4 0,-7 0,-11l-5 8c-2,10 -3,9 -15,9l5 -6c2,-3 2,-4 2,-9 -1,-8 -6,-11 -11,-14l-8 0 1 4z"/>
    <path class="fil8" d="M1252 1151c-12,6 -19,15 -19,30 13,-4 1,-7 15,-11 0,13 -4,9 -4,26 12,-3 5,-10 15,-33 0,-1 1,-1 2,-5 1,-16 0,-4 -2,-9 -8,2 -3,0 -7,2z"/>
    <path class="fil6" d="M1108 991l-3 -2c-9,-7 2,-14 -7,-21l-2 -1 0 -6c-3,-5 -2,-1 1,-3l5 2 1 2 -1 -2 -5 -2c-2,-1 3,-4 -5,0 0,9 0,1 4,3l0 6 2 1c2,10 1,13 -1,21 6,1 2,0 8,0 -2,5 -3,5 3,2 -2,8 -3,1 0,10 -4,0 -3,2 -7,-3 -10,-12 -11,-26 -11,-42l-6 0c-1,8 -1,8 -9,9 0,12 2,19 15,26 -7,15 2,14 11,19l1 2 -1 -2c-6,-11 0,1 -9,-5 0,0 -2,1 -3,-3 -2,-12 2,-7 3,-9 7,5 5,5 9,11l7 13c1,-2 2,-2 3,-7 0,-1 1,-7 1,-9 -1,-9 0,-7 -4,-10zm-1 -6l2 2c0,4 -1,3 3,3 0,-5 1,-4 -3,-3 1,-3 2,-3 -2,-2 1,-10 2,-13 -2,-20 0,8 0,-2 1,3l1 15c0,1 0,1 0,2zm-20 -26l3 27c-11,-4 -13,-7 -14,-18 13,5 -1,0 8,6l3 -15z"/>
    <path class="fil4" d="M1325 1170c0,-2 0,-10 0,-12 2,-6 1,-4 8,-3l-1 -9c-4,-2 -3,0 -5,-5 -9,-17 0,-17 -10,-19l-4 0c-3,7 -2,9 -2,18 6,2 4,0 8,3l1 10c-6,5 -5,-3 -6,6 -1,9 5,9 11,11z"/>
    <path class="fil11" d="M1118 1120l1 1c0,0 -1,-1 -1,-1zm-2 18c0,-1 0,-6 0,-7 1,-6 0,-3 2,-5l6 -1c1,11 0,2 3,6l5 -4c0,-5 -2,-5 3,-4 0,-4 0,-4 1,-7 7,7 6,0 5,10l-1 -3 7 2 4 0 0 -3 0 3 -4 0c0,-1 0,-2 1,-2 0,1 0,-1 0,-1 2,-4 1,-2 3,-4 0,0 -1,-1 -1,-1 0,-1 -1,-1 -2,-2 -8,-10 -2,-8 -2,-8 -1,3 1,5 1,5l-2 8c0,0 0,2 -1,2 -6,-4 -2,7 -6,-8 -4,6 -3,9 -11,11 5,-5 7,-10 9,-16l2 -6 0 -7c-1,0 -1,-1 -2,0 0,0 -1,-1 -1,-1l-3 -2c-1,0 -1,0 -2,-1l5 9c-10,1 -3,4 -10,-5l-11 29c-2,11 1,12 2,13z"/>
    <path class="fil13" d="M1187 1408c12,6 8,5 19,13l6 6c0,1 1,1 1,2l0 -2c17,7 23,13 38,5 -4,-3 0,-1 -5,-3 0,0 -5,-1 -6,-2 -3,0 -5,0 -8,-1 -10,-4 -36,-17 -41,-24 -4,3 -4,-4 -4,6z"/>
    <path class="fil15" d="M1326 1222c-2,3 -5,5 -7,8 -5,6 0,3 -6,7l-4 -11c-1,9 -2,7 1,12l-4 3 -2 2 -2 0 -1 7c8,6 4,1 6,11 10,-7 -1,10 5,-6 0,-1 0,-2 1,-3 3,-2 2,-2 2,-9l2 13 9 -1 -2 -8c0,-1 0,-1 0,-2 -1,0 -1,-1 -1,-1l-2 -3c-2,-7 0,-7 4,-11l5 -4c0,0 4,-2 5,-2l-1 -11c-4,6 -3,5 -8,9z"/>
    <path class="fil2" d="M1246 1384c1,6 1,3 -1,6 -1,-9 -2,-9 -10,-13 2,8 0,8 0,20 9,-1 1,-3 9,-3l9 3c-2,15 -12,12 -2,16 3,1 1,3 10,-5 5,-5 -1,3 4,-5 -9,2 -8,0 -11,6l1 -11 -7 -8c6,4 5,6 13,7 22,4 27,-7 35,-19l1 -7c-4,3 -12,30 -37,22 -8,-2 -1,0 -9,-6 -5,-4 3,0 -5,-3z"/>
    <path class="fil16" d="M1193 1397c9,6 16,9 27,13l2 -3c0,0 0,-2 0,-1 -1,0 -1,-2 -1,-2 0,-3 0,-3 -1,-6l-1 -38c-3,6 -1,18 -1,26l-13 -3c-5,9 -2,11 -12,14z"/>
    <path class="fil8" d="M1211 1161l-4 8c-1,5 0,1 3,3 3,0 2,0 2,4 1,7 11,23 16,29 3,5 4,5 11,6 -1,-5 -1,-5 -4,-9 -20,-34 -18,-16 -16,-45 -4,-8 3,-1 -6,-7 0,7 0,8 -2,11z"/>
    <path class="fil17" d="M1208 1038c7,-2 11,-8 18,-2 0,0 2,2 2,2 3,3 5,7 6,12 -14,0 -6,-4 -16,-4 0,0 -1,1 -1,1 2,5 2,3 3,8 -4,7 -6,6 -10,15 12,-3 14,-11 18,-13 12,-6 6,-1 8,1l0 4 1 3c3,-5 2,-2 4,-4l0 -3c0,-10 -3,-12 -10,-23 0,0 -1,-2 -2,-3l-2 -2 -1 0 -10 -1 -11 -1 7 3c-3,3 -2,-1 -4,7z"/>
    <path class="fil17" d="M1284 1063l-4 6 1 4 -1 19 -30 -1 13 4c5,0 4,-1 4,4l5 -1 18 4c-1,-10 1,-19 0,-27 -2,-12 -2,3 -2,-11 -1,-4 0,-4 0,-9 -2,5 -2,2 -4,8z"/>
    <path class="fil15" d="M1098 1261l14 -1c4,5 8,11 7,16 3,-4 4,-8 5,-15 18,21 8,3 16,16 2,-3 3,5 1,-6l1 0c-5,0 -4,2 -4,-2 -11,-5 0,3 -9,-11 -3,-4 0,6 -4,-7 -3,-1 -1,3 -10,1 -4,-1 -6,-3 -14,-2 -8,1 -2,0 -5,2l2 9z"/>
    <path class="fil14" d="M1146 1068c7,3 8,3 12,9l3 3 1 3 5 6 2 3 2 3 2 3 2 2 2 2 3 2c3,0 2,-1 2,3l1 0c1,0 3,1 4,2 0,0 2,1 2,1 0,-1 1,0 2,1l-5 -9c-4,-5 -8,-7 -14,-17l-1 -2c-7,-4 -11,-11 -15,-21l-4 -13c-2,-5 -2,-3 -5,-6l3 21c-6,3 -2,2 -4,4z"/>
    <path class="fil17" d="M1184 1038l-2 5 -4 18c-4,-1 0,1 -4,-1l1 6c4,4 2,2 7,6l2 2c3,0 2,-1 2,2l2 4 1 2 1 2c5,2 2,-2 5,4 5,5 1,3 8,4 3,-3 0,-6 -7,-13 -3,-3 -4,-3 -7,-6 -3,-3 -1,-3 -5,-7l1 -12 4 -9 6 -7 2 -8 -11 7c-1,0 -1,0 -2,1z"/>
    <path class="fil4" d="M1131 1289l-2 1 -2 -1c2,7 -2,2 4,4l7 0 0 5 0 4c-1,0 -4,0 -6,-1 -6,-1 -1,1 -4,-2 -1,0 -8,16 2,18 2,1 1,1 3,1 7,0 11,-7 15,-12l1 -4c2,-4 -1,-1 3,-4l-5 1c-5,-1 -3,1 -3,-4l-2 -2 -1 -4 -3 -2c0,-1 -1,-1 -1,-2l-2 -2c-4,-4 2,0 -4,-2l0 -1 0 0c1,1 3,2 3,2 1,-1 1,2 2,2 -2,9 0,2 -5,5z"/>
    <path class="fil2" d="M1305 1413c-4,-2 -3,-3 -2,2 -4,-1 -3,-2 -3,1l3 -1 2 -2c6,-6 6,-9 3,-18 -8,2 -4,1 -8,8 1,-8 3,-9 0,-15 -8,4 -7,7 -16,10 -9,3 -8,1 -17,7 6,-1 7,-1 13,-2 7,-1 6,-3 13,-4 -2,8 -1,6 -7,9 -6,3 -7,1 -12,6l6 0 3 -2c9,-6 -3,1 3,-2l14 -7c-5,5 -9,7 -11,15l7 -2c1,-5 4,-6 10,-13 -1,7 -1,3 -1,10z"/>
    <path class="fil8" d="M1095 1161l2 2c-1,5 -1,4 -3,7l-2 1c-5,4 -2,2 -4,5 3,3 -4,3 6,4 4,-7 3,-8 13,-5 0,1 0,1 0,2l1 4c0,0 0,1 0,2 0,4 -2,-1 0,6l6 0 2 -4c-5,-11 -4,-4 -4,-17 -21,4 -4,-4 -11,-15 -5,0 -7,-2 -6,8zm1 22l1 3c5,6 -1,1 7,4 0,-8 2,-10 -5,-14 -2,3 -1,-1 -3,7z"/>
    <path class="fil10" d="M1266 1416c-8,17 19,13 33,13 2,-5 1,-2 2,-9 -2,0 -10,1 -11,-1 0,-1 -1,-1 -1,-1l-9 -4 -6 0c-8,0 -3,-2 -8,2z"/>
    <path class="fil12" d="M1277 1209l2 5 1 2 3 3c3,8 -1,1 5,7l0 3 8 5 3 -3 -5 -9 1 -3c-3,-4 -5,-6 -8,-11 -4,0 -3,0 -2,-4l-3 -4 0 -4 -8 -5c-1,-1 -1,-1 -2,-2 0,12 0,10 5,20z"/>
    <path class="fil10" d="M1158 1328l-1 10c9,6 14,4 32,2l0 -10c-13,-3 -9,1 -16,1 -7,-1 -6,-8 -15,-3z"/>
    <path class="fil3" d="M1032 1222l2 7c2,2 1,0 3,3 8,10 1,10 16,13 -2,-11 -6,-14 -8,-23 -2,-7 -3,-10 -4,-15 -2,-1 -2,-1 -6,-1 -1,8 0,8 -3,16z"/>
    <path class="fil9" d="M1194 1453c14,0 4,-7 13,-26 0,0 1,-1 2,0 2,5 -4,-2 4,2 0,-1 -1,-1 -1,-2l-6 -6c-11,-8 -7,-7 -19,-13 -2,9 -5,11 0,19 0,-8 -5,-12 3,-13 7,-1 3,0 10,8 -2,10 -4,6 -4,20l-9 6 0 -7c-1,4 -1,2 -1,7 1,6 4,9 4,10 2,-10 2,-9 7,-13l-3 8z"/>
    <path class="fil4" d="M1282 1174c12,-5 18,-17 17,-28 -10,-1 -9,-2 -14,4 -3,-1 -2,0 -4,-3l1 27z"/>
    <path class="fil8" d="M1229 1112l4 -2 -1 4c5,13 11,22 12,32l4 0c0,-28 -3,-15 -7,-28l-1 -3 -2 -2 -3 -4c-3,1 -2,1 -2,-2 -4,-2 -4,0 -9,-2l0 26c6,-7 4,-7 5,-19z"/>
    <path class="fil8" d="M1211 1228l-3 2c1,10 1,11 10,13 21,1 13,-2 13,-17 -10,0 -9,2 -20,2z"/>
    <path class="fil10" d="M1108 1152l-1 5 2 3 2 2c6,7 1,0 4,8 5,8 3,6 8,8l3 -8c2,-5 -1,-1 2,-5l-6 -12c-1,0 -1,-1 -1,-2l0 1c-9,-2 -3,-2 -12,-2 1,3 1,3 -1,2z"/>
    <path class="fil4" d="M1142 1364l0 -4c0,-1 3,-3 3,-4 1,-2 1,0 2,-5 -3,-4 1,-1 -5,-4l-2 2c-1,6 -6,6 -11,9l13 6zm-21 -1l0 4c8,6 8,14 19,11l1 -8 -10 -3c0,-1 0,-2 -1,-2l-3 -5 -6 3z"/>
    <path class="fil9" d="M1013 1204c-7,0 -14,0 -20,0 -10,0 -9,0 -11,9l-4 22c15,-14 2,-7 12,-26 16,0 28,2 39,-7l-16 2z"/>
    <path class="fil18" d="M1300 1191c4,-13 0,-8 9,-8 -4,10 -3,3 -9,8zm-6 -8c1,10 2,13 8,17 3,-4 4,-6 5,-11l9 -1c-2,-17 -2,0 -6,-15 -7,1 -8,-1 -16,10z"/>
    <path class="fil10" d="M1107 1299c3,-35 -14,-26 -16,-8 2,2 4,4 6,6 7,4 0,3 10,2z"/>
    <path class="fil2" d="M1121 1363l6 -3 3 5c1,0 1,1 1,2l10 3 -1 8c-11,3 -11,-5 -19,-11l5 9c6,7 3,1 11,8 5,4 -6,4 9,4l-3 -17c-1,-4 0,1 -1,-7l-13 -6c5,-3 10,-3 11,-9 -5,7 0,0 -7,4l-12 10z"/>
    <path class="fil9" d="M999 1235c19,0 5,-5 22,-8l13 2 -2 -7 -2 2c-16,0 -19,-2 -31,-7 0,6 1,4 7,7l-13 6c9,3 3,1 6,5z"/>
    <path class="fil10" d="M1296 1378l-2 7c12,-2 5,-2 10,2 0,0 1,2 2,2 10,9 -9,-4 3,2l1 -5 -1 -8c-3,-12 2,-9 -5,-20 -7,7 -3,7 -8,20z"/>
    <path class="fil10" d="M1296 1279c1,4 2,3 -2,3l-1 9 0 8c9,-3 5,-3 13,0 1,-4 12,-25 -10,-20z"/>
    <path class="fil17" d="M1304 1102l0 5 -4 10c-14,1 -18,1 -30,4 12,3 33,6 37,-8 2,-6 0,-4 4,-11l0 -19c-2,2 -2,0 -3,5 -1,1 -1,4 -1,6 -1,5 0,4 -3,8z"/>
    <path class="fil10" d="M1282 1340c8,2 3,1 11,5 -2,-8 -2,-2 -9,-11l4 -8c0,0 0,-5 0,-6 -1,6 2,3 -5,6 -17,9 -27,-7 -28,6 12,4 17,1 27,8z"/>
    <path class="fil15" d="M1132 1127l-5 4c0,5 2,6 2,13 -1,7 -3,4 0,10 8,-4 3,3 7,-8 0,-2 1,-7 2,-9l6 -1 1 -8c-9,11 -1,6 -5,5l1 -7c-3,-1 -2,0 -6,-3 1,5 2,4 -3,4z"/>
    <path class="fil6" d="M1209 1001c0,-12 2,-15 12,-22 0,-1 1,-1 1,-1 0,-1 1,-1 1,-1 0,-1 1,-1 1,-1l3 1c1,2 -14,20 -18,24zm2 -30c1,-10 -3,-3 7,-8 -2,11 -3,6 -7,8zm-2 5c4,-5 5,-3 10,0 -4,10 -12,13 -11,29 4,-5 8,-10 13,-16 5,-6 7,-14 7,-24l-6 11c-8,-10 -7,0 -2,-15 3,-7 3,-7 1,-15 -3,3 -1,2 -3,5 -6,10 -12,10 -9,25z"/>
    <path class="fil10" d="M1086 1440c9,-20 -3,-23 -6,-35 -4,7 -3,21 0,28 4,8 2,5 6,7z"/>
    <path class="fil8" d="M1267 1238l4 1c6,7 6,9 16,11 -3,-10 -11,-18 -20,-23l-1 -2c-13,-1 -3,-1 -7,5l8 8z"/>
    <path class="fil10" d="M1144 1160c-2,6 -4,13 1,16 5,3 6,0 11,-7 3,-4 2,0 4,-6 0,0 -1,-10 -16,-3z"/>
    <path class="fil2" d="M1088 1103c8,0 9,1 15,-13 3,8 2,6 7,11 -3,1 -2,-1 -5,2 -5,6 2,-6 -3,6 1,0 7,2 10,-8 1,-6 1,-12 2,-18 -9,2 -7,1 -11,7 2,-5 2,-5 4,-9l-6 5c0,0 -1,2 -1,3l-3 7c0,1 -1,1 -1,2 -4,6 -4,4 -8,5z"/>
    <path class="fil6" d="M1293 1320c4,3 -3,3 6,2 0,-1 0,-2 0,-1 1,0 1,-1 1,-2l4 -8c6,4 4,5 6,6l1 -7c7,1 8,-2 4,5 6,-3 4,0 5,-6 -1,0 -5,0 -5,0l-8 -3c-6,-4 -3,-1 -9,-2l-6 0 1 16z"/>
    <path class="fil12" d="M1193 1358c14,-3 17,-9 13,-24 -10,4 -14,11 -13,24z"/>
    <path class="fil10" d="M1158 1375c1,0 1,0 2,1l8 3c16,1 7,-1 11,-4 -1,-2 -1,-8 -11,-9 -13,0 -8,2 -10,9z"/>
    <path class="fil2" d="M1255 1364l12 -2 -7 8c-7,5 -5,4 -6,9 9,1 6,2 16,2 0,0 0,-1 1,-1l7 -11 -5 5c-1,2 -2,3 -3,5 -3,0 -4,1 -8,-1 -7,-2 -2,0 -6,-5 11,-1 14,-4 17,-9 -4,-7 -3,-7 -14,-7l-4 7z"/>
    <path class="fil14" d="M1229 1070l-3 5 0 7 1 2 6 4c3,3 3,3 9,4l-2 -14 -5 -1 -3 -8 -3 1z"/>
    <path class="fil9" d="M1211 1088l3 2 2 4 3 0 1 5 4 -1 1 0 -1 -4 -1 -4c-2,-2 -3,-3 -5,-6l-5 -1 -3 -3 -3 -1 -9 -4c4,11 -4,3 6,10 2,1 6,2 7,3z"/>
    <path class="fil10" d="M1038 1304c-4,-4 -10,-12 -12,-15 2,15 10,27 19,31 4,-11 1,-9 -7,-16z"/>
    <path class="fil15" d="M1159 1106l-4 23c6,-13 5,-7 17,-7l0 -2 -6 -4c2,-3 1,-1 3,-4l1 -4c-10,-2 -4,3 -8,-5 -3,2 0,-1 -3,3z"/>
    <path class="fil15" d="M1069 1323l17 2 -2 -9c-10,-7 -4,1 -9,-6 -5,4 -6,-3 -6,13z"/>
    <path class="fil1" d="M1067 1109l0 20c7,-1 7,1 7,-6 0,0 0,-2 0,-6 1,-10 4,-7 -3,-12 -2,1 -4,2 -4,4z"/>
    <path class="fil10" d="M1039 1250l-2 -3 -3 -6c-7,2 -5,3 -7,11l12 12 0 -14z"/>
    <path class="fil14" d="M1084 974c-9,-6 5,-1 -8,-6 1,11 3,14 14,18l-3 -27 -3 15z"/>
    <path class="fil10" d="M1264 1316l15 0 0 -3 -3 -3c0,0 -1,-1 -1,-1 0,0 -1,-1 -1,-1 -3,-3 -2,-1 -4,-4l-8 -1 2 13z"/>
    <path class="fil8" d="M1311 1153c3,-1 3,-1 5,-3 -3,-3 -3,-1 -5,-6l-1 -4 -8 2 4 -9c-5,1 0,-2 -5,5 -9,-2 -5,-2 -12,-3 0,5 0,4 2,7 3,-6 0,-3 6,-4 1,1 2,1 3,3l3 4c5,8 -2,-1 2,4 1,0 1,0 2,0l3 3c0,0 1,0 1,1z"/>
    <path class="fil15" d="M1064 1276c-1,0 4,2 -8,2 0,-1 0,-5 1,-2 5,-1 3,-1 2,3l0 1c4,0 4,-1 3,3 4,-1 3,-2 1,2 5,-1 4,-2 2,3 5,-3 1,-2 8,-2 0,-1 0,-4 0,-5 1,-5 1,-3 2,-5 -1,-5 1,-2 -2,-5l-4 -2c-3,7 -1,3 -5,7z"/>
    <path class="fil11" d="M1094 1180l-6 0 0 9c0,0 1,-1 1,-1 1,2 1,-2 2,-3 2,-2 0,-1 5,-2 2,-8 1,-4 3,-7 7,4 5,6 5,14 -8,-3 -2,2 -7,-4 3,9 5,4 11,3 -2,-7 0,-2 0,-6 0,-1 0,-2 0,-2l-1 -4c0,-1 0,-1 0,-2 -10,-3 -9,-2 -13,5z"/>
    <path class="fil1" d="M1250 1075l0 6 7 0c0,-18 -2,-10 -5,-21l-4 0c0,7 2,7 2,15z"/>
    <path class="fil1" d="M1067 1224c0,5 1,5 4,8 7,-3 4,0 9,-6 -5,-9 0,-4 -9,-9 -1,2 -4,6 -4,7z"/>
    <path class="fil8" d="M1248 1105c8,7 0,6 11,9 -1,-6 -1,-5 -2,-9l-3 -2 -2 -2c-8,-10 1,-4 -9,-5l1 4c1,0 1,1 1,1l3 4z"/>
    <path class="fil8" d="M1092 1066l9 0c2,-8 2,-2 0,-11l-9 0c-1,9 -1,3 0,11z"/>
    <path class="fil1" d="M1175 1365l6 2c6,-6 6,-5 2,-14 -5,2 -5,0 -7,6 -4,10 5,-2 -1,6z"/>
    <path class="fil1" d="M1027 1194c6,2 3,2 12,2 -1,-10 0,-10 -9,-11l-3 9z"/>
    <path class="fil18" d="M1329 1207l-4 -10c-5,-7 1,-4 -9,-6 -1,14 -1,6 6,11l7 5z"/>
    <path class="fil6" d="M1096 1399c0,0 -3,7 2,11 3,3 8,5 12,4 -4,-2 -5,-3 -8,-8 -3,-5 -2,-6 -7,-10l1 3z"/>
    <path class="fil8" d="M1354 1168c3,-3 4,-1 4,-7 0,-8 1,-1 -2,-6 -7,3 -12,6 -2,13z"/>
    <path class="fil17" d="M1218 729l3 -16 13 1 -2 18c4,-5 2,6 3,-9 0,-2 0,-8 0,-11l-17 0 0 17z"/>
    <path class="fil3" d="M1257 1265c9,0 6,-2 15,-2l0 -5 -15 0 0 7z"/>
    <path class="fil8" d="M1043 1122c11,0 6,2 11,-4 -5,-6 0,-4 -11,-4l0 8z"/>
    <path class="fil10" d="M1195 1160c9,1 10,-1 8,-8 -13,-4 -8,7 -8,8z"/>
    <path class="fil4" d="M1094 1341l-11 -3c3,8 2,8 10,11l1 -8z"/>
    <path class="fil8" d="M1084 1099c8,-3 9,-10 -2,-11 0,7 -1,6 2,11z"/>
    <path class="fil8" d="M1116 1294c11,2 -2,-2 11,-5l0 -5 0 -2c-5,1 -5,2 -8,5 -2,3 -3,2 -3,7z"/>
    <path class="fil15" d="M1348 1307c-1,-12 4,-6 -8,-9 1,11 -4,7 8,9z"/>
    <path class="fil19" d="M1086 1362l0 5c4,4 -2,1 7,2l0 -8 -3 0 -2 -1 -2 2z"/>
    <polygon class="fil8" points="1349,1122 1356,1122 1356,1114 1349,1114 "/>
    <polygon class="fil19" points="1274,1345 1274,1347 1276,1349 1281,1347 1283,1343 1282,1340 1275,1341 "/>
    <path class="fil8" d="M1302 1332l0 4c12,1 4,0 7,-2l-2 -7c-7,2 -2,-1 -5,5z"/>
    <path class="fil19" d="M1156 1099l1 -2 0 -5c-12,-1 -4,-1 -7,2 2,8 -1,3 6,5z"/>
    <path class="fil11" d="M1352 1135c6,0 4,0 8,-2l-6 -7c-2,4 -2,4 -2,9z"/>
    <polygon class="fil8" points="1332,1276 1326,1276 1326,1282 1332,1282 "/>
    <path class="fil1" d="M1203 1377c8,-2 5,-1 4,-9l-4 0 0 9z"/>
    <path class="fil1" d="M1265 1081l5 0 0 -10c-6,4 -5,-1 -5,10z"/>
    <path class="fil19" d="M1151 1114c9,-5 3,-6 -3,-8 1,14 0,5 3,8z"/>
    <path class="fil8" d="M1332 1146l2 -1c8,2 3,1 5,-1l-3 -5 -4 0 0 7z"/>
    <path class="fil1" d="M1168 1399c2,-6 2,-2 0,-9l-4 0c1,10 -3,4 4,9z"/>
    <path class="fil13" d="M1330 1128c4,-1 3,4 4,-2 1,-5 0,-1 -2,-4 -4,2 -7,-1 -2,6z"/>
    <path class="fil19" d="M1170 1298c3,-9 3,-5 -2,-7 0,1 -7,0 2,7z"/>
    <path class="fil19" d="M1138 1287l3 2 3 -5c-5,0 -3,0 -6,3z"/>
   </g>
  </g>
 </g>
</svg>
