<?xml version="1.0" encoding="UTF-8"?>
<!DOCTYPE svg PUBLIC "-//W3C//DTD SVG 1.1//EN" "http://www.w3.org/Graphics/SVG/1.1/DTD/svg11.dtd">
<!-- Creator: CorelDRAW X7 -->
<svg xmlns="http://www.w3.org/2000/svg" xml:space="preserve" width="2362px" height="2362px" version="1.1" style="shape-rendering:geometricPrecision; text-rendering:geometricPrecision; image-rendering:optimizeQuality; fill-rule:evenodd; clip-rule:evenodd"
viewBox="0 0 2362 2362"
 xmlns:xlink="http://www.w3.org/1999/xlink">
 <defs>
  <style type="text/css">
   <![CDATA[
    .fil1 {fill:black}
    .fil0 {fill:#00589F}
    .fil3 {fill:#D60000}
    .fil2 {fill:#FEC200}
    .fil4 {fill:#FEFEFE}
   ]]>
  </style>
 </defs>
 <g id="Layer_x0020_1">
  <metadata id="CorelCorpID_0Corel-Layer"/>
  <g id="_2132928723760">
   <path class="fil0" d="M1266 1514c1,-11 6,-26 9,-36 0,-2 4,-17 5,-18 1,-2 16,-2 19,-2l25 50 -20 2 -3 -8 -14 2 -2 8 -19 2zm-122 -38c3,-3 14,-4 17,-14l15 0 -1 54 -18 -1 1 -30c-5,2 -8,4 -14,5l0 -14zm120 18c0,2 0,4 0,7 0,4 1,6 -10,11 -15,7 -38,5 -43,-15 -11,-42 49,-46 51,-20l-18 4c-2,-9 -16,-8 -15,8 1,16 15,12 17,8l-10 0 0 -14 26 -1 2 12zm56 -38c5,-2 35,-6 39,-4 6,1 10,5 11,11 1,9 -3,12 -6,16 2,2 3,3 5,5 3,3 8,12 11,15 -1,1 1,1 -5,2 -2,0 -3,0 -5,1 -4,0 -7,1 -10,1 -2,-2 -6,-6 -8,-9 -2,-3 -5,-8 -8,-8 0,5 3,15 3,19l-19 2 -8 -51zm-304 48c-2,0 -17,-1 -18,-2 -2,-1 1,-13 1,-16 1,-12 3,-24 4,-36l19 2 -1 14c2,-1 8,-6 10,-8 5,-6 5,-4 13,-3 11,1 21,3 33,3l13 22c2,-5 1,-14 2,-20 3,-1 14,0 18,1l-4 52 -17 -1c-2,-3 -5,-8 -7,-11 -1,-3 -4,-9 -6,-11l-2 21 -18 -1 3 -52c-3,2 -7,6 -10,8 -3,3 -7,7 -11,9l15 34 -23 -3 -6 -19c-8,3 -7,9 -8,17zm-72 -65l23 4 2 23c3,-5 7,-15 10,-21l23 5 -10 52 -17 -4 4 -16 -9 15c-19,-2 -14,-2 -15,-22l-5 18c-5,0 -12,-1 -16,-3l10 -51zm-40 22c-4,-4 -11,-7 -9,-18 1,-6 7,-11 14,-12 7,-1 17,2 22,5 6,4 8,9 7,20l-10 -2c1,3 2,2 4,4 9,10 2,28 -15,28 -8,0 -17,-3 -22,-7 -5,-4 -7,-11 -6,-20l15 2zm517 -22c3,22 18,52 -16,57 -14,2 -23,-2 -27,-13 -2,-5 -6,-28 -7,-35l19 -3c2,6 3,14 4,21 1,7 0,16 8,15 12,-1 0,-22 0,-39l19 -3zm49 -12l4 15 -15 4 9 34 -4 2c-2,1 -3,1 -5,2 -3,0 -6,1 -9,2l-9 -35 -15 3 -4 -15 48 -12zm-305 19c-16,1 -8,-3 -13,-9l-2 8c-13,0 -11,2 -13,-10 -1,-6 -3,-13 -3,-19l11 1 1 5 3 -5 9 0c1,3 1,3 2,5l2 -5 21 0 -1 29 -12 0 1 -16c-1,2 -1,0 -2,3 -1,2 -2,10 -4,13zm104 -18c3,-18 3,-16 15,-16 2,6 12,23 13,27l-12 1 -2 -4 -5 1 -1 4 -22 2 -3 -7c0,-1 0,0 -1,-1l-1 7c-2,4 -19,3 -23,3l-2 -4 -5 0 -2 4c-8,1 -6,1 -11,0 -2,-1 -2,0 -5,0 -5,1 -13,1 -18,1l0 -29c8,0 27,-3 25,9 -1,5 -2,3 2,8 0,-3 1,-6 2,-9 1,-1 1,-3 2,-4 0,-1 0,-2 0,-2l12 -3c4,5 6,16 10,21l-6 -21 11 -1 2 6 1 -6 11 0 1 5c3,-6 -3,-6 13,-7 -1,4 -2,11 -2,13 0,1 0,1 0,1 1,0 1,0 1,1zm103 -26c5,-6 -2,-5 10,-7l42 -11 8 27 -12 3 -4 -17 -8 2 4 18 -11 3 -5 -18 -7 2 -1 -5c-3,2 -3,4 -6,8l13 14 -13 3 -6 -6c-2,2 0,5 0,8l-11 2 -2 -10c0,0 0,1 0,1l-1 2c-5,15 -22,11 -25,7l1 5 -23 4c-3,0 -5,0 -8,1 -2,-4 -4,-23 -5,-28 4,-2 10,-2 14,-2l2 6c2,-2 1,-4 2,-7l23 -4c1,4 2,7 2,11 1,4 1,8 4,7l-2 -19 23 -4 2 4zm-434 -17c3,0 10,2 13,3l0 8 4 -7 12 4c1,2 1,2 0,4 4,-1 8,-3 14,-2 5,1 7,4 9,6l2 -3c9,2 19,4 29,6 9,1 19,3 29,4l0 5c7,-3 -1,-5 15,-3 3,1 4,0 5,2 -3,2 -8,6 -12,8 1,4 4,10 6,12l10 -21c12,2 11,0 13,7 0,2 1,3 1,5 1,3 2,7 3,10l1 -19c4,-1 18,0 21,2 6,2 7,11 1,15l6 13c-18,-1 -11,1 -17,-9l-1 8 -21 -2 -1 -4 -6 -1 -2 4 -19 -2c-2,-3 -3,-8 -5,-9 -1,2 -1,5 -1,7 -4,1 -29,-4 -35,-5l2 -18 -6 -1c0,5 -1,14 -3,18l-11 -2 3 -18 -4 -1c0,0 -1,0 -1,1l-1 5c-4,13 -21,10 -26,4l-2 -4c0,0 -1,0 -1,0l-1 5c-3,0 -7,-1 -9,-2 -3,-2 0,-1 -2,-1 -4,0 -15,-4 -20,-5l8 -27zm282 -267l0 1 -1 1c-2,9 -5,17 -10,22 -4,5 -8,15 -9,22 8,4 6,6 12,10 26,16 34,49 19,77 -6,11 -13,16 -23,22 -7,12 -19,10 -16,16 1,2 2,1 3,4 2,5 -2,7 -3,9 -2,4 2,12 6,16 2,-4 8,-6 12,-8 13,-5 35,-6 46,0 1,-4 -10,-14 -4,-38 4,-14 9,-19 16,-29 4,-6 -4,-7 -1,-18 2,-8 8,-5 10,-11 2,-4 3,-5 6,-7 7,-4 4,-13 20,-11 3,-3 3,-5 5,-7 2,-1 6,-3 9,-3 9,-1 11,5 14,10 4,-4 4,-2 12,-2 25,2 48,-9 62,-28 6,-7 4,-8 8,-8 6,18 -14,47 -27,59 -6,5 -18,11 -18,12 0,0 0,0 0,0 -2,5 -4,7 -10,11 -5,3 -9,4 -16,1 -5,-2 -10,-14 -30,-11 5,0 11,1 15,3 3,1 4,2 6,3 3,2 5,2 4,5l-6 1c-41,-1 -65,41 -44,64 13,13 28,7 32,9 1,4 -3,6 -5,8 -16,11 -23,6 -35,5 1,-1 1,-1 0,-1l-2 0 -1 -1 1 1 2 0c0,2 -1,2 0,1l0 4c2,0 2,0 3,3 2,5 1,32 1,37l-2 -2c-10,-13 -29,-22 -44,-20 -3,4 -4,12 -3,18 2,0 1,-1 4,0 1,3 1,5 1,8l-6 1c1,2 1,2 3,2 2,1 0,0 2,1 0,5 1,1 -4,7 -22,-2 -12,-7 -24,-7 1,-12 4,-19 7,-28 -25,5 -32,28 -36,31 -4,-4 -4,-6 -6,-10 -6,-9 -18,-19 -30,-21 1,4 3,9 4,13 1,5 2,10 3,15 -13,1 -1,4 -24,7 -5,-6 -4,-3 -4,-7 2,-1 2,0 5,-2 -2,-2 -3,-2 -6,-2 0,-4 0,-4 1,-8 3,-1 2,0 4,0 1,-9 -1,-12 -3,-19 -15,1 -28,5 -38,14 -2,2 -3,3 -4,5l-4 4c0,-7 0,-15 0,-22 0,-7 -1,-16 4,-19l-1 -3c1,0 1,0 1,-1l2 -1 1 0 -1 0 -2 1c-1,0 -1,0 -1,1 -13,1 -18,5 -34,-6 -2,-1 -6,-3 -5,-7 2,-1 13,0 19,-1 17,-5 25,-24 18,-42 -6,-15 -20,-25 -36,-29 -3,0 -6,-1 -9,-1 -5,0 -7,1 -10,-1 -1,-6 18,-11 25,-11 -9,-1 -14,0 -21,4 -3,2 -17,19 -32,0 -6,-8 1,-4 -5,-7 -15,-8 -24,-16 -33,-30 -5,-8 -14,-26 -10,-39 3,0 3,1 5,3 10,18 29,30 50,33 12,2 14,0 22,0 4,-1 2,0 5,2 3,-6 5,-11 14,-10 9,1 12,8 14,10 16,-2 14,7 20,11 9,6 2,6 10,11 13,8 3,20 3,22 2,3 4,5 6,8 5,7 9,14 11,23 2,7 3,14 2,22 -2,10 -7,15 -5,17l1 1 1 1 -1 -1 -1 -1c1,0 0,-1 3,-2 14,-4 32,-2 45,3 12,5 9,5 11,8 -1,-4 6,-7 5,-15 0,-6 -8,-5 0,-15 0,-4 0,-4 -3,-5 -2,-1 -4,-1 -5,-3 -4,-2 -6,-4 -8,-8 -12,-7 -16,-11 -23,-22 -6,-10 -9,-23 -7,-36 2,-13 8,-24 14,-31 4,-4 7,-7 12,-10 5,-3 6,-8 12,-10 -1,-4 -3,-8 -4,-13 -4,-12 -12,-12 -16,-33 -6,9 -4,43 -41,45 4,-14 14,-30 17,-45 -1,4 -5,14 -7,17 -10,19 -19,29 -45,29 1,-3 6,-10 8,-13 8,-12 14,-24 21,-37 -6,12 -15,25 -23,33 -9,9 -22,16 -41,11 3,-6 13,-15 18,-21l16 -20c1,-1 2,-1 1,-3 -5,9 -20,23 -28,29 -11,8 -29,13 -42,3 3,-4 19,-15 24,-20 7,-6 14,-13 20,-19 1,-1 4,-2 2,-3 -2,3 -11,10 -16,14 -5,4 -11,8 -17,12 -7,3 -16,6 -25,6 -7,-1 -18,-4 -22,-9l54 -33c1,-1 2,-2 3,-3 1,-1 1,-1 2,-1 0,-1 2,-1 2,-2l-1 0c-7,7 -31,19 -41,23 -9,3 -19,5 -29,3 -7,-2 -17,-7 -20,-12 15,-6 30,-10 44,-17 14,-7 25,-13 39,-20 -16,8 -35,17 -54,22 -40,9 -55,-14 -54,-16 1,0 65,-12 76,-20 -4,1 -9,3 -13,4 -22,5 -49,11 -69,0 -5,-3 -12,-11 -13,-19 16,0 30,-1 46,-2 12,-1 24,-3 36,-6 1,0 1,0 2,0l2 -1c-20,1 -39,6 -62,2 -19,-3 -33,-13 -36,-31 16,2 30,4 46,5 17,0 32,-1 49,-1 -20,2 -52,-2 -69,-8 -17,-7 -32,-21 -31,-45 4,1 16,6 20,8 6,3 13,5 20,7 44,15 94,21 141,23 2,5 4,11 6,16 6,15 16,30 27,40 12,13 38,30 57,32 3,-5 14,-19 14,-23 -2,-3 -9,-7 -15,-6l-3 5c-4,-4 -7,-12 -2,-16 4,-4 10,-5 16,-6l0 -5c6,-4 16,-7 23,-10 6,-2 19,-9 24,-9 -1,3 -7,16 -7,18 1,3 8,14 10,18 3,5 6,11 9,17 2,4 7,14 10,17 22,-4 46,-21 57,-32 10,-11 20,-26 26,-40 2,-5 4,-12 6,-16 33,-1 66,-5 97,-12 22,-4 43,-10 64,-18 5,-2 14,-6 19,-7 1,38 -33,49 -64,51 -5,1 -32,2 -36,1 44,2 54,1 96,-4 0,9 -8,18 -13,21 -25,17 -58,10 -85,8 0,0 0,0 0,0 0,0 1,0 1,0l40 7c15,2 30,1 45,2 -1,8 -8,16 -13,19 -24,13 -60,1 -82,-4 3,2 6,3 9,4 3,1 6,2 9,3 6,2 13,3 19,5 6,2 12,3 19,4 18,4 27,1 12,14 -26,22 -79,-4 -101,-17 6,3 13,8 20,11 17,9 35,17 53,23 3,2 8,2 11,4 -3,5 -14,11 -22,12 -22,4 -45,-10 -62,-21 -3,-3 -6,-5 -10,-7 3,3 11,9 15,11 10,7 21,15 32,21 5,3 12,6 17,9 -13,11 -33,11 -48,2 -12,-6 -21,-14 -30,-23 -1,-1 -3,-4 -4,-3 6,5 15,15 23,22l25 21c-15,11 -34,4 -45,-4 -8,-7 -15,-15 -22,-23 -2,-3 -4,-6 -6,-8 5,9 12,16 18,24 6,8 15,15 20,23 -35,8 -48,-18 -63,-43 4,9 8,17 13,25l15 24c-32,1 -41,-16 -51,-44 3,15 12,29 16,43 -37,-2 -35,-35 -41,-45zm-56 -237c3,-9 5,-16 8,-25 2,-4 6,-21 9,-22 3,1 4,7 5,11l12 36c0,0 46,-1 50,0 0,4 -2,4 -4,6l-36 26c3,8 6,16 8,24 3,8 13,32 1,22l-26 -19c-3,-2 -7,-5 -10,-7l-36 26c-12,10 -1,-15 1,-22 2,-8 5,-16 8,-24l-31 -23c-5,-3 -9,-5 -9,-9 4,-1 46,0 50,0zm-423 179c1,3 0,1 1,3 1,1 1,1 1,2 1,1 2,2 3,4 20,31 15,83 15,121 -1,47 7,90 36,126 7,8 6,4 6,17 0,28 3,52 12,76 25,70 87,84 89,166 23,-3 44,-6 68,-6 74,-1 144,15 207,50 2,1 3,0 6,-1 57,-33 130,-49 197,-49 29,0 49,3 76,6 1,-27 8,-48 19,-66 11,-15 26,-31 38,-46l18 -25c18,-30 26,-64 26,-101 0,-17 -1,-12 6,-21 68,-84 12,-187 51,-248 3,-3 4,-5 5,-8 -35,-10 -59,-38 -77,-65 -18,-28 -39,-62 -63,-81 -23,-18 -40,-21 -70,-24 -10,-25 -23,-43 -38,-56 -3,-2 -5,-3 -7,-5 -46,-36 -118,-43 -159,-65 -6,-4 -16,-10 -20,-15l-5 -6 -3 1c-14,18 -36,27 -57,33 -23,8 -50,15 -72,23 -19,8 -30,13 -47,24l-14 10c-15,13 -28,31 -38,56 -32,3 -46,6 -71,25 -10,7 -27,26 -34,37 -3,4 -6,9 -9,14 -15,21 -37,60 -58,74 -13,9 -19,15 -38,20z"/>
   <path class="fil1" d="M1226 1112c2,3 3,8 4,11 7,17 10,20 18,33 -12,-5 -23,-24 -22,-44zm-112 43c0,0 3,-3 3,-4l9 -16c3,-4 4,-8 6,-12 1,-3 3,-9 4,-11 1,15 -6,33 -19,42l-3 1zm67 -25c-2,-2 -4,-3 -5,-8 3,3 2,2 5,4 2,-1 4,-2 5,-5 0,5 -2,7 -5,9zm-39 -12c1,-1 0,-2 2,1 4,8 4,12 12,21 30,34 60,-7 63,-23l1 1c6,10 4,43 41,45 -4,-14 -13,-28 -16,-43 10,28 19,45 51,44l-15 -24c-5,-8 -9,-16 -13,-25 15,25 28,51 63,43 -5,-8 -14,-15 -20,-23 -6,-8 -13,-15 -18,-24 2,2 4,5 6,8 7,8 14,16 22,23 11,8 30,15 45,4l-25 -21c-8,-7 -17,-17 -23,-22 1,-1 3,2 4,3 9,9 18,17 30,23 15,9 35,9 48,-2 -5,-3 -12,-6 -17,-9 -11,-6 -22,-14 -32,-21 -4,-2 -12,-8 -15,-11 4,2 7,4 10,7 17,11 40,25 62,21 8,-1 19,-7 22,-12 -3,-2 -8,-2 -11,-4 -18,-6 -36,-14 -53,-23 -7,-3 -14,-8 -20,-11 22,13 75,39 101,17 15,-13 6,-10 -12,-14 -7,-1 -13,-2 -19,-4 -6,-2 -13,-3 -19,-5 -3,-1 -6,-2 -9,-3 -3,-1 -6,-2 -9,-4 22,5 58,17 82,4 5,-3 12,-11 13,-19 -15,-1 -30,0 -45,-2l-40 -7c0,0 -1,0 -1,0 0,0 0,0 0,0 27,2 60,9 85,-8 5,-3 13,-12 13,-21 -42,5 -52,6 -96,4 4,1 31,0 36,-1 31,-2 65,-13 64,-51 -5,1 -14,5 -19,7 -21,8 -42,14 -64,18 -31,7 -64,11 -97,12 -2,4 -4,11 -6,16 -6,14 -16,29 -26,40 -11,11 -35,28 -57,32 -3,-3 -8,-13 -10,-17 -3,-6 -6,-12 -9,-17 -2,-4 -9,-15 -10,-18 0,-2 6,-15 7,-18 -5,0 -18,7 -24,9 -7,3 -17,6 -23,10l0 5c-6,1 -12,2 -16,6 -5,4 -2,12 2,16l3 -5c6,-1 13,3 15,6 0,4 -11,18 -14,23 -19,-2 -45,-19 -57,-32 -11,-10 -21,-25 -27,-40 -2,-5 -4,-11 -6,-16 -47,-2 -97,-8 -141,-23 -7,-2 -14,-4 -20,-7 -4,-2 -16,-7 -20,-8 -1,24 14,38 31,45 17,6 49,10 69,8 -17,0 -32,1 -49,1 -16,-1 -30,-3 -46,-5 3,18 17,28 36,31 23,4 42,-1 62,-2l-2 1c-1,0 -1,0 -2,0 -12,3 -24,5 -36,6 -16,1 -30,2 -46,2 1,8 8,16 13,19 20,11 47,5 69,0 4,-1 9,-3 13,-4 -11,8 -75,20 -76,20 -1,2 14,25 54,16 19,-5 38,-14 54,-22 -14,7 -25,13 -39,20 -14,7 -29,11 -44,17 3,5 13,10 20,12 10,2 20,0 29,-3 10,-4 34,-16 41,-23l1 0c0,1 -2,1 -2,2 -1,0 -1,0 -2,1 -1,1 -2,2 -3,3l-54 33c4,5 15,8 22,9 9,0 18,-3 25,-6 6,-4 12,-8 17,-12 5,-4 14,-11 16,-14 2,1 -1,2 -2,3 -6,6 -13,13 -20,19 -5,5 -21,16 -24,20 13,10 31,5 42,-3 8,-6 23,-20 28,-29 1,2 0,2 -1,3l-16 20c-5,6 -15,15 -18,21 19,5 32,-2 41,-11 8,-8 17,-21 23,-33 -7,13 -13,25 -21,37 -2,3 -7,10 -8,13 26,0 35,-10 45,-29 2,-3 6,-13 7,-17 -3,15 -13,31 -17,45 37,-2 35,-36 41,-45zm77 2l1 -1 -1 1zm27 -12c8,22 30,47 31,49 -14,-4 -32,-36 -31,-49zm-58 8c-2,-2 -4,-5 -3,-9 1,3 1,4 4,5 3,-1 3,-2 5,-5 0,5 -2,8 -6,9zm-20 -9c1,3 2,5 5,6 2,-3 2,-3 4,-6 1,4 -2,8 -5,9 -2,-2 -5,-5 -4,-9zm-83 50c0,-2 22,-26 31,-50 0,14 -16,46 -31,50zm183 -54l3 3c8,11 25,32 35,41 2,1 5,4 6,5 -24,-2 -43,-48 -44,-49zm-218 49c0,-1 4,-3 5,-5 11,-10 20,-20 28,-31 3,-4 8,-10 10,-14l1 1c0,1 -21,46 -44,49zm239 -57c1,0 1,0 1,0 0,0 0,0 0,0l34 32c4,4 19,15 23,17 -3,1 -7,0 -10,-2 -14,-6 -27,-19 -36,-31 -2,-3 -4,-4 -6,-8l-4 -5c-1,-2 -1,-3 -2,-3zm-274 49c8,-4 23,-17 30,-23 8,-8 16,-15 23,-23l5 -3c-6,12 -26,34 -39,42 -4,3 -9,6 -13,7 -1,0 -3,0 -3,0 -2,0 0,1 -2,0 -2,0 -1,0 -1,0zm178 -54c3,3 3,6 7,7 4,-2 4,-3 6,-8 1,7 -2,11 -6,13 -4,-2 -7,-6 -7,-12zm-19 0c0,1 0,1 0,1l1 1c2,3 1,3 5,5 6,-3 3,-3 7,-7 -1,7 -3,10 -7,12 -4,-1 -6,-6 -6,-12zm-14 12c-4,-1 -6,-6 -6,-12l1 1c0,0 1,1 1,1 2,4 0,2 4,6 4,-2 5,-4 7,-9 1,7 -2,12 -7,13zm-181 28c4,-3 27,-13 39,-22 4,-3 6,-4 9,-7l26 -19c1,0 0,0 -2,3l-12 13c-5,5 -11,10 -17,14 -5,4 -32,23 -43,18zm329 -49c2,2 5,5 8,6 3,3 6,5 9,7 13,10 33,23 47,30 3,2 9,4 11,6 -11,5 -39,-14 -44,-18 -17,-13 -28,-28 -31,-31zm17 -12l19 10c12,7 29,15 41,20 5,2 20,6 22,8 -14,8 -52,-15 -65,-24 -3,-3 -6,-5 -9,-7 -1,-1 -7,-7 -8,-7zm-370 38c2,-2 18,-7 22,-8 12,-5 30,-14 41,-20l19 -10c-1,0 -14,11 -17,13 -13,10 -51,33 -65,25zm-26 -27c2,-2 19,-4 23,-5 15,-3 32,-8 46,-13 6,-3 15,-7 21,-9 -6,7 -30,18 -39,22 -16,6 -35,12 -51,5zm413 -27c7,2 28,11 43,16 8,2 15,4 23,6 5,1 23,4 25,5 -16,7 -36,1 -51,-5 -10,-4 -23,-10 -31,-16 -3,-2 -7,-5 -9,-6zm112 -6c-3,5 -16,7 -23,7 -20,0 -64,-11 -73,-19 7,1 15,4 23,5 25,5 48,7 73,7zm-546 0c18,0 33,-1 51,-3l45 -9c-6,6 -34,14 -45,16 -9,2 -18,3 -28,3 -7,0 -20,-2 -23,-7zm257 -18l0 4c-3,-2 -2,-1 -8,-2l8 -2zm204 -13c7,0 18,1 26,1 17,0 34,0 52,-2 4,0 21,-3 22,-3 -22,20 -71,13 -100,4zm-376 0c-16,5 -34,8 -52,9 -10,0 -20,-1 -28,-3 -7,-2 -18,-6 -20,-10 7,1 15,2 23,3 17,2 34,2 51,2 8,0 19,-1 26,-1zm387 -20c2,-1 4,-1 7,-2 14,-1 30,-4 44,-7 8,-2 15,-4 23,-7 7,-2 16,-6 22,-7 -4,10 -25,18 -40,21 -17,3 -38,4 -56,2zm-397 -1c-8,4 -48,1 -58,-1 -9,-2 -16,-5 -23,-8 -5,-2 -15,-9 -16,-13 24,11 69,19 97,22z"/>
   <path class="fil1" d="M946 883c2,-11 10,-26 16,-33 12,-17 21,-25 37,-36 36,-24 81,-34 122,-47 12,-4 23,-9 34,-14 5,-3 11,-7 15,-10 7,-7 7,-8 11,-12 10,10 7,11 27,22 25,14 77,26 107,37 18,7 49,22 63,35 9,9 15,14 23,25 5,8 13,22 15,33 75,0 103,54 138,107 44,66 72,62 79,68 -3,5 -7,9 -10,16 -26,57 4,127 -22,200 -6,16 -9,18 -16,31 -12,22 -16,11 -16,32 0,28 -3,54 -12,78 -4,11 -9,20 -15,29 -3,5 -14,21 -17,26l-21 23c-13,16 -26,33 -33,55 -15,47 14,37 -41,33 -74,-5 -137,2 -206,29l-44 21c0,0 -18,-10 -21,-11 -24,-12 -44,-19 -70,-26 -52,-14 -103,-17 -156,-13 -47,3 -33,12 -38,-17 -1,-6 -2,-12 -4,-17 -4,-12 -9,-20 -15,-29 -13,-22 -40,-47 -57,-74 -19,-32 -26,-65 -26,-104 0,-14 2,-12 -5,-20 -4,-5 -7,-8 -10,-14 -25,-43 -27,-62 -28,-115 -1,-33 4,-65 -4,-98 -5,-19 -9,-23 -17,-35 3,-3 17,-5 33,-17 10,-7 18,-14 25,-23 20,-24 24,-34 41,-58 10,-15 18,-27 32,-41 21,-22 49,-36 86,-36zm-7 -8c-38,2 -64,13 -88,37 -12,13 -22,27 -33,43 -10,15 -29,45 -41,59 -13,14 -24,24 -42,33 -3,1 -5,2 -8,4 -3,1 -7,2 -10,3 4,8 11,12 17,36 16,62 -16,155 37,226 3,3 5,6 8,9 5,7 4,3 4,14 -2,119 62,141 93,200 9,16 13,35 13,56l38 -4c157,-12 251,52 254,52 1,0 20,-10 22,-12 8,-3 15,-7 23,-10 65,-26 139,-36 210,-30 8,1 31,5 37,4 2,-60 28,-79 61,-118 28,-35 45,-75 45,-136 0,-19 2,-9 16,-32 6,-10 12,-20 16,-32 24,-67 3,-133 17,-187 6,-24 13,-28 17,-36 -3,-1 -6,-2 -9,-3 -68,-26 -80,-101 -138,-150 -19,-16 -44,-24 -75,-26 -6,-13 -7,-19 -17,-33 -10,-15 -23,-27 -37,-37 -62,-41 -153,-45 -182,-79 -2,-2 -4,-5 -6,-7 -8,7 -7,12 -27,23 -32,16 -74,24 -111,38 -23,9 -47,21 -63,35 -12,12 -14,13 -24,26 -10,15 -10,21 -17,34z"/>
   <path class="fil2" d="M741 1060c19,-5 25,-11 38,-20 21,-14 43,-53 58,-74 3,-5 6,-10 9,-14 7,-11 24,-30 34,-37 25,-19 39,-22 71,-25 10,-25 23,-43 38,-56l14 -10c17,-11 28,-16 47,-24 22,-8 49,-15 72,-23 21,-6 43,-15 57,-33l3 -1 5 6c4,5 14,11 20,15 41,22 113,29 159,65 2,2 4,3 7,5 15,13 28,31 38,56 30,3 47,6 70,24 24,19 45,53 63,81 18,27 42,55 77,65 -1,3 -2,5 -5,8 -39,61 17,164 -51,248 -7,9 -6,4 -6,21 0,37 -8,71 -26,101l-18 25c-12,15 -27,31 -38,46 -11,18 -18,39 -19,66 -27,-3 -47,-6 -76,-6 -67,0 -140,16 -197,49 -3,1 -4,2 -6,1 -63,-35 -133,-51 -207,-50 -24,0 -45,3 -68,6 -2,-82 -64,-96 -89,-166 -9,-24 -12,-48 -12,-76 0,-13 1,-9 -6,-17 -29,-36 -37,-79 -36,-126 0,-38 5,-90 -15,-121 -1,-2 -2,-3 -3,-4 0,-1 0,-1 -1,-2 -1,-2 0,0 -1,-3zm205 -177c-37,0 -65,14 -86,36 -14,14 -22,26 -32,41 -17,24 -21,34 -41,58 -7,9 -15,16 -25,23 -16,12 -30,14 -33,17 8,12 12,16 17,35 8,33 3,65 4,98 1,53 3,72 28,115 3,6 6,9 10,14 7,8 5,6 5,20 0,39 7,72 26,104 17,27 44,52 57,74 6,9 11,17 15,29 2,5 3,11 4,17 5,29 -9,20 38,17 53,-4 104,-1 156,13 26,7 46,14 70,26 3,1 21,11 21,11l44 -21c69,-27 132,-34 206,-29 55,4 26,14 41,-33 7,-22 20,-39 33,-55l21 -23c3,-5 14,-21 17,-26 6,-9 11,-18 15,-29 9,-24 12,-50 12,-78 0,-21 4,-10 16,-32 7,-13 10,-15 16,-31 26,-73 -4,-143 22,-200 3,-7 7,-11 10,-16 -7,-6 -35,-2 -79,-68 -35,-53 -63,-107 -138,-107 -2,-11 -10,-25 -15,-33 -8,-11 -14,-16 -23,-25 -14,-13 -45,-28 -63,-35 -30,-11 -82,-23 -107,-37 -20,-11 -17,-12 -27,-22 -4,4 -4,5 -11,12 -4,3 -10,7 -15,10 -11,5 -22,10 -34,14 -41,13 -86,23 -122,47 -16,11 -25,19 -37,36 -6,7 -14,22 -16,33z"/>
   <path class="fil3" d="M939 875c7,-13 7,-19 17,-34 10,-13 12,-14 24,-26 16,-14 40,-26 63,-35 37,-14 79,-22 111,-38 20,-11 19,-16 27,-23 2,2 4,5 6,7 29,34 120,38 182,79 14,10 27,22 37,37 10,14 11,20 17,33 31,2 56,10 75,26 58,49 70,124 138,150 3,1 6,2 9,3 -4,8 -11,12 -17,36 -14,54 7,120 -17,187 -4,12 -10,22 -16,32 -14,23 -16,13 -16,32 0,61 -17,101 -45,136 -33,39 -59,58 -61,118 -6,1 -29,-3 -37,-4 -71,-6 -145,4 -210,30 -8,3 -15,7 -23,10 -2,2 -21,12 -22,12 -3,0 -97,-64 -254,-52l-38 4c0,-21 -4,-40 -13,-56 -31,-59 -95,-81 -93,-200 0,-11 1,-7 -4,-14 -3,-3 -5,-6 -8,-9 -53,-71 -21,-164 -37,-226 -6,-24 -13,-28 -17,-36 3,-1 7,-2 10,-3 3,-2 5,-3 8,-4 18,-9 29,-19 42,-33 12,-14 31,-44 41,-59 11,-16 21,-30 33,-43 24,-24 50,-35 88,-37zm242 777l0 0 -11 -7c-23,-13 -59,-25 -84,-32 -55,-16 -126,-20 -184,-12 -6,1 -13,2 -18,2 0,-10 -2,-22 -4,-31 -7,-28 -21,-44 -38,-66l-8 -9c-13,-17 -21,-25 -33,-45 -6,-9 -10,-18 -14,-29 -3,-10 -5,-18 -7,-28 -3,-14 -5,-32 -5,-48 0,-11 3,-12 -5,-20 -1,-2 -2,-3 -4,-5 -33,-43 -37,-99 -36,-152 0,-4 1,-6 1,-10l0 -33c0,-5 -1,-6 -1,-10 0,-19 -5,-37 -13,-52 -2,-4 -8,-11 -8,-14 12,-3 25,-9 34,-16l27 -25c4,-4 8,-9 11,-14 8,-10 14,-20 21,-30 17,-26 33,-52 57,-71 2,-2 5,-3 7,-5 3,-2 5,-4 8,-5 3,-2 5,-3 9,-5 16,-7 31,-11 51,-11 2,-3 3,-6 4,-9 7,-15 14,-26 25,-39 3,-4 8,-8 13,-12 8,-8 19,-14 30,-21 20,-12 42,-18 64,-25l28 -9c19,-5 38,-12 56,-21 20,-10 22,-19 27,-23 2,2 4,5 6,7 2,3 4,5 7,7 7,5 15,11 23,14 16,6 31,12 47,16 15,5 29,9 44,14l32 12c19,9 47,25 60,42 4,5 7,9 11,14 11,17 10,21 17,33 16,0 31,3 43,8 12,5 23,10 33,18 47,39 67,108 115,140 10,7 21,13 34,16 0,3 -2,5 -4,7 -4,7 -8,14 -11,22 -4,12 -7,33 -7,48l0 33c0,4 1,6 1,10l0 33c0,42 -11,87 -37,119 -2,3 -6,6 -8,9 -2,4 0,12 0,17 0,26 -4,50 -13,74 -5,17 -14,31 -24,46 -2,3 -4,6 -7,10 -9,11 -19,21 -28,32 -15,20 -27,37 -33,62 -2,8 -4,20 -4,30 -6,0 -13,-2 -18,-2 -7,-1 -12,-1 -19,-2 -34,-4 -76,-2 -109,3 -30,4 -55,10 -82,19 -4,1 -8,2 -12,4 -4,2 -8,3 -12,5 -8,3 -16,6 -23,10 -4,2 -8,4 -11,6 -4,2 -8,3 -11,6z"/>
   <path class="fil2" d="M1192 1252l1 -5 8 11c1,2 2,4 1,7l-2 7c-3,1 -7,2 -9,0 -9,-10 -7,-6 -13,-3 0,0 -5,1 -5,1 0,0 -3,-9 -3,-14 5,-1 5,0 8,-3 4,-4 3,-2 6,-4l1 -1c0,0 0,-1 0,-1l4 2c1,2 -3,2 3,3zm-1 -9c-2,-6 -6,-2 -6,-7 2,0 1,1 3,2l3 -2c3,2 3,2 5,3l3 5c0,0 0,0 0,0 0,0 -1,-1 -3,-2 -1,0 -3,0 -5,1zm-36 -12c2,0 1,0 2,1l2 1c-1,-3 0,0 -1,-2 -2,-4 -1,-4 -1,-8 0,0 -2,-1 -2,-1 -2,-1 -1,-2 -3,-5 -5,0 -9,5 -10,7 -1,2 1,1 -1,4 -4,-1 -3,-5 -6,-9l-1 -3c-1,-1 -1,-1 -4,-2 -1,-1 -1,0 -1,-1 4,-24 23,-40 45,-43 7,-1 13,-1 20,1 0,0 2,0 3,0 4,2 1,0 2,3l-6 0c-2,2 -3,3 -4,6 0,0 0,0 0,0l4 2c0,4 -2,8 -4,11 -3,4 -2,2 -4,3 -2,0 -2,2 -4,3 1,2 2,3 1,5 -3,-2 -1,-3 -4,-4 -2,-1 -3,-1 -5,0 1,1 0,0 1,1l3 2c-5,2 2,3 -2,10 -3,5 -7,1 -8,6l-3 -1c-1,5 5,3 2,7 -1,1 -2,2 -4,1 -1,0 0,1 -3,-2 0,0 0,0 0,0 -1,8 0,4 3,9 -1,2 1,0 -1,1l-1 1c0,0 0,0 0,0l4 6c0,0 0,0 0,0 0,0 -2,-1 3,0 0,0 1,0 2,0 1,1 0,1 1,2 -7,0 -11,-5 -15,-12zm19 4c4,-1 0,0 3,-1 1,-1 1,0 2,0l-2 1c0,1 0,1 0,1l1 4c-2,-2 -2,-1 -3,-1 0,-2 0,-2 -2,-4l-2 4c-3,-1 -4,-1 -5,-3 2,-2 1,0 3,-2 2,-2 3,-6 5,-4 1,1 0,1 0,5zm31 -49c-1,-4 -1,-8 1,-10l4 2c-1,3 -3,6 -5,8zm-9 -23c-7,0 -9,2 -15,2 -6,0 -8,-2 -15,-2 -1,-4 -2,-6 -2,-11 7,2 9,4 17,4 8,0 10,-2 17,-4 0,5 -1,7 -2,11zm-54 -45c4,21 12,21 16,33 1,5 3,9 4,13 -6,2 -7,7 -12,10 -5,3 -8,6 -12,10 -6,7 -12,18 -14,31 -2,13 1,26 7,36 7,11 11,15 23,22 9,4 14,7 27,7 5,0 10,-1 15,-2 5,-1 7,-3 12,-5 10,-6 17,-11 23,-22 15,-28 7,-61 -19,-77 -6,-4 -4,-6 -12,-10 1,-7 5,-17 9,-22 5,-5 8,-13 10,-22l1 -1 0 -1 -1 -1c-3,16 -33,57 -63,23 -8,-9 -8,-13 -12,-21 -2,-3 -1,-2 -2,-1z"/>
   <path class="fil1" d="M1334 1196c11,0 16,2 27,0 22,-4 39,-17 51,-35 3,18 -15,42 -23,50 -4,4 -13,11 -21,15 -11,4 -18,4 -29,0 4,2 6,4 11,5 7,2 9,0 15,-1 -3,4 -9,11 -16,11 -8,0 -10,-6 -17,-10 -14,-7 -30,-2 -39,6 7,-2 13,-5 22,-5 5,1 15,3 19,8 -16,0 -23,2 -35,9 -8,5 -15,12 -19,23 -5,14 -2,25 5,34 6,8 16,11 32,10 -2,3 -7,7 -11,9 -9,4 -20,3 -30,-1 -9,-4 -6,-6 -11,-7 -3,3 -5,5 -8,7l-6 -7 8 -7c-2,-6 -4,-9 -6,-17 -3,-18 6,-37 17,-49 6,-7 -4,-8 -1,-18 1,-3 2,-5 5,-6 6,-3 3,0 5,-6 2,-3 3,-4 6,-6 4,-2 2,-2 4,-6 4,-6 11,-4 16,-2 2,-13 17,-15 22,-8 2,3 2,6 4,8l3 -4zm-271 37c-30,-17 -38,9 -52,8 -6,-1 -12,-7 -14,-11 5,1 7,3 13,2 3,-1 7,-2 9,-5 -6,1 -8,3 -15,2 -27,-5 -55,-40 -54,-68 1,1 1,0 1,1 1,0 1,1 1,1 1,1 1,1 2,2 5,9 16,19 26,24 21,10 29,7 48,7 1,2 2,3 4,4 3,-5 2,-12 12,-12 7,0 12,5 13,12 17,-6 13,5 20,9 5,3 5,4 6,7 2,5 8,2 10,10 3,9 -6,12 -1,18 6,7 13,16 16,29 5,19 -2,27 -5,37l8 7 -6 7 -9 -7c-6,5 -14,10 -26,11 -9,0 -22,-6 -25,-12 16,2 26,-2 32,-10 7,-9 10,-20 5,-34 -9,-23 -30,-32 -54,-32 3,-4 13,-7 18,-7 10,-1 13,2 21,3l-4 -3zm-44 -6c0,0 0,0 0,0l0 0zm48 9c0,0 0,0 0,0l0 0zm15 92c0,-1 0,-1 1,-1l2 -1 1 0c4,-1 8,-5 10,-6l12 9c6,6 3,4 5,7 2,4 4,1 6,6 0,0 0,0 0,0l-2 1c-7,2 -7,0 -18,5 -6,3 -14,9 -16,12l0 -29c-5,3 -4,12 -4,19 0,7 0,15 0,22l4 -4c1,-2 2,-3 4,-5 10,-9 23,-13 38,-14 2,7 4,10 3,19 -2,0 -1,-1 -4,0 -1,4 -1,4 -1,8 3,0 4,0 6,2 -3,2 -3,1 -5,2 0,4 -1,1 4,7 23,-3 11,-6 24,-7 -1,-5 -2,-10 -3,-15 -1,-4 -3,-9 -4,-13 12,2 24,12 30,21 2,4 2,6 6,10 4,-3 11,-26 36,-31 -3,9 -6,16 -7,28 12,0 2,5 24,7 5,-6 4,-2 4,-7 -2,-1 0,0 -2,-1 -2,0 -2,0 -3,-2l6 -1c0,-3 0,-5 -1,-8 -3,-1 -2,0 -4,0 -1,-6 0,-14 3,-18 15,-2 34,7 44,20l2 2c0,-5 1,-32 -1,-37 -1,-3 -1,-3 -3,-3l0 28c-9,-10 -23,-16 -37,-18 3,-4 4,-2 7,-5 1,-1 0,-2 1,-4 2,-4 8,-7 9,-8 3,-2 5,-4 7,-5 2,2 7,5 10,6l1 1 2 0c1,0 1,0 0,1 12,1 19,6 35,-5 2,-2 6,-4 5,-8 -4,-2 -19,4 -32,-9 -21,-23 3,-65 44,-64l6 -1c1,-3 -1,-3 -4,-5 -2,-1 -3,-2 -6,-3 -4,-2 -10,-3 -15,-3 20,-3 25,9 30,11 7,3 11,2 16,-1 6,-4 8,-6 10,-11 0,0 0,0 0,0 0,-1 12,-7 18,-12 13,-12 33,-41 27,-59 -4,0 -2,1 -8,8 -14,19 -37,30 -62,28 -8,0 -8,-2 -12,2 -3,-5 -5,-11 -14,-10 -3,0 -7,2 -9,3 -2,2 -2,4 -5,7 -16,-2 -13,7 -20,11 -3,2 -4,3 -6,7 -2,6 -8,3 -10,11 -3,11 5,12 1,18 -7,10 -12,15 -16,29 -6,24 5,34 4,38 -1,1 -3,2 -4,4 -3,2 -2,2 -4,5 -1,0 -4,3 -5,4 -2,2 -3,1 -5,3 -3,1 -2,3 -4,5 -2,1 -3,2 -5,4 -2,1 -6,7 -8,8 -12,5 -20,4 -33,19 -1,2 -3,3 -4,5 -1,2 -2,5 -3,6 -3,-3 -4,-7 -6,-10 -17,-20 -32,-16 -37,-22 -8,-10 -8,-7 -12,-14 -3,-4 -3,0 -10,-6 -4,-4 0,-3 -8,-9l-1 -1 -1 -1c-2,-2 3,-7 5,-17 1,-8 0,-15 -2,-22 -2,-9 -6,-16 -11,-23 -2,-3 -4,-5 -6,-8 0,-2 10,-14 -3,-22 -8,-5 -1,-5 -10,-11 -6,-4 -4,-13 -20,-11 -2,-2 -5,-9 -14,-10 -9,-1 -11,4 -14,10 -3,-2 -1,-3 -5,-2 -8,0 -10,2 -22,0 -21,-3 -40,-15 -50,-33 -2,-2 -2,-3 -5,-3 -4,13 5,31 10,39 9,14 18,22 33,30 6,3 -1,-1 5,7 15,19 29,2 32,0 7,-4 12,-5 21,-4 -7,0 -26,5 -25,11 3,2 5,1 10,1 3,0 6,1 9,1 16,4 30,14 36,29 7,18 -1,37 -18,42 -6,1 -17,0 -19,1 -1,4 3,6 5,7 16,11 21,7 34,6z"/>
   <path class="fil2" d="M1278 1225c5,-2 8,6 3,8 -3,2 -5,0 -6,-2 -2,-3 1,-5 3,-6zm13 -3c-9,2 -8,-7 -5,-8 5,-3 9,2 5,8zm5 -17c9,-2 8,7 4,8 -5,2 -8,-4 -4,-8zm17 -2c-1,-10 8,-10 10,-5 2,4 0,7 -2,8 -4,1 -6,-1 -8,-3zm29 0c22,0 33,-2 51,-13l11 -9c-10,25 -34,30 -58,24l-4 -2zm-8 -7l-3 4c-2,-2 -2,-5 -4,-8 -5,-7 -20,-5 -22,8 -5,-2 -12,-4 -16,2 -2,4 0,4 -4,6 -3,2 -4,3 -6,6 -2,6 1,3 -5,6 -3,1 -4,3 -5,6 -3,10 7,11 1,18 -11,12 -20,31 -17,49 2,8 4,11 6,17l-8 7 6 7c3,-2 5,-4 8,-7 5,1 2,3 11,7 10,4 21,5 30,1 4,-2 9,-6 11,-9 -16,1 -26,-2 -32,-10 -7,-9 -10,-20 -5,-34 4,-11 11,-18 19,-23 12,-7 19,-9 35,-9 -4,-5 -14,-7 -19,-8 -9,0 -15,3 -22,5 9,-8 25,-13 39,-6 7,4 9,10 17,10 7,0 13,-7 16,-11 -6,1 -8,3 -15,1 -5,-1 -7,-3 -11,-5 11,4 18,4 29,0 8,-4 17,-11 21,-15 8,-8 26,-32 23,-50 -12,18 -29,31 -51,35 -11,2 -16,0 -27,0z"/>
   <path class="fil2" d="M1067 1236c0,0 0,0 0,0 0,0 0,0 0,0 0,0 -2,1 0,0zm20 -9c2,10 -7,8 -8,4 -2,-5 3,-8 8,-4zm-68 0l0 0c0,0 0,0 0,0zm53 -13c6,-3 8,6 4,8 -3,1 -6,0 -7,-2 -1,-4 1,-5 3,-6zm-11 -9c6,-4 10,5 5,8 -3,1 -5,0 -6,-2 -3,-4 1,-6 1,-6zm-19 -9c7,-4 10,7 4,10 -7,3 -12,-7 -4,-10zm-22 7l-5 3c-24,5 -48,-1 -57,-25 11,5 16,22 62,22zm-1 24c-2,3 -6,4 -9,5 -6,1 -8,-1 -13,-2 2,4 8,10 14,11 14,1 22,-25 52,-8l4 3c-8,-1 -11,-4 -21,-3 -5,0 -15,3 -18,7 24,0 45,9 54,32 5,14 2,25 -5,34 -6,8 -16,12 -32,10 3,6 16,12 25,12 12,-1 20,-6 26,-11l9 7 6 -7 -8 -7c3,-10 10,-18 5,-37 -3,-13 -10,-22 -16,-29 -5,-6 4,-9 1,-18 -2,-8 -8,-5 -10,-10 -1,-3 -1,-4 -6,-7 -7,-4 -3,-15 -20,-9 -1,-7 -6,-12 -13,-12 -10,0 -9,7 -12,12 -2,-1 -3,-2 -4,-4 -19,0 -27,3 -48,-7 -10,-5 -21,-15 -26,-24 -1,-1 -1,-1 -2,-2 0,0 0,-1 -1,-1 0,-1 0,0 -1,-1 -1,28 27,63 54,68 7,1 9,-1 15,-2z"/>
   <path class="fil2" d="M1166 884l-46 0c1,2 0,0 2,2l35 25 -14 44c5,-1 31,-23 38,-26l28 20c2,2 6,5 10,6l-15 -44 33 -23c1,-1 2,-1 2,-2 3,-2 1,1 3,-2l-46 0 -15 -44c0,0 0,0 0,1l-15 43z"/>
   <path class="fil4" d="M1106 1310l1 1 1 1c8,6 4,5 8,9 7,6 7,2 10,6 4,7 4,4 12,14 5,6 20,2 37,22 2,3 3,7 6,10 1,-1 2,-4 3,-6 1,-2 3,-3 4,-5 13,-15 21,-14 33,-19 2,-1 6,-7 8,-8 2,-2 3,-3 5,-4 2,-2 1,-4 4,-5 2,-2 3,-1 5,-3 1,-1 4,-4 5,-4 2,-3 1,-3 4,-5 1,-2 3,-3 4,-4 -11,-6 -33,-5 -46,0 -4,2 -10,4 -12,8 -1,4 -11,23 -14,28l-6 0c-4,-7 -12,-20 -13,-27 -2,-3 1,-3 -11,-8 -13,-5 -31,-7 -45,-3 -3,1 -2,2 -3,2z"/>
   <path class="fil1" d="M1155 1231c4,7 8,12 15,12 -1,-1 0,-1 -1,-2 -1,0 -2,0 -2,0 -5,-1 -3,0 -3,0 0,0 0,0 0,0l-4 -6c0,0 0,0 0,0l1 -1c2,-1 0,1 1,-1 -3,-5 -4,-1 -3,-9 0,0 0,0 0,0 3,3 2,2 3,2 2,1 3,0 4,-1 3,-4 -3,-2 -2,-7l3 1c1,-5 5,-1 8,-6 4,-7 -3,-8 2,-10l-3 -2c-1,-1 0,0 -1,-1 2,-1 3,-1 5,0 3,1 1,2 4,4 1,-2 0,-3 -1,-5 2,-1 2,-3 4,-3 2,-1 1,1 4,-3 2,-3 4,-7 4,-11l-4 -2c0,0 0,0 0,0 1,-3 2,-4 4,-6l6 0c-1,-3 2,-1 -2,-3 -1,0 -3,0 -3,0 -7,-2 -13,-2 -20,-1 -22,3 -41,19 -45,43 0,1 0,0 1,1 3,1 3,1 4,2l1 3c3,4 2,8 6,9 2,-3 0,-2 1,-4 1,-2 5,-7 10,-7 2,3 1,4 3,5 0,0 2,1 2,1 0,4 -1,4 1,8 1,2 0,-1 1,2l-2 -1c-1,-1 0,-1 -2,-1z"/>
   <path class="fil2" d="M978 1497c3,0 6,1 8,1 4,1 4,2 5,-2l8 -44 -19 -4c-3,8 -9,19 -13,26 -2,-32 0,-29 -7,-30l-10 -2c-3,-1 -3,-1 -4,0 -1,1 -9,43 -9,47l12 2c1,-7 4,-30 7,-34l1 28c1,7 -1,9 12,10 2,-5 5,-11 7,-16 1,-2 3,-5 4,-8 1,-1 1,-2 2,-4l-4 30z"/>
   <path class="fil1" d="M1071 1438l-7 -1c1,-4 9,-19 11,-23 3,0 6,0 8,1l7 24c-1,0 -5,0 -6,0 -3,-1 -1,-1 -3,-4l-8 -1 -1 3c0,0 -1,0 -1,0 0,0 0,1 0,1zm39 -7c3,2 5,7 6,11 -5,-1 -7,0 -9,-4 -2,-3 -2,-6 -6,-7l-1 9 -7 0 1 -24c4,0 16,0 19,2 3,1 5,7 -1,12l-2 1zm-54 -11l7 16 -9 0c-1,-3 -3,-8 -4,-11 -5,3 -4,3 -5,9l-7 -1 2 -23c2,-1 3,-1 4,0 1,0 2,0 2,0 1,0 1,0 2,1l-1 8c3,-1 6,-5 8,-8 6,0 8,1 10,2l-9 7zm-67 -6c-4,14 -29,9 -24,-9 2,-6 7,-10 16,-8 7,3 11,8 8,17zm46 4l0 4c0,0 -1,-1 -1,0 0,0 0,0 0,0 -4,0 -6,-1 -11,-1l-1 4 13 2 -1 6 -20 -3 4 -24 20 2 -1 5 -13 -1c0,4 -1,4 4,4 3,1 5,1 7,2zm-28 -9l-4 17c-1,2 -4,1 -6,0 -1,-4 2,-13 2,-18 -7,-1 -8,0 -6,-7l22 4 -1 6 -7 -2zm-68 -22l10 3 0 13c1,0 1,0 1,-1l3 -4c1,-2 2,-4 3,-6l10 2 -7 24c-2,-1 -4,-1 -6,-2l4 -14c-3,2 -7,10 -8,13l-6 -1 0 -18 -4 16 -6 -2 6 -23zm-9 25c5,1 16,5 20,5 2,0 -1,-1 2,1 2,1 6,2 9,2l1 -5c0,0 1,0 1,0l2 4c5,6 22,9 26,-4l1 -5c0,-1 1,-1 1,-1l4 1 -3 18 11 2c2,-4 3,-13 3,-18l6 1 -2 18c6,1 31,6 35,5 0,-2 0,-5 1,-7 2,1 3,6 5,9l19 2 2 -4 6 1 1 4 21 2 1 -8c6,10 -1,8 17,9l-6 -13c6,-4 5,-13 -1,-15 -3,-2 -17,-3 -21,-2l-1 19c-1,-3 -2,-7 -3,-10 0,-2 -1,-3 -1,-5 -2,-7 -1,-5 -13,-7l-10 21c-2,-2 -5,-8 -6,-12 4,-2 9,-6 12,-8 -1,-2 -2,-1 -5,-2 -16,-2 -8,0 -15,3l0 -5c-10,-1 -20,-3 -29,-4 -10,-2 -20,-4 -29,-6l-2 3c-2,-2 -4,-5 -9,-6 -6,-1 -10,1 -14,2 1,-2 1,-2 0,-4l-12 -4 -4 7 0 -8c-3,-1 -10,-3 -13,-3l-8 27z"/>
   <path class="fil2" d="M1090 1510c2,0 13,2 14,0 1,-1 4,-44 3,-47l-13 -1 -2 26c-4,-4 -12,-22 -17,-28l-13 0 -4 48 14 0 2 -25c3,2 13,22 16,27z"/>
   <path class="fil2" d="M1339 1465c6,-1 15,-4 14,4 0,3 -2,4 -5,4 -2,1 -5,2 -8,1l-1 -9zm-16 -7c0,5 6,44 7,47 2,1 13,-2 14,-2 0,-6 -3,-14 -2,-19 6,-1 8,3 10,6 3,4 6,7 8,11l17 -3c-2,-3 -10,-14 -14,-17l-3 -2c11,-4 10,-22 0,-25 -7,-2 -29,2 -37,4z"/>
   <path class="fil2" d="M999 1500l15 2c1,-4 1,-9 2,-12 2,-3 6,-4 8,-6 3,4 6,15 9,20l17 2 -14 -32 19 -16c-4,0 -8,-1 -12,-1 -6,-1 -7,-2 -10,2 -2,2 -13,11 -15,13l2 -18 -15 -2 -6 48z"/>
   <path class="fil1" d="M1181 841c0,-1 0,-1 0,-1l15 44 46 0c-2,3 0,0 -3,2 0,1 -1,1 -2,2l-33 23 15 44c-4,-1 -8,-4 -10,-6l-28 -20c-7,3 -33,25 -38,26l14 -44 -35 -25c-2,-2 -1,0 -2,-2l46 0 15 -43zm-17 40c-4,0 -46,-1 -50,0 0,4 4,6 9,9l31 23c-3,8 -6,16 -8,24 -2,7 -13,32 -1,22l36 -26c3,2 7,5 10,7l26 19c12,10 2,-14 -1,-22 -2,-8 -5,-16 -8,-24l36 -26c2,-2 4,-2 4,-6 -4,-1 -50,0 -50,0l-12 -36c-1,-4 -2,-10 -5,-11 -3,1 -7,18 -9,22 -3,9 -5,16 -8,25z"/>
   <path class="fil2" d="M1248 1499c-27,13 -24,-20 -16,-24 3,-1 6,-2 9,-1 3,1 3,2 5,5l14 -3c-3,-12 -16,-15 -30,-12 -11,2 -18,11 -18,24 0,28 28,32 50,16l-1 -20c-2,-1 0,0 -2,0l-21 1 0 10 10 -1 0 5z"/>
   <path class="fil2" d="M1405 1444c1,20 11,37 -2,39 -9,1 -9,-6 -11,-14 -1,-7 -2,-14 -4,-21 -3,-1 -10,1 -14,2 0,5 4,27 6,32 3,10 11,14 25,12 11,-2 19,-7 20,-19 0,-6 -4,-26 -6,-33l-14 2z"/>
   <path class="fil2" d="M1287 1491c1,-4 2,-14 4,-17l6 16 -10 1zm-5 -30l-13 50c4,0 11,0 14,-2 2,-7 1,-7 6,-8l13 -1 3 7 15 -1c0,-4 -19,-39 -22,-46l-16 1z"/>
   <path class="fil2" d="M891 1461c-2,13 6,19 16,22 12,3 23,0 26,-10 4,-11 -7,-18 -15,-22 -3,-1 -11,-5 -5,-8 6,-2 9,3 10,8l14 2c0,-10 -5,-15 -13,-18 -24,-8 -35,11 -20,22 3,3 5,4 9,6 12,7 3,14 -5,10 -3,-2 -3,-5 -4,-8l-13 -4z"/>
   <path class="fil1" d="M1305 1411c3,0 7,-1 9,-1l6 13 2 -14 10 -2c0,3 4,21 2,24l-4 1c-1,-1 0,0 -1,-2l-3 -13 -1 16 -6 1c-1,-2 -7,-15 -7,-16l2 17 -6 0c0,-2 -4,-21 -3,-24zm45 -7l7 -1c2,11 8,24 -6,26 -8,1 -12,0 -14,-6 -1,-3 -3,-14 -3,-16l8 -2c0,6 1,14 4,18 2,1 3,0 6,-1 2,-6 -3,-12 -2,-18zm30 3l11 13 -9 2c-2,-3 -4,-6 -6,-8 -5,3 -3,5 -2,10l-8 1 -5 -23 8 -2 1 8c6,-8 4,-10 16,-11 -2,3 -5,6 -6,10zm25 -9l4 17c-2,1 -4,2 -7,2 -2,-5 -2,-13 -5,-17l-7 1 -1 -6 22 -5 2 6 -8 2zm11 -10l7 -1 6 23 -7 2c-1,-4 -6,-20 -6,-24zm-44 14l-2 -4 -23 4 2 19c-3,1 -3,-3 -4,-7 0,-4 -1,-7 -2,-11l-23 4c-1,3 0,5 -2,7l-2 -6c-4,0 -10,0 -14,2 1,5 3,24 5,28 3,-1 5,-1 8,-1l23 -4 -1 -5c3,4 20,8 25,-7l1 -2c0,0 0,-1 0,-1l2 10 11 -2c0,-3 -2,-6 0,-8l6 6 13 -3 -13 -14c3,-4 3,-6 6,-8l1 5 7 -2 5 18 11 -3 -4 -18 8 -2 4 17 12 -3 -8 -27 -42 11c-12,2 -5,1 -10,7z"/>
   <path class="fil1" d="M1090 1510c-3,-5 -13,-25 -16,-27l-2 25 -14 0 4 -48 13 0c5,6 13,24 17,28l2 -26 13 1c1,3 -2,46 -3,47 -1,2 -12,0 -14,0zm-85 -58l15 2 -2 18c2,-2 13,-11 15,-13 3,-4 4,-3 10,-2 4,0 8,1 12,1l-19 16 14 32 -17 -2c-3,-5 -6,-16 -9,-20 -2,2 -6,3 -8,6 -1,3 -1,8 -2,12l-15 -2 6 -48zm11 52c1,-8 0,-14 8,-17l6 19 23 3 -15 -34c4,-2 8,-6 11,-9 3,-2 7,-6 10,-8l-3 52 18 1 2 -21c2,2 5,8 6,11 2,3 5,8 7,11l17 1 4 -52c-4,-1 -15,-2 -18,-1 -1,6 0,15 -2,20l-13 -22c-12,0 -22,-2 -33,-3 -8,-1 -8,-3 -13,3 -2,2 -8,7 -10,8l1 -14 -19 -2c-1,12 -3,24 -4,36 0,3 -3,15 -1,16 1,1 16,2 18,2z"/>
   <path class="fil2" d="M1425 1440l2 12 15 -4 10 35c3,0 11,-2 14,-4l-9 -34 14 -4c0,-3 -1,-10 -3,-12l-43 11z"/>
   <path class="fil1" d="M1217 1443l-7 0 8 -24 8 -1c2,3 9,21 10,24l-8 1c-1,-3 0,-3 -2,-4l-7 0 -2 4zm58 -4l-7 1c0,-4 5,-23 7,-25l8 -1 11 23 -8 1 -1 -4 -9 1 -1 4zm-71 -9c1,1 0,0 1,1 1,1 1,0 2,1 1,2 1,2 1,4 1,11 -21,8 -22,7l-1 -23c25,-4 25,7 19,10zm60 10l-8 1 -4 -14c-1,1 0,-1 -2,2l-1 8c-1,6 -2,5 -9,5 -1,-7 -6,-18 -6,-24l6 0c0,0 0,0 0,0l2 6c1,2 1,4 2,6 4,-14 0,-13 10,-13 2,3 2,8 5,11 0,-3 0,-6 1,-9 1,-4 2,-3 7,-3l-3 24zm5 -12c0,-1 0,-1 -1,-1 0,0 0,0 0,-1 0,-2 1,-9 2,-13 -16,1 -10,1 -13,7l-1 -5 -11 0 -1 6 -2 -6 -11 1 6 21c-4,-5 -6,-16 -10,-21l-12 3c0,0 0,1 0,2 -1,1 -1,3 -2,4 -1,3 -2,6 -2,9 -4,-5 -3,-3 -2,-8 2,-12 -17,-9 -25,-9l0 29c5,0 13,0 18,-1 3,0 3,-1 5,0 5,1 3,1 11,0l2 -4 5 0 2 4c4,0 21,1 23,-3l1 -7c1,1 1,0 1,1l3 7 22 -2 1 -4 5 -1 2 4 12 -1c-1,-4 -11,-21 -13,-27 -12,0 -12,-2 -15,16z"/>
   <path class="fil2" d="M1178 1300c-3,-6 2,-10 5,-8 4,3 3,10 -5,8zm12 -14c-8,1 -10,1 -18,0l1 5c-2,1 -5,2 -4,6 1,4 3,1 4,7 0,6 -3,11 -7,14 1,4 10,21 13,25 0,-3 0,-14 0,-17 -1,-2 -4,-2 -3,-6 1,-4 9,-5 10,0 0,4 -2,4 -3,6 -1,2 0,14 0,17l13 -25c-4,-3 -7,-10 -6,-17 1,-3 3,-2 3,-6 0,-3 -2,-3 -4,-4l1 -5z"/>
   <path class="fil2" d="M1146 1477l0 10c5,0 10,-3 14,-5l-1 31 14 1 1 -50 -11 0c-4,9 -9,9 -17,13z"/>
   <path class="fil1" d="M978 1497l4 -30c-1,2 -1,3 -2,4 -1,3 -3,6 -4,8 -2,5 -5,11 -7,16 -13,-1 -11,-3 -12,-10l-1 -28c-3,4 -6,27 -7,34l-12 -2c0,-4 8,-46 9,-47 1,-1 1,-1 4,0l10 2c7,1 5,-2 7,30 4,-7 10,-18 13,-26l19 4 -8 44c-1,4 -1,3 -5,2 -2,0 -5,-1 -8,-1zm-44 -7c4,2 11,3 16,3l5 -18c1,20 -4,20 15,22l9 -15 -4 16 17 4 10 -52 -23 -5c-3,6 -7,16 -10,21l-2 -23 -23 -4 -10 51z"/>
   <path class="fil4" d="M1279 1332l0 -4c-1,1 0,1 0,-1l-2 0 -1 -1c-3,-1 -8,-4 -10,-6 -2,1 -4,3 -7,5 -1,1 -7,4 -9,8 -1,2 0,3 -1,4 -3,3 -4,1 -7,5 14,2 28,8 37,18l0 -28z"/>
   <path class="fil4" d="M1086 1326l-1 0 -2 1c0,1 0,1 -1,1l1 3 0 29c2,-3 10,-9 16,-12 11,-5 11,-3 18,-5l2 -1c0,0 0,0 0,0 -2,-5 -4,-2 -6,-6 -2,-3 1,-1 -5,-7l-12 -9c-2,1 -6,5 -10,6z"/>
   <path class="fil1" d="M1172 1286c8,1 10,1 18,0l-1 5c2,1 4,1 4,4 0,4 -2,3 -3,6 -1,7 2,14 6,17l-13 25c0,-3 -1,-15 0,-17 1,-2 3,-2 3,-6 -1,-5 -9,-4 -10,0 -1,4 2,4 3,6 0,3 0,14 0,17 -3,-4 -12,-21 -13,-25 4,-3 7,-8 7,-14 -1,-6 -3,-3 -4,-7 -1,-4 2,-5 4,-6l-1 -5zm-7 33c1,7 9,20 13,27l6 0c3,-5 13,-24 14,-28 -4,-4 -8,-12 -6,-16 1,-2 5,-4 3,-9 -1,-3 -2,-2 -3,-4 -3,-6 9,-4 16,-16 -5,2 -7,4 -12,5 -5,1 -10,2 -15,2 -13,0 -18,-3 -27,-7 2,4 4,6 8,8 1,2 3,2 5,3 3,1 3,1 3,5 -8,10 0,9 0,15 1,8 -6,11 -5,15z"/>
   <path class="fil1" d="M1248 1499l0 -5 -10 1 0 -10 21 -1c2,0 0,-1 2,0l1 20c-22,16 -50,12 -50,-16 0,-13 7,-22 18,-24 14,-3 27,0 30,12l-14 3c-2,-3 -2,-4 -5,-5 -3,-1 -6,0 -9,1 -8,4 -11,37 16,24zm14 -17l-26 1 0 14 10 0c-2,4 -16,8 -17,-8 -1,-16 13,-17 15,-8l18 -4c-2,-26 -62,-22 -51,20 5,20 28,22 43,15 11,-5 10,-7 10,-11 0,-3 0,-5 0,-7l-2 -12z"/>
   <path class="fil1" d="M907 1463c2,0 4,2 6,3 3,1 4,2 3,6 -7,1 -9,-2 -9,-9zm9 -15c-2,-1 -2,-1 -2,-3 4,-1 6,1 6,5 -1,0 -2,-1 -4,-2zm-25 13l13 4c1,3 1,6 4,8 8,4 17,-3 5,-10 -4,-2 -6,-3 -9,-6 -15,-11 -4,-30 20,-22 8,3 13,8 13,18l-14 -2c-1,-5 -4,-10 -10,-8 -6,3 2,7 5,8 8,4 19,11 15,22 -3,10 -14,13 -26,10 -10,-3 -18,-9 -16,-22zm13 0l-15 -2c-1,9 1,16 6,20 5,4 14,7 22,7 17,0 24,-18 15,-28 -2,-2 -3,-1 -4,-4l10 2c1,-11 -1,-16 -7,-20 -5,-3 -15,-6 -22,-5 -7,1 -13,6 -14,12 -2,11 5,14 9,18z"/>
   <path class="fil2" d="M1380 996c18,2 39,1 56,-2 15,-3 36,-11 40,-21 -6,1 -15,5 -22,7 -8,3 -15,5 -23,7 -14,3 -30,6 -44,7 -3,1 -5,1 -7,2z"/>
   <path class="fil2" d="M983 995c-28,-3 -73,-11 -97,-22 1,4 11,11 16,13 7,3 14,6 23,8 10,2 50,5 58,1z"/>
   <path class="fil2" d="M1369 1016c29,9 78,16 100,-4 -1,0 -18,3 -22,3 -18,2 -35,2 -52,2 -8,0 -19,-1 -26,-1z"/>
   <path class="fil2" d="M993 1016c-7,0 -18,1 -26,1 -17,0 -34,0 -51,-2 -8,-1 -16,-2 -23,-3 2,4 13,8 20,10 8,2 18,3 28,3 18,-1 36,-4 52,-9z"/>
   <path class="fil2" d="M908 1047c3,5 16,7 23,7 10,0 19,-1 28,-3 11,-2 39,-10 45,-16l-45 9c-18,2 -33,3 -51,3z"/>
   <path class="fil2" d="M1267 1416c-5,0 -6,-1 -7,3 -1,3 -1,6 -1,9 -3,-3 -3,-8 -5,-11 -10,0 -6,-1 -10,13 -1,-2 -1,-4 -2,-6l-2 -6c0,0 0,0 0,0l-6 0c0,6 5,17 6,24 7,0 8,1 9,-5l1 -8c2,-3 1,-1 2,-2l4 14 8 -1 3 -24z"/>
   <path class="fil2" d="M1454 1047c-25,0 -48,-2 -73,-7 -8,-1 -16,-4 -23,-5 9,8 53,19 73,19 7,0 20,-2 23,-7z"/>
   <path class="fil2" d="M1136 1419c1,5 2,10 3,15 2,9 -1,9 9,9l5 -14 4 15 7 0 6 -24 -7 0 -3 11c-2,-2 -2,-8 -3,-12l-7 0c-1,4 -3,9 -5,12l-2 -12 -7 0z"/>
   <path class="fil1" d="M1178 1269c6,-3 4,-7 13,3 2,2 6,1 9,0l2 -7c1,-3 0,-5 -1,-7l-8 -11 -1 5c-6,-1 -2,-1 -3,-3l-4 -2c0,0 0,1 0,1l-1 1c-3,2 -2,0 -6,4 -3,3 -3,2 -8,3 0,5 3,14 3,14 0,0 5,-1 5,-1z"/>
   <path class="fil1" d="M1419 1442c2,7 6,27 6,33 -1,12 -9,17 -20,19 -14,2 -22,-2 -25,-12 -2,-5 -6,-27 -6,-32 4,-1 11,-3 14,-2 2,7 3,14 4,21 2,8 2,15 11,14 13,-2 3,-19 2,-39l14 -2zm-17 0c0,17 12,38 0,39 -8,1 -7,-8 -8,-15 -1,-7 -2,-15 -4,-21l-19 3c1,7 5,30 7,35 4,11 13,15 27,13 34,-5 19,-35 16,-57l-19 3z"/>
   <path class="fil2" d="M1305 1411c-1,3 3,22 3,24l6 0 -2 -17c0,1 6,14 7,16l6 -1 1 -16 3 13c1,2 0,1 1,2l4 -1c2,-3 -2,-21 -2,-24l-10 2 -2 14 -6 -13c-2,0 -6,1 -9,1z"/>
   <path class="fil2" d="M933 1410l6 2 4 -16 0 18 6 1c1,-3 5,-11 8,-13l-4 14c2,1 4,1 6,2l7 -24 -10 -2c-1,2 -2,4 -3,6l-3 4c0,1 0,1 -1,1l0 -13 -10 -3 -6 23z"/>
   <path class="fil2" d="M1342 1053c2,1 6,4 9,6 8,6 21,12 31,16 15,6 35,12 51,5 -2,-1 -20,-4 -25,-5 -8,-2 -15,-4 -23,-6 -15,-5 -36,-14 -43,-16z"/>
   <path class="fil2" d="M929 1080c16,7 35,1 51,-5 9,-4 33,-15 39,-22 -6,2 -15,6 -21,9 -14,5 -31,10 -46,13 -4,1 -21,3 -23,5z"/>
   <path class="fil1" d="M1173 1419l7 0 0 25 -7 0 0 -25zm-37 0l7 0 2 12c2,-3 4,-8 5,-12l7 0c1,4 1,10 3,12l3 -11 7 0 -6 24 -7 0 -4 -15 -5 14c-10,0 -7,0 -9,-9 -1,-5 -2,-10 -3,-15zm14 26l2 -8c5,6 -3,10 13,9 2,-3 3,-11 4,-13 1,-3 1,-1 2,-3l-1 16 12 0 1 -29 -21 0 -2 5c-1,-2 -1,-2 -2,-5l-9 0 -3 5 -1 -5 -11 -1c0,6 2,13 3,19 2,12 0,10 13,10z"/>
   <path class="fil1" d="M1323 1458c8,-2 30,-6 37,-4 10,3 11,21 0,25l3 2c4,3 12,14 14,17l-17 3c-2,-4 -5,-7 -8,-11 -2,-3 -4,-7 -10,-6 -1,5 2,13 2,19 -1,0 -12,3 -14,2 -1,-3 -7,-42 -7,-47zm-3 -2l8 51 19 -2c0,-4 -3,-14 -3,-19 3,0 6,5 8,8 2,3 6,7 8,9 3,0 6,-1 10,-1 2,-1 3,-1 5,-1 6,-1 4,-1 5,-2 -3,-3 -8,-12 -11,-15 -2,-2 -3,-3 -5,-5 3,-4 7,-7 6,-16 -1,-6 -5,-10 -11,-11 -4,-2 -34,2 -39,4z"/>
   <path class="fil2" d="M1325 1069c1,0 7,6 8,7 3,2 6,4 9,7 13,9 51,32 65,24 -2,-2 -17,-6 -22,-8 -12,-5 -29,-13 -41,-20l-19 -10z"/>
   <path class="fil2" d="M1193 1438l0 -4c5,-1 8,-2 7,3 -2,1 -4,1 -7,1zm0 -14l6 1 0 3 -6 1 0 -5zm11 6c6,-3 6,-14 -19,-10l1 23c1,1 23,4 22,-7 0,-2 0,-2 -1,-4 -1,-1 -1,0 -2,-1 -1,-1 0,0 -1,-1z"/>
   <path class="fil2" d="M955 1107c14,8 52,-15 65,-25 3,-2 16,-13 17,-13l-19 10c-11,6 -29,15 -41,20 -4,1 -20,6 -22,8z"/>
   <path class="fil2" d="M1102 1421c3,0 4,0 6,2 0,4 -2,3 -7,3l1 -5zm10 9c6,-5 4,-11 1,-12 -3,-2 -15,-2 -19,-2l-1 24 7 0 1 -9c4,1 4,4 6,7 2,4 4,3 9,4 -1,-4 -3,-9 -6,-11l2 -1z"/>
   <path class="fil1" d="M1298 1460c3,7 22,42 22,46l-15 1 -3 -7 -13 1c-5,1 -4,1 -6,8 -3,2 -10,2 -14,2l13 -50 16 -1zm-32 54l19 -2 2 -8 14 -2 3 8 20 -2 -25 -50c-3,0 -18,0 -19,2 -1,1 -5,16 -5,18 -3,10 -8,25 -9,36z"/>
   <path class="fil2" d="M1380 1407c1,-4 4,-7 6,-10 -12,1 -10,3 -16,11l-1 -8 -8 2 5 23 8 -1c-1,-5 -3,-7 2,-10 2,2 4,5 6,8l9 -2 -11 -13z"/>
   <path class="fil2" d="M979 1130c11,5 38,-14 43,-18 6,-4 12,-9 17,-14l12 -13c2,-3 3,-3 2,-3l-26 19c-3,3 -5,4 -9,7 -12,9 -35,19 -39,22z"/>
   <path class="fil2" d="M1065 1413c-2,-1 -4,-2 -10,-2 -2,3 -5,7 -8,8l1 -8c-1,-1 -1,-1 -2,-1 0,0 -1,0 -2,0 -1,-1 -2,-1 -4,0l-2 23 7 1c1,-6 0,-6 5,-9 1,3 3,8 4,11l9 0 -7 -16 9 -7z"/>
   <path class="fil2" d="M1308 1081c3,3 14,18 31,31 5,4 33,23 44,18 -2,-2 -8,-4 -11,-6 -14,-7 -34,-20 -47,-30 -3,-2 -6,-4 -9,-7 -3,-1 -6,-4 -8,-6z"/>
   <path class="fil1" d="M1468 1429c2,2 3,9 3,12l-14 4 9 34c-3,2 -11,4 -14,4l-10 -35 -15 4 -2 -12 43 -11zm-46 10l4 15 15 -3 9 35c3,-1 6,-2 9,-2 2,-1 3,-1 5,-2l4 -2 -9 -34 15 -4 -4 -15 -48 12z"/>
   <path class="fil2" d="M975 1403c9,-4 9,10 4,13 -4,2 -7,-1 -7,-4 -1,-4 1,-8 3,-9zm14 11c3,-9 -1,-14 -8,-17 -9,-2 -14,2 -16,8 -5,18 20,23 24,9z"/>
   <path class="fil2" d="M1334 1407c0,2 2,13 3,16 2,6 6,7 14,6 14,-2 8,-15 6,-26l-7 1c-1,6 4,12 2,18 -3,1 -4,2 -6,1 -3,-4 -4,-12 -4,-18l-8 2z"/>
   <path class="fil2" d="M1035 1418c-2,-1 -4,-1 -7,-2 -5,0 -4,0 -4,-4l13 1 1 -5 -20 -2 -4 24 20 3 1 -6 -13 -2 1 -4c5,0 7,1 11,1 0,0 0,0 0,0 0,-1 1,0 1,0l0 -4z"/>
   <path class="fil2" d="M1277 1429c0,-1 1,-3 1,-4 0,-1 0,-1 0,-2 1,-1 1,0 2,-1l2 7 -5 0zm-1 6l9 -1 1 4 8 -1 -11 -23 -8 1c-2,2 -7,21 -7,25l7 -1 1 -4z"/>
   <path class="fil2" d="M1222 1426l3 7 -5 1 2 -8zm-3 13l7 0c2,1 1,1 2,4l8 -1c-1,-3 -8,-21 -10,-24l-8 1 -8 24 7 0 2 -4z"/>
   <path class="fil2" d="M1076 1429c0,-2 2,-6 3,-8l1 8 -4 0zm-5 9c0,0 0,-1 0,-1 0,0 1,0 1,0l1 -3 8 1c2,3 0,3 3,4 1,0 5,0 6,0l-7 -24c-2,-1 -5,-1 -8,-1 -2,4 -10,19 -11,23l7 1z"/>
   <path class="fil1" d="M1020 1203c-46,0 -51,-17 -62,-22 9,24 33,30 57,25l5 -3z"/>
   <path class="fil1" d="M1342 1203l4 2c24,6 48,1 58,-24l-11 9c-18,11 -29,13 -51,13z"/>
   <path class="fil1" d="M1146 1477c8,-4 13,-4 17,-13l11 0 -1 50 -14 -1 1 -31c-4,2 -9,5 -14,5l0 -10zm-2 -1l0 14c6,-1 9,-3 14,-5l-1 30 18 1 1 -54 -15 0c-3,10 -14,11 -17,14z"/>
   <path class="fil2" d="M1290 1095c0,0 0,0 -1,0 1,0 1,1 2,3l4 5c2,4 4,5 6,8 9,12 22,25 36,31 3,2 7,3 10,2 -4,-2 -19,-13 -23,-17l-34 -32c0,0 0,0 0,0z"/>
   <path class="fil2" d="M1015 1144c0,0 -1,0 1,0 2,1 0,0 2,0 0,0 2,0 3,0 4,-1 9,-4 13,-7 13,-8 33,-30 39,-42l-5 3c-7,8 -15,15 -23,23 -7,6 -22,19 -30,23z"/>
   <path class="fil1" d="M1166 1163c7,0 9,2 15,2 6,0 8,-2 15,-2 1,-4 2,-6 2,-11 -7,2 -9,4 -17,4 -8,0 -10,-2 -17,-4 0,5 1,7 2,11z"/>
   <path class="fil2" d="M1413 1396l-2 -6 -22 5 1 6 7 -1c3,4 3,12 5,17 3,0 5,-1 7,-2l-4 -17 8 -2z"/>
   <path class="fil2" d="M999 1408c0,5 -3,14 -2,18 2,1 5,2 6,0l4 -17 7 2 1 -6 -22 -4c-2,7 -1,6 6,7z"/>
   <path class="fil2" d="M1050 1152c23,-3 44,-48 44,-49l-1 -1c-2,4 -7,10 -10,14 -8,11 -17,21 -28,31 -1,2 -5,4 -5,5z"/>
   <path class="fil2" d="M1306 1147c-10,-9 -27,-30 -35,-41l-3 -3c1,1 20,47 44,49 -1,-1 -4,-4 -6,-5z"/>
   <path class="fil2" d="M1085 1157c15,-4 31,-36 31,-50 -9,24 -31,48 -31,50z"/>
   <path class="fil2" d="M1277 1157c-1,-2 -23,-27 -31,-49 -1,13 17,45 31,49z"/>
   <path class="fil2" d="M1226 1112c-1,20 10,39 22,44 -8,-13 -11,-16 -18,-33 -1,-3 -2,-8 -4,-11z"/>
   <path class="fil2" d="M1416 1388c0,4 5,20 6,24l7 -2 -6 -23 -7 1z"/>
   <path class="fil2" d="M1117 1154c13,-9 20,-27 19,-42 -1,2 -3,8 -4,11 -2,4 -3,8 -6,12l-9 16c0,1 -3,4 -3,4l3 -1z"/>
   <polygon class="fil2" points="1173,1444 1180,1444 1180,1419 1173,1419 "/>
   <path class="fil1" d="M1342 1468c0,-1 0,-1 1,-1 1,-1 1,-1 2,-1 6,-1 6,1 6,4 -3,1 -5,2 -9,2l0 -4zm-3 -3l1 9c3,1 6,0 8,-1 3,0 5,-1 5,-4 1,-8 -8,-5 -14,-4z"/>
   <path class="fil1" d="M1292 1481l2 7 -4 0c0,-2 1,-5 2,-7zm-5 10l10 -1 -6 -16c-2,3 -3,13 -4,17z"/>
   <path class="fil1" d="M978 1414c-7,0 -4,-8 0,-9l2 1c1,4 0,6 -2,8zm-3 -11c-2,1 -4,5 -3,9 0,3 3,6 7,4 5,-3 5,-17 -4,-13z"/>
   <path class="fil2" d="M1160 1102c5,-1 8,-6 7,-13 -2,5 -3,7 -7,9 -4,-4 -2,-2 -4,-6 0,0 -1,-1 -1,-1l-1 -1c0,6 2,11 6,12z"/>
   <path class="fil1" d="M1045 1197c4,4 1,8 -2,7 -4,-1 -5,-7 2,-7zm-3 -1c-8,3 -3,13 4,10 6,-3 3,-14 -4,-10z"/>
   <path class="fil1" d="M1321 1198c4,10 -11,6 -4,-1l4 1zm-8 5c2,2 4,4 8,3 2,-1 4,-4 2,-8 -2,-5 -11,-5 -10,5z"/>
   <path class="fil2" d="M1174 1091c0,0 0,0 0,-1 0,6 2,11 6,12 4,-2 6,-5 7,-12 -4,4 -1,4 -7,7 -4,-2 -3,-2 -5,-5l-1 -1z"/>
   <path class="fil2" d="M1193 1090c0,6 3,10 7,12 4,-2 7,-6 6,-13 -2,5 -2,6 -6,8 -4,-1 -4,-4 -7,-7z"/>
   <path class="fil1" d="M1178 1300c8,2 9,-5 5,-8 -3,-2 -8,2 -5,8z"/>
   <path class="fil0" d="M916 1472c1,-4 0,-5 -3,-6 -2,-1 -4,-3 -6,-3 0,7 2,10 9,9z"/>
   <path class="fil1" d="M1174 1235c0,-4 1,-4 0,-5 -2,-2 -3,2 -5,4 -2,2 -1,0 -3,2 1,2 2,2 5,3l2 -4c2,2 2,2 2,4 1,0 1,-1 3,1l-1 -4c0,0 0,0 0,-1l2 -1c-1,0 -1,-1 -2,0 -3,1 1,0 -3,1z"/>
   <path class="fil1" d="M1287 1220c-4,-6 7,-6 3,0l-3 0zm4 2c4,-6 0,-11 -5,-8 -3,1 -4,10 5,8z"/>
   <path class="fil1" d="M1300 1207c1,1 0,-1 1,2 0,3 -1,0 -1,1 -5,3 -5,-5 0,-3zm-4 -2c-4,4 -1,10 4,8 4,-1 5,-10 -4,-8z"/>
   <path class="fil1" d="M1072 1220c-2,-4 1,-6 3,-4 2,1 1,4 -3,4zm0 -6c-2,1 -4,2 -3,6 1,2 4,3 7,2 4,-2 2,-11 -4,-8z"/>
   <path class="fil1" d="M1082 1232c-3,-4 0,-6 3,-4 0,2 0,2 -1,3l-2 1zm5 -5c-5,-4 -10,-1 -8,4 1,4 10,6 8,-4z"/>
   <path class="fil0" d="M1342 1468l0 4c4,0 6,-1 9,-2 0,-3 0,-5 -6,-4 -1,0 -1,0 -2,1 -1,0 -1,0 -1,1z"/>
   <path class="fil1" d="M1278 1231c-2,-3 0,-5 2,-4 3,2 1,5 -2,4zm0 -6c-2,1 -5,3 -3,6 1,2 3,4 6,2 5,-2 2,-10 -3,-8z"/>
   <path class="fil0" d="M978 1414c2,-2 3,-4 2,-8l-2 -1c-4,1 -7,9 0,9z"/>
   <path class="fil1" d="M1065 1207l1 4c-4,1 -4,0 -5,-2 0,-3 1,-1 1,-2l3 0zm-4 -2c0,0 -4,2 -1,6 1,2 3,3 6,2 5,-3 1,-12 -5,-8z"/>
   <path class="fil1" d="M1191 1243c2,-1 4,-1 5,-1 2,1 3,2 3,2 0,0 0,0 0,0l-3 -5c-2,-1 -2,-1 -5,-3l-3 2c-2,-1 -1,-2 -3,-2 0,5 4,1 6,7z"/>
   <path class="fil0" d="M1045 1197c-7,0 -6,6 -2,7 3,1 6,-3 2,-7z"/>
   <path class="fil0" d="M1321 1198l-4 -1c-7,7 8,11 4,1z"/>
   <path class="fil1" d="M1193 1438c3,0 5,0 7,-1 1,-5 -2,-4 -7,-3l0 4z"/>
   <path class="fil1" d="M1205 1186c2,-2 4,-5 5,-8l-4 -2c-2,2 -2,6 -1,10z"/>
   <path class="fil2" d="M1188 1116c4,-1 6,-4 6,-9 -2,3 -2,4 -5,5 -3,-1 -3,-2 -4,-5 -1,4 1,7 3,9z"/>
   <path class="fil2" d="M1181 1130c3,-2 5,-4 5,-9 -1,3 -3,4 -5,5 -3,-2 -2,-1 -5,-4 1,5 3,6 5,8z"/>
   <path class="fil1" d="M1101 1426c5,0 7,1 7,-3 -2,-2 -3,-2 -6,-2l-1 5z"/>
   <path class="fil2" d="M1173 1113c-3,-1 -4,-3 -5,-6 -1,4 2,7 4,9 3,-1 6,-5 5,-9 -2,3 -2,3 -4,6z"/>
   <polygon class="fil1" points="1193,1429 1199,1428 1199,1425 1193,1424 "/>
   <path class="fil1" d="M1277 1429l5 0 -2 -7c-1,1 -1,0 -2,1 0,1 0,1 0,2 0,1 -1,3 -1,4z"/>
   <path class="fil0" d="M914 1445c0,2 0,2 2,3 2,1 3,2 4,2 0,-4 -2,-6 -6,-5z"/>
   <path class="fil1" d="M1076 1429l4 0 -1 -8c-1,2 -3,6 -3,8z"/>
   <polygon class="fil1" points="1220,1434 1225,1433 1222,1426 "/>
   <path class="fil0" d="M1292 1481c-1,2 -2,5 -2,7l4 0 -2 -7z"/>
   <path class="fil0" d="M1062 1207c0,1 -1,-1 -1,2 1,2 1,3 5,2l-1 -4 -3 0z"/>
   <path class="fil0" d="M1072 1220c4,0 5,-3 3,-4 -2,-2 -5,0 -3,4z"/>
   <path class="fil0" d="M1300 1210c0,-1 1,2 1,-1 -1,-3 0,-1 -1,-2 -5,-2 -5,6 0,3z"/>
   <path class="fil0" d="M1278 1231c3,1 5,-2 2,-4 -2,-1 -4,1 -2,4z"/>
   <path class="fil0" d="M1082 1232l2 -1c1,-1 1,-1 1,-3 -3,-2 -6,0 -3,4z"/>
   <path class="fil0" d="M1287 1220l3 0c4,-6 -7,-6 -3,0z"/>
   <path class="fil2" d="M1157 1031c6,1 5,0 8,2l0 -4 -8 2z"/>
  </g>
 </g>
</svg>
