<?xml version="1.0" encoding="UTF-8"?>
<!DOCTYPE svg PUBLIC "-//W3C//DTD SVG 1.1//EN" "http://www.w3.org/Graphics/SVG/1.1/DTD/svg11.dtd">
<!-- Creator: CorelDRAW X7 -->
<svg xmlns="http://www.w3.org/2000/svg" xml:space="preserve" width="2362px" height="2362px" version="1.1" style="shape-rendering:geometricPrecision; text-rendering:geometricPrecision; image-rendering:optimizeQuality; fill-rule:evenodd; clip-rule:evenodd"
viewBox="0 0 2362 2362"
 xmlns:xlink="http://www.w3.org/1999/xlink">
 <defs>
  <style type="text/css">
   <![CDATA[
    .fil1 {fill:black}
    .fil2 {fill:#2D3989}
    .fil3 {fill:#35324B}
    .fil7 {fill:#777777}
    .fil5 {fill:#928EB4}
    .fil4 {fill:#B1AEC7}
    .fil6 {fill:#E1DDF7}
    .fil0 {fill:white}
   ]]>
  </style>
 </defs>
 <g id="Layer_x0020_1">
  <metadata id="CorelCorpID_0Corel-Layer"/>
  <g id="_2134434955280">
   <path class="fil0" d="M1247 1146c-8,-1 -14,-3 -21,0 -2,8 -1,9 -1,17 0,17 9,19 23,23 39,12 86,5 97,39 8,23 -2,62 6,86 12,39 32,35 44,45 0,8 -4,9 -12,10 -21,5 -30,4 -51,0 -16,-3 -6,-15 -9,-34 -3,-26 -13,-51 -21,-75 -6,-18 -19,-16 -46,-11 -56,10 -37,14 -47,17 -7,2 -27,-15 -39,2l-41 61c-8,16 -4,13 -18,31 -19,23 -48,10 -87,14 -35,4 -44,37 -69,31 -14,-31 31,-58 44,-59 30,-4 33,-11 54,-16 10,-3 20,0 29,-5 22,-15 15,-97 17,-123 2,-19 16,-28 18,-52 1,-23 -4,-43 -1,-68 4,-31 30,-26 11,-46 -39,-44 10,-79 41,-58 14,10 11,35 22,47 8,8 15,3 27,9 6,3 29,28 35,34 37,46 21,21 56,48 11,8 28,24 42,28 10,3 19,5 23,12 5,6 6,21 5,29 -23,12 -42,-12 -62,-20 -10,-3 -60,-16 -69,-16zm88 -194c24,-5 41,11 44,30 5,23 -11,41 -30,44 -54,6 -60,-64 -14,-74zm130 465c1,-13 -7,-28 -3,-39 1,-6 13,-22 17,-29 80,-144 45,-331 -83,-432 -13,-10 -21,-12 -22,-23 -3,-21 8,-37 -8,-32 -8,3 -25,13 -34,12 -5,0 -29,-11 -34,-13 -106,-40 -238,-19 -324,50 -19,15 -33,27 -48,44 -5,5 -16,21 -22,24 -11,4 -29,1 -39,6 -3,21 16,34 5,57 -25,52 -35,120 -28,178 6,57 26,109 56,153 18,27 3,25 4,55 14,2 30,-10 41,-1 9,7 16,15 26,22 10,7 18,14 29,21 105,67 230,70 342,14 16,-8 46,-28 58,-39 7,-6 18,-18 27,-21 13,-4 30,0 40,-7z"/>
   <path class="fil0" d="M1189 1561l2 -1c2,-2 2,-1 4,-4 0,-1 1,-2 1,-2 2,-2 1,-2 2,-3 0,-2 -1,-1 1,-1 0,-2 0,-2 2,-1l6 -2c3,3 1,1 2,4l1 50c1,7 3,5 3,9 1,7 1,1 -1,3 -4,3 -16,3 -22,1 -1,-12 5,1 3,-19 0,-7 -1,-16 0,-23 -1,0 -4,-1 -5,-1 -3,-2 0,1 -2,-2 -1,0 -3,2 -1,-4 0,-1 2,-3 4,-4zm-63 34l-1 9c2,0 4,-2 2,9l-12 -1c-6,-2 -7,-3 -3,-10 5,-6 1,-4 4,-8 0,-8 2,-16 3,-24 2,-23 -1,-13 -1,-20 1,-6 5,-5 16,-3l6 22c6,-14 -8,-22 7,-21 15,1 5,8 4,15 -2,11 -3,45 -7,51 -16,-2 -7,-6 -15,-24 -3,-5 -2,-3 -3,-3l0 8zm246 -54c-3,3 4,0 -2,2 4,3 3,2 4,7l4 8c3,3 -1,-2 3,2l2 4c11,-5 5,-2 10,-6l2 -1c2,6 2,5 -3,8 -4,2 -6,3 -11,2l-2 0c0,5 0,3 -2,5 0,3 0,0 -3,2 -6,1 -10,4 -12,4 -8,2 -4,-6 -9,-16 -2,-4 -5,-9 -7,-13 -2,-5 -7,-18 -11,-21 -3,-3 -2,1 -4,-6 3,-5 23,-15 32,-13 12,2 18,14 13,27 7,3 7,2 11,9 8,12 7,8 5,13 -4,-3 -2,1 -6,-9l-7 -8c-3,-1 -3,-1 -7,0zm-103 25l8 -2c24,-5 13,-1 17,18 2,6 4,13 3,20l-11 -1c-9,12 -28,5 -34,-23 -3,-14 -2,-35 13,-38l15 -3c3,6 7,12 7,20 -16,1 -6,-9 -20,-9 -1,8 1,11 2,18zm-203 -24l-2 1 -1 3 -14 35c-1,6 1,8 -2,13 -6,0 -17,-5 -21,-8 2,-9 5,-1 8,-13l-1 -3c-3,6 1,2 -5,4l-5 -2 -2 -9c0,4 -2,6 -2,9 -1,5 0,5 -1,11 -7,0 -10,-1 -14,-5 1,-8 3,-3 7,-12 2,-5 3,-8 5,-14 4,-9 10,-19 8,-30l1 -3c1,-1 -3,-2 5,-1 3,0 2,1 3,2l4 1c4,1 5,0 7,3l-1 5c0,2 0,5 0,7 1,4 -1,1 2,3 0,-4 0,-2 2,-2l1 -2 1 -2 4 -7 5 3 4 2 3 1 4 1c2,-1 1,-1 1,2l-1 3 3 1 2 -4c2,-1 0,-1 3,0 4,0 2,0 3,1 9,1 11,4 18,5 6,1 8,0 13,3 -1,6 -3,6 -6,9 -4,3 -6,5 -6,11 -1,11 2,23 0,34 3,3 3,5 1,10 -4,0 -5,0 -9,-2l-27 -6 -6 -1c0,-6 -1,-4 2,-8l4 -6 8 -37 1 -6c-2,-1 0,0 -2,-2 0,0 -1,-2 -2,-2 -1,4 1,2 -3,4zm-31 27l-1 -2c0,6 0,1 2,3l-1 -1zm290 16c0,-5 1,-2 -2,-5 -4,1 -2,0 -4,2 2,10 3,-1 5,10l-6 4c-11,3 -7,-1 -12,-32 -1,-4 -2,-11 -3,-16 -2,-11 -5,-6 -6,-15 6,-2 14,-5 20,-6l22 43c2,4 2,4 5,7 3,3 3,0 4,7 -4,3 -6,3 -11,5 -9,4 -10,5 -12,-4zm-322 -29l-2 2 0 1c-6,21 -24,7 -27,6 -6,-3 2,1 -2,-1 -3,-2 0,1 -2,-3l4 -14 1 -4c7,-1 8,-1 9,4 0,1 -1,10 -1,13l4 -2c-2,-21 -6,-53 18,-53l8 5c5,2 -5,-2 2,0 0,1 3,1 4,1 0,7 -2,15 -6,20 -12,0 -3,-8 -8,-16 -2,5 -1,33 -2,41zm420 -26c1,1 2,-2 2,5 -8,12 -13,-2 -16,-7l-3 -5c0,0 0,0 0,-1l-3 -3c-1,-2 -1,-2 -3,-4l-11 -22c-3,2 -9,6 -12,7 0,5 -1,2 2,2 6,1 3,0 5,4 0,0 0,0 0,1 0,0 0,0 1,0l7 13c3,5 7,11 9,15l3 3c4,6 3,8 13,7 16,-4 6,-13 11,-20 3,11 4,21 -10,23 -4,4 -9,2 -13,-2 -4,-3 -6,-7 -8,-11l-11 -17c0,-1 -1,-1 -1,-1l-2 -1c0,-1 0,-1 0,-1 -2,-3 0,0 -2,-3l0 -1 -3 -3c-2,-2 -1,-1 -3,-2 -3,-3 -3,-2 -2,-7 3,-3 1,-1 5,-3 4,-3 20,-14 25,-14 4,6 0,4 12,23 14,23 12,18 9,23 -3,-7 -14,-24 -19,-31 -4,-7 -3,-9 -5,-11l-5 4 4 2c4,4 23,35 24,38zm16 -56l-1 -1c2,0 2,0 1,2l1 2c2,-1 2,-1 1,2l2 1c2,0 2,-1 1,2 3,-1 2,-1 1,2 1,0 2,1 3,2 2,2 0,1 2,3 2,-1 1,-1 1,1l0 3c3,-1 2,-1 2,1 2,-1 1,-1 1,2 2,-1 1,-1 1,2 4,2 4,4 7,6 5,4 4,0 7,6 -1,6 -7,8 -11,12 -10,8 -8,0 -10,-6 -3,0 -3,1 -2,-2l-4 -5c-3,1 -2,1 -1,-2 -2,0 -2,1 -1,-1 -3,0 -2,0 -1,-2 -2,0 -2,0 -1,-2 -4,-1 -2,0 -4,-3 -2,0 -1,0 -1,-2 -1,-1 -1,0 -2,-2 -3,-3 2,3 -1,-1l-6 -7c0,0 -3,2 -3,2 1,2 1,2 -1,1 -2,2 2,1 -3,2 -4,1 -1,0 -2,-1 -2,0 -2,0 -1,-2 -2,0 -1,1 -2,-2l0 0c-2,0 -2,1 -1,-2l-5 -5 2 -3 1 -1c0,-2 0,-2 2,-1l2 -3c-1,-2 -1,-1 1,-1l2 -1 2 -1c0,-2 -1,-1 2,-1l-1 -1c0,-2 0,-2 2,-1 0,-2 0,-2 2,-1l7 -5c0,-3 -1,-2 2,-1 1,-4 2,-3 4,-2 3,0 2,-1 2,1 2,0 2,0 1,2 2,0 2,-1 1,1 3,0 2,-1 1,2 3,0 2,-1 2,1 1,1 1,1 2,2 2,3 0,1 1,2l-2 4 -5 2zm-285 -643c49,-6 116,7 155,23 12,5 20,12 34,6 8,-3 25,-12 35,-9 12,3 6,25 6,38 1,8 5,10 10,13 37,27 73,69 94,108 62,113 59,245 -7,355 -8,15 -12,12 -7,34 10,47 -31,25 -50,38l-24 21c-55,42 -118,70 -194,75 -104,7 -195,-29 -266,-94 -16,-15 -58,25 -47,-30 5,-23 3,-18 -6,-33 -6,-10 -11,-18 -17,-28 -48,-87 -54,-202 -17,-295 5,-12 12,-20 8,-35 -3,-9 -10,-26 -6,-36 5,-11 20,-11 34,-11 15,-1 12,-4 26,-20 27,-31 57,-56 100,-80 48,-26 85,-33 139,-40zm-251 21c0,-2 -1,-2 2,-1 -1,-3 -1,-2 2,-1l1 -1c1,-2 -2,0 2,-2 0,-2 -1,-2 1,-1 0,-3 0,-2 2,-2 0,-2 -1,-1 2,-1l2 -2c-1,-2 -1,-1 1,-1 0,-2 -1,-2 2,-1 1,-1 0,-1 2,-2 4,-3 0,0 2,-1l3 0 9 -1 3 1c2,0 2,-1 2,1 2,0 2,-1 1,2 2,-1 2,-1 1,1 3,0 2,-1 2,2l0 3c2,4 1,4 1,9 5,0 5,-1 9,2 5,1 7,5 9,10l1 2c5,11 -1,17 -6,22 -5,4 -13,12 -19,12 -3,-6 0,-8 -6,-12l-19 -22c-3,-3 -3,-5 -6,-8l-2 1c-3,0 -3,1 -2,-1 -3,0 -2,1 -2,-2l0 -2c-1,-5 -2,-4 0,-4zm54 -35l2 -3c2,-5 2,-5 6,-8l3 0c15,-3 24,7 29,16 6,8 12,20 8,33 -1,7 0,6 -6,8 -6,2 -7,3 -13,1 -7,-1 -12,-6 -17,-11 -2,-3 -2,-3 -3,-7 -6,-5 -9,-18 -9,-29zm83 5c5,-4 1,-2 6,-3 1,3 3,9 4,13 -2,8 -5,7 -13,11 -1,0 -14,6 -15,4 0,0 0,0 -1,0 -2,-5 1,-6 -3,-14l-13 -29c-4,-10 -6,-4 -8,-12 4,-4 5,-3 10,-5 1,-1 5,-3 6,-3 10,-3 5,6 8,13 1,4 14,33 17,36 0,-6 -1,-7 2,-11zm166 -18c-3,6 -2,6 -9,9 -30,6 -30,-34 -21,-53 3,-6 4,-8 11,-10l10 0 5 2c2,-1 2,-1 2,1 2,0 1,0 1,2l4 7c5,20 3,25 -3,42zm-114 18c-2,1 -15,6 -18,5 -8,-2 3,-15 -9,-9 0,9 4,0 4,11 -3,2 -8,4 -13,3l-5 -47c-2,-12 -4,-4 -5,-14 5,-2 12,-5 19,-5 8,12 16,38 25,49 3,4 2,0 2,7zm186 -3c0,3 1,4 -1,8 -5,1 -15,-3 -21,-5 -1,-11 2,2 8,-19 1,-7 3,-13 5,-20 1,-4 3,-8 2,-12 0,-8 -7,-13 23,-4 -1,7 -1,4 -4,8 -3,4 -9,30 -11,36 -1,5 -1,4 -1,8zm-34 -15c8,-6 11,6 3,15 -6,1 -24,-2 -29,-4 0,-9 3,-3 5,-14 1,-5 2,-11 3,-17 1,-5 2,-11 3,-16 1,-10 -3,-6 -1,-14 6,-1 17,0 21,3 5,5 -1,5 -3,11 -1,2 -2,11 -3,15 -1,6 -5,24 -3,28 2,-2 3,-6 4,-7zm-120 -38l-1 -3c-3,-3 -5,-3 -4,-10l5 -1c7,0 15,-3 16,2 1,5 -3,7 4,24 6,-29 -2,-13 0,-27l13 -1c0,3 -6,59 -7,63 -1,0 -2,1 -3,2 -1,0 -1,0 -1,0l-8 0 -14 -49zm33 -40c-73,6 -125,20 -181,48 -100,50 -177,134 -219,237 -20,50 -39,132 -32,195 3,37 6,64 16,98 39,139 137,247 269,301 53,23 128,38 196,33 143,-10 242,-74 310,-146 70,-75 128,-188 121,-336 -7,-146 -91,-272 -176,-335 -35,-25 -67,-46 -109,-63 -57,-21 -125,-38 -195,-32z"/>
   <path class="fil1" d="M1260 1116c-7,6 -14,0 -22,-4 -6,-3 -19,-7 -14,-18 5,-10 35,13 36,22zm-35 47c-1,-2 0,3 -1,-3 -1,-1 -1,-4 -1,-5 0,-4 1,-7 2,-10 8,-3 17,-3 22,1 9,0 59,13 69,16 20,8 39,32 62,20 1,-8 0,-23 -5,-29 -4,-7 -13,-9 -23,-12 -14,-4 -31,-20 -42,-28 -35,-27 -19,-2 -56,-48 -6,-6 -29,-31 -35,-34 -12,-6 -19,-1 -27,-9 -11,-12 -8,-37 -22,-47 -31,-21 -80,14 -41,58 19,20 -7,15 -11,46 -3,25 2,45 1,68 -2,24 -16,33 -18,52 -2,26 5,108 -17,123 -9,5 -19,2 -29,5 -21,5 -24,12 -54,16 -13,1 -58,28 -44,59 25,6 34,-27 69,-31 39,-4 68,9 87,-14 14,-18 10,-15 18,-31l41 -61c12,-17 32,0 39,-2 10,-3 -9,-7 47,-17 27,-5 40,-7 46,11 8,24 18,49 21,75 3,19 -7,31 9,34 21,4 30,5 51,0 8,-1 12,-2 12,-10 -12,-10 -32,-6 -44,-45 -8,-24 2,-63 -6,-86 -11,-34 -58,-27 -97,-39 -14,-4 -23,-6 -23,-23z"/>
   <path class="fil2" d="M1157 726c70,-6 138,11 195,32 42,17 74,38 109,63 85,63 169,189 176,335 7,148 -51,261 -121,336 -68,72 -167,136 -310,146 -68,5 -143,-10 -196,-33 -132,-54 -230,-162 -269,-301 -10,-34 -13,-61 -16,-98 -7,-63 12,-145 32,-195 42,-103 119,-187 219,-237 56,-28 108,-42 181,-48zm43 -17l6 0 0 0 0 2 9 1c3,1 22,2 27,3 42,5 84,17 123,33l12 5c27,13 84,45 107,68l4 4c2,1 2,2 4,3l30 28c2,2 3,4 6,7 14,15 26,32 39,49l14 22c7,10 14,20 19,32l14 30c14,29 25,67 30,99 9,58 11,100 3,160l-24 91c-9,26 -23,57 -38,79 -3,4 -3,5 -6,9 -2,4 -3,5 -5,8l-18 26c-10,14 -21,27 -33,38 -5,5 -9,9 -14,15 -27,26 -84,69 -120,84 -7,3 -12,6 -19,9 -17,6 -36,14 -54,20 -27,9 -54,12 -83,16 -34,5 -75,4 -109,-1 -34,-4 -64,-9 -95,-21 -14,-5 -28,-9 -41,-16 -2,-1 -4,-2 -6,-3l-33 -17c-4,-2 -6,-3 -10,-5 -14,-9 -40,-26 -51,-36l-23 -20c-3,-3 -5,-3 -8,-6 -18,-17 -33,-35 -48,-54l-18 -25c-12,-18 -23,-36 -33,-55 -20,-37 -30,-78 -40,-118 -12,-54 -10,-131 1,-183 12,-63 37,-122 73,-174l51 -63c5,-5 3,-4 8,-8l46 -39c22,-17 47,-33 72,-45 4,-2 7,-3 10,-5 5,-2 4,-3 10,-5 10,-2 12,-5 21,-8 8,-2 13,-5 21,-7 46,-12 40,-14 94,-21 8,-2 18,-3 25,-3 1,0 4,0 4,-1 4,-1 2,1 4,-2 12,0 8,1 11,1 4,2 21,2 25,0 4,-1 -3,0 5,-1 0,0 1,0 1,0z"/>
   <path class="fil2" d="M1465 1417c-10,7 -27,3 -40,7 -9,3 -20,15 -27,21 -12,11 -42,31 -58,39 -112,56 -237,53 -342,-14 -11,-7 -19,-14 -29,-21 -10,-7 -17,-15 -26,-22 -11,-9 -27,3 -41,1 -1,-30 14,-28 -4,-55 -30,-44 -50,-96 -56,-153 -7,-58 3,-126 28,-178 11,-23 -8,-36 -5,-57 10,-5 28,-2 39,-6 6,-3 17,-19 22,-24 15,-17 29,-29 48,-44 86,-69 218,-90 324,-50 5,2 29,13 34,13 9,1 26,-9 34,-12 16,-5 5,11 8,32 1,11 9,13 22,23 128,101 163,288 83,432 -4,7 -16,23 -17,29 -4,11 4,26 3,39zm-311 -586c-54,7 -91,14 -139,40 -43,24 -73,49 -100,80 -14,16 -11,19 -26,20 -14,0 -29,0 -34,11 -4,10 3,27 6,36 4,15 -3,23 -8,35 -37,93 -31,208 17,295 6,10 11,18 17,28 9,15 11,10 6,33 -11,55 31,15 47,30 71,65 162,101 266,94 76,-5 139,-33 194,-75l24 -21c19,-13 60,9 50,-38 -5,-22 -1,-19 7,-34 66,-110 69,-242 7,-355 -21,-39 -57,-81 -94,-108 -5,-3 -9,-5 -10,-13 0,-13 6,-35 -6,-38 -10,-3 -27,6 -35,9 -14,6 -22,-1 -34,-6 -39,-16 -106,-29 -155,-23z"/>
   <path class="fil1" d="M1335 952c-46,10 -40,80 14,74 19,-3 35,-21 30,-44 -3,-19 -20,-35 -44,-30z"/>
   <path class="fil3" d="M1031 1523l3 0 6 0 -3 -2 -4 -1 -8 -1 -1 3c2,11 -4,21 -8,30 -2,6 -3,9 -5,14 -4,9 -6,4 -7,12 4,4 7,5 14,5 1,-6 0,-6 1,-11 0,-3 2,-5 2,-9l3 -5 0 14c9,2 4,2 14,-9 0,5 0,3 -3,6l1 1 -2 3c-3,12 -6,4 -8,13 4,3 15,8 21,8 3,-5 1,-7 2,-13l14 -35 1 -3c-1,-3 -1,-2 2,-1l1 -2c3,-3 1,4 2,-2 0,0 0,0 0,0l1 -3c-2,0 -2,0 -1,-2l-4 -1 -3 -1 -4 -2 -6 -1c-1,6 1,-1 -1,3 0,0 -2,1 -2,2l-1 2c1,3 2,3 -1,2l-2 2 0 4c-5,-4 -4,5 -4,-7l2 -7 1 -5 -3 -1 -3 3c1,0 6,-1 1,4l-1 19c1,2 -2,5 4,0 3,-3 1,-7 7,-10l1 -2 2 -2 1 -5 3 3 4 0c5,1 5,0 6,4 -1,1 1,0 -2,2 -2,2 -1,1 -3,2 -4,11 -17,39 -16,50l-14 -6c2,-4 2,-1 5,-7l10 -28c-1,-4 1,-2 -1,-4 -2,7 -2,3 -8,12 -2,4 0,2 -3,4 -4,3 -3,5 -7,7 1,-9 1,-25 3,-32 -4,3 -16,33 -15,43l-6 -3c8,-12 11,-30 19,-45l1 -3 -1 -4 0 -4 3 2z"/>
   <path class="fil3" d="M1269 1566c-1,-7 -3,-10 -2,-18 14,0 4,10 20,9 0,-8 -4,-14 -7,-20l-15 3c-15,3 -16,24 -13,38 6,28 25,35 34,23l11 1c1,-7 -1,-14 -3,-20 -4,-19 7,-23 -17,-18l0 3 13 -2c-1,9 -1,8 1,17 1,5 3,13 2,17l-8 -2c0,0 -1,0 -1,1 0,0 0,0 -1,0 -3,4 -2,4 -9,5 -11,-4 -19,-17 -20,-33 -1,-11 1,-26 13,-27 4,0 3,1 7,0 4,-2 -1,0 4,-3l6 13c-8,-2 -7,-13 -19,-8 -5,14 7,34 6,49 2,3 1,2 2,6 3,-4 4,1 1,-12 -1,-4 -2,-8 -2,-12l-2 -3c3,-2 0,0 2,-1l2 -1c0,0 1,0 2,0l-2 -2c-1,0 -1,0 -1,0 0,-1 -1,-1 -1,-1 0,0 -1,0 -1,0 -3,-2 1,2 -2,-2zm12 26l-3 -14c-2,-1 -3,3 -1,-4l-1 -2 -2 3 5 20c-1,3 -2,3 -5,6l7 0 0 -9z"/>
   <path class="fil3" d="M1145 1564c0,-9 1,-6 -2,-12 3,-2 -1,-1 4,-1 7,1 3,1 4,2l0 1c1,2 2,1 -1,1 0,2 1,2 -1,2 -1,8 -3,18 -4,28 0,2 -3,28 -4,25 0,0 0,1 -1,1 -4,-3 -6,-14 -7,-19l-5 -16c0,-1 -1,-2 -1,-3 0,0 -1,-1 -1,-1 0,-1 0,-1 -1,-1 -2,5 -2,13 -3,19 -1,10 -2,11 2,18l-9 0c1,-6 3,1 4,-13 1,-6 1,-10 2,-16 1,-5 1,-10 2,-16 1,-10 0,-7 -1,-14 12,0 9,3 13,14 1,5 4,19 7,21l3 -20zm-29 30c0,3 0,5 -1,8 -3,4 -3,0 -4,8 4,1 10,2 16,1 0,-3 0,-3 -1,-5 0,0 0,-1 0,-1 0,0 -5,-5 0,-10l0 -8c1,0 0,-2 3,3 8,18 -1,22 15,24 4,-6 5,-40 7,-51 1,-7 11,-14 -4,-15 -15,-1 -1,7 -7,21l-6 -22c-11,-2 -15,-3 -16,3 0,7 3,-3 1,20 -1,8 -3,16 -3,24z"/>
   <path class="fil3" d="M1083 1585c3,13 0,10 -1,12 -1,-2 -4,4 -2,-6 0,-2 2,-5 3,-6zm14 13l2 5 -4 4c0,0 3,-1 3,-1l1 -8c2,-11 -1,-23 0,-34 0,-6 2,-8 6,-11 3,-3 5,-3 6,-9 -5,-3 -7,-2 -13,-3 -7,-1 -9,-4 -18,-5l-5 -1c-3,3 0,-3 -3,4l1 3c0,0 0,1 0,1 1,1 1,3 -1,5l-8 37 -3 8c5,-1 2,2 6,-8 1,-4 0,-2 1,-3 2,-14 10,-30 7,-43 7,0 14,2 17,4 -6,5 -4,4 -6,12l-7 30c-4,16 4,16 -13,12 -6,-1 -3,0 -7,-5 0,1 0,3 0,4l5 4 27 6 4 0 -5 -4 -6 -1c6,-17 -2,-26 2,-33 8,-13 10,-7 14,-23 1,0 1,-1 1,-1 4,1 4,0 6,3 -11,10 -12,10 -12,20 1,11 1,21 2,31zm-8 -40c-1,-9 3,-9 6,-13 3,6 -3,9 -6,13z"/>
   <path class="fil0" d="M1370 1571l4 -3c-5,-3 -2,-1 -4,-5l-8 -18c-4,-3 -2,-1 -4,-4 0,-1 -1,-4 -2,-5 -3,-7 -7,-12 -8,-20 9,-1 9,-1 12,6 2,4 5,8 6,12 0,0 0,1 0,1l2 2c0,0 0,1 0,1 0,0 1,1 1,1l6 -9c0,-11 -6,-18 -16,-18 -6,0 -19,8 -25,10 3,4 1,1 3,3 5,5 20,35 22,42 1,2 1,3 1,4 0,1 1,1 1,2l9 -2z"/>
   <path class="fil3" d="M1416 1525l6 8 -6 5 7 -1c2,-5 1,-2 0,-7 -1,-3 -20,-34 -24,-38l-4 -2 5 -4c2,2 1,4 5,11 5,7 16,24 19,31 3,-5 5,0 -9,-23 -12,-19 -8,-17 -12,-23 -5,0 -21,11 -25,14 -6,5 -8,9 3,10 0,4 -1,2 0,5l0 1 5 6 11 17c0,0 1,0 1,1l5 9c2,-3 4,1 1,-5 0,0 -2,-4 -3,-5 -2,-4 -6,-10 -9,-15l-10 -14c0,0 0,-1 -1,-1l-1 -1c0,-1 -1,-1 -1,-2 -3,0 -2,3 -2,-2 3,-1 9,-5 12,-7l11 22c3,0 2,-1 2,2 5,-3 0,0 3,-4 -3,-3 -4,-6 -7,-9 0,0 -2,-2 -3,-4 -4,-7 0,-5 1,-6 3,2 8,11 11,15 1,3 2,4 4,8 2,3 4,5 5,8zm-10 -2l3 5c7,6 2,6 8,8l-2 -6 -6 -9c-5,-7 0,-2 -5,-6 1,4 1,5 2,8zm12 25c14,-2 13,-12 10,-23 -5,7 5,16 -11,20 -1,2 -2,2 -6,1 -1,0 -2,-1 -3,-1 -3,-1 0,-1 -4,1 5,2 8,3 14,2z"/>
   <path class="fil3" d="M1066 804c2,6 2,4 -2,6 -2,-4 -2,-7 -2,-12 0,1 3,4 4,6zm-6 8c0,0 1,0 1,1 1,4 -3,-3 2,0l7 -2 0 -5 -15 -31c-1,10 4,25 5,37zm16 5l-5 -4 -11 3c3,12 3,6 5,11l-6 2c0,-11 -3,-31 -5,-44 -1,-6 -2,-8 -4,-13l12 -3c5,7 9,17 13,26l14 26 -14 3 1 -7zm-30 -46c1,10 3,2 5,14l5 47c5,1 10,-1 13,-3 0,-11 -4,-2 -4,-11 12,-6 1,7 9,9 3,1 16,-4 18,-5 0,-7 1,-3 -2,-7 -9,-11 -17,-37 -25,-49 -7,0 -14,3 -19,5z"/>
   <path class="fil3" d="M1375 1530l-3 6c-2,3 -2,-2 -1,3l1 2c4,-1 4,-1 7,0l7 8c4,10 2,6 6,9 2,-5 3,-1 -5,-13 -4,-7 -4,-6 -11,-9 5,-13 -1,-25 -13,-27 -9,-2 -29,8 -32,13 2,7 1,3 4,6 4,3 9,16 11,21 2,4 5,9 7,13 5,10 1,18 9,16 2,0 6,-3 12,-4l3 -4c3,-7 -4,-2 -5,-11l-6 -12 1 -1c4,-1 3,-1 2,2l0 1c3,0 2,-3 2,2l3 7c1,1 0,0 2,2l1 3c4,4 2,6 3,4 0,-1 1,0 1,0 5,1 7,0 11,-2 5,-3 5,-2 3,-8l-2 1c-5,4 1,1 -10,6l-2 -1c-5,-5 2,4 -1,-2 -2,0 -2,4 -2,-3l-4 -8 -6 -7 -6 2 8 18c0,0 1,1 1,1 4,3 4,6 4,6l-5 1 -9 2c0,-1 -1,-1 -1,-2 0,-1 0,-2 -1,-4 -2,-7 -17,-37 -22,-42 -2,-2 0,1 -3,-3 6,-2 19,-10 25,-10 10,0 16,7 16,18z"/>
   <path class="fil3" d="M1314 1559c3,4 8,9 5,14 -3,-1 -3,0 -4,-6 0,-3 -1,-5 -1,-8zm15 20c-1,-1 -1,2 -2,-1 0,0 0,0 -1,0 0,7 2,3 -1,7 2,9 3,8 12,4 5,-2 7,-2 11,-5 -1,-7 -1,-4 -4,-7 -3,-3 -3,-3 -5,-7l-22 -43c-6,1 -14,4 -20,6 1,9 4,4 6,15 1,5 2,12 3,16 5,31 1,35 12,32l6 -4c-2,-11 -3,0 -5,-10 2,-2 0,-1 4,-2l-7 2 -1 4c2,2 4,3 5,5l-7 3 0 -3c-1,-5 -1,-9 -2,-14 0,-6 -2,-11 -1,-17 2,4 3,10 4,16 5,1 7,-1 11,-3l-3 -7c-5,-8 -9,-21 -15,-27 0,8 4,13 3,21 -6,-7 0,-13 -9,-25l14 -4 25 46c2,4 2,2 4,6l-15 5 0 -9z"/>
   <path class="fil0" d="M1149 1557c-1,-3 -2,-3 1,-2 0,-2 -1,-2 1,-1l0 -1 -7 -1c2,4 4,6 1,12l-3 20c-3,-2 -6,-16 -7,-21 -4,-11 -1,-14 -13,-14 1,7 2,4 1,14 -1,6 -1,11 -2,16 -1,6 -1,10 -2,16 -1,14 -3,7 -4,13l9 0c-4,-7 -3,-8 -2,-18 1,-6 1,-14 3,-19 1,0 1,0 1,1 0,0 1,1 1,1 0,1 1,2 1,3l5 16c1,5 3,16 7,19 1,0 1,-1 1,-1 1,3 4,-23 4,-25 1,-10 3,-20 4,-28z"/>
   <path class="fil3" d="M1126 762l-3 -2 -2 0 2 3 1 3 14 49 8 0c0,0 0,0 1,0 1,-1 2,-2 3,-2 1,-4 7,-60 7,-63l-13 1c-2,14 6,-2 0,27 -7,-17 -3,-19 -4,-24 -1,-5 -9,-2 -16,-2 -4,2 -4,2 -4,8l1 -2c0,-1 0,-1 1,-1l1 -2c3,-2 3,-1 5,0l9 0c-3,11 5,29 8,41 3,-13 6,-32 2,-42l7 -1c-3,11 -3,20 -5,33 -3,23 2,25 -8,26l-15 -50z"/>
   <path class="fil0" d="M1322 1566c1,0 1,0 1,1l6 12 0 9 15 -5c-2,-4 -2,-2 -4,-6l-25 -46 -14 4c9,12 3,18 9,25 1,-8 -3,-13 -3,-21 6,6 10,19 15,27zm-11 11l3 5 0 -6c-1,-6 -2,-12 -4,-16 -1,6 1,11 1,17zm2 14l0 3 7 -3c-1,-2 -3,-3 -5,-5l1 -4 -3 1c1,2 1,3 1,5 0,3 -1,2 -1,3z"/>
   <path class="fil3" d="M1192 804c0,0 0,1 0,1l-4 4c5,0 4,0 6,-2 0,0 0,-1 0,-1 1,-1 1,-1 1,-1l1 -49c0,0 -3,-1 -3,-2 3,-2 -5,-3 4,-1 3,0 3,3 9,7l-1 -5 -1 -2c-3,1 -2,1 -2,-1 -4,-1 -2,0 -5,-2l-10 0 -6 4c0,0 0,0 0,0l-5 6c-9,19 -9,59 21,53l9 -9c6,-17 8,-22 3,-42 -2,-1 -1,2 -2,-1 0,-1 -1,0 -1,0l1 3c1,14 3,27 -4,38 -2,5 -3,5 -7,7l-1 0c-1,1 -1,3 -5,2 -6,0 -4,-1 -5,-2 -11,-5 -11,-25 -9,-41l1 -3 2 -3 1 -3 1 -3c0,0 0,-1 0,-1l5 -1c4,-4 0,-2 6,-2 -1,3 0,2 -3,4 1,2 1,2 -1,2l-1 23c2,7 1,7 0,14 -1,1 -1,5 -1,7 1,10 0,3 3,5 -2,-5 -2,-15 1,-19 0,-6 0,-12 0,-18 1,-16 0,-12 4,-13l-2 47z"/>
   <path class="fil0" d="M1060 816c0,-4 1,1 0,-4 -1,-12 -6,-27 -5,-37l15 31c0,1 1,1 1,3 1,1 1,1 2,3 1,2 1,3 3,5l-1 7 14 -3 -14 -26c-4,-9 -8,-19 -13,-26l-12 3c2,5 3,7 4,13 2,13 5,33 5,44l6 -2c-2,-5 -2,1 -5,-11z"/>
   <path class="fil3" d="M1002 1512l-1 3 0 34 -1 5 3 2c1,-8 0,-36 2,-41 5,8 -4,16 8,16 4,-5 6,-13 6,-20 -1,0 -4,0 -4,-1 -7,-2 3,2 -2,0l-8 -5c-24,0 -20,32 -18,53 -3,5 1,1 -5,3 1,-20 1,-17 -7,-18l3 4c0,0 0,0 1,0 3,2 1,2 1,7 0,5 -1,3 1,8l5 1c3,-1 3,-2 4,-7 1,-7 -8,-51 16,-47 5,3 2,3 7,5l3 1 -3 8 -1 3c0,1 0,1 -1,1 0,0 0,1 0,0 0,0 -1,0 -1,0 -2,-5 1,-10 -3,-15 -3,0 -3,0 -5,0zm-28 35l-4 14c2,2 4,2 8,2l-4 -3 0 -1 3 -10 0 -4c-1,1 -2,0 -2,1 0,3 0,0 -1,1zm16 19l-7 0 -5 -3c2,8 12,7 16,4 4,-3 3,-2 3,-5 -4,1 -1,0 -4,2 -2,2 1,0 -3,2zm11 -7l0 -1c0,-5 1,-2 -2,-4 -1,5 -1,4 -2,8l4 -3z"/>
   <path class="fil0" d="M1068 1582c0,2 -1,5 -1,7 -2,6 0,4 -4,5l3 3c17,4 9,4 13,-12l7 -30c2,-8 0,-7 6,-12 -3,-2 -10,-4 -17,-4 3,13 -5,29 -7,43z"/>
   <path class="fil0" d="M1128 755l-5 2 0 3c3,0 2,-2 3,2l15 50c10,-1 5,-3 8,-26 2,-13 2,-22 5,-33l-7 1c4,10 1,29 -2,42 -3,-12 -11,-30 -8,-41l-9 0z"/>
   <path class="fil0" d="M1421 1470c1,2 1,2 -1,1 0,0 -1,3 -2,3 3,2 1,0 4,3 1,2 1,2 2,2l0 2c2,0 2,0 2,2l1 1c3,0 3,0 2,2 1,2 2,3 4,6 2,-1 2,-1 1,1 2,0 2,0 1,2l1 2c2,0 2,-1 2,2 3,2 6,7 9,10 2,0 2,-1 2,1l1 2 0 2c3,0 2,-1 2,2l0 5c6,-2 9,-6 13,-9l-17 -19c-2,-1 -1,-1 -3,-3 0,0 -1,-2 -2,-2 -1,-2 -1,-2 -2,-4 -2,0 -2,1 -1,-2l-3 -1c-2,0 -1,0 -1,-2l-1 -2 -3 -3 -1 -2c-2,0 -2,1 -1,-2 -2,0 -1,1 -1,-2 -2,0 -1,0 -4,0l-4 2z"/>
   <path class="fil3" d="M1245 816l-9 -1 6 -2c3,-4 2,-5 6,-7l-3 10zm-23 -4c6,-11 11,-43 9,-55l16 2c-3,6 -3,0 -5,13l-7 43 -13 -3zm-4 3c5,2 23,5 29,4 8,-9 5,-21 -3,-15 -1,1 -2,5 -4,7 -2,-4 2,-22 3,-28 1,-4 2,-13 3,-15 2,-6 8,-6 3,-11 -4,-3 -15,-4 -21,-3 -2,8 2,4 1,14 -1,5 -2,11 -3,16 -1,6 -2,12 -3,17 -2,11 -5,5 -5,14z"/>
   <path class="fil3" d="M1429 1468c3,0 2,0 1,2l1 2 1 2 3 -2c0,0 0,-1 0,-1 7,1 1,-1 4,3l5 -2 2 -4c-3,-1 0,0 -3,-1l0 -3c-2,1 -2,1 -2,-1 -1,0 -1,0 -1,-2 -2,1 -2,1 -1,-1 -2,0 -2,0 -1,-2 -2,1 -2,1 -2,-1l-4 2 -2 1 -6 4c0,0 -1,1 -1,1l-2 1c0,2 1,1 -2,1l1 1c0,2 0,2 -2,1l-2 1 -2 1c0,2 1,2 -1,1 0,3 2,2 -2,3 0,2 0,1 -2,1l-1 1 3 8 1 2 0 0c3,0 2,-1 2,2 2,0 1,0 1,2l5 -1c-1,-2 -1,-1 1,-1 0,-4 0,-2 -1,-5 0,-2 0,3 -1,-3l5 6c1,1 1,0 2,2l2 1c0,0 0,1 0,1l2 3 3 3c2,0 2,-1 1,2 1,0 1,0 1,0l1 2c1,0 1,1 2,1 2,0 2,-1 1,2l1 2c2,-1 1,-1 1,1 2,1 1,0 1,2 3,3 2,2 4,5 2,0 1,0 2,2 2,6 0,14 10,6 4,-4 10,-6 11,-12 -3,-6 -2,-2 -7,-6 -3,-2 -3,-4 -7,-6 -3,0 -2,0 -1,-2 -3,0 -2,0 -1,-2 -3,1 -2,1 -2,-1l0 -3c-2,0 -2,1 -1,-1 -1,-1 -2,0 -2,-4 -3,1 -3,4 -3,-1 -2,0 -1,0 -1,-2 -2,0 -1,1 -1,-2l-2 -1c-2,0 -1,0 -1,-2l-1 -2c-2,0 -2,0 -1,-2 -4,3 -3,0 -3,4l1 2c2,0 2,0 1,2l3 1c2,0 1,0 1,2 1,1 0,0 2,2l2 2c0,0 0,1 0,1l3 4 17 19c-4,3 -7,7 -13,9l0 -5c-3,0 -2,0 -2,-2 -2,0 -1,1 0,-2l-1 -2c-4,2 -3,2 -2,-1 -3,-3 -6,-8 -9,-10 -3,0 -2,1 -2,-2 -2,1 -1,1 -1,-2l-1 -2c-2,0 -1,1 -1,-1 -3,-2 -1,-1 -2,-4 -3,0 -3,4 -2,-2 -2,0 -1,1 -2,-2l-1 -1c-3,0 -2,1 -2,-2l0 -2c-4,-3 -3,-4 -7,-3 -2,6 -2,2 0,7 1,2 3,1 1,6 -5,-3 -3,-3 -8,-8l10 -10c-1,-2 -1,-1 1,-1l6 -4c0,0 0,-1 0,-1l3 -1c0,-2 -1,-2 2,-1l2 -3 2 2c1,0 1,0 1,2l1 1c2,0 1,0 1,2 2,-1 2,-1 1,1 2,1 4,-3 1,2 -5,2 -1,0 -2,-1l-4 -3 -6 0 0 2z"/>
   <path class="fil0" d="M1052 1535l-2 2 -1 2c0,8 -2,10 -2,10 0,0 -1,1 -1,1l-10 28c-3,6 -3,3 -5,7l14 6c-1,-11 12,-39 16,-50 0,-1 1,-1 1,-1 0,0 0,-1 1,-1 0,0 0,-1 0,-1 1,-1 1,-1 2,-2l-5 -3 -4 0c-3,0 -2,0 -4,2z"/>
   <path class="fil0" d="M1274 1603l-3 -9c1,-15 -11,-35 -6,-49 12,-5 11,6 19,8l-6 -13c-5,3 0,1 -4,3 -4,1 -3,0 -7,0 -12,1 -14,16 -13,27 1,16 9,29 20,33z"/>
   <path class="fil3" d="M1034 836c4,2 -3,2 4,1 5,-1 3,-7 3,-11 0,0 0,0 0,0l3 -2c1,-1 1,-1 1,-2 0,0 1,-1 1,-1l-6 1c-3,4 -2,5 -2,11 -3,-3 -16,-32 -17,-36 -3,-7 2,-16 -8,-13 -1,0 -5,2 -6,3 -5,2 -6,1 -10,5 2,8 4,2 8,12l13 29c4,8 1,9 3,14 1,0 1,0 1,0 1,2 14,-4 15,-4 8,-4 11,-3 13,-11 -5,-4 0,-3 -5,-7 -1,5 0,4 1,9 -4,3 -9,5 -14,7l-5 3c-5,-4 -14,-39 -26,-51l14 -6c4,3 -3,-2 3,12 2,4 4,8 6,13 3,6 8,17 10,24z"/>
   <path class="fil0" d="M1222 812l13 3 7 -43c2,-13 2,-7 5,-13l-16 -2c2,12 -3,44 -9,55z"/>
   <path class="fil0" d="M1032 841l2 -3c-1,0 0,1 0,-2 -2,-7 -7,-18 -10,-24 -2,-5 -4,-9 -6,-13 -6,-14 1,-9 -3,-12l-14 6c12,12 21,47 26,51l5 -3z"/>
   <path class="fil0" d="M1259 819l16 5c-2,-9 2,-20 5,-29 1,-5 3,-9 4,-14 3,-13 4,-7 6,-12l-16 -4c3,10 -5,29 -8,43 -3,8 -2,6 -7,11z"/>
   <path class="fil0" d="M1201 1556c1,2 1,2 -1,1 1,3 1,2 -1,2 0,2 1,2 -1,1 0,2 0,2 -2,2 0,2 1,1 -1,1l-2 1 -4 2c0,0 0,0 0,0l3 0c6,2 2,-1 4,25 2,19 1,13 -2,21 3,0 5,0 8,0 13,-1 6,-1 5,-8l-1 -37c0,-1 0,0 -1,-3 0,-1 0,-2 0,-3 0,-3 0,-6 -1,-9 -1,2 -2,3 -3,4z"/>
   <path class="fil3" d="M939 857l0 2 2 1 12 -1 2 -2c0,0 0,-1 0,-1l-10 -1 0 -10 0 -3c-3,0 -2,0 -2,-2 -4,3 -2,0 -3,5 2,-1 2,-1 2,1l0 6 -3 5zm2 -20l-2 -1 -3 -1 -9 1 -3 0c-2,2 0,1 -1,4l-3 -1c0,2 1,2 -2,1 1,2 1,2 -1,1l2 4c2,-2 3,-1 4,-2 -1,-2 -1,-1 2,-1l-1 -1 3 -1c1,-1 1,-2 5,-2 6,0 3,2 4,3 3,-1 2,-2 2,1 5,-1 1,0 4,-3 -2,0 -1,0 -1,-2zm-26 6c0,3 0,2 -2,1 1,3 1,2 -2,2 1,2 1,1 -1,1l-2 2c1,3 1,2 -1,1 0,2 0,2 -2,1 0,2 1,2 -2,1l0 6c3,0 2,-1 2,2 2,-1 2,-1 2,1l2 -1c7,3 2,5 9,7 -1,-4 -2,-4 -4,-8l0 0c-2,0 -2,1 -2,-2l-4 0c-3,-6 -1,-1 0,-3 -1,-2 -1,-2 1,-1 3,-4 0,-2 4,-2 0,-2 -1,-2 2,-1 -1,-2 -1,-2 1,-1 1,-2 0,-1 3,-3 -3,-4 0,-1 -4,-3zm19 47c6,4 3,6 6,12 6,0 14,-8 19,-12 5,-5 11,-11 6,-22 -2,0 -2,1 -1,-2 -2,-4 0,-1 -3,-4l-5 -3c0,0 1,0 1,1l3 6 1 2 2 2 0 9c-3,7 -8,11 -14,14 -1,3 -3,3 -5,6l-4 -6c-4,-3 -10,-14 -15,-18 -5,-6 -1,-7 -7,-8 1,7 4,7 8,11 4,4 4,6 8,12z"/>
   <path class="fil0" d="M986 1563c-3,2 -1,1 -3,3l7 0c3,-4 4,-4 7,-7 2,-5 0,-5 4,-10l0 -34 1 -3 2 -2c1,-1 0,0 2,-1 -24,-4 -15,40 -16,47 -1,5 -1,6 -4,7z"/>
   <path class="fil3" d="M1259 819c5,-5 4,-3 7,-11 3,-14 11,-33 8,-43l16 4c-2,5 -3,-1 -6,12 -1,5 -3,9 -4,14 -3,9 -7,20 -5,29l-16 -5zm-3 3c6,2 16,6 21,5 2,-4 1,-5 1,-8 0,-4 0,-3 1,-8 2,-6 8,-32 11,-36 3,-4 3,-1 4,-8 -30,-9 -23,-4 -23,4 1,4 -1,8 -2,12 -2,7 -4,13 -5,20 -6,21 -9,8 -8,19z"/>
   <path class="fil0" d="M1260 1116c-1,-9 -31,-32 -36,-22 -5,11 8,15 14,18 8,4 15,10 22,4z"/>
   <path class="fil0" d="M1034 1562c2,-3 3,-4 3,-7 0,-3 -1,3 0,-3 0,-4 0,-2 1,-3l1 -19 -1 -4 -4 -3 -3 0c-4,0 -1,-2 -3,2 2,3 2,0 1,4 0,3 1,3 -1,3 -8,15 -11,33 -19,45l6 3c-1,-10 11,-40 15,-43 -2,7 -2,23 -3,32 4,-2 3,-4 7,-7z"/>
   <path class="fil3" d="M1193 1564c0,-2 -1,-2 2,-1 -3,-4 0,-3 -4,-3l-2 1c-2,3 -3,3 -3,8 0,0 3,1 4,1 3,1 1,0 3,2 -1,7 0,16 0,23 2,20 -4,7 -3,19 6,2 18,2 22,-1 2,-2 2,4 1,-3 0,-4 -2,-2 -3,-9l-1 -50c-2,-2 -1,3 -2,-2 0,0 -1,0 -1,0l-5 0c1,3 2,2 -2,1 2,3 3,3 -1,1l-3 7c0,0 0,1 0,1 -3,2 -3,-1 1,3 -1,-4 -2,-3 2,-2 -2,-3 -3,-3 1,-1 -2,-4 -3,-4 1,-2 -2,-3 -2,-3 1,-1 0,-1 0,-3 0,-3 0,0 1,-2 1,-2l2 1c1,1 1,0 2,3 0,0 0,4 0,4 1,3 1,5 0,8l1 37c1,7 8,7 -5,8 -3,0 -5,0 -8,0 3,-8 4,-2 2,-21 -2,-26 2,-23 -4,-25l-3 0c0,0 0,0 0,0l4 -2z"/>
   <path class="fil0" d="M1195 805l-1 3c-1,4 -1,0 1,1l1 0 5 -5c0,0 0,0 0,0l2 -2c7,-11 5,-24 4,-38 -6,-3 -2,-2 -5,-6 -1,-1 -2,-3 -3,-3 -4,-2 -1,-1 -3,1l-1 49z"/>
   <path class="fil0" d="M972 810c2,-1 2,-1 2,1 2,0 1,0 1,2l1 2c2,5 8,14 10,19 4,6 8,12 12,18 2,3 1,-4 2,4l3 -3c2,-20 -15,-48 -33,-44l2 1z"/>
   <path class="fil0" d="M1180 759l-1 3 -2 3 -1 3c-2,16 -2,36 9,41 3,-1 1,1 0,-5 0,-3 0,-5 0,-8 1,-5 0,-12 2,-15l1 -23c0,-3 -1,-2 1,-2 -2,-3 2,-3 -3,-2 -2,2 -4,4 -6,5z"/>
   <path class="fil0" d="M915 850c0,2 0,2 -2,1l-4 2 -1 1c0,0 3,2 3,2 0,0 0,1 1,1 0,-1 0,0 0,0 3,0 2,0 2,2l0 0c2,2 1,0 3,2l23 32 4 6c2,-3 4,-3 5,-6l2 -3c0,-1 0,-1 1,-1l-2 0c-3,0 -2,1 -2,-2 -2,0 -1,1 -1,-2 -2,1 -1,1 0,-2 -3,-2 -7,-6 -10,-9l-7 -11c-3,1 -2,1 -1,-1 -3,0 -2,0 -2,-2l-1 -1c-3,-2 -1,0 -3,-3 0,0 -1,-1 -1,-1 0,0 -2,-3 -2,-3 -3,0 -2,0 -1,-2 -1,0 -3,-1 -3,-1 1,2 1,2 -1,1z"/>
   <path class="fil0" d="M961 816c0,6 1,13 1,19l3 3 4 8 14 14c5,2 5,2 11,1l-2 -2c-6,-4 -16,-27 -23,-35 -2,0 -1,1 -1,-2l0 -2c-3,-2 0,2 -3,-3 -1,-2 0,-1 -1,-4 0,1 -2,2 -3,3z"/>
   <path class="fil0" d="M1090 1602l8 2 -1 -6c-1,-10 -1,-20 -2,-31 0,-10 1,-10 12,-20 -2,-3 -2,-2 -6,-3 0,0 0,1 -1,1 -4,16 -6,10 -14,23 -4,7 4,16 -2,33l6 1z"/>
   <path class="fil3" d="M961 816l0 -4c-3,2 0,-4 -2,2l-2 3c0,11 3,24 9,29 5,7 7,12 12,12 0,0 0,-1 0,0l-5 -6c-1,0 -1,-1 -1,-1 0,0 -1,0 -1,-1l-2 -4 -4 -8 -3 -3c-2,-6 -3,-12 -1,-19zm25 48c6,2 7,1 13,-1 1,-3 1,0 -1,-4l-4 2c-6,1 -6,1 -11,-1l-5 -2c1,3 0,2 3,3 2,2 2,2 5,3zm19 -9c4,-13 -2,-25 -8,-33 -5,-9 -14,-19 -29,-16l-3 0 -2 3c-2,4 0,-1 -2,3l9 -3c18,-4 35,24 33,44 -2,4 -2,4 -4,7 5,-1 1,3 6,-5z"/>
   <path class="fil4" d="M954 876c-1,2 -1,2 1,2 -1,2 -1,2 1,2l-1 -2c1,-3 1,-2 -1,-2 -5,-8 -4,-8 -11,-14l-2 -2 -2 -1 0 -2 3 -5c-1,1 -1,1 -2,3 -2,3 0,-1 -1,2l-2 0c1,-4 1,-2 -1,-3l-2 -2c0,-2 1,-2 -1,-1l-1 -2c1,-3 2,-3 -1,-2 1,-2 1,-2 -1,-1 0,-3 1,-2 -2,-2 -1,0 -1,-1 -3,-1 -2,-1 -1,-1 -2,0 2,1 2,1 2,-1l2 -2 9 1c0,2 -1,1 2,1 3,8 -5,-7 1,1 0,1 0,1 0,1 0,0 1,1 1,1 0,2 -1,1 2,1 0,-2 0,-2 -2,-1 1,-5 -1,-2 3,-5 0,2 -1,2 2,2 0,-3 1,-2 -2,-2 1,-2 1,-2 -1,-1 1,-3 1,-2 -1,-2 0,-2 0,-1 -2,-1l-3 -1 3 1 2 1c0,2 -1,2 1,2 -3,3 1,2 -4,3 0,-3 1,-2 -2,-1 -1,-1 2,-3 -4,-3 -4,0 -4,1 -5,2l-3 1 1 1c-3,0 -3,-1 -2,1 -1,1 -2,0 -4,2l-2 -4c2,1 2,1 1,-1 3,1 2,1 2,-1l3 1c1,-3 -1,-2 1,-4l3 0 -3 0c-2,1 2,-2 -2,1 -2,1 -1,1 -2,2 -3,-1 -2,-1 -2,1 -2,0 -2,-1 -1,1l-2 2c-3,0 -2,-1 -2,1 -2,0 -2,-1 -2,2 -2,-1 -1,-1 -1,1 -4,2 -1,0 -2,2l-1 1c-3,-1 -3,-2 -2,1 -3,-1 -2,-1 -2,1 -2,0 -1,-1 0,4l0 2c0,3 -1,2 2,2 -1,2 -1,1 2,1 0,-2 0,-2 -2,-1 0,-3 1,-2 -2,-2l0 -6c3,1 2,1 2,-1 2,1 2,1 2,-1 2,1 2,2 1,-1l2 -2c2,0 2,1 1,-1 3,0 3,1 2,-2 2,1 2,2 2,-1 4,2 1,-1 4,3 -3,2 -2,1 -3,3 -2,-1 -2,-1 -1,1 -3,-1 -2,-1 -2,1 -4,0 -1,-2 -4,2 -2,-1 -2,-1 -1,1 -1,2 -3,-3 0,3l4 0c0,3 0,2 2,2 0,-2 1,-2 -2,-2 0,0 0,-1 0,0 -1,0 -1,-1 -1,-1 0,0 -3,-2 -3,-2l1 -1 4 -2c2,1 2,1 2,-1 2,1 2,1 1,-1 0,0 2,1 3,1 -1,2 -2,2 1,2 0,0 2,3 2,3 0,0 1,1 1,1 2,3 0,1 3,3 1,-5 -3,-1 2,-5 2,5 1,5 5,6 2,-5 -6,-13 -10,-12 0,1 0,1 0,2l3 4c0,0 0,1 0,1l-5 -3c0,0 -1,0 -1,0 0,-3 1,-3 -1,-2 1,-5 0,-3 1,-5l8 -1c-1,3 -1,2 2,2 -1,2 -1,2 1,1 -1,2 -1,2 1,2 -1,2 -1,2 1,2 -1,2 -1,1 1,1l2 2 1 3c-1,4 -1,3 -2,7l-5 -1c0,-2 1,-2 -1,-1 0,-3 1,-2 -2,-2 0,2 -1,2 2,2 -1,2 -2,2 1,1l7 11c3,3 7,7 10,9 -1,3 -2,3 0,2 0,3 -1,2 1,2 0,3 -1,2 2,2 0,-3 1,-2 -2,-2 1,-3 2,-2 -1,-2 1,-2 2,-2 0,-2 -2,-1 -3,-3 -4,-5l-6 -7c-4,-6 -3,0 -3,-7 3,-1 9,-4 13,4 2,3 1,-1 1,5 -4,-1 -1,0 -4,-2 -2,-2 1,-1 -1,-3 -2,-2 -2,-2 -5,-2l15 19c1,-2 1,-2 -1,-6 -5,-6 -3,-1 -4,-6l4 1c1,0 1,2 1,1 0,0 1,1 1,1z"/>
   <path class="fil0" d="M1277 1567l-3 2c3,5 2,0 3,5l1 4 3 14c3,3 3,-4 3,4 0,0 -2,0 0,-1 10,-2 9,3 9,4 1,-4 -1,-12 -2,-17 -2,-9 -2,-8 -1,-17l-13 2z"/>
   <path class="fil3" d="M973 822c-3,0 -2,0 -1,-2l-2 -2 -1 -4 3 -4c-6,2 -8,3 -4,10l0 2 1 2c7,8 17,31 23,35 7,-1 2,0 3,-2 0,0 -1,-1 -1,-1 -2,-2 0,0 -2,-2 -4,-5 -7,-10 -10,-16 -1,-1 -2,-3 -3,-4 0,0 0,-1 0,-1l-6 -11zm25 30c-4,-6 -8,-12 -12,-18 -2,-5 -8,-14 -10,-19 -2,0 -2,0 -1,-2 -2,0 -2,0 -1,-2 -4,3 -4,0 -3,4l2 1c4,9 18,28 21,37 0,1 0,1 0,1 1,1 1,1 1,1l2 2c0,0 0,1 1,1l0 -6z"/>
   <path class="fil5" d="M1424 1487l-5 -6c1,6 1,1 1,3 1,3 1,1 1,5 -2,0 -2,-1 -1,1l-5 1c0,-2 1,-2 -1,-2 0,-3 1,-2 -2,-2 1,3 0,2 2,2 -1,2 -1,2 1,2 1,1 -2,2 2,1 5,-1 1,0 3,-2 2,1 2,1 1,-1 0,0 3,-2 3,-2l6 7c3,4 -2,-2 1,1 1,2 1,1 2,2 0,2 -1,2 1,2 2,3 0,2 4,3 -1,2 -1,2 1,2 -1,2 -2,2 1,2 -1,2 -1,1 1,1 -1,3 -2,3 1,2l4 5c-1,3 -1,2 2,2 -1,-2 0,-2 -2,-2 -2,-3 -1,-2 -4,-5 0,-2 1,-1 -1,-2 0,-2 1,-2 -1,-1l-1 -2c1,-3 1,-2 -1,-2 -1,0 -1,-1 -2,-1l-1 -2c0,0 0,0 -1,0 1,-3 1,-2 -1,-2l-3 -3 -2 -3c0,0 0,-1 0,-1l-2 -1c-1,-2 -1,-1 -2,-2zm9 5c0,2 -1,1 1,1l1 2c0,3 -1,3 1,2 0,3 -1,2 2,2 0,-3 0,-2 -2,-2l-1 -2c1,-2 1,-2 -1,-2 1,-2 1,-2 -1,-1 -2,-3 -3,-4 -4,-6 1,-2 1,-2 -2,-2 1,3 0,2 2,2 -1,6 -1,2 2,2 1,3 -1,2 2,4zm17 20c-1,3 -2,2 0,2 0,2 -1,2 2,2 0,-3 1,-2 -2,-2l0 -2 -1 -2c0,-2 0,-1 -2,-1 -1,3 -2,3 2,1l1 2zm-26 -33l0 2c0,3 -1,2 2,2 0,-2 0,-2 -2,-2l0 -2c-1,0 -1,0 -2,-2 -3,-3 -1,-1 -4,-3 1,0 2,-3 2,-3 2,1 2,1 1,-1l4 -2c3,0 2,0 4,0 0,3 -1,2 1,2 -1,3 -1,2 1,2l1 2 3 3 1 2c0,2 -1,2 1,2l3 1c-1,3 -1,2 1,2 1,2 1,2 2,4 1,0 2,2 2,2 2,2 1,2 3,3l-3 -4c0,0 0,-1 0,-1l-2 -2c-2,-2 -1,-1 -2,-2 0,-2 1,-2 -1,-2l-3 -1c1,-2 1,-2 -1,-2l-1 -2c0,-4 -1,-1 3,-4 -1,2 -1,2 1,2l1 2c0,2 -1,2 1,2 1,-3 1,-3 -1,-2l-1 -2c1,-2 1,-2 -1,-2l1 1c-3,-4 3,-2 -4,-3 0,0 0,1 0,1l-3 2 -1 -2 -1 -2c1,-2 2,-2 -1,-2l0 -2 6 0c-1,-1 2,-1 -5,-2l2 -1 4 -1 1 2c-1,2 -1,1 1,1l1 2 1 1 -1 1c1,1 -3,3 2,1 3,-5 1,-1 -1,-2 1,-2 1,-2 -1,-1 0,-2 1,-2 -1,-2l-1 -1c0,-2 0,-2 -1,-2l-2 -2 -2 3c-3,-1 -2,-1 -2,1l-3 1c0,0 0,1 0,1l-6 4c-2,0 -2,-1 -1,1l-10 10c5,5 3,5 8,8 2,-5 0,-4 -1,-6 -2,-5 -2,-1 0,-7 4,-1 3,0 7,3zm-10 -8l2 -1 2 -1c2,1 2,1 2,-1 -3,0 -2,-1 -2,1l-2 1 -2 1c-2,0 -2,-1 -1,1l-2 3c-2,-1 -2,-1 -2,1l-1 1 -2 3 5 5c-1,3 -1,2 1,2l-1 -2 -3 -8 1 -1c2,0 2,1 2,-1 4,-1 2,0 2,-3 2,1 1,1 1,-1zm16 -11l2 -1 4 -2c0,2 0,2 2,1 -1,2 -1,2 1,2 -1,2 -1,2 1,1 0,2 0,2 1,2 0,2 0,2 2,1l0 3c3,1 0,0 3,1 -1,-1 1,1 -1,-2 -1,-1 -1,-1 -2,-2 0,-2 1,-1 -2,-1 1,-3 2,-2 -1,-2 1,-2 1,-1 -1,-1 1,-2 1,-2 -1,-2 0,-2 1,-1 -2,-1 -2,-1 -3,-2 -4,2 -3,-1 -2,-2 -2,1l-7 5c-2,-1 -2,-1 -2,1 -2,-1 -2,-1 -2,1 3,0 2,1 2,-1l2 -1c0,0 1,-1 1,-1l6 -4zm20 29c-1,2 -1,1 1,1l0 3c0,2 -1,2 2,1 -1,2 -2,2 1,2 -1,2 -2,2 1,2 0,-3 1,-3 -1,-2 0,-3 1,-3 -1,-2 0,-2 1,-2 -2,-1l0 -3c0,-2 1,-2 -1,-1 -2,-2 0,-1 -2,-3 -1,-1 -2,-2 -3,-2 1,-3 2,-3 -1,-2 1,-3 1,-2 -1,-2 0,3 -1,2 1,2 0,2 -1,2 1,2 0,5 0,2 3,1 0,4 1,3 2,4z"/>
   <path class="fil0" d="M941 860l2 2c7,6 6,6 11,14 2,0 2,-1 1,2l1 2 0 0c3,3 2,-4 2,4l5 -5 0 -9 -2 -2 -1 -2c-1,-2 -2,-2 -3,-4l-4 -3 -12 1z"/>
   <path class="fil3" d="M947 883c2,0 1,0 0,2 3,0 2,-1 1,2 3,0 2,-1 2,2l2 0c4,-1 1,0 4,-2l0 -7 0 0c-2,0 -2,0 -1,-2 -2,0 -2,0 -1,-2 0,0 -1,-1 -1,-1 0,1 0,-1 -1,-1l-4 -1c1,5 -1,0 4,6 2,4 2,4 1,6l-15 -19c3,0 3,0 5,2 2,2 -1,1 1,3 3,2 0,1 4,2 0,-6 1,-2 -1,-5 -4,-8 -10,-5 -13,-4 0,7 -1,1 3,7l6 7c1,2 2,4 4,5z"/>
   <path class="fil3" d="M1352 1519c4,0 9,10 10,14 3,8 0,5 -1,6 -3,-6 -8,-14 -9,-20zm4 17c3,3 2,3 4,7l6 -3 0 -6c-1,-4 -4,-8 -6,-12 -3,-7 -3,-7 -12,-6 1,8 5,13 8,20z"/>
   <path class="fil5" d="M983 1566c2,-2 0,-1 3,-3l-5 -1c-2,-5 -1,-3 -1,-8 0,-5 2,-5 -1,-7 -1,0 -1,0 -1,0l-3 -4c8,1 8,-2 7,18 6,-2 2,2 5,-3l-4 2c0,-3 1,-12 1,-13 -1,-5 -2,-5 -9,-4l-1 4c1,-1 1,2 1,-1 0,-1 1,0 2,-1l0 4 2 -2 0 14c-3,-1 -2,-1 -5,-1l0 -1 0 1 4 3c-4,0 -6,0 -8,-2 2,4 -1,1 2,3 4,2 -4,-2 2,1 3,1 21,15 27,-6l-4 3c1,-4 1,-3 2,-8 3,2 2,-1 2,4l2 -2 -3 -2 1 -5c-4,5 -2,5 -4,10 -3,3 -4,3 -7,7 4,-2 1,0 3,-2 3,-2 0,-1 4,-2 0,3 1,2 -3,5 -4,3 -14,4 -16,-4l5 3z"/>
   <path class="fil6" d="M1405 1513l2 3c2,4 1,2 2,5l6 9c0,0 1,0 1,1l4 3c0,-4 -1,-6 -4,-9 -1,-3 -3,-5 -5,-8 -2,-4 -3,-5 -4,-8 -3,-4 -8,-13 -11,-15 -1,1 -5,-1 -1,6 1,2 3,4 3,4 3,3 4,6 7,9z"/>
   <path class="fil6" d="M1190 788l-1 18c1,-1 1,-1 1,-1 1,0 1,0 2,-1l2 -47c-4,1 -3,-3 -4,13 0,6 0,12 0,18z"/>
   <path class="fil6" d="M970 818l2 2 1 2 6 11c0,0 0,1 0,1 1,1 2,3 3,4 3,6 6,11 10,16l2 1 0 -2c-3,-9 -17,-28 -21,-37l-2 -1c-3,1 -3,-3 -1,3z"/>
   <path class="fil3" d="M926 859l1 1c3,0 2,-1 2,2 2,-1 1,-1 1,1l5 1c1,-4 1,-3 2,-7l-1 -3 -2 -2c-2,0 -2,1 -1,-1 -2,0 -2,0 -1,-2 -2,0 -2,0 -1,-2 -2,1 -2,1 -1,-1 -3,0 -3,1 -2,-2l-8 1c-1,2 0,0 -1,5 2,-1 1,-1 1,2 0,0 1,0 1,0l5 3c0,0 0,-1 0,-1l-3 -4c0,-1 0,-1 0,-2 4,-1 12,7 10,12 -4,-1 -3,-1 -5,-6 -5,4 -1,0 -2,5z"/>
   <path class="fil0" d="M925 842c0,2 0,2 -2,1 1,-1 0,-1 2,0 2,0 2,1 3,1 3,0 2,-1 2,2 2,-1 2,-1 1,1 3,-1 2,-1 1,2l1 2c2,-1 1,-1 1,1l2 2c2,1 2,-1 1,3l2 0c1,-3 -1,1 1,-2 1,-2 1,-2 2,-3l0 -6c-3,0 -2,1 -2,-1 0,0 -1,-1 -1,-1 0,0 0,0 0,-1 -6,-8 2,7 -1,-1 -3,0 -2,1 -2,-1l-9 -1 -2 2z"/>
   <path class="fil6" d="M1271 1594l3 9c7,-1 6,-1 9,-5 1,0 1,0 1,0 0,-1 1,-1 1,-1l8 2c0,-1 1,-6 -9,-4 -2,1 0,1 0,1 0,-8 0,-1 -3,-4l0 9 -7 0c3,-3 4,-3 5,-6l-5 -20c-4,-2 -1,-1 -2,1 0,4 1,8 2,12 3,13 2,8 -1,12 -1,-4 0,-3 -2,-6z"/>
   <path class="fil5" d="M1058 1529l4 2 3 1 4 1c-1,2 -1,2 1,2 0,-3 1,-3 -1,-2l-4 -1 -3 -1 -4 -2 -5 -3 -4 7 -1 2 -1 2c-2,0 -2,-2 -2,2 -3,-2 -1,1 -2,-3 0,-2 0,-5 0,-7l-2 7c0,12 -1,3 4,7l0 -4 2 -2c3,1 2,1 1,-2l1 -2c0,-1 2,-2 2,-2 2,-4 0,3 1,-3l6 1zm-6 6l-2 2 -1 2c-6,3 -4,7 -7,10 -6,5 -3,2 -4,0 -1,1 -1,-1 -1,3 -1,6 0,0 0,3 0,3 -1,4 -3,7 3,-2 1,0 3,-4 6,-9 6,-5 8,-12 2,2 0,0 1,4 0,0 1,-1 1,-1 0,0 2,-2 2,-10l1 -2 2 -2c2,-2 1,-2 4,-2l-3 -3 -1 5z"/>
   <path class="fil5" d="M1314 1576l0 6 -3 -5c1,5 1,9 2,14 0,-1 1,0 1,-3 0,-2 0,-3 -1,-5l3 -1 7 -2c3,3 2,0 2,5 3,-4 1,0 1,-7 1,0 1,0 1,0 1,3 1,0 2,1l-6 -12c0,-1 0,-1 -1,-1l3 7c-4,2 -6,4 -11,3z"/>
   <path class="fil5" d="M1198 1551c4,2 3,2 1,-1 4,1 3,2 2,-1l5 0c0,0 1,0 1,0 1,5 0,0 2,2 -1,-3 1,-1 -2,-4l-6 2c-2,-1 -2,-1 -2,1 -2,0 -1,-1 -1,1 -1,1 0,1 -2,3 0,0 -1,1 -1,2 -2,3 -2,2 -4,4l-2 1c-2,1 -4,3 -4,4 -2,6 0,4 1,4 2,3 -1,0 2,2 1,0 4,1 5,1 -2,-2 0,-1 -3,-2 -1,0 -4,-1 -4,-1 0,-5 1,-5 3,-8l2 -1c4,0 1,-1 4,3 -3,-1 -2,-1 -2,1l2 -1c2,0 1,1 1,-1 2,0 2,0 2,-2 2,1 1,1 1,-1 2,0 2,1 1,-2 2,1 2,1 1,-1 1,-1 2,-2 3,-4 1,3 1,6 1,9 0,1 0,2 0,3 1,3 1,2 1,3 1,-3 1,-5 0,-8 0,0 0,-4 0,-4 -1,-3 -1,-2 -2,-3l-2 -1c0,0 -1,2 -1,2 0,0 0,2 0,3 -3,-2 -3,-2 -1,1 -4,-2 -3,-2 -1,2 -4,-2 -3,-2 -1,1 -4,-1 -3,-2 -2,2 -4,-4 -4,-1 -1,-3 0,0 0,-1 0,-1l3 -7z"/>
   <path class="fil5" d="M934 890c-4,-6 -4,-8 -8,-12 -4,-4 -7,-4 -8,-11 6,1 2,2 7,8 5,4 11,15 15,18l-23 -32c-2,-2 -1,0 -3,-2 2,4 3,4 4,8 -7,-2 -2,-4 -9,-7 3,3 3,5 6,8l19 22z"/>
   <path class="fil4" d="M1034 836c0,3 -1,2 0,2l-2 3c5,-2 10,-4 14,-7 -1,-5 -2,-4 -1,-9 5,4 0,3 5,7 -1,-4 -3,-10 -4,-13 -5,1 -1,-1 -6,3l6 -1c0,0 -1,1 -1,1 0,1 0,1 -1,2l-3 2c0,0 0,0 0,0 0,4 2,10 -3,11 -7,1 0,1 -4,-1z"/>
   <path class="fil5" d="M1185 809c1,1 -1,2 5,2 4,1 4,-1 5,-2 -2,-1 -2,3 -1,-1l1 -3c0,0 0,0 -1,1 0,0 0,1 0,1 -2,2 -1,2 -6,2l4 -4c0,0 0,-1 0,-1 -1,1 -1,1 -2,1 0,0 0,0 -1,1l1 -18c-3,4 -3,14 -1,19 -3,-2 -2,5 -3,-5 0,-2 0,-6 1,-7 1,-7 2,-7 0,-14 -2,3 -1,10 -2,15 0,3 0,5 0,8 1,6 3,4 0,5z"/>
   <path class="fil5" d="M965 806l3 0 -3 0c-4,3 -4,3 -6,8l-2 3 2 -3c2,-6 -1,0 2,-2l0 4c-2,7 -1,13 1,19l3 3 -3 -3c0,-6 -1,-13 -1,-19 1,-1 3,-2 3,-3 1,3 0,2 1,4 3,5 0,1 3,3l0 2c0,3 -1,2 1,2l-1 -2 0 -2c-4,-7 -2,-8 4,-10l-3 4 1 4 2 2c-1,2 -2,2 1,2l-1 -2 -2 -2c-2,-6 -2,-2 1,-3l2 1 -2 -1c-1,-4 -1,-1 3,-4 -1,2 -1,2 1,2 -1,2 -1,2 1,2l-1 -2c0,-2 1,-2 -1,-2 0,-2 0,-2 -2,-1l-2 -1 -9 3c2,-4 0,1 2,-3l2 -3z"/>
   <path class="fil5" d="M1366 1534l0 6 -6 3c-2,-4 -1,-4 -4,-7 1,1 2,4 2,5 2,3 0,1 4,4l6 -2 6 7c-1,-5 0,-4 -4,-7 6,-2 -1,1 2,-2l-1 -2c-1,-5 -1,0 1,-3l3 -6 -6 9c0,0 -1,-1 -1,-1 0,0 0,-1 0,-1l-2 -2c0,0 0,-1 0,-1zm5 17c0,-5 1,-2 -2,-2l2 2zm-2 -3c1,-3 2,-3 -2,-2 0,3 -1,2 2,2z"/>
   <path class="fil6" d="M1352 1519c1,6 6,14 9,20 1,-1 4,2 1,-6 -1,-4 -6,-14 -10,-14z"/>
   <path class="fil4" d="M1126 1595c-5,5 0,10 0,10 0,0 0,1 0,1 1,2 1,2 1,5 -6,1 -12,0 -16,-1 1,-8 1,-4 4,-8 1,-3 1,-5 1,-8 -3,4 1,2 -4,8 -4,7 -3,8 3,10l12 1c2,-11 0,-9 -2,-9l1 -9z"/>
   <path class="fil7" d="M1225 1163c0,-8 -1,-9 1,-17 7,-3 13,-1 21,0 -5,-4 -14,-4 -22,-1 -1,3 -2,6 -2,10 0,1 0,4 1,5 1,6 0,1 1,3z"/>
   <path class="fil5" d="M1002 1512l-1 3 1 -3c2,0 2,0 5,0 4,5 1,10 3,15 0,0 1,0 1,0 0,1 0,0 0,0 1,0 1,0 1,-1l1 -3 -1 3 -2 1 3 -13c-5,-2 -2,-2 -7,-5 -2,1 -1,0 -2,1l-2 2z"/>
   <path class="fil5" d="M1021 1563l2 9 5 2c6,-2 2,2 5,-4l1 3 2 -3c-2,-2 -2,3 -2,-3l1 2c3,-3 3,-1 3,-6 -10,11 -5,11 -14,9l0 -14 -3 5z"/>
   <path class="fil5" d="M964 866c-1,3 -1,2 1,2l-1 -2c-2,-5 -4,-9 -9,-10 -4,-3 -4,-2 -9,-2 0,-5 1,-5 -1,-9l0 10 10 1c0,0 0,1 0,1l-2 2 4 3c1,2 2,2 3,4l1 2 2 2 -2 -2 -1 -2 -3 -6c0,-1 -1,-1 -1,-1l5 3c3,3 1,0 3,4z"/>
   <path class="fil5" d="M992 854c2,2 0,0 2,2 0,0 1,1 1,1 -1,2 4,1 -3,2l2 2 4 -2c2,4 2,1 1,4 6,-2 5,-1 6,-8 -5,8 -1,4 -6,5 2,-3 2,-3 4,-7l-3 3c-1,-8 0,-1 -2,-4l0 6c-1,0 -1,-1 -1,-1l-2 -2c0,0 0,0 -1,-1 0,0 0,0 0,-1l0 2 -2 -1z"/>
   <path class="fil7" d="M966 846c1,4 1,4 3,7 5,5 10,10 17,11 -3,-1 -3,-1 -5,-3 -3,-1 -2,0 -3,-3l5 2 -14 -14 2 4c0,1 1,1 1,1 0,0 0,1 1,1l5 6c0,-1 0,0 0,0 -5,0 -7,-5 -12,-12z"/>
   <path class="fil5" d="M1064 1585l-4 6c-3,4 -2,2 -2,8l6 1 -5 -4c0,-1 0,-3 0,-4 4,5 1,4 7,5l-3 -3c4,-1 2,1 4,-5 0,-2 1,-5 1,-7 -1,1 0,-1 -1,3 -4,10 -1,7 -6,8l3 -8z"/>
   <path class="fil5" d="M1418 1548c-6,1 -9,0 -14,-2 4,-2 1,-2 4,-1 1,0 2,1 3,1 4,1 5,1 6,-1 -10,1 -9,-1 -13,-7l-3 -3c1,1 3,5 3,5 3,6 1,2 -1,5l-5 -9c0,-1 -1,-1 -1,-1 2,4 4,8 8,11 4,4 9,6 13,2z"/>
   <path class="fil5" d="M1372 1559c1,9 8,4 5,11l-3 4c3,-2 3,1 3,-2 2,-2 2,0 2,-5l2 0c0,0 -1,-1 -1,0 -1,2 1,0 -3,-4l-1 -3c-2,-2 -1,-1 -2,-2l2 5c-2,-1 -2,0 -4,-4zm11 5l-2 -4c-4,-4 0,1 -3,-2 0,7 0,3 2,3 3,6 -4,-3 1,2l2 1zm-13 -1c2,4 -1,2 4,5l-4 3 5 -1c0,0 0,-3 -4,-6 0,0 -1,-1 -1,-1z"/>
   <path class="fil5" d="M1381 1511c-1,-3 0,-1 0,-5 -11,-1 -9,-5 -3,-10 -4,2 -2,0 -5,3 -1,5 -1,4 2,7 2,1 1,0 3,2l3 3zm11 9l-7 -13c-1,0 -1,0 -1,0 0,-1 0,-1 0,-1 -2,-4 1,-3 -5,-4 0,1 1,1 1,2l1 1c1,0 1,1 1,1l10 14zm-11 -8c2,3 0,0 2,3 0,0 0,0 0,1l2 1c0,0 1,0 1,1l-5 -6z"/>
   <path class="fil5" d="M1409 1528c3,5 8,19 16,7 0,-7 -1,-4 -2,-5 1,5 2,2 0,7l-7 1 6 -5 -6 -8c3,3 4,5 4,9l-4 -3c0,-1 -1,-1 -1,-1l2 6c-6,-2 -1,-2 -8,-8z"/>
   <path class="fil5" d="M1024 1522l1 -3 8 1 4 1 3 2 -6 0 -3 0 -3 -2 0 4 1 4 -1 3c2,0 1,0 1,-3 1,-4 1,-1 -1,-4 2,-4 -1,-2 3,-2l3 0 4 3 1 4c5,-5 0,-4 -1,-4l3 -3 3 1c-2,-3 -3,-2 -7,-3l-4 -1c-1,-1 0,-2 -3,-2 -8,-1 -4,0 -5,1l-1 3z"/>
   <path class="fil7" d="M1097 1598l1 6 -8 -2 5 4 -4 0c4,2 5,2 9,2 2,-5 2,-7 -1,-10l-1 8c0,0 -3,1 -3,1l4 -4 -2 -5z"/>
   <path class="fil5" d="M1196 756c2,-2 -1,-3 3,-1 1,0 2,2 3,3 3,4 -1,3 5,6l-1 -3c0,0 1,-1 1,0 1,3 0,0 2,1l-4 -7c0,-2 1,-2 -1,-2 0,-2 0,-2 -2,-1l-5 -2c3,2 1,1 5,2 0,2 -1,2 2,1l1 2 1 5c-6,-4 -6,-7 -9,-7 -9,-2 -1,-1 -4,1 0,1 3,2 3,2z"/>
   <path class="fil6" d="M977 1549l-3 10 0 1c3,0 2,0 5,1l0 -14 -2 2z"/>
   <path class="fil6" d="M1372 1559c2,4 2,3 4,4l-2 -5 -3 -7 -2 -2 0 -1c-3,0 -2,1 -2,-2l-1 1 6 12z"/>
   <path class="fil6" d="M1089 1558c3,-4 9,-7 6,-13 -3,4 -7,4 -6,13z"/>
   <path class="fil7" d="M1269 1566c3,4 -1,0 2,2 0,0 1,0 1,0 0,0 1,0 1,1 0,0 0,0 1,0l2 2c-1,0 -2,0 -2,0l-2 1c-2,1 1,-1 -2,1l2 3c1,-2 -2,-3 2,-1l2 -3 1 2c-2,7 -1,3 1,4l-1 -4c-1,-5 0,0 -3,-5l3 -2 0 -3 -8 2z"/>
   <path class="fil6" d="M1319 1573c3,-5 -2,-10 -5,-14 0,3 1,5 1,8 1,6 1,5 4,6z"/>
   <path class="fil6" d="M1248 806c-4,2 -3,3 -6,7l-6 2 9 1 3 -10z"/>
   <path class="fil5" d="M1060 812c1,5 0,0 0,4l11 -3 5 4c-2,-2 -2,-3 -3,-5 -1,-2 -1,-2 -2,-3 0,-2 -1,-2 -1,-3l0 5 -7 2c-5,-3 -1,4 -2,0 0,-1 -1,-1 -1,-1z"/>
   <path class="fil5" d="M1187 750c-7,2 -8,4 -11,10l5 -6c0,0 0,0 0,0l6 -4zm-7 9l-1 3 -2 3 -1 3 1 -3 2 -3 1 -3c2,-1 4,-3 6,-5 5,-1 1,-1 3,2 -2,0 -1,-1 -1,2 2,0 2,0 1,-2 3,-2 2,-1 3,-4 -6,0 -2,-2 -6,2l-5 1c0,0 0,1 0,1l-1 3z"/>
   <path class="fil4" d="M1083 1585c-1,1 -3,4 -3,6 -2,10 1,4 2,6 1,-2 4,1 1,-12z"/>
   <path class="fil5" d="M1061 1541c2,-1 1,0 3,-2 3,-2 1,-1 2,-2 -1,-4 -1,-3 -6,-4l5 3c-1,1 -1,1 -2,2 0,0 0,1 0,1 -1,0 -1,1 -1,1 0,0 -1,0 -1,1zm5 1c-3,-1 -3,-2 -2,1l-1 3 1 -3 2 -1c4,-2 2,0 3,-4 1,0 2,2 2,2 2,2 0,1 2,2l-1 6c2,-2 2,-4 1,-5 0,0 0,-1 0,-1l-1 -3c3,-7 0,-1 3,-4l5 1c-1,-1 1,-1 -3,-1 -3,-1 -1,-1 -3,0l-2 4 -3 -1c0,0 0,0 0,0 -1,6 1,-1 -2,2l-1 2z"/>
   <path class="fil4" d="M952 889c-1,0 -1,0 -1,1l-2 3c6,-3 11,-7 14,-14l-5 5c0,-8 1,-1 -2,-4l0 7c-3,2 0,1 -4,2z"/>
   <path class="fil6" d="M1064 810c4,-2 4,0 2,-6 -1,-2 -4,-5 -4,-6 0,5 0,8 2,12z"/>
   <path class="fil5" d="M1145 1564c3,-6 1,-8 -1,-12l7 1 0 1c-2,-1 -1,-1 -1,1 -3,-1 -2,-1 -1,2 2,0 1,0 1,-2 3,0 2,1 1,-1l0 -1c-1,-1 3,-1 -4,-2 -5,0 -1,-1 -4,1 3,6 2,3 2,12z"/>
   <path class="fil7" d="M1124 752l-5 1c-1,7 1,7 4,10l1 3 -1 -3 -2 -3 2 0 3 2c-1,-4 0,-2 -3,-2l0 -3 5 -2c-2,-1 -2,-2 -5,0l-1 2c-1,0 -1,0 -1,1l-1 2c0,-6 0,-6 4,-8z"/>
   <polygon class="fil0" points="1010,1527 1012,1526 1013,1523 1016,1515 1013,1514 "/>
   <polygon class="fil5" points="1215,712 1215,709 1206,709 1206,711 "/>
   <path class="fil6" d="M1430 1464c7,1 4,1 5,2l4 3 1 -1 -1 -1 -1 -2c-2,0 -2,1 -1,-1l-1 -2 -4 1 -2 1z"/>
   <path class="fil5" d="M1203 802l-2 2c0,0 0,0 0,0l-5 5c4,-2 5,-2 7,-7zm-6 11c7,-3 6,-3 9,-9l-9 9z"/>
   <path class="fil5" d="M1406 1523c-1,-3 -1,-4 -2,-8 5,4 0,-1 5,6 -1,-3 0,-1 -2,-5l-2 -3c-3,4 2,1 -3,4 0,-3 1,-2 -2,-2 2,2 2,2 3,4l3 3c0,1 0,1 0,1z"/>
   <path class="fil5" d="M1150 712c1,0 4,0 4,-1 4,-1 2,1 4,-2l-7 0c-2,1 0,-1 -1,3z"/>
  </g>
 </g>
</svg>
